<?xml version="1.0" encoding="utf-8" ?>
<svg baseProfile="full" height="300mm" version="1.1" viewBox="0,0,200,300" width="200mm" xmlns="http://www.w3.org/2000/svg" xmlns:ev="http://www.w3.org/2001/xml-events" xmlns:xlink="http://www.w3.org/1999/xlink"><defs /><rect fill="#222222" height="300" width="200" x="0" y="0" /><text fill="#FFFFFF" style="font-size:12px; font-family:Arial; font-weight:bold;" x="10" y="20">Over 5km Workouts</text><text fill="#FFFFFF" style="font-size:4px; font-family:Arial" x="10" y="280">ATHLETE</text><text fill="#FFFFFF" style="font-size:9px; font-family:Arial" x="10" y="290">Liudon</text><text fill="#FFFFFF" style="font-size:4px; font-family:Arial" x="120" y="280">STATISTICS</text><text fill="#FFFFFF" style="font-size:3px; font-family:Arial" x="120" y="285">Number: 12</text><text fill="#FFFFFF" style="font-size:3px; font-family:Arial" x="120" y="290">Weekly: 4.0</text><text fill="#FFFFFF" style="font-size:3px; font-family:Arial" x="141" y="285">Total: 85.0 km</text><text fill="#FFFFFF" style="font-size:3px; font-family:Arial" x="141" y="290">Avg: 7.1 km</text><text fill="#FFFFFF" style="font-size:3px; font-family:Arial" x="167" y="285">Min: 7.0 km</text><text fill="#FFFFFF" style="font-size:3px; font-family:Arial" x="167" y="290">Max: 7.2 km</text><polyline fill="none" points="13.015215553721646,63.076403857521655 13.0,63.2553011261989 13.015215553721646,63.31493344411865 13.152155536779901,63.69260357187886 13.357565511454595,64.40818330287584 13.570583262917353,64.94486314064852 13.760777683870401,65.58092262796708 13.80642434488982,65.67036801439099 13.836855452274904,65.7001831169764 13.912933220621198,65.73993656664243 13.95857988166972,65.72999820641417 14.049873203737661,65.80950504746579 14.171597633132478,65.84925843300152 14.49873203720199,65.76975163860334 14.871513102290919,65.66042964396183 15.39644970415975,65.46166192901728 15.670329670334468,65.31258576005348 16.286559594242135,64.95480161605519 16.956043956044596,64.62683115743857 18.500422654266004,63.79199009767035 18.972104818269145,63.593216900313564 19.398140321223764,63.32487215868605 19.869822485226905,63.06646510650171 22.053254437894793,61.94337685067876 22.114116652606754,61.93343793344684 22.190194420982152,61.99307141503232 22.26627218935755,62.09246043434541 22.37278106508893,62.291238035475544 22.562975486041978,62.69873029424343 22.79120879122638,63.09628135512321 23.05748098055483,63.46401400924515 23.612848689808743,64.43799896095152 24.08453085378278,65.13369392427558 24.251901944197016,65.44178512541839 24.56382079460309,66.06790163640835 24.61707523246878,66.15734637990681 24.7387996618927,66.17722297352884 24.80726965345093,66.15734637990681 24.845308537624078,66.197099561301 24.95942519023083,66.27660585415288 25.11158072698163,66.26666757262865 25.393068470002618,66.15734637990681 25.849535080313217,65.8591967757311 27.54606931534363,64.85541679630842 28.253592561319238,64.44793751071848 28.80896027048584,64.15971897514828 29.448013524961425,63.76217415522842 29.82079459002125,63.543523509812076 30.01859678782057,63.44413661951694 30.27726120033185,63.265239849504724 30.764158918027533,62.887567339079396 31.821639898553258,61.85392654299358 32.01944209635258,61.69490348214458 32.36179205411463,61.47624616386747 32.53677092137514,61.31722221636301 32.88672865598346,60.959416969446465 33.12256973798503,60.59167071838601 33.2823330515821,60.38294898509048 33.49535080304486,60.174226608578465 33.883347421797225,59.836293778265826 35.06255283180508,58.653515595149656 35.275570583267836,58.504424442398886 35.52662721896195,58.385151283939194 35.884192730358336,58.255938458576566 36.393913778534625,58.096906950529956 36.857988165691495,57.98757257214311 37.48182586644543,57.917996057643904 37.945900253602304,57.82854043399857 38.54691462387564,57.659568378076074 38.988165680493694,57.51047503747395 40.0,57.212287371759885 41.30853761624894,56.92403804704372 42.41927303469856,56.64572719021817 43.97886728658341,56.297837010992225 44.709213863068726,56.09904182057653 45.4775993237854,55.959884840129234 46.116652578202775,55.790908122340625 46.124260355049046,55.761088657789514 47.3262890955084,55.482773022282345 47.858833474252606,55.38337430384854 48.277261200360954,55.22433605093829 48.97717666949029,55.10505711619771 49.76838546071667,54.91619837321923 50.72696534238639,54.72733910364332 52.43110735420487,54.289978773165785 53.04733727814164,54.18063824928686 53.69399830940529,54.011657092385576 54.424344885890605,53.852615618452546 54.89602704986464,53.753214507545636 55.13186813189532,53.72339414583985 55.45139475908945,53.73333426786121 56.151310228247894,53.84267551391531 56.91208791208919,54.130937952802924 57.84023668640293,54.5185992982224 58.25105663569411,54.62793927653547 58.3803888419352,54.67763920831203 58.66187658498529,54.80685886028368 59.0650887574011,55.03547764059476 59.384615384595236,55.15475669787702 59.72696534235729,55.25415575179068 60.23668639053358,55.32373500275571 60.51817413355457,55.34361477562197 60.814877430238994,55.32373500275571 62.39729501269176,55.14481678444281 63.074387151311385,55.00565784343053 64.81656804733211,54.80685886028368 66.73372781064245,54.61799928580149 66.84023668640293,54.61799928580149 67.0,54.647819253616035" stroke="#4dd2ff" stroke-linecap="round" stroke-linejoin="round" stroke-width="0.5"><title>2024-09-23 7.1km</title><desc>12484262436</desc></polyline><polyline fill="none" points="127.0,54.607981185326935 126.84052875824273,54.64766859780502 126.71902685976238,54.727043352912006 126.67346364786499,54.717121513596794 126.53677401205641,54.63774674687011 126.47602306283079,54.62782489446545 125.32934889604803,54.717121513596794 124.47124173812335,54.796496187169396 124.03839122483623,54.85602713116532 123.39291238921578,54.905636211129604 122.67908873572014,55.0147760589025 121.95007734492538,55.074306810704 120.70468288564007,55.29258578543522 120.21108142312733,55.36203803867829 119.96807762619574,55.371959783333295 119.6263535367325,55.33227279603307 119.56560258750687,55.34219454506092 118.8821544086677,55.1040721669342 118.56321192518226,54.965167059031955 118.36577134017716,54.84610531080398 118.08479819993954,54.70719967287005 116.00407818873646,53.85391592108499 115.71551117984927,53.764618161774706 115.44213190831942,53.70508625667571 115.1839403740887,53.6852422766533 114.76627759807161,53.69516426741757 114.53086766981869,53.73485221575538 113.25509773587692,54.01266720203421 112.49571087048389,54.151574267023534 111.56925889468403,54.40954377336311 110.69596399943111,54.607981185326935 109.53410209532012,54.83618348899472 108.7974968359049,55.044541441347974 107.4381943467888,55.30250754028384 107.05090704539907,55.41164674735046 106.67880748133757,55.47117714968772 105.21319083109847,55.86804515890253 104.59808747010538,55.98710510733508 103.20840950639104,56.35420529519615 102.42624103502021,56.503029127830814 101.61369708902203,56.721303489735874 101.15047110110754,56.82051887582202 100.91506117285462,56.89989107986912 100.47461679088883,56.989184698024474 98.96343692869414,57.36620089671487 97.68766699481057,57.61423672294768 96.24483195052017,58.02101350812154 95.18169033894083,58.20951899330976 94.95387427927926,58.29881088181719 94.78680916890153,58.41786654968746 94.60455632116646,58.576607114082435 94.54380537194083,58.63613472964062 94.51342989734258,58.69566229279735 94.42989734211005,58.804796022421215 94.14892420193064,59.11235376729019 93.76923076924868,59.449673556191556 93.55660244694445,59.6282539395761 93.41991281113587,59.82667603459413 93.13134580224869,60.11438703801832 92.9111236112949,60.26320259387285 92.85037266204017,60.36241278247326 92.79721558149322,60.43185982786963 92.25045703840442,60.93782900564838 92.07579805934802,61.11640545853879 91.86316973704379,61.38426925349631 91.50625791028142,61.73149851940252 91.17972155814641,62.019201417475415 91.0734073969943,62.08864676118537 90.8759668119892,62.15809203356184 90.69371396428323,62.27714090599329 90.58739980313112,62.465634525324276 90.49627337927814,62.68388963864709 90.45830403600121,62.7434136381853 90.35958374349866,62.88230276668037 90.08620447193971,63.130318357929355 89.29644213191932,63.666028930441826 88.43833497396554,64.18189435926615 87.86879482495715,64.46958683127014 85.90198284346843,65.65010519308271 84.70215159610962,66.31475772333943 84.63380677823443,66.31475772333943 84.52749261708232,66.19571595937305 84.30727042609942,65.76914791754825 84.06426662916783,65.35249746499176 83.29728589512524,64.09261023976433 82.5606806356518,62.82277888940007 82.37083391932538,62.475555227581935 82.2113626775681,62.11840902952099 81.99873435526388,61.800944158596394 81.89242019411176,61.85054814296018 81.71776121505536,61.979518331892905 81.52791449867073,62.108488274861884 80.12304879765725,62.75333429968305 79.59147799186758,63.06087408406893 79.46238222473767,63.17000076813565 78.17901842217543,63.874359673536674 77.32850513287121,64.30093966854474 75.5591337364749,65.24337430316518 75.08831387991086,65.46162045068922 74.42764730699128,65.74930747802136 73.90367036985117,65.92787122422305 73.84291942062555,65.93779141850246 73.73660525947344,65.88819043245894 73.71382365349564,65.83858941005019 73.59991562372306,65.47154071342084 73.25059766561026,64.56879084814136 73.14428350445814,64.19181480970292 73.0,63.80491616382642 73.0,63.76523412624374" stroke="#4dd2ff" stroke-linecap="round" stroke-linejoin="round" stroke-width="0.5"><title>2024-09-23 7.1km</title><desc>12480412433</desc></polyline><polyline fill="none" points="133.0,63.255758011946455 133.1217415809515,63.65336193946132 133.18261237142724,64.06090354357002 133.21304776665056,64.18018354933156 133.35761589405593,64.39886301445222 133.4641397773812,64.6274817005833 133.54783711428172,64.86603950712743 133.73044948567986,65.47237015152496 133.87501761308522,65.80038282858004 133.92067070593475,65.84014183303225 134.0500211357139,65.89978029597842 134.1185007749591,65.88984055579203 134.8793856559496,65.66122612921026 135.25221924757352,65.52206914405542 135.43483161900076,65.43261093123874 138.12075524870306,64.01120347920369 138.62293927010614,63.762702610489214 139.17838523321552,63.544021092006005 139.74144004509435,63.1762369464268 140.63928420460434,62.659347745458945 141.08059743553167,62.43072241792106 141.6588699450367,62.162335179396905 142.0393123854883,61.9535888143655 142.1458362688718,61.9337081746271 142.25236015216797,62.05299192556413 142.49584331404185,62.56988575268042 142.87628575455165,63.20605735693971 143.05128927718033,63.4545602673752 143.1958574045275,63.71300232734211 143.43934056645958,64.09072356471734 143.7436945187801,64.53802230658766 143.96435113431653,64.94555858930107 144.1089192616637,65.14435588644847 144.42088206284097,65.6910454459794 144.61871213189443,66.09857479335915 144.71762716642115,66.14827332655841 144.8469775961712,66.14827332655841 144.93828378187027,66.23773059445375 145.1208961533266,66.24767028360657 145.34155276877573,66.15821302880795 145.7600394533074,65.92959950777004 148.17965337468195,64.50820248231321 148.3774834437063,64.38892305405898 148.6514020008326,64.26964341582061 150.0970832746243,63.42473996626359 150.48513456390356,63.13647637866961 150.8579681555857,62.818390996573726 151.17753980556154,62.49036388209788 151.36015217698878,62.331319860968506 152.01451317459578,61.69514004270604 152.15147245314438,61.5857960348294 152.440608707926,61.396928696427494 152.54713259125128,61.29752462262695 153.01888121740194,60.76074010373122 153.08736085670535,60.66133509647625 153.15584049600875,60.522167841256305 153.2851909257588,60.38300030017126 153.48302099481225,60.204070184379816 153.90150767931482,59.86608978737058 154.35803860786837,59.4088195075019 154.70804565306753,59.0310721656424 155.02761730307247,58.722908300405834 155.3319712554803,58.51415133714181 155.5754544173542,58.3849205137376 155.9178526137839,58.24574858201959 156.53416936733993,58.066812821125495 157.0363533887721,57.947522051290434 157.75919402568252,57.84811291594815 157.91897985062678,57.788467364705866 158.32224883753224,57.69899893940601 158.87008595181396,57.53000270254415 159.27335493871942,57.44053393587819 159.6233619839477,57.33118306059623 160.8788220375136,57.03295250357769 161.45709454698954,56.86395460510539 163.01690855290508,56.545839770144084 163.74735803861404,56.33707609783596 164.3408482457453,56.22772344128316 164.97238269692753,56.068664716614876 165.36043398617767,55.98913521425129 165.7332675778598,55.88972320499306 166.10610116954194,55.810193492507096 166.5626320980955,55.67101627102238 168.31266732423683,55.28330678904604 168.83767789209378,55.144128484978864 170.98337325631292,54.6768849442451 171.59969000989804,54.49793975595094 172.1399182753521,54.3985255582229 172.55840495982557,54.30905265547335 172.9997181908111,54.23946253834583 173.81386501336237,54.02075027611863 174.4834437086538,53.86168636912771 175.07693391572684,53.76227123755962 175.38128786810557,53.75232971639343 175.71607721576584,53.77221275729971 175.98999577286304,53.81197882159904 176.16499929549173,53.86168636912771 176.5454417359433,54.01080879288202 177.48133013947518,54.3985255582229 178.0443849513831,54.657002168911276 178.84331407636637,54.94530184030009 179.41397773707286,55.193835054989904 179.9085529097356,55.303189380567346 180.46399887278676,55.36283712009754 180.7303085811145,55.352895833835646 181.85641820484307,55.21371767277742 182.2292517965252,55.193835054989904 182.86078624773654,55.064597897166095 183.27166408344056,55.0248325682187 183.8651542905718,54.94530184030009 184.9151754262566,54.8558296598203 185.4173594476306,54.78624010439671 186.7260814428737,54.63711938770575 186.84021417502663,54.63711938770575 187.0,54.66694355729851" stroke="#4dd2ff" stroke-linecap="round" stroke-linejoin="round" stroke-width="0.5"><title>2024-09-20 7.1km</title><desc>12458958082</desc></polyline><polyline fill="none" points="67.0,114.76522519352147 66.95425021179835,114.77518765287823 66.9695001411892,114.6954879371915 66.94662524710293,114.64567556737165 66.84750070600421,114.60582564519427 66.61875176502508,114.58590067533078 66.35187800056883,114.58590067533078 66.19937870654394,114.6157881279214 65.78763061278732,114.74530027044239 65.05563400167739,114.82499992765952 64.55238633151748,114.83496237821237 64.14063823776087,114.79511256718251 63.866139508609194,114.80507502212276 63.63739056760096,114.85488727497432 63.286642191465944,114.89473705094133 63.01976842698059,114.95451167102874 62.31064670998603,115.03421108257317 62.036147980805254,115.14379762067983 61.883648686809465,115.18364722705155 61.449025698937476,115.22349681000924 61.18977689917665,115.26334636958927 60.58740468794713,115.2832711405863 60.03840722958557,115.26334636958927 59.86303304150351,115.27330875582265 59.832533182692714,115.2832711405863 59.824908218026394,115.31315828615334 59.42841005366063,115.21353441644897 59.19203614798607,115.13383521544165 58.5744140073366,114.80507502212276 57.30866986725596,114.28702542562678 57.194295396795496,114.23721275603748 57.1027958203922,114.16747495724849 56.97317142051179,114.0877745280668 56.29454956226982,113.79885968773306 55.88280146851321,113.71915882570465 55.58542784524616,113.67930835964216 55.19655464560492,113.65938311781065 54.822931375325425,113.67930835964216 54.39593335214886,113.74904665994836 53.930810505495174,113.86859786522837 53.404687941248994,113.94829855177522 52.848065518192016,114.0877745280668 52.329567918670364,114.24717529289774 51.681445919239195,114.3667256208646 51.00282406102633,114.53608822510432 50.29370234394446,114.67556299364514 48.867833945230814,115.03421108257317 48.509460604342166,115.07406075325707 48.33408641626011,115.10394799092319 48.16633719287347,115.16372242677608 47.28184128776775,115.3928572766381 47.11409206438111,115.46259381654818 46.915842982183676,115.52236793657357 46.42784524144372,115.60206668144383 46.29059587686788,115.64191601876519 46.26772098278161,115.63195368662855 46.20672126518912,115.63195368662855 45.98559728890541,115.7016899809023 45.207850889564725,115.88101155153709 44.61310364305973,116.04040810552397 44.07935611408902,116.13006850267266 43.7591075967357,116.24961551467277 43.4464840440487,116.28946447185444 43.09573566788458,116.38908676254505 42.88986162102083,116.40901120311901 42.77548715050216,116.4388978530551 42.65348771534627,116.42893563789403 42.592487997724675,116.44886006679008 42.35611409205012,116.55844432118465 42.188364868663484,116.5883309053097 42.012990680581424,116.59829309708584 41.49449308103067,116.70787711026787 41.1284947754757,116.817460946535 40.922620728611946,116.89715817091201 40.3126235526579,117.0864387037509 39.86275063539506,117.17609771931893 39.34425303587341,117.34545331454865 38.5893815306481,117.44507405553304 38.29200790738105,117.53473259743623 37.86500988420448,117.6044669370458 37.34651228465373,117.7638594443415 36.75939000281505,117.89336558092327 36.195142615091754,118.0627193867549 35.55464558035601,118.3117683337332 35.226772098307265,118.54089255799045 34.25077661674004,119.14856610326387 33.991527816979215,119.3378403588431 33.47303021742846,119.88573654503853 33.20615645297221,120.14474047562544 32.99265744141303,120.31408866521815 32.817283253301866,120.5133212886285 32.48940977122402,120.81216912747186 32.26066083027399,121.06120798826305 32.13103643039358,121.19070783484494 31.925162383471616,121.43974530706328 31.2922903134604,122.03743151328672 30.95679186671623,122.31634994214983 30.85004236092209,122.4358860609209 30.583168596436735,122.83433827004046 30.453544196556322,122.97379599077249 30.31629483195138,123.0833697132548 28.54730302176904,124.16913613249926 28.39480372777325,124.2787079258269 27.525557752058376,124.75683731831668 25.931940129899886,125.69316429211176 25.19994351878995,126.09159738587914 24.864445071987575,126.30077382416493 24.74244563683169,126.34061688218935 24.60519627222675,126.23104841634631 24.574696413474157,126.17128372407751 24.376447331276722,125.81269446574879 24.094323637371417,125.36445522962458 23.591075967240613,124.46796787962376 22.729454956250265,123.02360225021403 22.050833098008297,121.77843480328738 21.66958486303338,122.05735429620836 21.440835922054248,122.18685224267392 19.908218017488252,122.98375724559446 19.618469358916627,123.12321465941932 18.131601242581382,123.94999201528117 17.132730866986094,124.45800684259302 15.927986444497947,125.14531497050484 14.80711663371767,125.69316429211176 14.45636825755355,125.80273362597654 13.96837051678449,125.92226360670611 13.838746116904076,125.94218524973257 13.800621293397853,125.92226360670611 13.731996611109935,125.82265530405857 13.57949731714325,125.36445522962458 13.373623270250391,124.84648620460212 13.304998587962473,124.59746122826618 13.0,123.78065289482765 13.007624964724528,123.79061403123342" stroke="#4dd2ff" stroke-linecap="round" stroke-linejoin="round" stroke-width="0.5"><title>2024-09-20 7.0km</title><desc>12455295877</desc></polyline><polyline fill="none" points="73.0,123.2786415749215 73.0227784027229,123.50678239658009 73.16704161980306,123.9134662997094 73.21259842521977,124.21103833749657 73.56186726660235,124.97480057297798 73.66816647918313,125.31204348940082 73.71372328459984,125.56993399634666 73.83520809898619,125.85757993973675 73.91113610798493,125.97660548938438 73.99465691790101,126.06587451414089 74.10854893137002,126.05595573941537 75.08042744660634,125.76831064001453 75.40691788526601,125.6393658878369 76.41676040497259,125.05415199874551 77.20641169854207,124.66731291832548 78.44403824521578,124.01265712448367 79.08183352084598,123.71508421355247 79.45388076489326,123.48694409479504 80.56242969629238,122.88187309486239 82.02024746907409,122.14784526807489 82.11136107990751,122.07840979077446 82.23284589426476,121.8899417071807 82.58970753659378,121.75107015148387 83.41732283463352,121.26501746006397 83.81974128237925,121.15590311028791 84.19938132734387,120.83847854584019 84.53346456694999,120.62024829326401 85.41422947132378,120.08458923192666 85.90776152981562,119.80683841803693 86.31017997750314,119.62828372078366 86.43925759283593,119.53900619530759 86.65944881891483,119.35053103211976 86.97834645671537,119.112456390656 87.61614173228736,118.68590389451856 88.1324521934439,118.36846773203433 88.62598425196484,118.09070986709412 89.3245219347591,117.73359093516046 89.7193475815584,117.5550307616868 89.82564679413917,117.5451107382396 89.85601799775031,117.5649507837079 89.93194600674906,117.65423091631965 90.12176602924592,118.0113502674576 90.2508436445205,118.19982916443405 90.54696287965635,118.55694563331781 91.1771653543401,119.37037054773828 91.98200224971515,120.68968526821845 92.11867266590707,120.92775435522344 92.19460067493492,121.07654710893257 92.37682789654355,121.35429270620807 92.45275590554229,121.52292340497661 92.5894263217051,121.37413163375459 93.14370078739012,120.6698461397973 93.32592800899874,120.50121331309492 93.7131608549098,120.22346421092516 93.84983127107262,120.07466957963334 94.18391451070784,119.68780200561014 94.89004499436123,118.95373949722853 95.03430821147049,118.85454124960961 95.20894263219088,118.74542300905159 95.72525309337652,118.4875064676744 96.66676040494349,118.18990923559613 97.39566929131979,118.07086997591978 97.82086614173022,117.93199057470338 98.23847019122331,117.85263078876596 98.77755905516096,117.71375093918323 99.19516310459585,117.63439089702297 99.84055118108517,117.44591042353568 100.53149606302031,117.2971096784895 101.29836895389599,117.08878808517329 101.80708661416429,116.98958710081206 102.3613610798784,116.80110482942109 102.72581552306656,116.65230266499566 103.12064116986585,116.52334052421793 103.35601799775031,116.49357999523636 103.89510686162976,116.4638194531799 104.54049493811908,116.33485695279523 104.98087739033508,116.26541550453112 105.51237345329719,116.09677169031784 106.08183352081687,115.9777287445977 106.45388076492236,115.86860586023977 106.87148481441545,115.79916393300664 107.16001124857576,115.70988135030348 107.77502812151215,115.5709970983662 108.28374578175135,115.3924312122981 108.85320584927103,115.30314809236734 109.24043869515299,115.1940241189659 109.66563554556342,115.11466111856862 110.12879640044412,114.9956164432806 111.10067491562222,114.80712861193751 112.11811023621703,114.52935611303838 112.49015748032252,114.50951517657813 112.91535433070385,114.38054894763627 114.06186726657324,114.14245680158638 114.43391451067873,114.04325149323267 114.9122609673941,113.97380769075971 115.26912260966492,113.93412548585911 115.47412823396735,113.94404603925068 115.95247469068272,114.03333095439302 116.43841394825722,114.20197991672467 116.75731158605777,114.30118499214586 117.72159730031854,114.75752646371984 118.8149606299412,115.16426300475723 119.3236782902095,115.40235155165283 119.84758155231248,115.51147518874495 120.48537682794267,115.5709970983662 120.70556805396336,115.56107678374246 120.90298087737756,115.53131583111099 121.36614173228736,115.41227188957419 121.55596175478422,115.38251087144454 122.11023622046923,115.37259052916488 122.33802024746547,115.35274984022544 123.21878515186836,115.1940241189659 123.94010123735643,115.12458149870508 124.43363329584827,115.04521841678798 125.19291338583571,114.98569604419026 126.13442069743178,114.88649197341147 126.57480314961867,114.82696946104261 126.70388076489326,114.80712861193751 126.81777277842048,114.72776515730948 126.86332958380808,114.67816295081138 126.93166479188949,114.53927657906752 126.96962879641796,114.49959470616159 127.0,114.50951517657813 126.99240719911177,114.51943564551766" stroke="#4dd2ff" stroke-linecap="round" stroke-linejoin="round" stroke-width="0.5"><title>2024-09-19 7.0km</title><desc>12450830462</desc></polyline><polyline fill="none" points="187.0,114.79932381310209 186.697563707683,114.80920257918478 186.485858303,114.82896010702098 186.42537104451912,114.7400511861124 186.34976197147625,114.6807785069177 186.2892747129663,114.670899721983 186.0851302156516,114.66102093558584 185.5029403528606,114.69065729041176 183.84710165220895,114.84871762905095 182.28199383927858,115.02653506638308 181.85102212266065,115.06604998865805 181.0042005040741,115.23398814957181 180.06664799776627,115.35253248145455 179.74152898348984,115.36241116634483 179.27275273032137,115.322896418038 178.82665919914143,115.19447332584969 178.47129655559547,115.03641379914188 178.03276393169654,114.80920257918478 177.62447493700893,114.62150577554712 175.96863623632817,113.93986561315978 175.54522542704944,113.80156096972496 175.3032763931842,113.74228746410517 175.0915709885303,113.722529617291 174.66816017922247,113.71265069173387 174.486698403809,113.74228746410517 173.103052366263,114.0287755910249 172.5057406888809,114.13744318226964 172.05964715767186,114.26586829118605 171.22794735370553,114.44368726824905 170.64575749091455,114.61162698189582 169.26967236067867,114.90799016036908 168.84626155139995,115.0166563321618 167.88602632313268,115.2241094458077 167.51554186502472,115.322896418038 166.23774852984934,115.57974186736828 165.5875105012674,115.73780011828057 164.5894707365078,115.99464398447162 164.02240268833702,116.12306555005489 163.14533744048094,116.33051525380142 162.63875665082014,116.42930060229992 161.72388686644263,116.67626333935186 160.92999159899773,116.83431901552103 159.82609913192573,117.1207939827218 159.13049565951223,117.27884861514758 158.04928591434145,117.54556496583245 157.6107532903843,117.61471347683255 156.83954074489884,117.83203690618393 155.64491739010555,118.09875106501568 155.17614113693708,118.22716861647496 154.97199663962238,118.29631642734603 154.78297395686968,118.41485536639811 154.4956594791438,118.651932618297 153.67908148979768,119.41254983162071 152.9985998319753,120.14352450971637 152.83982077849214,120.24230426284339 152.66591991038877,120.45961920956324 151.65275833103806,121.49679451851262 151.07056846821797,122.02031503459875 150.8059367124224,122.18823584723577 150.66984038086957,122.2870126001726 150.57154858586728,122.39566686099715 150.53374404931674,122.44505510343151 150.37496499580448,122.7710165946919 150.31447773735272,122.859914909277 150.26155138618196,122.92905796170817 150.1027723326988,123.06734385354503 149.37692523101578,123.53158727007394 147.62279473536182,124.56871525318275 146.85914309718646,125.04282558137493 145.5964715766313,125.75398481365846 144.85550266032806,126.20833261272492 144.75721086535486,126.25771805831027 144.65135816298425,126.28734930826613 144.52282273871242,126.20833261272492 144.4094091290899,126.03054470869392 144.25819098294596,125.75398481365846 143.26771212549647,124.09460158621368 142.82161859425833,123.37354731746746 142.53430411653244,122.82040456173854 142.11845421450562,122.05982585173479 141.92943153181113,121.77337190217804 141.81601792215952,121.82276060114236 141.67236068332568,121.96104876542813 141.47577709326288,122.09933664564596 140.4928591430944,122.54383147956105 139.94847381685395,122.88954765474773 139.51750210029422,123.10685405619006 139.38140576871228,123.19575192731281 139.1016521982674,123.3340372713501 138.8067768132605,123.50195480723778 138.14897787733935,123.83778862251347 136.31923830861342,124.82552542871417 135.6916830019618,125.18110713151691 135.62363483617082,125.24037056606903 135.5858302996494,125.33914284108323 135.53290394850774,125.37865171048907 135.42705124613713,125.43791497115308 135.35144217306515,125.47742378262774 134.6936432372022,125.63545879661979 133.8921870624763,125.89226490319561 133.83169980399543,125.89226490319561 133.72584710165393,125.83300204245461 133.56706804819987,125.34902006060292 133.25707084851456,124.54896058371378 133.15121814617305,124.19337554216327 133.0,123.77852395331138" stroke="#4dd2ff" stroke-linecap="round" stroke-linejoin="round" stroke-width="0.5"><title>2024-09-19 7.1km</title><desc>12446825930</desc></polyline><polyline fill="none" points="13.0,183.4447304860514 13.045588856068207,183.63332690154493 13.27353313632193,184.35792929177842 13.440692275209585,184.72519055346493 13.547066272672964,185.00311666954804 13.721823554194998,185.5688913067279 13.835795694350963,185.85673974487872 13.904178978467826,185.9758490851891 13.949767834536033,186.00562638750125 14.07133811735548,186.06518095283536 14.139721401414135,186.0552551955916 14.990713381179376,185.7872591995183 15.249050232145237,185.6780753412022 15.85690164627158,185.38030028667708 18.318699873343576,184.0700744768401 19.25327142252354,183.61347467204178 19.906711692688987,183.22635503239871 20.757703672425123,182.76974953329773 21.3959476572345,182.46203539353883 22.041789784736466,182.12454085675563 22.581257914745947,181.75726547720114 23.363866610394325,181.37013521599874 24.473195441096323,180.665353924589 25.096243140578736,180.30799722507072 25.66610384127125,179.95063863781252 26.22836639932939,179.62305827451928 27.10215280711418,179.13664814209187 27.31490080204094,178.98774638193572 27.80118193331873,178.60060027170402 28.181089067133144,178.36235541028145 28.73575348246959,178.06454815356847 29.624736175581347,177.62776180553192 29.80709159982507,177.56819981227454 29.852680455864174,177.58805381584534 29.943858168029692,177.6773967598565 30.149008020263864,178.08440201149642 30.30097087379545,178.3226478518045 30.810046433121897,178.89840516853292 31.144364710839,179.31532982164208 31.326720135082724,179.59327816287987 31.78260869567748,180.39733657691977 31.99535669060424,180.73483973027032 32.17011397215538,181.05248821886198 32.45884339380427,181.50910530825058 32.59560996200889,181.37013521599874 33.08948923597927,180.75469280448306 33.264246517501306,180.55616179997742 33.86449978893506,180.06975837666687 34.03165892782272,179.90100535140664 34.34318277754937,179.52379118460522 34.88265090758796,178.97781958628912 35.1485859012173,178.76935654085537 35.330941325461026,178.66016135593236 35.94639088222175,178.42191670430475 36.865766146045644,178.15389046826022 37.73195441113785,177.99505960505485 38.37779653861071,177.85608229380887 39.66188265092205,177.47885672409757 41.25749261290184,177.12148319125845 42.473195441125426,176.823670471691 43.08864499788615,176.70454501674976 43.46095398903708,176.59534649872512 44.19797382858815,176.43651197609142 44.79822710005101,176.27767708045576 45.40607851417735,176.16847787339066 47.11566061631311,175.72175200874335 48.323765301815,175.44378775955556 49.07598142675124,175.21545912896545 50.47403967921855,174.9573475750003 52.19121992404689,174.56025095339282 52.472351203032304,174.48083134935587 53.07260447446606,174.38155671313143 54.630223723099334,174.0142392923226 55.0329252849333,173.94474658291438 55.260869565216126,173.93481904716464 55.72435626847437,173.97452918139606 56.01308569018147,174.03409433901834 56.99324609542964,174.3914841833248 57.80624736176105,174.75879955559503 59.287885183643084,175.35444186545647 59.455044322501635,175.4040784878598 59.88813845504774,175.49342431639525 60.38201772898901,175.55298813653644 60.64035458001308,175.55298813653644 61.628113127924735,175.44378775955556 62.13718868722208,175.37429651880666 63.42127479950432,175.1658223681443 64.24187420852832,175.08640347509936 66.91642043055617,174.77865438376466 66.94681300126831,174.58010583984287 66.96960742931697,174.5106137117691 67.0,174.50068625908898" stroke="#4dd2ff" stroke-linecap="round" stroke-linejoin="round" stroke-width="0.5"><title>2024-09-18 7.0km</title><desc>12442293676</desc></polyline><polyline fill="none" points="127.0,174.696728322735 126.90843577784835,174.61697223954252 126.78635014838073,174.5870636841937 125.03899957609246,174.73660632918472 124.28359474355238,174.8163622719003 123.49003815173637,174.87617916747695 122.89487070793984,174.98584333923645 122.34548537517549,175.02572117598902 121.89529461634811,175.1254156654395 120.59813480285811,175.3148347923052 120.21661721068085,175.3148347923052 119.86562102584867,175.26498770488251 119.39253921154886,175.1254156654395 119.06443408224732,174.98584333923645 118.78211106403614,174.8163622719003 118.43111487920396,174.6568502928203 117.75964391688467,174.4076120756581 116.60746078848024,173.8991632770194 116.25646460364806,173.7695580725849 116.04281475202879,173.70974020251015 115.82153454853687,173.66986159320368 115.35608308608062,173.63995262085518 115.15006358627579,173.64992227979383 114.35650699451799,173.79946698784624 113.87579482831643,173.91910251728405 113.18143281049561,174.01879863084469 112.89147944047,174.0885858232723 112.44128868167172,174.22815999307932 111.17465027558501,174.52724653404584 110.55659177617054,174.62694175507932 110.0606189063401,174.77648431224952 109.14497668505646,174.99581280064012 108.61848240779364,175.0855378872293 107.34421364986338,175.37465124896698 106.80245866894256,175.47434522631374 106.53539635438938,175.54413092340837 106.52776600254583,175.54413092340837 106.52776600254583,175.57403905737738 106.26070368805085,175.65379401687096 105.68842729972675,175.75348758456676 104.98643493006239,175.95287428102165 104.32259431961575,176.08247531989036 103.59771089444985,176.2718917781167 103.29249682070804,176.36161517923756 102.24713861805503,176.60087700288568 101.98007630350185,176.69059996948636 101.62144976688433,176.75041521470848 100.97286986015388,176.91989145684784 100.46163628654904,177.0096140021269 98.57693938107695,177.4881322421861 97.90546841881587,177.58782311790856 97.59262399323052,177.6974829122846 97.18821534549352,177.80714252963662 95.46375582876499,178.2258412584997 95.22721492158598,178.33550002299307 94.83043662569253,178.64453740684985 94.49470114457654,178.99344889257918 93.94531581178308,179.48192196211312 93.33488766429946,180.11992231446493 93.21280203477363,180.20964063350402 93.0373039424012,180.40901425159973 92.785502331506,180.63829318906937 92.57185247988673,180.86757135276275 92.37346333192545,181.04700589769345 92.03009749893681,181.4357791191942 91.6562102586031,181.77470780484873 91.39677829589345,182.0338874236113 91.10682492580963,182.25319248260348 90.96184824081138,182.38278150290716 90.832132259442,182.5323069884107 90.6108520559792,182.87123020389845 90.3590504451422,183.11046910277946 90.06909707505838,183.30983420833945 88.52776600257494,184.23687426442484 87.92496820687666,184.5658209212852 86.19287833827548,185.6024908761683 85.63586265369668,185.88159162312513 85.1017380245903,186.20056250148627 84.9491309877194,186.33014399310196 84.89571852478548,186.36004737914482 84.84230606190977,186.35007958526694 84.80415430269204,186.33014399310196 84.73548113607103,186.25040156595787 84.46841882157605,185.7918807937749 84.23187791436794,185.3333569272727 82.9270877490635,183.15034217070206 82.39296311998623,182.2133188881562 82.31665960155078,182.0538242764087 82.33192030523787,182.0538242764087 82.17931326836697,181.78467627000646 82.10300974990241,181.82455011599086 81.90462060194113,181.99401370045234 81.78253497247351,182.07376112332713 81.37049597289297,182.27312927103048 80.92793556590914,182.51237027602474 79.7757524374756,183.10050083214446 79.16532428999199,183.44938943415036 78.78380669778562,183.63878535353433 77.96735905046808,184.09732065614662 77.3645612547698,184.39636375148984 76.18948707080563,185.03431795593497 75.70114455278963,185.2536133302783 75.3577787198301,185.44300422032393 75.105977108964,185.56261924733553 74.39635438745609,185.8217844167375 74.01483679524972,185.95136663071025 73.93853327681427,185.94139877688576 73.892751165753,185.911495206572 73.86986011025147,185.871623759027 73.73251377703855,185.45297214729362 73.34336583298864,184.40633183201135 73.26706231455319,184.16709749611618 73.14497668505646,183.83814890883514 73.12971598136937,183.77833990366344 73.13734633318381,183.77833990366344 73.09919457396609,183.7683717309992 73.03052140740328,183.7982762445463 73.03815175924683,183.75840355691616 73.0,183.7185308458429 73.12208562952583,183.88798970625066" stroke="#4dd2ff" stroke-linecap="round" stroke-linejoin="round" stroke-width="0.5"><title>2024-09-18 7.1km</title><desc>12438003381</desc></polyline><polyline fill="none" points="133.12212014140096,183.5500480785995 133.06106007070048,183.58993213716894 133.0,183.57996112472756 133.0,183.58993213716894 133.06106007070048,183.7494681373646 133.08395759720588,183.84917794733337 133.16028268553782,184.0585680720542 133.25187279155944,184.3576957025507 133.34346289755194,184.5072590241034 133.40452296825242,184.7565304952368 133.54190812725574,185.06562584972562 133.63349823321914,185.3946612952859 133.7556183746201,185.71372444848384 133.79378091875697,185.7735486229285 133.79378091875697,185.86328478586802 133.8014134276018,185.85331410695653 133.83957597176777,185.84334342658258 133.83194346292294,185.87325546334614 133.8472084806126,185.9330794973721 133.90826855125488,186.05272740749933 133.96169611313962,186.09260999738763 134.0227561837819,186.09260999738763 134.4272791519761,185.95302083037677 134.70968197882758,185.88322613935452 135.24395759718027,185.663870929493 135.57215547704254,185.49436869154306 135.74770318024093,185.3747197984776 135.94614840991562,185.28498299043713 136.22091872795136,185.0955382287866 136.28197879862273,185.0955382287866 136.33540636044927,185.045684256409 136.50332155477372,184.95594701388472 136.73992932864348,184.86620965290786 136.8544169611705,184.80638467975223 136.93074204953155,184.78644301036547 137.44212014134973,184.5072590241034 137.49554770323448,184.46737550386752 137.922968197905,184.26795755163766 138.26643109545694,184.0585680720542 138.4572438162868,183.97880048157822 138.525936395803,183.91897472724668 138.60226148413494,183.90900376306672 139.31971731453086,183.5400770602937 139.3731448763574,183.4702798912549 139.51053003536072,183.4303957624652 139.7318727915408,183.30077218223596 139.89978798592347,183.23097476741532 140.28141342761228,183.03155318718927 140.5332862191135,182.86204438390996 140.64014134276658,182.8221598981545 140.83858657247038,182.70250630048395 141.07519434631104,182.59282365086983 141.3804946996679,182.41334256970003 141.48734982332098,182.38342901005672 141.99872791522648,182.12417760847893 142.0063604240422,182.11420638098934 141.99872791522648,182.0942639215864 142.0674204947136,182.044407747504 142.18954063605634,181.98458029030007 142.30402826858335,181.88486774462217 142.53300353357918,181.7552412164805 142.70091872793273,181.69541350471263 142.80777385164401,181.6256144410945 143.55575971733197,181.25667534243985 143.71604240284069,181.15696172872413 143.77710247351206,181.12704761607893 144.42586572439177,180.67833434619388 144.66247349826153,180.53873405798367 144.7693286219146,180.4589623359352 144.95250883395784,180.3692190367292 145.2578091873147,180.16978905859287 145.31886925795698,180.1498460285875 145.75392226150143,179.8506998762241 145.91420494703925,179.79087048774818 146.0821201413637,179.67121155274071 146.26530035340693,179.57149561259575 146.33399293292314,179.56152401055442 146.35689045939944,179.5316091956047 146.5019081272476,179.44186467168038 146.63166077740607,179.34214839502965 146.78431095409906,179.27234691430203 147.03618374560028,179.12277207130683 147.20409893995384,178.9632252092415 147.78416961134644,178.58429991049343 148.30318021203857,178.27517507549055 148.44819787988672,178.16548527991108 148.60848056539544,178.09568259051593 148.76113074208843,177.98599250514962 149.03590106009506,177.88627409212495 149.34883392229676,177.71675245410734 149.58544169613742,177.62700553337345 149.74572438167525,177.53725849407056 149.86021201414405,177.49737088302936 149.88310954067856,177.50734278797609 149.92127208484453,177.5472303931747 149.94416961132083,177.60706175709493 150.21893992935657,178.11562622334895 150.33342756185448,178.2951186556893 150.46318021204206,178.41478001383075 150.75321554773836,178.78373454163375 150.8066431095649,178.82362139763427 150.84480565373087,178.92333843516826 150.99745583039476,179.07291371714382 151.22643109541968,179.3720632933837 151.363816254423,179.59143881233467 151.3867137809284,179.61138200621645 151.75307420498575,180.25953262118128 151.77597173143295,180.3093901047323 151.89045936395996,180.49884820865555 151.98204946998158,180.61850568635418 152.188127208472,180.9874482495943 152.27208480570698,181.07719073240878 152.31787985868868,181.1469903593097 152.47053003535257,181.45610213097825 152.4781625441974,181.4959874184642 152.48579505304224,181.5059587366777 152.60028268554015,181.40624548873166 152.63844522970612,181.33644612811622 152.70713780919323,181.27661804766103 152.73766784454347,181.23673263141973 152.7681978798937,181.23673263141973 152.80636042405968,181.17690446317283 152.91321554771275,181.08716211206047 153.04296819790034,180.92761986190453 153.17272084805882,180.70824865637405 153.24141342757503,180.63844857882214 153.35590106010204,180.47890527522395 153.56197879859246,180.28944711571967 153.70699646644061,180.19970359263243 153.95886925797095,179.95041540666716 153.98176678447635,179.9105292120439 154.0809893993137,179.82078518859635 154.14204947001417,179.74101262376644 154.4397173144971,179.461807909458 154.47024734984734,179.3920065516504 154.64579505301663,179.2125170165964 154.83660777384648,179.05297036523552 154.98925795053947,178.89342333927198 155.23349823319586,178.7438476622192 155.32508833921747,178.66407383316255 155.52353356892127,178.5643564152051 155.7983038869861,178.45466708637105 155.8440989399096,178.41478001383075 156.17229681983008,178.32503401494614 156.29441696114372,178.30509044357314 156.41653710248647,178.26520328321203 156.58445229684003,178.2352878975871 156.68367491167737,178.185428892255 156.92028268554714,178.1355698503612 156.97371024737367,178.11562622334895 157.14162544172723,178.09568259051593 157.4698233215604,178.00593617020786 157.5385159010766,178.0159080005251 157.6682685512642,177.9660488342779 157.77512367494637,177.95607699661923 158.05752650179784,177.86633039194567 158.0956890459638,177.8763022427447 158.30939929329907,177.80649925631587 158.48494699649746,177.76661180332303 158.61469964665594,177.76661180332303 158.97342756183934,177.6668930683154 159.21766784455394,177.62700553337345 159.42374558307347,177.57714608172682 159.59929328621365,177.50734278797609 160.00381625446607,177.40762367250863 160.04197879857384,177.39765175292268 160.07250883392408,177.4175955906685 160.20226148411166,177.38767983188882 161.3471378092072,177.1084654481383 161.46925795054995,177.09849348467105 161.87378091874416,176.97882980858412 162.30120141341467,176.89905390745116 162.47674911664217,176.8292499171439 162.72098939929856,176.78936189046362 162.98049469964462,176.7195577874736 163.00339222617913,176.6996137448732 163.1942049470381,176.61983751592925 163.3773851590231,176.56000528277946 163.5758303886978,176.5300891464285 163.72848056539078,176.4702568342327 163.94219081272604,176.46028477709478 164.07957597175846,176.43036859686254 164.2703886925883,176.36056412508333 164.4001413427759,176.34061997709068 164.49936395761324,176.300731663614 164.72070671379333,176.25087123882986 164.78939929328044,176.25087123882986 164.8886219081469,176.22095496637485 165.08706713782158,176.1910386807649 165.26261484101997,176.1411781754723 165.34657243816764,176.1411781754723 165.91137809189968,176.00156856604735 166.23957597176195,175.95170792173303 166.66699646646157,175.82207007531542 167.1631095406483,175.73232065212505 167.35392226150725,175.66251546324202 167.53710247352137,175.63259893175564 167.57526501765824,175.61265457012632 167.5676325088425,175.61265457012632 168.29272084808326,175.4530994663146 168.76593639576458,175.32346066863101 168.9720141342841,175.29354398785654 169.04070671380032,175.28357175800193 169.07123674912145,175.25365505970694 169.20098939930904,175.24368282401701 169.3689045936626,175.18384937909286 169.47575971734477,175.1639048857396 169.49865724385018,175.14396038652922 169.56734982336638,175.13398813474487 169.59787985865842,175.11404362676694 169.66657243817463,175.11404362676694 169.72000000000116,175.08412685379153 169.8192226148385,175.09409911291004 169.94134275621036,175.05421006770484 170.4603533569316,174.95448735213722 170.81144876327016,174.87470907431998 170.8419787985913,174.84479219599598 170.91830388692324,174.82484760312946 171.1091166078113,174.79493070286117 171.24650176681462,174.7350968627652 171.27703180213575,174.7450691730919 171.4220494699548,174.7051799229812 171.56706713783205,174.6852352891292 171.7807773851673,174.6154290245322 172.35321554771508,174.51570566502778 172.47533568905783,174.47581628024636 172.76537102472503,174.41598215918202 173.2462190812803,174.3461756179604 173.52862190816086,174.25642424536636 173.72706713783555,174.21653470836463 174.31477031804388,174.076921144464 174.33766784452018,174.05697632619558 174.37583038868615,174.05697632619558 174.8108833922306,173.9572521470618 175.2306713780854,173.90739000261237 175.4978091872763,173.90739000261237 176.13893992934027,173.9871694161775 176.71901060073287,174.1965899310744 176.80296819788055,174.23647947976133 176.82586572438595,174.25642424536636 176.86402826855192,174.25642424536636 177.22275618376443,174.39603744043416 177.46699646642082,174.5057333210425 177.6425441696192,174.56556736308266 177.7951943463122,174.62540135245217 178.13865724383504,174.79493070286117 178.27604240280925,174.85476449025737 178.36000000001513,174.8647367830199 178.39053003533627,174.8846813641867 178.5279151943687,174.94451507251506 178.63477031802176,174.9644596302751 178.74925795054878,175.03426553626923 178.92480565371807,175.08412685379153 179.4667137809447,175.33343289260665 179.7109540636011,175.39326620582142 180.0696819788136,175.46307167129999 180.6955477031879,175.52290487035498 181.0237455830502,175.50296047650045 181.51222614842118,175.4231828426564 181.83279151943862,175.39326620582142 182.06176678443444,175.35337733619963 182.15335689045605,175.3633495557806 182.3212720847805,175.35337733619963 182.6113074205059,175.3035162162414 182.718162544159,175.27359952670668 182.7868551236752,175.27359952670668 182.985300353379,175.21376610812877 183.40508833920467,175.1639048857396 183.59590106009273,175.15393263687292 184.05385159011348,175.07415459321783 184.60339222615585,175.05421006770484 184.71024734983803,175.04423780271463 184.76367491166457,175.01432099901285 185.09950530037167,174.99437645592843 185.24452296819072,174.9644596302751 185.6185159010638,174.9345427914741 185.76353356891195,174.89465365255455 185.82459363958333,174.89465365255455 185.8856537102838,174.87470907431998 185.9543462897709,174.89465365255455 186.76339222613024,174.80490300439124 186.847349823307,174.7749860953336 186.94657243817346,174.78495839982497 186.9771024734655,174.7350968627652 187.0,174.63537367886602 187.0,174.5456226882452 186.9771024734655,174.5057333210425 186.9542049469892,174.5057333210425" stroke="#4dd2ff" stroke-linecap="round" stroke-linejoin="round" stroke-width="0.5"><title>2024-09-12 7.0km</title><desc>12392142310</desc></polyline><polyline fill="none" points="67.0,234.88003102761286 66.88596367734135,234.82043304358376 66.78713219769998,234.83036604455265 66.75672251166543,234.82043304358376 66.6883007180295,234.71116993649775 66.61227650288492,234.6515718037699 66.4602280726831,234.6317057478591 66.20934816278168,234.6317057478591 65.58594959881157,234.69130389810016 65.31986484586378,234.74096898320568 65.21343094468466,234.73103596907458 64.82570744759869,234.77076801675867 64.69646628189366,234.77076801675867 64.28593552025268,234.84029904406634 63.19118682248518,234.92969597422052 63.130367450386984,234.9495619426889 62.537378572451416,235.0290257581364 62.46895677887369,235.05882466486946 62.00520906661404,235.07869059540099 61.73912431366625,235.1581542592612 60.674785301991506,235.3270142351612 60.5075320287433,235.3270142351612 60.226242432778236,235.36674593295902 59.648458397889044,235.34688008697412 59.53442207520129,235.33694716180617 59.37477122346172,235.28728251403663 58.94903561877436,235.14822130640096 58.72096297342796,235.0389587284808 58.500492749590194,234.88996401986515 58.143178938509664,234.73103596907458 57.98352808674099,234.6317057478591 57.53498521752772,234.4429779258644 57.44375615939498,234.39331262209453 57.12445445585763,234.2939819052117 56.75953822329757,234.1151862474362 56.660706743685296,234.09532003407367 56.272983246541116,233.89665757979674 56.04491060116561,233.81719243482075 56.0221033366397,233.81719243482075 55.78642826975556,233.73772719651606 55.596367731981445,233.69799454236636 55.28466844995273,233.67812820655672 54.790511051687645,233.7178608723625 54.48641419119667,233.76752667179971 54.30395607493119,233.82712558304047 54.27354638889665,233.84699187511433 54.189919752272544,233.84699187511433 54.037871322012506,233.87679130229662 53.81740109814564,233.8867244417852 53.642545403388795,233.93639011728374 53.452484865585575,233.96618950511765 53.08756863299641,234.05558758986444 52.973532310308656,234.06552070309408 52.86709840915864,234.1052531414971 52.692242714372696,234.1151862474362 52.60101365621085,234.14498555652244 52.50218217656948,234.19465104251867 51.64310854568612,234.35358035285753 51.38462621427607,234.4529109822688 50.89807123754872,234.57210754513653 50.37350415321998,234.64163877653482 50.06940729272901,234.73103596907458 49.71209348161938,234.80056703723676 49.400394199677976,234.88996401986515 49.27875545545248,234.93962895917502 49.08109249611152,234.96942790527828 48.754188371123746,235.05882466486946 48.3512600309914,235.11842243900173 48.01675348446588,235.22768488859583 47.95593411233858,235.22768488859583 47.71265662397491,235.29721544650238 47.507391243154416,235.3170813070683 47.04364353089477,235.42634343595273 46.701534562860616,235.47600798167696 46.26819653669372,235.59520274273382 46.15416021400597,235.65480004455458 46.04772631282685,235.694531549947 45.53076165000675,235.79386021135724 45.37111079826718,235.84352448740538 45.11262846685713,235.88325588203588 44.6716880191816,235.99251709690725 44.519639588921564,236.0024499258725 44.185133042396046,236.0024499258725 43.59214416448958,236.17130779535364 43.45530057724682,236.2309045898728 43.35646909757634,236.26070296746184 43.06757708013174,236.3600307979941 42.885118963808054,236.39976188942092 42.26932282137568,236.59841699655226 42.07926228357246,236.63814794802602 41.92721385331242,236.6480806822583 41.62311699282145,236.72754250354046 41.334224975376856,236.75734066247242 40.786850626493106,236.95599472011236 40.23187385615893,237.09505221353902 39.403209911310114,237.22417677305202 39.23595663806191,237.27383999960148 39.12952273688279,237.33343582334783 39.053498521767324,237.33343582334783 38.76460650432273,237.4327620795957 38.54413628048496,237.46255992806982 38.44530480078538,237.50229037228564 38.33887089963537,237.51222297970526 38.14120794032351,237.5618859948445 37.84471350137028,237.59168378647155 37.616640855994774,237.6413467433449 37.30494157402427,237.75060512019263 37.06926650714013,237.79033539532975 36.84879628327326,237.8598633206857 36.81078417573008,237.8598633206857 36.78037448966643,237.8797284290995 36.17218076871359,238.0287165563568 35.890891172748525,238.06844666821416 35.601999155274825,238.14790682203602 35.2446853442525,238.23729938354518 35.00901027736836,238.32669182701648 34.8721666901547,238.41608415240626 34.742925524449674,238.5352737359499 34.67450373081374,238.58493600049405 34.590877094189636,238.6743279848306 34.530057722120546,238.70412528670568 34.522455300582806,238.7339225754622 34.454033506975975,238.77365227341215 34.39321413487778,238.872976416249 34.3552020273346,238.91270603257726 34.203153597103665,239.0517595060519 34.15753906802274,239.11135376438324 33.97508095172816,239.28020387802826 33.944671265693614,239.31000091321766 33.90665915815043,239.30006856959517 33.85344220753177,239.32986559600977 33.52653808251489,239.68742888982524 33.450513867428526,239.79668396395573 33.28326059412211,239.99532910147536 33.07039279179298,240.19397365605982 33.00957341969479,240.23370249706204 32.994368576677516,240.28336351545295 33.00957341969479,240.26349911244324 32.925946783070685,240.31316010900628 32.73588624529657,240.52173589664017 32.44699422782287,240.7899038220712 32.196114317921456,241.08786693765433 32.07447557369596,241.18718768469262 31.89201745740138,241.42555688304128 31.42826974519994,241.8327689883372 31.23820920739672,242.03140815076767 31.16978741378989,242.0810678503185 31.055751091131242,242.1307275134095 30.972124454478035,242.21018289859057 30.668027593987063,242.5577991121536 30.57679853582522,242.7762998184262 30.546388849819778,242.78623165195313 30.477967056212947,242.88554990705597 30.211882303265156,243.09411776852357 30.06743629454286,243.19343557193497 30.014219343982404,243.24309441898367 29.938195128837833,243.26295794761973 29.884978178248275,243.31261674366397 29.71772490500007,243.39207074154547 29.4972546811332,243.541046736289 29.261579614278162,243.67015899985563 29.23877234972315,243.69995410264528 29.14754329159041,243.749612578089 29.109531184018124,243.749612578089 28.987892439821735,243.83899774218298 28.76742221598397,243.9581777773201 28.493735041556647,244.16674233396043 28.022384907788364,244.42496422804834 27.62705898922286,244.6732535819392 27.589046881592367,244.6831851371462 27.42179360834416,244.8122952223348 27.148106433916837,244.9612680915816 27.08728706178954,245.0109256417927 27.041672532766825,245.020857147465 26.889624102506787,245.120172124065 26.01534562863526,245.6068134032903 25.680839082080638,245.77564731542225 25.47557370128925,245.9047553170749 25.315922849520575,245.9842062726093 25.232296212896472,246.00406899694644 25.118259890179615,246.06365713491687 24.96621145994868,246.10338253110967 24.791355765162734,246.26228388272284 24.700126707029995,246.321871793436 24.6393073349318,246.321871793436 24.60129522738862,246.3020091623548 24.418837111094035,245.93454943634424 24.076728143030778,245.34859601732023 23.96269182037213,245.18969252099487 23.58257074476569,244.53421165596228 23.445727157552028,244.33557983771607 23.331690834864276,244.12701580128487 23.278473884274717,244.05749431299046 23.012389131385135,243.5807736128554 22.78431648600963,243.22323088450503 22.21413487259997,242.20025098053884 22.046881599351764,241.8327689883372 22.02407433479675,241.8228370149227 21.910038012109,241.8724968674942 21.67436294525396,242.05127203495795 21.294241869676625,242.24991055619466 20.89891595102381,242.4088209535039 20.473180346365552,242.60745842551114 20.10066169226775,242.83589079772355 20.02463747712318,242.8954817245758 19.644516401545843,243.06432239909918 19.59129945092718,243.11398134085903 19.256792904430768,243.32254849851597 19.20357595384121,243.3324802518764 19.112346895679366,243.39207074154547 18.65620160495746,243.62050046607328 18.230466000299202,243.8687927706269 18.19245389275602,243.8687927706269 17.971983668889152,243.98797275334073 17.622272279317258,244.206468843302 17.45501900606905,244.27599017858302 16.998873715347145,244.53421165596228 16.04857102636015,245.020857147465 15.7900886949501,245.19962400043005 15.706462058296893,245.21948695495666 15.592425735638244,245.27907578356826 15.440377305378206,245.4081847322741 15.159087709442247,245.5074991406509 15.052653808292234,245.51743057346175 15.007039279211313,245.5472248631704 14.976629593147663,245.55715629018232 14.95382232859265,245.5472248631704 14.824581162887625,245.5968819835689 14.786569055344444,245.6068134032903 14.6953399971826,245.66640189097234 14.391243136720732,245.78557870891382 13.843868787866086,245.9544121752333 13.783049415738788,245.92461806470237 13.745037308195606,245.88489256361208 13.722230043640593,245.82530426828453 13.676615514588775,245.706127520265 13.661410671571502,245.63660765369423 13.61579614249058,245.55715629018232 13.585386456426932,245.43797907009866 13.486554976785555,245.18969252099487 13.456145290721906,245.07051465399127 13.433338026195997,245.04072015446582 13.319301703537349,244.6831851371462 13.228072645375505,244.47462217167777 13.159650851768674,244.22633208924526 13.045614529080922,243.9581777773201 13.0,243.83899774218298 13.0,243.81913438256015 13.00760242153774,243.8092027005914" stroke="#4dd2ff" stroke-linecap="round" stroke-linejoin="round" stroke-width="0.5"><title>2024-09-12 7.1km</title><desc>12388432138</desc></polyline><polyline fill="none" points="127.0,234.85314672945242 126.78867924530641,234.82356428637286 126.40377358492697,234.8334251021879 126.36603773583192,234.80384265042085 126.32830188679509,234.72495604876167 126.27547169808531,234.68551271318574 126.16981132075307,234.6657910367212 125.95849056603038,234.65593019632797 125.58867924526567,234.6953735492425 125.50566037735553,234.73481687903404 125.39999999999418,234.71509521705593 125.07547169810277,234.74467770784395 124.9773584905488,234.76439936114912 124.79622641508467,234.76439936114912 124.68301886791596,234.79398183028388 124.33584905657335,234.80384265042085 124.09433962262119,234.8432859165332 123.93584905660828,234.8432859165332 123.72452830188558,234.87286835090345 123.21132075469359,234.912311576496 122.51698113206658,235.01091953915602 122.36603773583192,235.01091953915602 122.1849056603678,235.05036268370168 122.15471698113834,235.04050189972622 122.04150943394052,235.0700842472579 121.8603773585055,235.0602234662074 121.56603773584357,235.0996665818093 121.36226415095734,235.16869197837514 121.21132075472269,235.18841350723233 121.10566037739045,235.22785654755717 120.50188679248095,235.28702106466517 120.22264150946285,235.3560462687674 119.65660377359018,235.38562847739377 119.58867924526567,235.3659070064241 119.513207547192,235.3757677426256 119.18113207546412,235.33632478911022 118.81132075469941,235.23771730404405 118.37358490563929,235.05036268370168 118.25283018866321,234.971476371451 118.22264150943374,234.971476371451 118.02641509435489,234.87286835090345 117.94339622644475,234.81370346913172 117.43018867928186,234.59676512350416 117.27169811321073,234.5178782787043 117.06037735851714,234.4291304675644 116.84150943395798,234.36010431121395 116.06415094339172,233.99525059243024 115.6037735849095,233.86705827491096 115.5811320754292,233.83747539765318 115.3018867924402,233.7783096041312 115.2339622641448,233.78817057331617 115.11320754716871,233.74872668783064 115.01509433964384,233.75858766136662 114.77358490566257,233.71914375846973 114.66037735846476,233.72900473637856 114.70566037733806,233.7388657128031 114.4641509433568,233.7388657128031 114.25283018866321,233.79803154110414 113.98867924525985,233.82761443570053 113.79999999998836,233.88678018582868 113.57358490568004,233.8966411391084 113.17358490565675,234.0248334001808 112.99245283019263,234.0051115297756 112.87169811321655,234.04455526478705 112.58490566039109,234.09385990098235 112.49433962264447,234.11358174532506 112.4641509433859,234.13330358389067 112.27547169811442,234.16288633086515 111.8377358490543,234.28121718855255 111.44528301886749,234.39954783781286 111.24905660378863,234.4291304675644 110.87169811318745,234.54746085635998 110.69056603775243,234.5671825675381 110.58490566036198,234.6066259725776 110.19999999998254,234.65593019632797 109.70943396224175,234.79398183028388 109.49056603774079,234.82356428637286 109.37735849057208,234.8630075409019 109.3471698113135,234.85314672945242 109.18867924530059,234.90245077226427 109.09811320755398,234.912311576496 109.0679245282954,234.93203318059386 108.7660377358261,235.02078032744612 108.464150943415,235.0306411142883 108.25283018866321,235.08980580506613 107.98867924525985,235.17855274354224 107.79245283018099,235.20813503027603 107.59622641507303,235.2968818124573 107.27169811318163,235.34618552967004 107.17358490562765,235.38562847739377 107.06037735848804,235.40534994254267 106.7660377358261,235.48423574538174 106.60754716981319,235.5236786120804 106.4188679245417,235.5434000367386 106.00377358490368,235.6518677688946 105.76226415095152,235.69131053715682 105.57358490568004,235.7603353259401 105.18867924527149,235.82936004379007 105.15094339623465,235.84908137873572 104.84150943395798,235.93782731431565 104.52452830187394,236.01671249196806 104.486792452808,236.00685184983013 104.31320754715125,236.04629440970166 104.2075471697899,236.05615504604066 104.02641509432578,236.1251794600321 103.84528301886166,236.15476133001357 103.75471698111505,236.20406441775413 103.63396226416808,236.22378564270912 103.535849056585,236.2435068618579 103.43018867922365,236.2435068618579 103.44528301886749,236.1942038030902 103.08301886788104,236.2336462530002 102.63018867923529,236.41113699107518 102.7207547169528,236.38155523393652 102.67547169807949,236.4209975738995 102.53207547168131,236.4801610403665 102.19999999995343,236.5590455813217 102.07169811319909,236.61820892623655 101.75471698111505,236.66751167389884 101.5811320754583,236.72667492330947 100.88679245283129,236.8548617850247 100.80377358486294,236.90416435901716 100.68301886791596,236.92388537849183 100.55471698113251,236.97318790183635 100.4188679245126,237.002769398503 100.32075471698772,237.002769398503 99.80754716979573,237.13095573348255 98.86415094338008,237.31830455239833 98.12452830187976,237.52537369189668 97.89811320754234,237.5549549454081 97.51320754713379,237.62397781970503 97.3018867924402,237.71272141108057 97.21132075472269,237.72258180289646 96.78113207544084,237.83104601720697 96.72830188678927,237.86062713620777 96.55471698113251,237.89020824214822 96.53207547168131,237.9197893350938 95.47547169809695,238.13671695200173 95.22641509430832,238.23532018271362 95.11320754716871,238.24518049784092 95.05283018868067,238.28462174381275 94.85660377357271,238.33392326875764 94.6528301886865,238.48182762649958 94.61509433962055,238.55084954870108 94.50943396225921,238.6001508782865 94.40377358489786,238.6987534289292 94.27547169811442,238.81707629875018 94.20000000001164,238.93539896018774 94.01886792451842,239.09316218467575 93.9283018867718,239.2016241866586 93.65660377353197,239.4086875224748 93.39999999996508,239.6551906616878 93.35471698114998,239.71435128056328 93.30943396227667,239.73407147528633 93.279245282989,239.78337193674088 93.15094339620555,239.9016928966812 92.99245283019263,240.10875407523417 92.90188679247512,240.17777432628645 92.80377358489204,240.20735441220313 92.77358490563347,240.23693448506674 92.75849056604784,240.30595460446784 92.72830188678927,240.35525464637612 92.31320754715125,240.7102138801929 92.17735849053133,240.89755271988543 91.78490566037362,241.3708274622404 91.38490566035034,241.68634210532764 91.0226415094221,242.0412943080737 90.87924528299482,242.1398918094128 90.83396226415061,242.19905024078616 90.69056603772333,242.3272266634376 90.56226415093988,242.4751222319028 90.47169811322237,242.66245615138905 90.35094339618809,242.82021062591957 90.10188679245766,243.04698203421867 89.52830188674852,243.421646162642 89.12830188678345,243.6484155413782 88.98490566038527,243.7667296961008 88.51698113206658,244.04279524699086 88.38113207547576,244.14138981178257 88.19999999998254,244.2498436659298 88.04905660374789,244.2991408145317 87.8830188678985,244.38787559085176 87.8603773584764,244.41745382358204 87.5811320754583,244.575204178298 87.46037735851132,244.6639385901217 87.31698113205493,244.74281352446997 87.2566037735669,244.80196966449148 86.81132075472851,245.04845302070316 86.1849056603678,245.37380966663477 85.82264150941046,245.59071322220552 85.52075471697026,245.73860160868207 85.45283018867485,245.78789766522095 84.9773584905488,246.0146590594086 84.88679245280218,246.0639549134139 84.63018867920619,246.28085624153027 84.56981132074725,246.27099710545008 84.49433962258627,246.21184225851903 84.30566037731478,245.84705288528494 84.20754716981901,245.69916473743797 84.01132075471105,245.33437258133927 83.72452830185648,244.89070377683674 83.46792452826048,244.46675084922754 83.39999999996508,244.32871908634115 83.36226415092824,244.2991408145317 83.27169811318163,244.1118114575147 83.2339622641448,244.1019520032205 83.18867924524238,244.02307631668373 83.11320754713961,243.85546517540206 82.78113207544084,243.28361225310073 82.7207547169819,243.2145951920029 82.70566037733806,243.15543765463372 82.6754716981086,243.1357184639346 82.57735849058372,242.96810510944488 82.53207547168131,242.9089473550921 82.29056603772915,242.42582374525227 82.1849056603678,242.2680683448998 82.1396226414945,242.14975155158027 82.06415094336262,242.03143454996462 82.02641509429668,241.93283688949305 81.92830188680091,241.84409887134825 81.9056603773497,241.79479992176493 81.72452830185648,241.8046597145658 81.69433962259791,241.84409887134825 81.67924528298317,241.93283688949305 81.65660377353197,241.98213573780959 81.56603773581446,242.05115406472032 81.03773584903684,242.2779280682662 80.73584905656753,242.43568344547384 80.63018867923529,242.4751222319028 80.4641509433859,242.5737190967484 80.16981132072397,242.73147377954592 79.80754716976662,242.93852623875864 79.78490566037362,242.96810510944488 79.64905660378281,243.0174031982824 79.48301886790432,243.1258588664059 79.21886792453006,243.2540335212907 78.98490566035616,243.39206749159348 78.30566037734388,243.74701068479044 78.01886792451842,243.9244815783386 77.73962264150032,244.04279524699086 77.64150943394634,244.1118114575147 77.15094339620555,244.34843792695028 76.38113207547576,244.76253224358516 75.94339622638654,244.9991564217853 75.92075471696444,245.04845302070316 75.67924528298317,245.19634260050225 75.43773584903101,245.28507619213633 75.39999999996508,245.3442318548332 75.33207547169877,245.38366893436614 75.29433962260373,245.39352820064232 75.06037735845894,245.4822615319208 74.99245283016353,245.51183928299724 74.9547169811267,245.55127626415197 74.90188679241692,245.57099474605639 74.63018867923529,245.640009387178 74.38113207547576,245.728742393032 74.24528301885584,245.7583200356312 74.03396226416226,245.82733448437648 73.9056603773206,245.8963488622394 73.79999999998836,245.88648966975597 73.72452830185648,245.83719368554011 73.70943396224175,245.728742393032 73.61132075471687,245.4822615319208 73.61132075471687,245.44282451024628 73.48301886787522,245.06817165014218 73.38490566032124,244.8611257524026 73.33207547169877,244.713235434916 73.30943396224757,244.60478232859896 73.2566037735669,244.49632904724422 73.15849056601292,244.1709681529901 73.0,243.7963082022252 73.0,243.75687019114412" stroke="#4dd2ff" stroke-linecap="round" stroke-linejoin="round" stroke-width="0.5"><title>2024-09-11 7.2km</title><desc>12379940467</desc></polyline><polyline fill="none" points="133.21304776667967,243.1811998762132 133.22826546427677,243.1811998762132 133.18261237139814,243.20108020964835 133.07608848807286,243.2110203742268 133.02282654645387,243.24084085912182 133.00760884879855,243.30048178951984 133.0,243.32036208795762 133.03804424405098,243.409823358852 133.06087079047575,243.6285059681759 133.19783006905345,243.98634871542163 133.26630970829865,244.26466954548232 133.3271804988035,244.43364949165698 133.3804424404516,244.55292919991916 133.38805128927925,244.59268905597128 133.448922079755,244.73184836851578 133.55544596308027,244.9306468906143 133.5706636607065,245.059865617186 133.6010990559007,245.159264469934 133.68479639283032,245.38788127780572 133.7380583344784,245.57673805897502 133.7380583344784,245.60655750262958 133.859799915459,245.9146909851479 133.90545300830854,245.9445102800455 133.98915034520905,245.93457051654696 134.01197689163382,245.99420907571766 134.04241228688625,246.03396808601974 134.1337184725562,246.0637873284213 134.74242637734278,245.8948114478917 135.25982809637208,245.70595555331965 135.31309003804927,245.6960157548092 135.65548823444988,245.49721947844955 135.88375369872665,245.4177008045881 135.97505988445482,245.29842261876183 136.0815837677801,245.21890371158224 136.30984923205688,245.08968528833066 136.55333239398897,244.9803464300203 136.926165985642,244.7914879864038 137.1316049034649,244.7119684842255 137.34465267011547,244.58274909415923 137.43595885584364,244.55292919991916 138.07510215582442,244.2249094969302 138.3870649570017,244.04598898953554 138.60772157247993,243.95652855867957 138.70663660700666,243.89688820581068 139.14034098910633,243.7279069208671 139.2849091165117,243.60862576012732 139.4218683950894,243.53904498603515 139.41425954629085,243.52910486960172 139.5436099760409,243.45952401385875 139.67296040579095,243.43964375625364 139.70339580104337,243.38994308664405 139.83274623082252,243.30048178951984 139.91644356772304,243.2706613308619 140.24362406652654,243.0718579378663 140.57080456530093,242.91281480346515 140.7305903903034,242.81341265484662 140.75341693672817,242.7835919818317 140.8675496688811,242.75377129569097 141.01972664505593,242.64442866752506 141.44582217835705,242.44562343690632 141.9175708045659,242.19711607825593 142.0240946878912,242.15735481628508 142.0545300831145,242.1275338544947 142.2295336057432,242.0579515592617 142.3512751866656,241.9287271070716 142.44258137239376,241.88896568756172 142.77737072002492,241.7000986262792 143.30238128785277,241.461528954198 143.6599971819087,241.2826011487923 143.88826264615636,241.1235538139299 143.9186980414088,241.09373239705747 143.95674228543066,241.0837919218684 144.2078342961904,240.85516058965004 144.45892630686285,240.6861717177453 144.48175285328762,240.65635010837286 144.74806256164447,240.51718242432253 144.76328025924158,240.47742017636483 144.94589263066882,240.40783618629212 145.13611385092372,240.30843036220176 145.41764125684858,240.1294995112621 145.49372974497965,240.05991516383074 145.60025362827582,240.02015264749207 145.67634211637778,239.95056818773446 145.98069606875652,239.80145839044417 146.0187403128075,239.76169572240906 146.14809074252844,239.73187370607047 146.345920811611,239.5827634274392 147.10680569251417,239.12548985972535 147.25137381991954,239.01614137538127 147.35789770327392,238.9266743023254 147.54811892349971,238.8471479160071 147.69268705087597,238.70797651525208 147.8600817247061,238.6185090352592 147.9437790615484,238.53898228711478 148.065520642529,238.46939630597626 148.23291531630093,238.34016500844155 148.43835423415294,238.25069704263296 148.65901084963116,238.1214653279094 149.00140904608998,237.9624105713301 149.1535860222648,237.86300115881022 149.26010990559007,237.82323735298996 149.41989573059254,237.73376870446373 149.6177257995878,237.65424091772002 149.65577004369698,237.65424091772002 149.6862054388912,237.62441797362408 149.86120896151988,237.54489005848882 149.8916443567432,237.55483105299209 149.92207975196652,237.5747130375894 149.96773284484516,237.70394579537242 150.1503452162724,238.05187891786045 150.19599830915104,238.10158350375423 150.3557841340953,238.37992851083254 150.59165844722884,238.60856819683977 150.9264477948309,239.05590448100702 151.03297167815617,239.1553121430261 151.24601944483584,239.44359353791515 151.36015217695967,239.65234826497908 151.74059461744037,240.27860858653003 151.79385655908845,240.40783618629212 151.8395096519671,240.45753904363664 152.00690432573901,240.72593384317588 152.17429899956915,240.9943275793994 152.22756094121723,241.11361334312096 152.28082288292353,241.1434347511822 152.39495561501826,241.36212467618316 152.48626180074643,241.51123103848659 152.4938706495741,241.55099267967307 152.77539805552806,241.2627202523363 152.9047484852781,241.05397048751183 152.98844582217862,240.9943275793994 153.0417077638267,240.90486311881978 153.10257855433156,240.85516058965004 153.14062279835343,240.74581489713455 153.22432013525395,240.65635010837286 153.4373679019045,240.44759847508976 153.93194307453814,240.06985578929016 154.0765112019144,239.9207462545528 154.1449908412178,239.80145839044417 154.16781738761347,239.78157705937338 154.1982527828368,239.78157705937338 154.25912357334164,239.70205167657696 154.30477666616207,239.6821703163223 154.63195716496557,239.2845418855577 155.02761730307247,238.89685191840545 155.23305622089538,238.75768061978306 155.29392701140023,238.69803568997304 155.3852331971575,238.67815403504937 155.9178526137839,238.44951458393916 156.11568268283736,238.40975112235174 156.9678737494687,238.1612289586992 157.18853036491782,238.1214653279094 157.31027194589842,238.1214653279094 157.3483161899203,238.131406237786 157.83528251372627,238.0419379962841 157.98745948990108,237.9822924363034 158.44399041848374,237.88288305300375 158.66464703393285,237.8132963978569 158.96900098631158,237.66418189616525 159.09074256729218,237.62441797362408 159.26574608989176,237.5945950163732 159.52444694939186,237.5747130375894 160.13315485417843,237.4057159823351 160.1711990982003,237.41565699726198 160.32337607440422,237.36595190807566 160.4451176553266,237.35601088587282 160.61251232915674,237.3063057529289 161.5484007326595,237.08760273462394 162.03536705649458,236.95836880102433 162.5299422290991,236.8688990102528 162.8038607861963,236.76948799301317 163.09299704097793,236.71978242969635 163.31365365645615,236.63031232381763 163.62561645766255,236.57066552089964 163.80822882906068,236.5507832416115 163.93757925881073,236.5110186654856 164.05171199096367,236.5110186654856 164.53106946594198,236.37184246524703 164.71368183736922,236.34201895655133 164.7517260814493,236.3320777840563 164.8202057207527,236.3320777840563 164.9571649992722,236.28237189978245 165.00281809212174,236.29231307956798 165.13977737069945,236.2426071661248 165.49739326472627,236.19290121617087 165.801747217105,236.09348920690536 166.17458080878714,236.01395949442667 166.7832887135446,235.83501729998534 166.94307453854708,235.81513480474678 167.18655770039186,235.72566350403213 167.46808510637493,235.6660159045423 167.7496125122998,235.5864856902117 168.17570804565912,235.49701408744295 168.4039735099068,235.51689667603932 168.6094124277879,235.40754236651992 168.7311540087103,235.38765974583657 169.0583345075138,235.27830522765726 169.18007608846528,235.26836389908567 169.29420882058912,235.21865723425435 169.48443004084402,235.19877455812093 169.54530083131976,235.14906784221967 169.62899816824938,235.15900918831903 169.7659574468271,235.09936108986585 170.20727067772532,235.0496543010304 170.8996759193833,234.8806509461574 170.96054670985905,234.8806509461574 171.38664224316017,234.751412802063 171.5540369169903,234.72158857995237 171.72904043961898,234.67188151388837 171.98774129911908,234.6420572567513 172.28448640267015,234.55258440655598 172.3453571932041,234.54264297144982 172.45188107650029,234.49293577409844 172.48992532055127,234.50287721647328 172.83232351695187,234.45316998995258 172.9312385514786,234.45316998995258 173.6540791883599,234.28416514686978 173.88995350143523,234.2145747948016 174.1714809074183,234.16486735667422 174.78779766097432,234.0058033096284 175.2899816823774,233.9362126715714 175.46498520497698,233.9362126715714 176.08891080736066,234.0455693564072 176.8421868394944,234.32393103023787 177.0628434549726,234.4233456365182 177.28350007045083,234.49293577409844 177.69437790615484,234.7017057578705 177.73242215017672,234.7017057578705 178.08242919540498,234.85082678095205 178.51613357756287,234.99994747574237 178.91179371564067,235.17889187614492 179.53571931799524,235.43736628661281 180.12160067632794,235.5268379681729 180.30421304775518,235.53677925881493 180.48682541915332,235.59642697210074 180.7987882203597,235.56660312200984 181.18683950963896,235.50695538248692 181.81076511199353,235.44730759040976 181.97815978579456,235.40754236651992 182.1607721572218,235.40754236651992 182.20642525007133,235.38765974583657 182.41186416795244,235.3578358038285 182.58686769052292,235.27830522765726 182.68578272507875,235.25842256904434 183.1955755952804,235.248481237526 184.0021135690913,235.11924379521952 184.73256305480027,235.05959566173988 185.15104973930283,234.990006106309 185.26518247145577,234.990006106309 185.40214175000438,234.96018198921956 185.53910102858208,234.96018198921956 185.7749753416574,234.92041647938458 185.896716922638,234.92041647938458 186.0032408059633,234.89059233166336 186.12498238688568,234.90053371567774 186.23911511903862,234.8707095592108 186.3608566999901,234.8806509461574 186.89347611667472,234.80111980973743 186.99239115117234,234.79117841114203 187.0,234.78123701104778" stroke="#4dd2ff" stroke-linecap="round" stroke-linejoin="round" stroke-width="0.5"><title>2024-09-10 7.1km</title><desc>12375090044</desc></polyline></svg>