<?xml version="1.0" encoding="utf-8" ?>
<svg baseProfile="full" height="300mm" version="1.1" viewBox="0,0,200,300" width="200mm" xmlns="http://www.w3.org/2000/svg" xmlns:ev="http://www.w3.org/2001/xml-events" xmlns:xlink="http://www.w3.org/1999/xlink"><defs /><rect fill="#222222" height="300" width="200" x="0" y="0" /><text fill="#FFFFFF" style="font-size:12px; font-family:Arial; font-weight:bold;" x="10" y="20">Over 5km Workouts</text><text fill="#FFFFFF" style="font-size:4px; font-family:Arial" x="10" y="280">ATHLETE</text><text fill="#FFFFFF" style="font-size:9px; font-family:Arial" x="10" y="290">Liudon</text><text fill="#FFFFFF" style="font-size:4px; font-family:Arial" x="120" y="280">STATISTICS</text><text fill="#FFFFFF" style="font-size:3px; font-family:Arial" x="120" y="285">Number: 15</text><text fill="#FFFFFF" style="font-size:3px; font-family:Arial" x="120" y="290">Weekly: 5.0</text><text fill="#FFFFFF" style="font-size:3px; font-family:Arial" x="141" y="285">Total: 106.2 km</text><text fill="#FFFFFF" style="font-size:3px; font-family:Arial" x="141" y="290">Avg: 7.1 km</text><text fill="#FFFFFF" style="font-size:3px; font-family:Arial" x="167" y="285">Min: 7.0 km</text><text fill="#FFFFFF" style="font-size:3px; font-family:Arial" x="167" y="290">Max: 7.2 km</text><polyline fill="none" points="55.59999999997672,49.78660894792483 55.45409513087361,49.81838116219296 55.2473965662939,49.699235262516595 55.107571066735545,49.68334912273713 55.02853926259559,49.68334912273713 54.70025330706267,49.73895059156348 54.23822122151614,49.79455200325174 53.88561778777512,49.81838116219296 53.18649028989603,49.90575465526126 52.773093160707504,49.93752679956742 52.16515620602877,50.01695707878389 51.62409231637139,50.04872915782471 51.089107796229655,50.16787428812313 50.274472276942106,50.29496213796301 50.13464677738375,50.29496213796301 49.921868843230186,50.26319020349547 49.70301153953187,50.25524721695183 49.45983675765456,50.19170328268956 49.204503236716846,50.10433025126258 48.25612158738659,49.659519904340414 47.550914719933644,49.36562534800396 46.7605966788542,49.04789970805359 46.60861244017724,49.00818387188701 46.365437658299925,48.96052483005769 46.18305657192832,48.944638473443774 45.93380242047715,48.95258165231644 45.137405009852955,49.103501829689776 44.73616661975393,49.198819619603455 44.17078525188845,49.2941372416426 43.67835631858907,49.437113359963405 42.84548269066727,49.63569067544449 41.927497889089864,49.82632421284143 41.05206867438392,50.04078613980528 39.76932169997599,50.28701915609781 39.149226006207755,50.43793561239363 39.045876723888796,50.46970744428836 39.039797354344046,50.47765039936348 39.045876723888796,50.493536305992166 38.74798761610873,50.57296576918452 38.26771742186975,50.660338044061064 37.3801294680452,50.890682456334616 36.96673233885667,50.97011133668639 36.498620883736294,51.09719730283541 36.12169997184537,51.16868302764124 35.7630171685887,51.271940018999885 35.118603996612364,51.41491091261196 34.899746692943154,51.47845341077846 34.066873065021355,51.684966014592646 33.44677737125312,51.81999306027501 32.705094286531676,52.00267617417194 32.18834787502419,52.090046141081984 31.860061919491272,52.18535867144965 30.796172248810763,52.439524598477874 30.358457641443238,52.5745497617645 30.097044750931673,52.63809089852657 29.926822403620463,52.725459839773976 29.88426681677811,52.757230328898004 29.641092034900794,52.98756581730777 29.36752040529973,53.281440707083675 29.045313819282455,53.58325650057304 28.57720236419118,54.06774675525594 28.37050379961147,54.22659507507342 27.987503518146696,54.59988679170419 27.71393188854563,54.91757984187643 27.53763017168967,55.10025250141916 26.990486912458437,55.60855578801056 26.710835913283518,55.78328394037817 26.589248522388516,55.89447428913627 26.522375457338057,55.97389582699179 26.327835631847847,56.291580813078326 26.206248240894638,56.426596367608 26.042105263157282,56.54572745957557 24.80191387559171,57.32404414189659 24.200056290457724,57.657605008596875 22.686293273291085,58.55503237474841 22.0965944272466,58.8727022134226 21.816943428100785,59.04741983011627 21.78654658034793,59.055361526559864 21.719673515326576,59.055361526559864 21.646721080789575,58.960061092253454 21.42178440754651,58.51532351382775 20.674021953280317,57.276392421710625 20.3943709541345,56.77604682727906 20.139037433138583,56.378943857394916 19.932338868558872,55.965953678434744 19.798592738516163,55.65620897642293 19.731719673523912,55.560902557659574 19.622291021660203,55.441769298256986 19.506783000280848,55.48942263349454 19.342640022514388,55.624440188810695 19.135941457905574,55.74357304617297 18.266591612744378,56.11685430143916 17.8835913312505,56.35511758655048 17.68297213621554,56.46630676071436 17.099352659715805,56.80781493904942 16.63732057416928,57.04607518283956 16.02938361946144,57.387579703539814 15.105319448339287,57.87203590898571 14.588573036890011,58.16588428182149 14.387953841825947,58.30089516159205 14.266366450872738,58.348545979941264 14.071826625411632,58.39619675634822 13.877286799892318,58.483556404116825 13.773937517602462,58.54709060488676 13.378778497048188,58.65827527680085 13.214635519281728,58.7297510167009 13.099127497902373,58.753576242379495 13.068730650149519,58.737692759765196 13.007936954672914,58.690042283957155 12.93498452010681,58.451789275801275 12.7769209118851,58.03881491093489 12.57630171685014,57.40346358227907 12.515508021402638,57.276392421710625 12.46687306498643,57.1969727948599 12.424317478202283,57.09372710575917 12.406079369568033,57.030191199228284 12.39999999999418,57.030191199228284" stroke="#4dd2ff" stroke-linecap="round" stroke-linejoin="round" stroke-width="0.5"><title>2024-09-25 7.1km</title><desc>12497157963</desc></polyline><polyline fill="none" points="78.40607851411914,56.61681834612318 78.39999999999418,56.80740033656548 78.53980582521763,57.25208903782914 78.58843393833376,57.45060959986222 78.67961165047018,57.68089253960352 78.79510341916466,57.94293745167306 78.898438159551,58.25262525758808 78.97745884335018,58.57025193580921 79.06863655548659,58.80847072132019 79.178049810027,58.86405495373765 79.22667792314314,58.856114352613076 79.81021528068231,58.68936145961925 80.19316167157376,58.53848935187489 80.55179400587804,58.36379480699179 82.69143098351196,57.220325680307724 83.09869143096148,57.02974514388916 83.84634867028217,56.60887741531042 84.35694385814713,56.354767013526725 84.94655972984037,56.03712733357679 85.42068383281003,55.80683739990127 85.62127479948686,55.68772153247846 85.93127902067499,55.47331231047065 86.06500633174437,55.40184238107031 86.86737019839347,55.0206678301729 86.98894048121292,54.949197303012625 87.46914309833664,54.5997844782687 87.76699029124575,54.40125345920387 88.40523427602602,54.0200718610613 89.11642043053871,53.6388875781704 89.50544533552602,53.35299760404814 90.00996200929512,53.019457392139884 90.30173068802105,52.83680354784519 90.60565639508422,52.63032454677523 91.35939214858809,52.24913047505106 91.7848881384416,52.05853243228921 91.86390882224077,52.050590832612215 91.89430139298202,52.07441562817621 91.94900802025222,52.153831537583756 92.07057830304257,52.42384475789004 92.17999155758298,52.59855847668223 92.39273955253884,52.86856947811975 92.81823554239236,53.36888042001374 92.98235542420298,53.59123935402022 93.54765723930905,54.5362546314027 93.69354157871567,54.79831476905383 93.74824820598587,54.87772668147227 93.75432672008174,54.87772668147227 93.7421696918318,54.869785495480755 93.9488391726045,55.24301997778457 94.04609539886587,55.100079416319204 94.02785985646187,55.11596171956626 94.24060785138863,54.90155023246189 94.42904178975732,54.64743181446829 94.5445335584518,54.520372158025566 95.1219924018369,54.0121305492321 95.62043056139373,53.480060001227685 95.77847192905028,53.29740771150682 95.99121992400615,53.09093046775524 96.07631912198849,53.02739884964103 96.21004643308697,52.96386715697736 96.38632334317663,52.916218338516046 96.79966230478021,52.75738864066807 97.25555086531676,52.59855847668223 97.57163360065897,52.52708475080726 98.08222878849483,52.47943554777885 98.64145208947593,52.36031235665723 98.79341494297842,52.304721444405004 98.81772899953648,52.28883831615167 98.82380751369055,52.24913047505106 98.88459265508573,52.2253057564194 99.31008864499745,52.130006776998925 99.82676234695828,51.97117477169377 100.6048121570202,51.796459027442324 101.43149008019827,51.58203438854616 102.39797382859979,51.375550599954295 103.49818488812889,51.09759040963036 103.9236808779533,51.034056451389915 104.21544955676654,50.97052241857091 105.24271844656323,50.676676546398085 106.42195018992061,50.398712766356766 106.97509497674764,50.24781754496507 107.7288307302224,50.08898001527268 108.20903334737523,50.00956107560705 108.83512030390557,49.83483899802741 109.29100886447122,49.73159386883344 109.65571971295867,49.66805830679732 109.97180244824267,49.58863874934832 110.4155339805875,49.50921907535667 111.03554242293467,49.342437380575575 111.84398480367963,49.167713148992334 112.08712536931853,49.13594504626599 112.39712959053577,49.14388707368926 112.74968341071508,49.207423251144064 113.13262980157742,49.350379377705394 115.3938370620308,50.271643134212354 115.9712959054159,50.398712766356766 116.36032081043231,50.43048012775398 116.530519206397,50.42253828916 116.98640776696266,50.38282907865505 117.49092444067355,50.30341057021724 117.8191642042948,50.279584994976176 118.14132545376197,50.208108206265024 118.91329674964072,50.11280567444919 121.20489658080623,49.858664769089955 121.49666525959037,49.81101321647293 121.52097931614844,49.755419685370725 121.53921485858154,49.63629049781957 121.56352891513961,49.596580710360286 121.60000000000582,49.596580710360286" stroke="#4dd2ff" stroke-linecap="round" stroke-linejoin="round" stroke-width="0.5"><title>2024-09-24 7.1km</title><desc>12492762213</desc></polyline><polyline fill="none" points="187.59999999997672,49.59936953771103 187.29461331822677,49.65523047979514 186.51282341295155,49.711091364497406 185.47450869501336,49.84675327408331 184.97978227058775,49.88665377130019 183.82542061360436,50.03029531889479 183.3123709882202,50.12605613981577 182.54890428390354,50.237776884416235 182.1030397285358,50.2537369720485 181.8159762476862,50.20585669510183 181.4128658277914,50.08615581828781 181.1685564823856,49.97443476215267 180.94257033790927,49.86271347647926 180.6616145906737,49.750991961245745 180.32568924076622,49.575429116426676 179.1163579810236,49.0806580492972 178.8537254347466,48.984895387253346 178.6460624911415,48.93701399297788 178.38953767847852,48.91307328004041 177.90091898766696,48.93701399297788 177.15577548422152,49.07267783390853 176.74044959704042,49.16046013882078 176.22739997168537,49.28016305352867 175.9708751590515,49.359964850267716 175.58608794005704,49.45572685173829 175.3356708610081,49.50360778924005 175.13411565104616,49.51956809234616 175.0608228474157,49.55946882968783 174.98142231017118,49.58340925802622 173.9064611904323,49.81483285521608 173.02694754698314,50.038275393766526 172.6726989961462,50.08615581828781 171.9031245581864,50.29363717063461 171.26181252652896,50.421317609339894 170.24792874310515,50.67667758735115 168.94698147886083,50.955976190118236 168.58662519438076,51.05173538083545 168.04914463451132,51.17941403945224 167.74986568637541,51.28315272884356 167.0596917856601,51.410830844073644 167.02304538383032,51.42679058740396 167.01693765021628,51.44275032605219 166.82149017386837,51.4746697892806 166.6810123002797,51.53052880484756 165.459465573309,51.81780283565968 165.09300155518577,51.92154030712845 164.73875300434884,51.993358440693555 164.5249823271297,52.009318013038865 164.32342711719684,52.049216923442145 163.93863989817328,52.17689323995364 163.40115933830384,52.312548997808335 163.0041566520522,52.44022469603806 162.21015127951978,52.63173768130582 161.9658419340849,52.75143295458474 161.75207125689485,52.93496519523251 161.4466845751158,53.25415022533343 161.19626749609597,53.453639917777764 161.03746642160695,53.60525159454846 160.79315707620117,53.87655564544184 160.3411847872194,54.331385870536906 160.19459917995846,54.4351185470332 159.99915170363965,54.67450089140766 159.74262689097668,54.92984089732272 159.5899335501017,55.12134511497425 159.11353032654733,55.552227138996386 159.0158065884316,55.624040477752715 158.76538950938266,55.77564610369518 158.72263537393883,55.807563023750845 158.63712710305117,55.90331367143153 158.3928177576745,56.27035625921417 158.31341722040088,56.37408523721024 158.1729393467831,56.49377227369769 157.06133182521444,57.19593091550996 156.82923794712406,57.363490160667425 156.54217446627445,57.499132981029106 154.76482397847576,58.56032689888161 153.90974126959918,59.047032972630404 153.79980206416803,59.08692671995959 153.73872472782386,59.03905421965828 153.51273858331842,58.60022100322021 152.81034921531682,57.4672170537342 152.41334652903606,56.77304100112451 151.9247278382245,55.87937602531383 151.88197370278067,55.77564610369518 151.88808143642382,55.71181220745348 151.741495829192,55.5043515271318 151.7048494273913,55.46445515172309 151.64987982466118,55.440517312435986 151.39946274564136,55.624040477752715 151.16736886752187,55.751708401392534 150.88030538664316,55.90331367143153 150.41000989676104,56.10279364600865 150.092407747783,56.246418774640915 149.85420613599126,56.38206438118141 149.6648663933156,56.50973052532936 149.2373250388482,56.74910373782404 148.65709034353495,57.05230829445645 146.38501343133976,58.289046213267284 146.13459635231993,58.36883479066819 145.74980913329637,58.544369248953444 145.33448324614437,58.6879879297594 145.1573589707259,58.72788194047462 145.0779584334523,58.74383953656434 145.04741976526566,58.719903140685346 144.99855789620779,58.65607270014516 144.56490880812635,57.427322118259326 144.39999999999418,57.03635020205911" stroke="#4dd2ff" stroke-linecap="round" stroke-linejoin="round" stroke-width="0.5"><title>2024-09-24 7.1km</title><desc>12488248833</desc></polyline><polyline fill="none" points="12.412172442971496,104.46112308601732 12.39999999999418,104.60424090096421 12.412172442971496,104.6519467552971 12.521724429388996,104.95408285750455 12.686052409146214,105.52654664230067 12.856466610304778,105.95589051252318 13.00862214708468,106.46473810237876 13.045139475900214,106.53629441151497 13.06948436179664,106.56014649358622 13.130346576479496,106.59194925331758 13.166863905324135,106.58399856513643 13.239898562984308,106.64760403797845 13.3372781064827,106.6794067464034 13.598985629738308,106.61580131088704 13.897210481809452,106.52834371517383 14.31715976333362,106.36932954321674 14.536263736255933,106.2500686080457 15.029247675382067,105.96384129284706 15.564835164812393,105.7014649259545 16.80033812340116,105.03359207813992 17.177683854621137,104.87457352025376 17.51851225696737,104.6598977269532 17.89585798815824,104.45317208520282 19.642603550310014,103.55470148054519 19.691293322044658,103.54675034675893 19.752155536756618,103.59445713202513 19.81301775146858,103.6739683474807 19.898224852076964,103.83299042838553 20.05038038882776,104.15898423539693 20.232967032963643,104.47702508410293 20.4459847844264,104.77121120740048 20.89027895181789,105.55039916876194 21.267624683008762,106.10695513942119 21.401521555351792,106.35342810033762 21.651056635659188,106.85432130912886 21.69366018596338,106.92587710393127 21.791039729490876,106.94177837882671 21.845815722743282,106.92587710393127 21.876246830099262,106.95767964904371 21.967540152167203,107.02128468332376 22.089264581591124,107.0133340581051 22.31445477597299,106.92587710393127 22.67962806421565,106.68735742058925 24.03685545225744,105.88433343705037 24.602874049014645,105.55835000858133 25.04716821637703,105.32777518012153 25.558410819940036,105.00973932418492 25.85663567201118,104.83481880785257 26.01487743022153,104.755309295615 26.221808960224735,104.61219187960523 26.611327134392923,104.31005387126424 27.457311918842606,103.48314123439559 27.61555367708206,103.35592278572221 27.889433643285884,103.18099693109616 28.029416737088468,103.05377777308968 28.309382924780948,102.76753357555936 28.498055790376384,102.47333657470881 28.62586644125986,102.3063591880782 28.796280642418424,102.13938128686277 29.10667793743778,101.86903502261339 30.05004226541496,100.92281247612118 30.220456466602627,100.80353955391911 30.421301775146276,100.70812102715354 30.707354184269207,100.60475076686271 31.11513102281606,100.47752556042542 31.486390532547375,100.39005805771376 31.985460693133064,100.33439684611949 32.35672020286438,100.26283234719813 32.837531699071405,100.1276547024645 33.19053254436585,100.00838002998353 33.999999999970896,99.76982989741373 35.04683009299333,99.53923043763643 35.93541842774721,99.31658175218035 37.183093829255085,99.03826960879451 37.76737109044916,98.87923345646414 38.38207945902832,98.76790787210484 38.893322062533116,98.63272649787541 38.899408284021774,98.6088709262367 39.86103127637762,98.38621841782515 40.28706677939044,98.30669944308102 40.62180896024802,98.17946884075354 41.18174133557477,98.08404569296181 41.814708368561696,97.93295869858048 42.58157227389165,97.7818712829212 43.94488588333479,97.43198301853772 44.43786982249003,97.3445105994324 44.95519864751259,97.20932567390992 45.53947590870666,97.08209249476567 45.91682163986843,97.00257160604087 46.10549450549297,96.97871531667624 46.36111580725992,96.98666741429406 46.921048182586674,97.07414041113225 47.52967032964807,97.3047503622438 48.272189349110704,97.61487943857719 48.60084530853783,97.70235142123056 48.70431107352488,97.74211136665326 48.92950126796495,97.84548708823058 49.25207100590342,98.02838211247945 49.50769230767037,98.12380535830744 49.78157227387419,98.20332460143982 50.18934911242104,98.25898800220602 50.41453930683201,98.27489182049976 50.651901944191195,98.25898800220602 51.91783601013594,98.11585342756007 52.459509721025825,98.00452627474806 53.85325443785405,97.84548708823058 55.386982248484856,97.69439942864119 55.47218934909324,97.69439942864119 55.59999999997672,97.71825540289501" stroke="#4dd2ff" stroke-linecap="round" stroke-linejoin="round" stroke-width="0.5"><title>2024-09-23 7.1km</title><desc>12484262436</desc></polyline><polyline fill="none" points="121.59999999997672,97.68638494826882 121.47242300657672,97.71813487825057 121.37522148780408,97.7816346823347 121.33877091828617,97.77369721088326 121.22941920964513,97.71019739750409 121.18081845025881,97.7022599155789 120.26347911683843,97.77369721088326 119.57699339048122,97.83719694974207 119.23071297985734,97.88482170493808 118.7143299113668,97.92450896891023 118.1432709885703,98.01182084713219 117.56006187593448,98.05944544856902 116.56374630850041,98.23406862835327 116.16886513849022,98.28963043095064 115.97446210094495,98.29756782667755 115.701082829386,98.26581823683591 115.65248206999968,98.27375563605165 115.10572352691088,98.08325773355318 114.85056954013999,97.97213364723575 114.69261707214173,97.87688424864973 114.46783855993999,97.76575973830404 112.80326255096588,97.083132736876 112.5724089438736,97.01169452942486 112.35370552664972,96.96406900534566 112.14715229926514,96.94819382132846 111.81302207845147,96.95613141393915 111.62469413582585,96.98788177261304 110.60407818868407,97.21013376163319 109.99656869636965,97.32125941362392 109.25540711573558,97.5276350187014 108.55677119953907,97.68638494826882 107.62728167625028,97.86894679120451 107.03799746872392,98.03563315308202 105.95055547740776,98.2420060322329 105.6407256363018,98.3293173978891 105.34304598506424,98.37694171975454 104.17055266487296,98.69443612712712 103.67846997606102,98.78968408587752 102.56672760512447,99.08336423616856 101.94099282799289,99.2024233022712 101.2909576712118,99.37704279179889 100.92037688088021,99.45641510066343 100.7320489382546,99.5199128639033 100.37969343268196,99.5913477584254 99.17074954294367,99.89296071738136 98.150133595831,100.09138937836542 96.99586556042777,100.41681080650596 96.14535227115266,100.56761519465726 95.96309942341759,100.63904870546321 95.82944733512704,100.7342932397587 95.68364505693899,100.86128569127322 95.63504429755267,100.90890778371977 95.61074391787406,100.95652983424952 95.54391787369968,101.04383681794206 95.31913936152705,101.28988301384015 95.01538461536984,101.55973884496416 94.84528195753228,101.70260315166524 94.73593024889124,101.86134082767967 94.50507664179895,102.09150963041975 94.32889888904174,102.21056207510628 94.28029812962632,102.28993022598661 94.23777246518875,102.34548786230516 93.8003656307119,102.75026320452525 93.66063844747259,102.89312436683758 93.49053578960593,103.10741540280287 93.20500632820767,103.3851988155293 92.94377724651713,103.61536113398688 92.8587259175838,103.67091740895557 92.70077344958554,103.72647362685893 92.55497117142659,103.82171272480264 92.46991984249325,103.9725076202667 92.39701870339923,104.14711171092495 92.36664322880097,104.19473091055625 92.28766699478729,104.30584221335084 92.06896357756341,104.50425468634785 91.43715370551217,104.9328231443651 90.75066797918407,105.34551548741729 90.29503585994826,105.5756694650263 88.72158627476892,106.52008415447199 87.76172127688187,107.05180617867518 87.7070454225759,107.05180617867518 87.62199409367167,106.95657276750353 87.44581634088536,106.6153183340466 87.25141330331098,106.28199797200068 86.63782871607691,105.27408819182165 86.04854450852145,104.2582231115266 85.89666713544284,103.98044418207428 85.76909014204284,103.6947272236248 85.59898748420528,103.44075532688657 85.51393615527195,103.48043851437251 85.37420897203265,103.58361466552378 85.22233159892494,103.68679061989678 84.09843903811998,104.20266743975662 83.67318239348242,104.4486992672646 83.56990577979013,104.53600061451652 82.5432147377287,105.09948773883661 81.86280410629115,105.44075173484453 80.44730698916828,106.1946994425416 80.07065110394615,106.3692963605572 79.5421178455872,106.59944598242146 79.1229362958693,106.74229697938426 79.07433553651208,106.75023313481142 78.98928420757875,106.71055234597225 78.97105892279069,106.67087152804743 78.87993249896681,106.37723257074322 78.6004781324882,105.65503267851818 78.51542680355487,105.35345184776816 78.39999999999418,105.04393293106841 78.39999999999418,105.012187301003" stroke="#4dd2ff" stroke-linecap="round" stroke-linejoin="round" stroke-width="0.5"><title>2024-09-23 7.1km</title><desc>12480412433</desc></polyline><polyline fill="none" points="144.39999999999418,104.60460640955353 144.49739326478448,104.9226895515676 144.54608989716507,105.24872283485092 144.57043821332627,105.34414683946306 144.68609271527384,105.5190904115625 144.77131182191079,105.70198536046155 144.83826969144866,105.89283160570267 144.98435958856135,106.3778961212156 145.10001409047982,106.6403062628633 145.13653656476527,106.67211346642216 145.2400169085886,106.71982423678128 145.2948006200022,106.71187244463363 145.90350852475967,106.52898090336384 146.20177539807628,106.41765531524288 146.34786529521807,106.346088744991 148.49660419896827,105.20896278336295 148.8983514161082,105.01016208839064 149.3427081865957,104.8352168736019 149.79315203608712,104.5409895571429 150.51142736370093,104.1274781963657 150.86447794843116,103.94457793433321 151.32709595604683,103.72986814351316 151.63144990839646,103.56287105149386 151.71666901512071,103.5469665396995 151.80188812175766,103.64239354045276 151.99667465125094,104.05590860213852 152.30102860365878,104.56484588555031 152.44103142176755,104.7636482138987 152.55668592365691,104.97040186187587 152.7514724531793,105.27257885177096 152.9949556150532,105.63041784526649 153.1714809074474,105.95644687144159 153.28713540933677,106.11548470916023 153.53670565027278,106.55283635678279 153.69496970553882,106.87885983468368 153.77410173314274,106.918618661246 153.87758207696606,106.918618661246 153.95062702550786,106.99018447556227 154.09671692267875,106.99813622688453 154.27324221504387,106.92657042304563 154.60803156264592,106.74367960621385 156.54372269974556,105.60656198584911 156.7019867549825,105.51113844324573 156.9211216006952,105.41571473265503 158.07766661973437,104.7397919730065 158.38810765114613,104.50918110293424 158.68637452446274,104.25471279726116 158.94203184446087,103.9922911056783 159.08812174160266,103.8650558887748 159.61161053969408,103.35611203416192 159.72117796252132,103.26863682786279 159.95248696635826,103.1175429571449 160.0377060730243,103.03801969809865 160.41510497394484,102.60859208298643 160.46988868538756,102.52906807717955 160.52467239680118,102.41773427300723 160.6281527406245,102.30640024013701 160.78641679586144,102.16325614750167 161.1212061434635,101.89287182989938 161.48643088631798,101.52705560600225 161.7664365224773,101.22485773251537 162.02209384247544,100.97832664032467 162.26557700440753,100.81132106970836 162.46036353390082,100.70793641098862 162.73428209105623,100.59659886561349 163.22733549389523,100.4534502569004 163.62908271103515,100.35801764102871 164.2073552205402,100.27849033275561 164.3351838805247,100.23077389176615 164.65779907003161,100.15919915152699 165.0960687614861,100.0240021620375 165.418683950993,99.95242714869892 165.69868958718143,99.86494644847699 166.7030576300167,99.62636200285851 167.16567563760327,99.49116368408431 168.41352684234153,99.23667181611381 168.9978864309087,99.06966087826731 169.4726785965904,98.98217875302726 169.97790615755366,98.85493177329408 170.28834718896542,98.79130817140322 170.58661406231113,98.71177856398936 170.88488093562773,98.64815479400568 171.2501056784822,98.53681301681718 172.65013385939528,98.22664543123392 173.0701423136925,98.11530278798091 174.78669860507944,97.7415079553939 175.27975200794754,97.59835180476148 175.71193462031079,97.51882044658123 176.04672396788374,97.44724212437723 176.39977455264307,97.39157003067521 177.051092010719,97.21660022089054 177.58675496693468,97.08934909530217 178.0615471326164,97.00981699004842 178.30503029451938,97.00186377311547 178.57286177261267,97.0177702058354 178.79199661829625,97.04958305727996 178.93199943640502,97.08934909530217 179.23635338878375,97.20864703430198 179.9850641116209,97.51882044658123 180.4355079611123,97.7256017351283 181.0746512611222,97.95624147224225 181.53118218967575,98.15506804399047 181.92684232781176,98.24255150445242 182.37119909824105,98.29026969607366 182.5842468648916,98.28231666706415 183.48513456390356,98.1709741382183 183.78340143722016,98.15506804399047 184.28862899821252,98.05167831772997 184.61733126675244,98.01986605457205 185.09212343246327,97.95624147224225 185.93214034099947,97.88466372785479 186.3338875581394,97.82899208351228 187.38086515432224,97.70969551016242 187.4721713400504,97.70969551016242 187.60000000000582,97.7335548458359" stroke="#4dd2ff" stroke-linecap="round" stroke-linejoin="round" stroke-width="0.5"><title>2024-09-20 7.1km</title><desc>12458958082</desc></polyline><polyline fill="none" points="55.60000000000582,145.81218015481863 55.563400169456145,145.82015012230477 55.575600112963,145.75639034975393 55.557300197688164,145.71654045389732 55.47800056482083,145.68466051615906 55.29500141204335,145.66872054026317 55.081502400455065,145.66872054026317 54.95950296524097,145.69263050233712 54.63010449023568,145.7962402163539 54.044507201353554,145.85999994212398 53.64190906524891,145.86796990257062 53.31251059024362,145.8360900537482 53.09291160691646,145.8440600176982 52.90991245410987,145.88390981997873 52.62931375319022,145.91578964075234 52.415814741601935,145.9636093368208 51.848517367994646,146.02736886606 51.62891838463838,146.11503809654096 51.50691894945339,146.1469177816398 51.159220559173264,146.17879744800666 50.95182151935296,146.21067709567433 50.469923750380985,146.22661691246685 50.03072578369756,146.21067709567433 49.890426433237735,146.21864700465812 49.86602654616581,146.22661691246685 49.859926574426936,146.25052662892267 49.5427280429285,146.17082753315844 49.35362891841214,146.10706817235405 48.8595312058751,145.8440600176982 47.84693589381641,145.42962034049924 47.75543631744222,145.3897702048307 47.68223665631376,145.33397996580243 47.57853713640361,145.27021962244908 47.03563964981004,145.03908775018863 46.706241174804745,144.97532706056154 46.46834227620275,144.94344668771373 46.1572437165014,144.92750649424852 45.8583451002778,144.94344668771373 45.51674668173655,144.99923732796015 45.1446484044136,145.0948782921805 44.723750353005016,145.15863884142163 44.278452414582716,145.27021962244908 43.86365433494211,145.39774023431528 43.345156735391356,145.49338049669313 42.802259248826886,145.6288705800871 42.23496187516139,145.7404503949183 41.09426715617883,146.02736886606 40.807568483491195,146.0592486026071 40.66726913303137,146.08315839273928 40.53306975431042,146.13097794142232 39.8254730302433,146.31428582131048 39.69127365152235,146.37007505324073 39.53267438575858,146.41789434925886 39.1422761931608,146.48165334515215 39.03247670151177,146.5135328150136 39.01417678623693,146.50556294930357 38.96537701215129,146.50556294930357 38.78847783114179,146.5613519847211 38.16628071165178,146.70480924122967 37.690482914447784,146.83232648442208 37.26348489127122,146.90405480213667 37.00728607739438,146.9996924117404 36.757187235256424,147.031571577485 36.47658853433677,147.11126941003386 36.311889296834124,147.12720896249812 36.22038972043083,147.151118282447 36.12279017228866,147.14314851031304 36.07399039820302,147.15908805343133 35.88489127365756,147.2467554569521 35.75069189493661,147.2706647242485 35.61039254447678,147.27863447766867 35.19559446483618,147.36630168821284 34.902795820409665,147.45396875723236 34.73809658290702,147.51772653672742 34.25009884213796,147.669150963 33.89020050832187,147.74087817545296 33.47540242871037,147.87636265163746 32.8715052245243,147.95605924442862 32.6336063259223,148.0277860779497 32.29200790738105,148.083573549633 31.877209827740444,148.2110875554754 31.407512002275325,148.3146924647408 30.956114092085045,148.4501755094061 30.44371646430227,148.64941466698656 30.181417678657454,148.83271404639163 29.400621293403674,149.31885288261037 29.19322225358337,149.47027228707157 28.77842417397187,149.90858923602718 28.564925162412692,150.11579238050035 28.394125953142066,150.25127093217452 28.253826602653135,150.41065703090135 27.991527816979215,150.6497353019804 27.808528664230835,150.84896639061117 27.704829144320684,150.95256626787886 27.540129906788934,151.1517962456528 27.03383225077414,151.62994521062865 26.765433493390447,151.8530799537184 26.680033888755133,151.94870884873671 26.46653487716685,152.26747061603237 26.3628353572567,152.37903679261944 26.253035865578568,152.46669577060675 24.83784241741523,153.33530890600014 24.715842982230242,153.4229663406586 24.020446201669984,153.8054698546548 22.74555210393737,154.55453143369232 22.159954815055244,154.87327790870404 21.891556057613343,155.04061905933122 21.793956509471172,155.07249350575148 21.68415701779304,154.98483873307487 21.659757130779326,154.93702697926346 21.50115786504466,154.65015557260267 21.275458909920417,154.29156418370258 20.872860773815773,153.57437430369828 20.183563965023495,152.41888180017122 19.64066647842992,151.42274784263282 19.335667890438344,151.6458834369696 19.15266873766086,151.7494817941406 17.926574414013885,152.38700579647775 17.694775487150764,152.498571727534 16.505280994082568,153.15999361222566 15.706184693612158,153.56640547407733 14.742389155609999,154.11625197640387 13.845693306997418,154.55453143369232 13.56509460604866,154.64218690077905 13.174696413450874,154.7378108853627 13.070996893540723,154.75374819978606 13.040497034729924,154.7378108853627 12.98559728890541,154.65812424324758 12.863597853720421,154.29156418370258 12.698898616217775,153.87718896368096 12.643998870393261,153.67796898261076 12.39999999999418,153.02452231586358 12.406099971791264,153.03249122498528" stroke="#4dd2ff" stroke-linecap="round" stroke-linejoin="round" stroke-width="0.5"><title>2024-09-20 7.0km</title><desc>12455295877</desc></polyline><polyline fill="none" points="78.39999999999418,152.62291325993647 78.41822272218997,152.8054259172677 78.53363329585409,153.13077303976752 78.57007874018745,153.36883066999872 78.84949381326442,153.97984045838166 78.9345331833465,154.2496347915221 78.97097862767987,154.45594719707879 79.06816647920641,154.68606395179086 79.12890888639959,154.78128439150532 79.19572553434409,154.85269961131416 79.2868391450902,154.84476459153302 80.06434195730253,154.61464851201163 80.32553430824191,154.51149271026952 81.13340832397807,154.04332159899786 81.76512935882783,153.7338503346582 82.75523059617262,153.2101256995884 83.26546681666514,152.97206737084343 83.56310461190878,152.78955527583457 84.4499437570339,152.30549847588918 85.6161979752651,151.71827621445846 85.68908886393183,151.66272783261957 85.78627671542927,151.51195336574165 86.07176602928666,151.40085612118855 86.73385826771846,151.01201396805118 87.05579302590922,150.92472248823105 87.3595050618751,150.67078283667433 87.62677165356581,150.49619863460975 88.3313835770532,150.06767138554278 88.72620922385249,149.8454707344281 89.04814398201415,149.70262697662838 89.15140607426292,149.63120495624753 89.32755905512022,149.48042482569872 89.58267716536648,149.28996511252626 90.09291338582989,148.9487231156163 90.50596175476676,148.69477418562747 90.90078740156605,148.47256789367384 91.45961754780728,148.18687274813055 91.77547806524672,148.04402460934944 91.8605174353288,148.03608859059023 91.88481439818861,148.05196062696996 91.94555680541089,148.123384733055 92.09741282340838,148.409080213969 92.20067491562804,148.55986333154942 92.43757030373672,148.84555650665425 92.9417322834779,149.49629643818844 93.58560179977212,150.55174821457695 93.69493813274312,150.7422034841802 93.7556805399654,150.86123768714606 93.90146231724066,151.0834341649679 93.96220472443383,151.21833872398201 94.07154105737573,151.09930530700512 94.51496062992373,150.5358769118393 94.660742407199,150.40097065047667 94.9705286839162,150.17877136873722 95.0798650168581,150.05973566371176 95.34713160857791,149.7502416044881 95.91203599551227,149.16299159778282 96.02744656917639,149.0836329996855 96.16715410575853,148.99633840724346 96.5802024746954,148.7900051741417 97.33340832396061,148.55192738847836 97.91653543306165,148.45669598073437 98.25669291339,148.34559245976197 98.59077615299611,148.2821046310164 99.02204724412877,148.17100075134658 99.35613048367668,148.10751271762274 99.87244094486232,147.95672833883145 100.42519685043953,147.83768774279451 101.03869516312261,147.67103046813645 101.44566929133725,147.59166968064892 101.88908886391437,147.44088386353542 102.18065241846489,147.32184213199434 102.49651293590432,147.21867241937798 102.68481439820607,147.194863996192 103.11608548930963,147.1710555625432 103.63239595049527,147.0678855622391 103.98470191226806,147.01233240362853 104.40989876264939,146.87741735225427 104.86546681664186,146.78218299568107 105.16310461194371,146.69488468819327 105.49718785154982,146.6393311464053 105.72800899887807,146.56790508024278 106.2200224972039,146.45679767869296 106.62699662541854,146.31394496983557 107.082564679411,146.24251847389678 107.39235095612821,146.1552192951749 107.73250843645656,146.0917288948549 108.10303712036693,145.99649315462375 108.88053993252106,145.84570288955365 109.69448818897945,145.6234848904278 109.9921259842522,145.6076121412625 110.33228346455144,145.50443915810683 111.2494938132586,145.3139654412662 111.54713160856045,145.23460119458832 111.92980877391528,145.17904615260704 112.21529808774358,145.14730038868947 112.37930258718552,145.15523683140054 112.76197975254036,145.22666476351515 113.15073115861742,145.36158393338337 113.40584926886368,145.44094799372033 114.17727784026647,145.80602117097442 115.05196850394714,146.1314104038065 115.45894263216178,146.32188124132517 115.87806524184998,146.4091801509967 116.3883014623425,146.45679767869296 116.56445444317069,146.4488614269976 116.72238470191951,146.42505266489025 117.09291338582989,146.32981751166153 117.24476940382738,146.30600869716 117.68818897637539,146.29807242333482 117.87041619798401,146.28219987218108 118.57502812150051,146.1552192951749 119.15208098987932,146.09966519896625 119.54690663667861,146.03617473343184 120.15433070866857,145.9885568353493 120.90753655796289,145.90919357872917 121.25984251970658,145.861575568837 121.36310461192625,145.84570288955365 121.45421822273056,145.78221212584685 121.49066366706393,145.74253036065056 121.54533183350577,145.6314212632533 121.57570303711691,145.59967576493 121.60000000000582,145.6076121412625 121.5939257592836,145.6155485164163" stroke="#4dd2ff" stroke-linecap="round" stroke-linejoin="round" stroke-width="0.5"><title>2024-09-19 7.0km</title><desc>12450830462</desc></polyline><polyline fill="none" points="187.60000000000582,145.83945905048313 187.35805096614058,145.84736206334856 187.18868664241745,145.8631680856197 187.14029683562694,145.79204094889064 187.07980957717518,145.74462280553416 187.03141977038467,145.73671977758931 186.86810417252127,145.7288167484694 186.40235228228266,145.75252583233305 185.07768132176716,145.8789741032415 183.82559507142287,146.021228053105 183.48081769814598,146.05283999092717 182.80336040328257,146.18719051966036 182.05331839821883,146.28202598516145 181.79322318680352,146.2899289330744 181.4182021842571,146.2583171344304 181.06132735928986,146.15557866067684 180.77703724446474,146.02913103931132 180.42621114535723,145.84736206334856 180.09957994960132,145.69720462043915 178.7749089890567,145.15189249052855 178.43618034163956,145.0412487757785 178.24262111456483,144.99382997128123 178.0732567908126,144.97802369383498 177.73452814336633,144.97012055338564 177.589358723053,144.99382997128123 176.48244189302204,145.2230204728221 176.0045925511222,145.30995454581353 175.64771772615495,145.41269463294884 174.98235788295278,145.55494981459924 174.51660599274328,145.6893015855203 173.41573788854294,145.92639212829454 173.07700924112578,146.0133250657309 172.30882105851197,146.1792875566498 172.0124334920256,146.2583171344304 170.9901988238853,146.46379349389827 170.47000840102555,146.5902400946252 169.6715765892004,146.79571518757803 169.21792215065216,146.89845244004755 168.51626995237893,147.0644122030426 168.1110053206503,147.14344048184284 167.37910949316574,147.34101067148003 166.743993279204,147.4674552124161 165.8608793055464,147.69663518618108 165.3043965276156,147.82307889212098 164.43942873147898,148.0364519726645 164.08860263231327,148.09177078146604 163.4716325959307,148.2656295249435 162.5159339120728,148.479000852014 162.14091290955548,148.58173489318142 161.97759731169208,148.6370531418761 161.82637916548993,148.7318842931163 161.59652758331504,148.92154609463978 160.94326519183232,149.53003986529802 160.39887986559188,150.11481960777382 160.27185662279953,150.19384341027398 160.13273592831683,150.36769536764768 159.32220666483045,151.19743561480936 158.85645477456274,151.61625202768118 158.64474936993793,151.75058867778716 158.53587230469566,151.82961008013808 158.45723886869382,151.91653348879845 158.4269952394534,151.95604408274448 158.29997199666104,152.21681327575425 158.25158218989964,152.28793192742523 158.20924110893975,152.343246369368 158.0822178661474,152.45387508283966 157.5015401848359,152.82526981606134 156.09823578828946,153.65497220254474 155.48731447773753,154.03426046509776 154.47717726128758,154.60318785093114 153.88440212825662,154.96666609018212 153.8057686922839,155.0061744466475 153.72108653039322,155.02987944661436 153.61825819098158,154.96666609018212 153.5275273032894,154.82443576695368 153.40655278635677,154.60318785093114 152.61416970039136,153.27568126897313 152.25729487539502,152.69883785397542 152.02744329322013,152.2563236493952 151.6947633716045,151.6478606813871 151.54354522546055,151.41869752174534 151.45281433773926,151.45820848091535 151.33788854663726,151.56883901234323 151.18062167463358,151.6794693165175 150.3942873144697,152.03506518364884 149.95877905350062,152.31163812379964 149.61400168022374,152.48548324495277 149.50512461495236,152.5566015418517 149.2813217586372,152.6672298170779 149.0454214506026,152.8015638457873 148.51918230188312,153.07023089801078 147.05539064688492,153.86042034297498 146.55334640157525,154.1448857052128 146.49890786892502,154.19229645286032 146.4686642397137,154.27131427286804 146.426323158812,154.30292136839125 146.34164099692134,154.3503319769261 146.28115373846958,154.3819390261051 145.75491458975011,154.50836703729874 145.11374964998686,154.7138119225565 145.06535984319635,154.7138119225565 144.98067768130568,154.66640163396733 144.85365443854243,154.27921604848234 144.60565667881747,153.63916846696884 144.5209745169559,153.3547004337306 144.39999999999418,153.02281916264837" stroke="#4dd2ff" stroke-linecap="round" stroke-linejoin="round" stroke-width="0.5"><title>2024-09-19 7.1km</title><desc>12446825930</desc></polyline><polyline fill="none" points="12.39999999999418,200.75578438884622 12.436471084831282,200.90666152123958 12.618826509045903,201.48634343342565 12.752553820173489,201.78015244277412 12.83765301812673,202.00249333564352 12.977458843350178,202.45511304538377 13.068636555486592,202.68539179590516 13.123343182756798,202.78067926815493 13.159814267623005,202.8045011100039 13.257070493884385,202.85214476226975 13.311777121125488,202.84420415647764 13.992570704926038,202.62980735961537 14.199240185727831,202.5424602729654 14.685521317005623,202.30424022934312 16.65495989867486,201.2560595814757 17.402617138024652,200.89077973763415 17.925369354139548,200.58108402592188 18.6061629379401,200.21579962663964 19.11675812577596,199.96962831483324 19.63343182776589,199.69963268540596 20.06500633180258,199.4058123817631 20.69109328830382,199.0961081728019 21.578556352877058,198.53228313967702 22.076994512433885,198.24639778005803 22.53288307299954,197.9605109102522 22.982693119440228,197.69844661961542 23.681722245673882,197.30931851367495 23.851920641609468,197.19019710555222 24.24094554662588,196.8804802173654 24.544871253689053,196.6898843282288 24.98860278594657,196.45163852285623 25.699788940459257,196.10220944443063 25.845673279865878,196.0545598498211 25.882144364673877,196.0704430526821 25.95508653440629,196.14191740789101 26.119206416187808,196.46752160920005 26.240776699007256,196.65811828144797 26.648037146485876,197.11872413482706 26.915491768653737,197.4522638573144 27.061376108060358,197.6746225303068 27.426086956518702,198.31786926153654 27.596285352454288,198.58787178422062 27.73609117770684,198.8419905750925 27.967074715037597,199.20728424660047 28.07648796957801,199.0961081728019 28.471591388777597,198.60375424359154 28.611397214001045,198.44492943998557 29.09159983115387,198.0558067013335 29.225327142252354,197.92080428112604 29.474546222016215,197.6190329476849 29.906120726052905,197.18225566903493 30.11886872095056,197.01548523268502 30.26475306035718,196.92812908475025 30.75711270578904,196.73753336344816 31.492612916830694,196.5231123746089 32.18556352891028,196.39604768404752 32.702237230871106,196.2848658350522 33.729506120726,195.98308537927733 35.00599409031565,195.69718655300676 35.97855635287124,195.45893637735207 36.4709159983031,195.36363601340054 36.7687631912122,195.27627719898373 37.35837906287634,195.14920958087532 37.838581680029165,195.02214166436534 38.32486281133606,194.9347822987147 39.69252849303302,194.5774016069954 40.65901224146364,194.35503020764736 41.260785141406814,194.17236730317381 42.37923174336902,193.96587806000025 43.75297593922005,193.64820076272008 43.97788096239674,193.58466507948833 44.458083579549566,193.5052453705066 45.70417897848529,193.2113914338588 46.026340227923356,193.15579726633587 46.20869565216708,193.1478552377339 46.57948501475039,193.1796233451205 46.810468552139355,193.22727547121394 47.59459687632625,193.51318734666347 48.24499788938556,193.8070396444782 49.430308146897005,194.2835534923688 49.56403545799549,194.32326279028712 49.91051076402073,194.39473945311693 50.30561418319121,194.44239050922988 50.512283663993,194.44239050922988 51.30249050233397,194.35503020764736 51.70975094975438,194.29943721504605 52.737019839609275,194.13265789451907 53.39349936682265,194.0691227800853 55.533136344427476,193.82292350701755 55.55745040101465,193.66408467187648 55.57568594344775,193.6084909694182 55.60000000000582,193.60054900727482" stroke="#4dd2ff" stroke-linecap="round" stroke-linejoin="round" stroke-width="0.5"><title>2024-09-18 7.0km</title><desc>12442293676</desc></polyline><polyline fill="none" points="121.60000000000582,193.75738265818654 121.52674862227286,193.6935777916333 121.42908011868712,193.6696509473586 120.03119966085069,193.78928506334705 119.42687579483027,193.8530898175195 118.79203052137746,193.90094333398156 118.31589656634605,193.98867467138916 117.87638830012293,194.02057694079122 117.51623569306685,194.10033253235088 116.47850784228649,194.25186783384197 116.17329376854468,194.25186783384197 115.89249682068476,194.21199016390528 115.51403136923909,194.10033253235088 115.25154726579785,193.98867467138916 115.0256888512231,193.8530898175195 114.74489190336317,193.72548023425406 114.2077151335252,193.52608966052867 113.28596863077837,193.11933062161552 113.00517168291844,193.01564645806502 112.83425180162885,192.96779216200594 112.65722763881786,192.93588927456221 112.28486646883539,192.91196209668487 112.12005086900899,192.9199378238336 111.48520559561439,193.0395735902748 111.10063586264732,193.13528201382724 110.54514624839067,193.21503890467284 110.31318355238182,193.2708686586193 109.95303094532574,193.38252799446127 108.93972022045637,193.62179722723158 108.44527342094807,193.701553404062 108.04849512505461,193.82118744979743 107.31598134804517,193.99665024050773 106.89478592624073,194.06843030978416 105.87537091990816,194.2997209991736 105.44196693514823,194.37947618105318 105.22831708352896,194.43530473873034 105.22221280203667,194.43530473873034 105.22221280203667,194.45923124590263 105.0085629504174,194.52303521349313 104.55074183977558,194.60279006765268 103.98914794402663,194.7622994248195 103.45807545571006,194.8659802559123 102.87816871557152,195.01751342249554 102.63399745654897,195.08929214338787 101.79771089443238,195.2807016023071 101.58406104281312,195.3524799755869 101.29715981349,195.4003321717646 100.77829588809982,195.53591316548045 100.36930902925087,195.60769120170153 98.8615515048732,195.9905057937467 98.32437473506434,196.07025849432466 98.0740991945786,196.15798632982842 97.750572276389,196.24571402370566 96.37100466300035,196.58067300679977 96.18177193726297,196.66840001839228 95.86434930056566,196.91562992547915 95.59576091563213,197.1947591140597 95.156252649409,197.58553756969195 94.6679101314221,198.09593785157267 94.57024162780726,198.16771250680176 94.42984315392096,198.32721140127978 94.22840186519898,198.51063455125768 94.05748198390938,198.69405708221166 93.89877066554618,198.83760471815185 93.62407799914945,199.14862329535754 93.32496820687084,199.41976624387462 93.11742263671476,199.62710993888686 92.8854599406477,199.80255398608278 92.76947859264328,199.906225202325 92.66570580756525,200.0258455907242 92.48868164475425,200.29698416311658 92.28724035611958,200.4883752822243 92.05527766002342,200.64786736666792 90.82221280204249,201.38949941153987 90.33997456548968,201.65265673703107 88.95430267060874,202.48199270093392 88.50869012295152,202.70527329849938 88.08139041965478,202.9604500011883 87.95930479018716,203.06411519448375 87.91657481982838,203.08803790331513 87.87384484952781,203.08006366821428 87.84332344215363,203.06411519448375 87.78838490886847,203.0003212527663 87.5747350572492,202.63350463502138 87.38550233148271,202.26668554181742 86.34167019923916,200.52027373656165 85.91437049597153,199.7706551105257 85.85332768122316,199.64305942112696 85.86553624417866,199.64305942112696 85.74345061468193,199.42774101600662 85.68240779990447,199.45964009279487 85.52369648154126,199.59521096036042 85.42602797795553,199.65900889865952 85.09639677830273,199.81850341682002 84.74234845273895,200.00989622082125 83.82060194996302,200.48040066571411 83.33225943197613,200.75951154731956 83.02704535820521,200.91102828282965 82.37388724036282,201.27785652491366 81.89164900381002,201.5170910011875 80.9515896566445,202.02745436474652 80.56091564221424,202.20289066422265 80.28622297584661,202.35440337626278 80.08478168715374,202.4500953978677 79.51708350997069,202.65742753339146 79.21186943619978,202.76109330456893 79.15082662145142,202.75311902150497 79.11420093258494,202.72919616525542 79.09588808819535,202.69729900722086 78.98601102162502,202.36237771783635 78.67469266639091,201.525065465612 78.61364985164255,201.33367799689222 78.51598134802771,201.0705191270681 78.50377278510132,201.0226719229322 78.50987706653541,201.0226719229322 78.47935565919033,201.01469738479864 78.42441712590517,201.03862099563412 78.43052140739746,201.00672284553002 78.39999999999418,200.97482467667578 78.49766850360902,201.1103917649998" stroke="#4dd2ff" stroke-linecap="round" stroke-linejoin="round" stroke-width="0.5"><title>2024-09-18 7.1km</title><desc>12438003381</desc></polyline><polyline fill="none" points="144.4976961131033,200.8400384628767 144.44884805654874,200.87194570973224 144.39999999999418,200.86396889977914 144.39999999999418,200.87194570973224 144.44884805654874,200.99957450989314 144.46716607775306,201.07934235786524 144.52822614842444,201.24685445764408 144.60149823324173,201.48615656203765 144.6747703180299,201.6058072192791 144.72361837458448,201.80522439619017 144.8335265017813,202.05250067977977 144.9067985865986,202.31572903622873 145.00449469967862,202.5709795587827 145.03502473499975,202.61883889833916 145.03502473499975,202.6906278286915 145.04113074205816,202.68265128556595 145.0716607774084,202.67467474126533 145.06555477035,202.69860437067473 145.0777667844668,202.74646359789404 145.12661484102136,202.84218192599656 145.16935689048842,202.87408799790865 145.21820494701387,202.87408799790865 145.54182332160417,202.76241666429632 145.76774558308534,202.7065809114829 146.19516607775586,202.5310967435944 146.45772438164568,202.3954949532308 146.59816254419275,202.2997758387828 146.75691872794414,202.2279863923468 146.9767349823669,202.07643058303074 147.02558303889236,202.07643058303074 147.06832508835942,202.03654740512138 147.20265724381898,201.9647576111056 147.3919434629206,201.8929677223241 147.48353356894222,201.84510774380033 147.5445936396136,201.82915440828947 147.9536961130798,201.6058072192791 147.99643816257594,201.5739004030911 148.33837455831235,201.4143660413065 148.6131448763481,201.24685445764408 148.76579505301197,201.18304038526185 148.82074911662494,201.13517978179516 148.8818091872963,201.12720301044828 149.4557738516305,200.83206164823423 149.49851590109756,200.77622391299883 149.6084240282944,200.74431660996925 149.7854982332501,200.64061774578659 149.91983038873877,200.58477981392934 150.22513074209564,200.4252425497507 150.42662897528498,200.28963550712433 150.5121130742191,200.2577279185207 150.67086925797048,200.16200504038716 150.860155477043,200.07425892069296 151.1043957597285,199.93067405575493 151.1898798586626,199.90674320804465 151.598982332187,199.69934208678023 151.6050883392163,199.6913651047871 151.598982332187,199.67541113726838 151.65393639577087,199.63552619800248 151.7516325088509,199.58766423224006 151.8432226148725,199.50789419569628 152.02640282685752,199.40419297318294 152.16073498234618,199.35633080376647 152.2462190813094,199.3004915528727 152.8446077738481,199.00534027394679 152.97283392227837,198.9255693829764 153.02168197880383,198.9016380928624 153.54069257952506,198.5426674769551 153.7299787986267,198.43098724638548 153.8154628975317,198.3671698687467 153.96200706716627,198.29537522937972 154.20624734985176,198.13583124687284 154.25509540637722,198.1198768228678 154.60313780920114,197.88055990097928 154.7313639576314,197.8326963902 154.86569611309096,197.73696924219257 155.01224028272554,197.65719649007224 155.0671943463385,197.64921920844063 155.08551236751373,197.62528735648084 155.20152650179807,197.5534917373443 155.3053286219365,197.4737187160208 155.42744876327924,197.41787753143944 155.62894699646858,197.29821765704037 155.76327915195725,197.17058016739247 156.2273356890655,196.86743992839183 156.6425441696192,196.62014006038953 156.75855830390356,196.5323882239245 156.8867844523047,196.47654607241202 157.00890459364746,196.38879400412043 157.22872084807022,196.30901927369632 157.47906713784323,196.17340196328223 157.66835335691576,196.10160442669803 157.79657950534602,196.02980679525353 157.88816961130942,195.9978967064235 157.90648763254285,196.00587423038087 157.9370176678931,196.0377843145361 157.9553356890683,196.08564940567157 158.17515194349107,196.49250097867844 158.26674204948358,196.63609492454634 158.3705441696511,196.73182401106533 158.6025724381907,197.0269876333041 158.64531448765774,197.05889711810596 158.67584452297888,197.13867074813243 158.79796466432163,197.25833097371287 158.98114487633575,197.49765063470113 159.09105300353258,197.67315104986483 159.1093710247369,197.6891056049717 159.40245936397696,198.2076260969443 159.42077738515218,198.2475120837844 159.5123674911738,198.39907856692298 159.58563957599108,198.4948045490819 159.75050176677178,198.78995859967472 159.81766784455976,198.86175258592266 159.8543038869393,198.9175922874456 159.97642402828205,199.1648817047826 159.98253003534046,199.19678993476919 159.98863604242797,199.20476698934 160.08022614842048,199.12499639098678 160.11075618377072,199.06915690248934 160.16571024735458,199.02129443812373 160.1901342756173,198.98938610513142 160.21455830390914,198.98938610513142 160.24508833923028,198.94152357053463 160.33057243816438,198.8697296896462 160.4343745583028,198.74209588952363 160.53817667844123,198.5665989250956 160.5931307420542,198.51075886305625 160.6847208480758,198.38312422017407 160.8495830388565,198.2315576925721 160.96559717314085,198.1597628741074 161.1670954063593,197.96033232533227 161.18541342756362,197.9284233696344 161.2647915194393,197.85662815087562 161.31363957599388,197.7928100990066 161.55177385162096,197.56944632756495 161.5761978798837,197.5136052413145 161.71663604243076,197.37001361327566 161.86928621909465,197.2423762921826 161.9914063604374,197.1147386714183 162.18679858656833,196.99507812977754 162.26007067138562,196.93125906652494 162.418826855137,196.85148513215972 162.63864310958888,196.7637336690932 162.67527915193932,196.73182401106533 162.93783745585824,196.660027211954 163.03553356890916,196.6440723548585 163.13322968198918,196.61216262657035 163.26756183747784,196.58823031806605 163.34693992935354,196.54834311380182 163.53622614842607,196.5084558802846 163.57896819789312,196.49250097867844 163.71330035338178,196.47654607241202 163.9758586572425,196.40474893616556 164.03081272085547,196.41272640041643 164.1346148409939,196.37283906742232 164.2200989399571,196.36486159728884 164.44602120143827,196.29306431355508 164.4765512367594,196.30104179419504 164.6475194346276,196.2451994050498 164.78795759717468,196.21328944265406 164.8917597173131,196.21328944265406 165.17874204949476,196.13351445465014 165.3741342756257,196.10160442669803 165.5389964664646,196.06171686538073 165.67943462898256,196.00587423038087 166.00305300357286,195.9260989380091 166.0335830388649,195.91812140233742 166.05800706715672,195.93407647253116 166.16180918729515,195.91014386550523 167.07771024736576,195.6867723585092 167.17540636044578,195.67879478773466 167.49902473500697,195.58306384686512 167.84096113071428,195.51924312595656 167.98139929331955,195.4633999337093 168.17679151942139,195.43148951237163 168.38439575969824,195.37564622997888 168.40271378093166,195.3596909958942 168.55536395762465,195.29587001274194 168.70190812720102,195.24800422622502 168.86066431095242,195.2240713171377 168.98278445229516,195.1762054673818 169.15375265019247,195.1682278216722 169.2636607773893,195.14429487748566 169.4163109540823,195.08845130006375 169.52011307422072,195.0724959816689 169.5994911660964,195.04058533088755 169.77656537105213,195.00069699106098 169.831519434636,195.00069699106098 169.9108975265408,194.97676397309624 170.06965371026308,194.95283094461047 170.21009187283926,194.91294254037712 170.27725795053993,194.91294254037712 170.72910247353138,194.80125485283133 170.9916607774212,194.76136633738497 171.3335971731576,194.6576560602516 171.730487632507,194.5858565216986 171.88313780919998,194.53001237059289 172.02968197880546,194.5060791454016 172.0602120141266,194.4901236561018 172.05410600706819,194.4901236561018 172.6341766784608,194.36247957305386 173.01274911660585,194.258768534899 173.17761130741565,194.2348351902874 173.2325653710286,194.22685740639645 173.25698939929134,194.20292404776046 173.36079151945887,194.19494625921288 173.49512367491843,194.14707950327283 173.58060777388164,194.13112390858805 173.59892579508596,194.11516830921755 173.65387985866982,194.10719050779517 173.67830388693255,194.09123490141064 173.73325795054552,194.09123490141064 173.77600000001257,194.06730148303177 173.85537809188827,194.07527929032585 173.9530742049683,194.04336805416096 174.3682826855511,193.9635898817105 174.64915901061613,193.89976725945235 174.67358303887886,193.87583375679242 174.73464310955023,193.85987808250138 174.88729328624322,193.83594456228457 174.99720141346916,193.78807749021144 175.02162544170278,193.7960553384728 175.13763957595802,193.76414393838422 175.25365371027146,193.74818823130045 175.42462190813967,193.69234321962358 175.88257243816042,193.61256453202077 175.98026855124044,193.58065302419345 176.21229681978002,193.53278572734052 176.5969752650126,193.4769404943654 176.82289752652287,193.4051393962909 176.98165371024515,193.37322776668952 177.45181625444093,193.26153691557192 177.47013427561615,193.24558106095355 177.50066431096639,193.24558106095355 177.8487067137903,193.16580171764872 178.1845371024683,193.12591200209135 178.39824734983267,193.12591200209135 178.9111519434664,193.18973553293836 179.37520848057466,193.35727194486026 179.44237455830444,193.3891835838076 179.46069257950876,193.4051393962909 179.4912226148299,193.4051393962909 179.77820494701155,193.51682995234296 179.97359717314248,193.6045866568311 180.11403533568955,193.65245389046322 180.2361554770323,193.70032108196028 180.51092579506803,193.83594456228457 180.62083392223576,193.8838115922008 180.68799999999464,193.8917894264123 180.71242402825737,193.90774509134644 180.8223321554833,193.95561205800914 180.9078162544174,193.97156770421861 180.99940636043902,194.02741242901538 181.139844522957,194.06730148303177 181.57337102474412,194.26674631408605 181.76876325090416,194.31461296465568 182.0557455830567,194.3704573370378 182.5564381625445,194.41832389628325 182.81899646643433,194.4023683812011 183.2097809187253,194.33854627412438 183.4662332155567,194.31461296465568 183.64941342754173,194.28270186896043 183.72268551235902,194.29067964462592 183.85701766781858,194.28270186896043 184.08904593638727,194.2428129729924 184.17453003532137,194.21887962135952 184.22948409893434,194.21887962135952 184.38824028268573,194.17101288650156 184.72407067136373,194.13112390858805 184.87672084805672,194.12314610949397 185.24308127208496,194.05932367457353 185.6827137809305,194.04336805416096 185.7681978798646,194.03539024217025 185.81093992933165,194.01145679920592 186.07960424030898,193.99550116474347 186.19561837456422,193.97156770421861 186.49481272086268,193.94763423317636 186.61082685514702,193.91572292204364 186.65967491167248,193.91572292204364 186.70852296822704,193.89976725945235 186.7634770318109,193.91572292204364 187.4107137809042,193.84392240351372 187.47787985863397,193.81998887626833 187.55725795053877,193.82796671985489 187.5816819787724,193.78807749021144 187.60000000000582,193.70829894308918 187.60000000000582,193.63649815059398 187.5816819787724,193.6045866568311 187.56336395759718,193.6045866568311" stroke="#4dd2ff" stroke-linecap="round" stroke-linejoin="round" stroke-width="0.5"><title>2024-09-12 7.0km</title><desc>12392142310</desc></polyline><polyline fill="none" points="55.60000000000582,241.90402482209174 55.508770941902185,241.85634643486992 55.42970575817162,241.86429283564212 55.405378009338165,241.85634643486992 55.35064057444106,241.76893594919966 55.28982120231376,241.72125744301957 55.168182458146475,241.70536459829236 54.96747853021952,241.70536459829236 54.468759679060895,241.75304311847867 54.25589187670266,241.79277518656818 54.17074475577101,241.7848287752604 53.86056595807895,241.81661441341203 53.75717302551493,241.81661441341203 53.4287484161905,241.87223923525744 52.55294945798232,241.94375677938297 52.50429396031541,241.95964955415548 52.02990285799024,242.02322060651204 51.975165423122235,242.04705973189994 51.604167253302876,242.06295247632443 51.39129945094464,242.1265234074126 50.539828241599025,242.2616113881304 50.40602562300046,242.2616113881304 50.18099394624005,242.29339674636867 49.718766718317056,242.27750406958148 49.627537660184316,242.26955772944711 49.49981697878684,242.22982601123294 49.15922849503113,242.11857704512659 48.97677037876565,242.03116698278973 48.800394199672155,241.91197121589357 48.51454315081355,241.7848287752604 48.386822469416074,241.70536459829236 48.027988174027996,241.55438234069516 47.955004927527625,241.51465009768071 47.69956356470357,241.435185524173 47.407630578643875,241.29214899794897 47.328565394942416,241.27625602726403 47.018386597250355,241.11732606383885 46.83592848095577,241.05375394786097 46.8176826693234,241.05375394786097 46.62914261582773,240.99018175721721 46.4770941855968,240.95839563389745 46.22773475997383,240.94250256524901 45.83240884137922,240.97428869788928 45.58913135298644,241.0140213374434 45.443164859956596,241.06170046643092 45.41883711112314,241.07759350009292 45.351935801823856,241.07759350009292 45.23029705762747,241.1014330418402 45.05392087853397,241.10937955342888 44.914036322705215,241.14911209382626 44.76198789247428,241.17295160409776 44.47005490641459,241.2444700718952 44.378825848252745,241.25241656247817 44.2936787273502,241.2842025132013 44.15379417152144,241.29214899794897 44.080810924991965,241.3159884452216 44.0017457412614,241.35572083401712 43.314486836578,241.48286428228676 43.10770097144996,241.56232878581795 42.71845699005644,241.65768603610923 42.298803322570166,241.71331102123077 42.05552583417739,241.7848287752604 41.769674785318784,241.8404536297894 41.52031535975402,241.91197121589357 41.42300436436199,241.95170316734584 41.26487399690086,241.97554232422408 41.00335069690482,242.04705973189994 40.68100802481058,242.09473795120357 40.413402787584346,242.1821479108803 40.36474728988833,242.1821479108803 40.17012529919157,242.23777235720627 40.00591299452935,242.25366504566045 39.6349148247391,242.3410747487651 39.361227650311776,242.38080638534302 39.01455722935498,242.4761621941907 38.92332817122224,242.52384003564657 38.83818105026148,242.55562523996196 38.424609320034506,242.6350881690887 38.29688863863703,242.67481958992357 38.09010277350899,242.70660470563234 37.7373504153511,242.7940136775287 37.61571167115471,242.801959940698 37.34810643392848,242.801959940698 36.87371533160331,242.93704623628582 36.764240461809095,242.9847236718997 36.68517527807853,243.00856237397602 36.454061664117035,243.08802463839675 36.308095171058085,243.11980951153964 35.815458257100545,243.27873359724617 35.66340982686961,243.310518358423 35.54177108267322,243.31846454580955 35.298493594280444,243.382034002836 35.06737998031895,243.40587252997648 34.62948050122941,243.56479577609207 34.18549908493878,243.67604177083558 33.52256792905973,243.77934141844162 33.38876531046117,243.8190719996819 33.303618189529516,243.8667486586819 33.24279881743132,243.8667486586819 33.011685203469824,243.94620966367802 32.83530902440543,243.9700479424573 32.756243840645766,244.00183229783215 32.671096719714114,244.0097783837664 32.51296635225299,244.04950879588068 32.2757708010904,244.0733470291816 32.09331268479582,244.11307739467884 31.843953259231057,244.20048409615265 31.655413205735385,244.23226831626744 31.47903702664189,244.28789065654928 31.448627340607345,244.28789065654928 31.424299591744784,244.30378274328177 30.93774461495923,244.42297324509127 30.712712938227924,244.45475733457351 30.481599324237322,244.51832545762954 30.195748275407823,244.58983950683978 30.00720822191215,244.66135346161172 29.89773335211794,244.73286732193083 29.79434041955392,244.82821898876136 29.739602984656813,244.8679488004018 29.67270167535753,244.93946238786884 29.624046177690616,244.96330022937036 29.617964240489528,244.98713806036903 29.56322680559242,245.01892181873336 29.514571307925507,245.0983811330043 29.484161621890962,245.13016482606326 29.362522877694573,245.24140760484443 29.326031254429836,245.28908301151023 29.18006476139999,245.42416310242697 29.155737012566533,245.44800073057195 29.125327326531988,245.4400548556805 29.082753766037058,245.4638924768078 28.82123046601191,245.74994311185947 28.76041109394282,245.8373471711675 28.626608475286048,245.99626328118393 28.456314233422745,246.15517892484786 28.40765873575583,246.18696199764963 28.395494861353654,246.2266908123638 28.40765873575583,246.2107992899546 28.34075742645655,246.25052808720648 28.188708996225614,246.41738871731286 27.957595382264117,246.63192305765915 27.756891454337165,246.8702935501242 27.659580458974233,246.94975014775264 27.513613965915283,247.14044550643303 27.142615796154132,247.46621519067048 26.990567365923198,247.62512652061923 26.935829931055196,247.66485428026135 26.844600872922456,247.70458201073052 26.77769956359407,247.76814631887828 26.53442207520129,248.04623928972796 26.461438828671817,248.22103985474314 26.437111079867464,248.2289853215625 26.382373644970357,248.3084399256477 26.169505842612125,248.47529421481886 26.05394903564593,248.5547484575509 26.011375475180103,248.59447553519203 25.950556103081908,248.61036635809796 25.90798254258698,248.6500933949319 25.774179924017517,248.71365659324147 25.597803744924022,248.83283738903265 25.40926369142835,248.93612719988596 25.39101787979598,248.9599632821155 25.31803463329561,248.99969006247193 25.28762494723196,248.99969006247193 25.19031395186903,249.0711981937493 25.01393777280464,249.16654222186116 24.794988033245318,249.3333938671749 24.417907926253974,249.5399713824445 24.10164719138993,249.73860286555646 24.071237505297177,249.74654810971697 23.93743488669861,249.8498361778693 23.71848514713929,249.96901447327036 23.669829649443273,250.00874051343635 23.63333802620764,250.01668571797563 23.51169928201125,250.09613769925636 22.81227650292567,250.48545072263732 22.54467126567033,250.62051785234144 22.38045896103722,250.72380425366282 22.25273827961064,250.78736501808817 22.185836970311357,250.80325519756298 22.094607912178617,250.8509257079386 21.972969167982228,250.88270602489138 21.83308461215347,251.00982710617973 21.7601013656531,251.05749743475099 21.71144586795708,251.05749743475099 21.681036181922536,251.04160732988748 21.53506968889269,250.7476395490812 21.261382514436264,250.2788768138562 21.170153456303524,250.1517540167988 20.86605659581255,249.62736932477492 20.756581726047443,249.46846387017285 20.665352667914703,249.30161264102935 20.622779107448878,249.24599545039382 20.40991130511975,248.86461889028578 20.227453188825166,248.57858470760402 19.771307898074156,247.76020078443253 19.63750527947559,247.46621519067048 19.61925946784322,247.45826961194325 19.52803040971048,247.49799749399608 19.33949035621481,247.6410176279678 19.035393495752942,247.7999284449579 18.71913276083069,247.92705676280457 18.378544277104083,248.08596674040746 18.080529353843303,248.26871263817884 18.019709981716005,248.316385379665 17.715613121254137,248.4514579192837 17.673039560759207,248.4911850726894 17.405434323562076,248.65803879881787 17.362860763067147,248.6659842015033 17.289877516537672,248.71365659324147 16.92496128397761,248.8964003728579 16.584372800251003,249.09503421650152 16.553963114216458,249.09503421650152 16.377586935122963,249.19037820267476 16.097817823465448,249.36517507464305 15.964015204866882,249.42079214286787 15.59909897230682,249.62736932477492 14.838856821093941,250.01668571797563 14.6320709559659,250.15969920034695 14.565169646637514,250.17558956396897 14.473940588504774,250.22326062685534 14.35230184433749,250.32654778582219 14.12727016757708,250.40599931251927 14.042123046645429,250.4139444587745 14.005631423380692,250.43777989053706 13.98130367451813,250.44572503214658 13.963057862885762,250.43777989053706 13.859664930321742,250.47750558685948 13.829255244287197,250.48545072263732 13.756271997757722,250.53312151277714 13.512994509364944,250.62846296713178 13.07509503030451,250.76352974019028 13.026439532608492,250.73969445176772 12.996029846573947,250.7079140508904 12.977784034941578,250.6602434146298 12.94129241167684,250.56490201621637 12.929128537274664,250.50928612295684 12.892636914009927,250.44572503214658 12.868309165147366,250.3503832560782 12.789243981445907,250.1517540167988 12.764916232583346,250.0564117231952 12.746670420980081,250.0325761235763 12.655441362847341,249.74654810971697 12.582458116317866,249.57969773734294 12.52772068142076,249.38106567139766 12.436491623258917,249.16654222186116 12.39999999999418,249.0711981937493 12.39999999999418,249.05530750604885 12.406081937224371,249.04736216047604" stroke="#4dd2ff" stroke-linecap="round" stroke-linejoin="round" stroke-width="0.5"><title>2024-09-12 7.1km</title><desc>12388432138</desc></polyline><polyline fill="none" points="121.59999999997672,241.88251738356485 121.43094339623349,241.85885142909683 121.12301886791829,241.86674008175032 121.09283018865972,241.84307412033377 121.06264150943025,241.77996483900642 121.02037735845079,241.7484101705486 120.93584905657917,241.73263282937842 120.76679245280684,241.72474415706165 120.47094339621253,241.75629883939473 120.4045283018786,241.78785350322505 120.31999999997788,241.77207617364184 120.06037735845894,241.79574216627225 119.98188679243322,241.81151948891784 119.83698113204446,241.81151948891784 119.74641509429784,241.83518546422783 119.46867924524122,241.84307412033377 119.27547169808531,241.87462873322875 119.14867924526334,241.87462873322875 118.979622641491,241.89829468071912 118.56905660373741,241.92984926119243 118.01358490565326,242.00873563132336 117.89283018867718,242.00873563132336 117.74792452828842,242.04029014696061 117.72377358490485,242.03240151978025 117.63320754715824,242.05606739780342 117.48830188679858,242.0481787729659 117.25283018866321,242.0797332654438 117.08981132076588,242.13495358269938 116.96905660376069,242.1507308057844 116.88452830188908,242.18228523804646 116.40150943395565,242.22961685172777 116.17811320754117,242.28483701501318 115.72528301886632,242.30850278191792 115.67094339619507,242.29272560514073 115.61056603773613,242.30061419409685 115.3449056603713,242.26905983128745 115.04905660374789,242.1901738432316 114.69886792451143,242.04029014696061 114.60226415091893,241.97718109715788 114.57811320753535,241.97718109715788 114.4211320754548,241.89829468071912 114.35471698112087,241.85096277530465 113.94415094339638,241.67741209880114 113.8173584905453,241.614302622962 113.64830188680207,241.54330437405224 113.47320754715474,241.48808344897043 112.85132075470756,241.19620047393983 112.48301886790432,241.0936466199273 112.46490566033754,241.06998031812327 112.24150943395216,241.02264768330133 112.18716981131001,241.03053645865293 112.09056603771751,240.99898135026524 112.01207547169179,241.0068701290911 111.81886792450678,240.97531500677724 111.72830188676016,240.98320378910284 111.76452830186463,240.9910925702461 111.57132075467962,240.9910925702461 111.40226415090729,241.03842523288404 111.1909433961846,241.06209154855605 111.03999999997905,241.1094241486644 110.85886792451493,241.11731291128672 110.53886792450794,241.219866720141 110.39396226414829,241.20408922382194 110.29735849055578,241.2356442118289 110.0679245282954,241.27508792078515 109.99547169808648,241.29086539626223 109.9713207546738,241.3066428671118 109.82037735846825,241.3303090646914 109.4701886792318,241.42497375083985 109.15622641509981,241.51963827025247 108.99924528301926,241.54330437405224 108.69735849052086,241.63796868508507 108.5524528301903,241.65374605402758 108.46792452828959,241.68530077805917 108.15999999997439,241.72474415706165 107.76754716978758,241.83518546422783 107.59245283016935,241.85885142909683 107.50188679245184,241.8904060327186 107.47773584903916,241.88251738356485 107.35094339621719,241.92196061781215 107.27849056603736,241.92984926119243 107.25433962262468,241.9456265444751 107.01283018864342,242.01662426195617 106.77132075472036,242.0245128914321 106.60226415091893,242.0718446440551 106.39094339619623,242.1428421948367 106.2339622641448,242.16650802422373 106.07698113206425,242.23750544996437 105.8173584905453,242.27694842373603 105.73886792449048,242.30850278191792 105.64830188677297,242.32427995403486 105.4128301886376,242.38738859630757 105.28603773581563,242.41894288966068 105.13509433961008,242.4347200293887 104.8030188679113,242.52149421511422 104.6098113207554,242.5530484297269 104.45886792452075,242.60826826075208 104.15094339620555,242.66348803503206 104.12075471697608,242.6792651029864 103.87320754714892,242.7502618514518 103.61962264150498,242.81336999357154 103.5894339622464,242.80548147986337 103.45056603770354,242.83703552776205 103.36603773583192,242.8449240368318 103.22113207544317,242.90014356802567 103.07622641508351,242.9238090640065 103.00377358487458,242.96325153420185 102.90716981131118,242.97902851416438 102.82867924525635,242.99480548948486 102.74415094335563,242.99480548948486 102.75622641507653,242.9553630424707 102.46641509429901,242.98691700239578 102.10415094337077,243.1289095928587 102.1766037735506,243.10524418715067 102.14037735844613,243.13679805912034 102.02566037734505,243.1841288322903 101.7599999999511,243.24723646506027 101.65735849054181,243.29456714098706 101.40377358486876,243.3340093391198 101.264905660355,243.38133993864903 100.70943396224175,243.4838894280183 100.64301886787871,243.523331487213 100.54641509431531,243.53910830279347 100.44377358487691,243.57855032146836 100.33509433959262,243.60221551880022 100.2566037735669,243.60221551880022 99.8460377358133,243.70476458678604 99.09132075469824,243.85464364192012 98.49962264148053,244.02029895351734 98.31849056601641,244.04396395633012 98.01056603770121,244.09918225576257 97.84150943392888,244.17017712886081 97.76905660374905,244.1780654423128 97.42490566032939,244.2648368137634 97.38264150940813,244.28850170896476 97.24377358489437,244.31216659372149 97.22566037732759,244.3358314680736 96.38037735846592,244.50937356160284 96.18113207543502,244.58825614617308 96.09056603771751,244.59614439827055 96.04226415095036,244.62769739505165 95.88528301886981,244.6671386150083 95.72226415094337,244.78546210120112 95.6920754716848,244.84067963896086 95.60754716978408,244.88012070262994 95.52301886791247,244.95900274314408 95.42037735847407,245.05366103900087 95.35999999998603,245.14831916814728 95.21509433962638,245.27452974774133 95.14264150941744,245.36129934932978 94.92528301881975,245.52695001797838 94.71999999994296,245.72415252935025 94.6837735848967,245.77148102444698 94.64754716979223,245.78725718022542 94.62339622637955,245.8266975493898 94.52075471694116,245.9213543173464 94.39396226411918,246.08700326018516 94.32150943396846,246.1422194610277 94.24301886788453,246.16588352976032 94.21886792450096,246.18954758805194 94.20679245280917,246.244763683575 94.1826415094256,246.28420371709944 93.85056603769772,246.56817110415068 93.74188679241342,246.7180421759076 93.42792452828144,247.09666196979015 93.10792452827445,247.34907368426502 92.81811320752604,247.63303544645532 92.70339622639585,247.7119134475288 92.66716981132049,247.7592401926304 92.5524528301612,247.86178133075373 92.4498113207228,247.98009778552296 92.37735849057208,248.12996492111415 92.28075471695047,248.2561685007313 92.08150943394867,248.43758562737275 91.62264150939882,248.7373169301136 91.30264150942094,248.9187324331033 91.18792452829075,249.01338375688283 90.81358490564162,249.23423619758978 90.70490566035733,249.31311184942388 90.55999999996857,249.39987493274384 90.43924528299249,249.4393126516261 90.30641509432462,249.51030047268068 90.28830188675784,249.5339630588678 90.06490566034336,249.66016334263622 89.96830188677995,249.7311508720959 89.85358490562066,249.79425081957743 89.80528301885352,249.8415757315961 89.44905660377117,250.03876241656326 88.94792452827096,250.29904773330782 88.65811320752255,250.4725705777637 88.41660377357039,250.59088128694202 88.36226415092824,250.63031813217822 87.98188679243322,250.8117272475247 87.90943396222428,250.85116393073258 87.70415094337659,251.02468499322276 87.65584905658034,251.0167976843586 87.59547169806319,250.96947380681377 87.44452830185764,250.67764230823013 87.36603773583192,250.5593317899511 87.20905660375138,250.2674980650736 86.9796226414619,249.9125630214694 86.7743396226142,249.57340067938276 86.71999999994296,249.46297526907438 86.68981132071349,249.4393126516261 86.61735849053366,249.2894491660154 86.5871698113042,249.2815616025764 86.55094339619973,249.21846105334407 86.49056603771169,249.084372140318 86.22490566034685,248.62688980247913 86.1766037735506,248.57167615359867 86.16452830185881,248.52435012370552 86.14037735847523,248.50857477114914 86.06188679244951,248.37448408755517 86.02566037731594,248.32715788406858 85.83245283016004,247.94065899620182 85.74792452828842,247.8144546759213 85.71169811318396,247.7198012412664 85.65132075466681,247.62514763997387 85.62113207543734,247.54626951159298 85.54264150941162,247.4752790970815 85.52452830187394,247.4358399374105 85.37962264148518,247.44372777165336 85.3554716980434,247.4752790970815 85.34339622638072,247.54626951159298 85.32528301881393,247.5857085902462 85.2528301886341,247.64092325177626 84.83018867921783,247.82234245461223 84.58867924523656,247.94854675637544 84.50415094336495,247.98009778552296 84.37132075469708,248.05897527739944 84.13584905659081,248.185179023636 83.8460377358133,248.35082099100327 83.82792452827562,248.37448408755517 83.71924528302043,248.41392255862957 83.58641509432346,248.50068709312472 83.37509433960076,248.6032268170311 83.18792452826165,248.71365399327624 82.64452830184018,248.99760854783017 82.41509433960891,249.13958526267015 82.19169811319443,249.23423619758978 82.11320754713961,249.2894491660154 81.7207547169528,249.47875034155732 81.10490566038061,249.81002579487176 80.75471698111505,249.99932513742897 80.73660377354827,250.03876241656326 80.54339622636326,250.1570740804018 80.35018867920735,250.22806095370834 80.31999999994878,250.27538548386292 80.26566037733573,250.30693514749146 80.23547169807716,250.31482256051459 80.04830188676715,250.38580922553592 79.993962264125,250.40947142639925 79.96377358489553,250.44102101132376 79.92150943391607,250.45679579684656 79.70415094337659,250.51200750974022 79.50490566037479,250.58299391442415 79.39622641506139,250.6066560285035 79.22716981131816,250.66186758749973 79.12452830185066,250.71707908979442 79.03999999997905,250.70919173580114 78.9796226414619,250.66975494843064 78.96754716979922,250.58299391442415 78.8890566037444,250.38580922553592 78.8890566037444,250.3542596081934 78.786415094306,250.054537320113 78.70792452825117,249.8889006019199 78.66566037732991,249.77058834793206 78.64754716979223,249.68382586288135 78.60528301884187,249.59706323779392 78.52679245281615,249.33677452239135 78.39999999999418,249.03704656177797 78.39999999999418,249.00549615291675" stroke="#4dd2ff" stroke-linecap="round" stroke-linejoin="round" stroke-width="0.5"><title>2024-09-11 7.2km</title><desc>12379940467</desc></polyline><polyline fill="none" points="144.57043821332627,248.54495990097348 144.58261237142142,248.54495990097348 144.54608989710687,248.56086416772087 144.46087079046993,248.56881629938653 144.41826123715146,248.59267268730036 144.4060870790272,248.6403854316195 144.39999999999418,248.656289670369 144.4304353952466,248.7278586870816 144.44869663237478,248.90280477454144 144.55826405523112,249.1890789723402 144.61304776664474,249.41173563638586 144.66174439902534,249.54691959332922 144.7043539523729,249.6423433599375 144.71044103143504,249.67415124478066 144.75913766378653,249.78547869481554 144.84435677045258,249.94451751249653 144.85653092854773,250.04789249375244 144.88087924470892,250.12741157594792 144.9478371142468,250.31030502224894 144.99044666756527,250.46139044718439 144.99044666756527,250.48524600211022 145.08783993235556,250.73175278812414 145.124362406641,250.75560822403713 145.19132027614978,250.7476564132412 145.20958151330706,250.7953672605763 145.23392982949736,250.82717446881725 145.30697477803915,250.8510298627407 145.79394110187422,250.71584915831772 146.2078624770802,250.56476444266082 146.25047203042777,250.5568126038488 146.52439058755408,250.39777558276182 146.70700295898132,250.33416064366975 146.78004790755222,250.2387380950131 146.86526701421826,250.1751229692709 147.0478793856455,250.0717482306718 147.2426659151679,249.98427714401987 147.5409327885136,249.83319038912305 147.70528392275446,249.7695747873804 147.87572213608655,249.66619927532884 147.94876708465745,249.6423433599375 148.46008172465372,249.37992759754343 148.70965196558973,249.2367911916299 148.88617725798395,249.16522284694656 148.96530928558786,249.11751056465073 149.31227279128507,248.98232553670096 149.42792729320354,248.88690060810404 149.53749471605988,248.8312359888332 149.53140763702686,248.82328389568647 149.63488798082108,248.76761921108846 149.7383683246444,248.75171500500437 149.7627166408056,248.71195446931597 149.86619698465802,248.6403854316195 149.9331548541668,248.61652906469317 150.19489925319795,248.45748635030031 150.4566436522291,248.33025184277722 150.58447231221362,248.25073012388384 150.6027335493709,248.22687358547046 150.69403973509907,248.20301703655787 150.81578131605056,248.11554293402514 151.15665774268564,247.9564987495287 151.53405664363527,247.75769286260766 151.6192757503013,247.7258838530288 151.6436240664916,247.70202708360011 151.78362688457128,247.64636124741446 151.88102014933247,247.54298168565947 151.95406509790337,247.51117255005374 152.22189657602576,247.36007890102337 152.64190503026475,247.16922316335695 152.9279977455153,247.02608091903312 153.11061011691345,246.89884305114538 153.13495843310375,246.8749859176496 153.16539382835617,246.86703353749908 153.3662674369407,246.68412847172658 153.5671410454961,246.54893737419843 153.58540228262427,246.52508008669975 153.79845004930394,246.41374593945875 153.8106242073991,246.38193614109332 153.95671410451178,246.3262689490366 154.1088910807157,246.2467442897614 154.3341130054905,246.10359960901405 154.39498379596625,246.04793213106677 154.4802029026032,246.01612211799875 154.54107369307894,245.9604545501934 154.78455685498193,245.8411667123546 154.81499225023435,245.80935657793088 154.91847259402857,245.78549896485856 155.07673664929462,245.66621074195427 155.68544455402298,245.30039188778028 155.80109905591235,245.21291310030574 155.8863181626075,245.14133944186324 156.0384951387823,245.0777183328064 156.15414964070078,244.9663812122053 156.28806537974742,244.894807228211 156.3550232492271,244.83118582969837 156.4524165140174,244.77551704478537 156.58633225303493,244.67213200675906 156.7506833873049,244.60055763410855 156.9272086796991,244.49717226233042 157.20112723685452,244.36992845706482 157.322868817806,244.29040092705327 157.40808792447206,244.2585898823927 157.53591658445657,244.18701496357244 157.6941806396644,244.12339273418183 157.72461603494594,244.12339273418183 157.74896435110713,244.09953437890363 157.8889671691868,244.0359120467947 157.9133154853771,244.04386484239876 157.9376638015674,244.05977043007442 157.97418627585284,244.16315663630303 158.12027617299464,244.44150313429418 158.1567986473092,244.48126680300993 158.2846273072646,244.70394280866822 158.47332675775397,244.88685455747327 158.74115823584725,245.2447235848049 158.8263773425133,245.3242497144238 158.9968155558745,245.55487483033357 159.08812174157356,245.72187861198836 159.3924756939232,246.22288686922548 159.43508524727076,246.3262689490366 159.4716077215562,246.36603123491295 159.60552346057375,246.58074707454216 159.7394391996495,246.7954620635246 159.78204875296797,246.89089067450186 159.82465830631554,246.91474780094723 159.9159644920146,247.0896997409509 159.9890094405855,247.2089848307951 159.99509651964763,247.240794143745 160.22031844439334,247.01017620187486 160.32379878821666,246.8431763900153 160.39075665772543,246.7954620635246 160.4333662110439,246.72389049505728 160.4820628434536,246.68412847172658 160.51249823867693,246.59665191771273 160.5794561081857,246.52508008669975 160.7498943215178,246.35807878007472 161.1455544596247,246.0558846314343 161.26120896151406,245.93659700364515 161.31599267295678,245.8411667123546 161.33425391008495,245.82526164750016 161.35860222627525,245.82526164750016 161.40729885865585,245.76164134126157 161.4438213329122,245.7457362530622 161.70556573197246,245.42763350845053 162.02209384244634,245.1174815347258 162.1864449767163,245.00614449583009 162.2351416090969,244.95842855198498 162.3081865576969,244.9425232280446 162.73428209099802,244.75961166715206 162.89254614626407,244.72780089788284 163.57429899956333,244.52898316696155 163.75082429192844,244.49717226233042 163.84821755671874,244.49717226233042 163.87865295194206,244.5051249902317 164.26822601095773,244.43355039702874 164.38996759190923,244.38583394904344 164.7551923347637,244.3063064424059 164.93171762712882,244.25063711828625 165.1752007890318,244.13134551693656 165.2725940538221,244.09953437890363 165.41259687190177,244.07567601310075 165.6195575595193,244.05977043007442 166.10652388332528,243.92457278587244 166.1369592785486,243.93252559781467 166.2587008595001,243.89276152646198 166.3560941242613,243.88480870869898 166.49000986330793,243.8450446023453 167.23872058611596,243.6700821877057 167.62829364518984,243.5666950408231 168.02395378326764,243.49511920820441 168.24308862895123,243.415590394412 168.47439763278817,243.37582594376363 168.65092292515328,243.30424985905483 168.9004931661184,243.25653241671898 169.04658306323108,243.24062659329138 169.1500634070544,243.20881493239358 169.24136959278258,243.20881493239358 169.62485557273612,243.0974739721969 169.77094546987792,243.0736151652418 169.80138086515944,243.06566222724723 169.85616457657306,243.06566222724723 169.9657319994003,243.02589751982669 170.00225447368575,243.03385046365656 170.1118218965421,242.99408573290202 170.39791461176355,242.95432097293815 170.64139777366654,242.87479136552793 170.93966464701225,242.81116759554425 171.42663097081822,242.66801383998973 171.55445963083184,242.6521078438018 171.74924616032513,242.58053080322497 171.97446808509994,242.53281272363893 172.19969000981655,242.46918855217154 172.54056643650983,242.39761126995654 172.72317880790797,242.41351734083582 172.88752994220704,242.32603389321594 172.98492320696823,242.3101277966707 173.2466676059994,242.2226441821258 173.3440608707606,242.21469111926854 173.43536705645965,242.17492578740712 173.58754403266357,242.15901964650038 173.63624066504417,242.11925427378083 173.70319853458204,242.12720735065523 173.8127659574384,242.0794888718956 174.1658165421686,242.0397234408265 174.71974073548336,241.90452075693247 174.76843736789306,241.90452075693247 175.10931379452813,241.80113024165257 175.24322953357478,241.77727086396408 175.38323235168355,241.73750521111288 175.59019303930108,241.71364580540467 175.82758912211284,241.64206752525206 175.87628575455165,241.63411437716422 175.9615048611886,241.59434861928094 175.991940256441,241.60230177318226 176.26585881356732,241.56253599196862 176.34499084117124,241.56253599196862 176.92326335067628,241.4273321174951 177.11196280113654,241.37165983584055 177.33718472594046,241.33189388534083 177.83023812877946,241.20464264770635 178.23198534589028,241.14897013726295 178.37198816396995,241.14897013726295 178.87112864590017,241.2364554851265 179.4737494715664,241.4591448241954 179.65027476396062,241.5386765092153 179.82680005635484,241.59434861928094 180.15550232489477,241.76136460630005 180.1859377201472,241.76136460630005 180.46594335633563,241.88066142476237 180.81290686203283,241.99995798059535 181.12943497250671,242.14311350091884 181.62857545440784,242.34989302929534 182.09728054105653,242.42147037454197 182.24337043819833,242.42942340705486 182.389460335311,242.47714157768496 182.63903057627613,242.45328249761224 182.949471607717,242.405564305991 183.448612089589,242.35784607232927 183.58252782860654,242.32603389321594 183.72861772577744,242.32603389321594 183.76514020003378,242.3101277966707 183.92949133436196,242.28626864306352 184.06949415241252,242.2226441821258 184.14862618007464,242.2067380552362 184.5564604762185,242.19878499002516 185.2016908552614,242.09539503617634 185.78605044382857,242.04767652939336 186.12083979143063,241.99200488505085 186.2121459771588,241.99200488505085 186.32171340001514,241.96814559137783 186.43128082284238,241.96814559137783 186.61998027330264,241.93633318351203 186.71737353809294,241.93633318351203 186.802592644759,241.9124738653336 186.89998590949108,241.92042697254874 186.99129209521925,241.89656764737447 187.08868535998045,241.90452075693247 187.51478089331067,241.84089584779576 187.5939129209146,241.83294272891362 187.59999999997672,241.82498960884186" stroke="#4dd2ff" stroke-linecap="round" stroke-linejoin="round" stroke-width="0.5"><title>2024-09-10 7.1km</title><desc>12375090044</desc></polyline></svg>