<?xml version="1.0" encoding="utf-8" ?>
<svg baseProfile="full" height="300mm" version="1.1" viewBox="0,0,200,300" width="200mm" xmlns="http://www.w3.org/2000/svg" xmlns:ev="http://www.w3.org/2001/xml-events" xmlns:xlink="http://www.w3.org/1999/xlink"><defs /><rect fill="#222222" height="300" width="200" x="0" y="0" /><text fill="#FFFFFF" style="font-size:12px; font-family:Arial; font-weight:bold;" x="10" y="20">Over 5km Workouts</text><text fill="#FFFFFF" style="font-size:4px; font-family:Arial" x="10" y="280">ATHLETE</text><text fill="#FFFFFF" style="font-size:9px; font-family:Arial" x="10" y="290">Liudon</text><text fill="#FFFFFF" style="font-size:4px; font-family:Arial" x="120" y="280">STATISTICS</text><text fill="#FFFFFF" style="font-size:3px; font-family:Arial" x="120" y="285">Number: 13</text><text fill="#FFFFFF" style="font-size:3px; font-family:Arial" x="120" y="290">Weekly: 4.3</text><text fill="#FFFFFF" style="font-size:3px; font-family:Arial" x="141" y="285">Total: 92.0 km</text><text fill="#FFFFFF" style="font-size:3px; font-family:Arial" x="141" y="290">Avg: 7.1 km</text><text fill="#FFFFFF" style="font-size:3px; font-family:Arial" x="167" y="285">Min: 7.0 km</text><text fill="#FFFFFF" style="font-size:3px; font-family:Arial" x="167" y="290">Max: 7.2 km</text><polyline fill="none" points="55.59999999997672,49.59936953771103 55.294613318226766,49.65523047979514 54.51282341295155,49.711091364497406 53.474508695013355,49.84675327408331 52.97978227058775,49.88665377130019 51.825420613604365,50.03029531889479 51.31237098822021,50.12605613981577 50.54890428390354,50.237776884416235 50.103039728535805,50.2537369720485 49.815976247686194,50.20585669510183 49.41286582779139,50.08615581828781 49.16855648238561,49.97443476215267 48.942570337909274,49.86271347647926 48.66161459067371,49.750991961245745 48.32568924076622,49.575429116426676 47.11635798102361,49.0806580492972 46.85372543474659,48.984895387253346 46.64606249114149,48.93701399297788 46.38953767847852,48.91307328004041 45.900918987666955,48.93701399297788 45.15577548422152,49.07267783390853 44.740449597040424,49.16046013882078 44.22739997168537,49.28016305352867 43.9708751590515,49.359964850267716 43.58608794005704,49.45572685173829 43.33567086100811,49.50360778924005 43.13411565104616,49.51956809234616 43.06082284741569,49.55946882968783 42.98142231017118,49.58340925802622 41.90646119043231,49.81483285521608 41.02694754698314,50.038275393766526 40.67269899614621,50.08615581828781 39.90312455818639,50.29363717063461 39.261812526528956,50.421317609339894 38.24792874310515,50.67667758735115 36.946981478860835,50.955976190118236 36.58662519438076,51.05173538083545 36.04914463451132,51.17941403945224 35.749865686375415,51.28315272884356 35.05969178566011,51.410830844073644 35.02304538383032,51.42679058740396 35.01693765021628,51.44275032605219 34.82149017386837,51.4746697892806 34.68101230027969,51.53052880484756 33.45946557330899,51.81780283565968 33.093001555185765,51.92154030712845 32.73875300434884,51.993358440693555 32.52498232712969,52.009318013038865 32.32342711719684,52.049216923442145 31.938639898173278,52.17689323995364 31.40115933830384,52.312548997808335 31.00415665205219,52.44022469603806 30.210151279519778,52.63173768130582 29.965841934084892,52.75143295458474 29.75207125689485,52.93496519523251 29.446684575115796,53.25415022533343 29.19626749609597,53.453639917777764 29.03746642160695,53.60525159454846 28.79315707620117,53.87655564544184 28.34118478721939,54.331385870536906 28.19459917995846,54.4351185470332 27.999151703639654,54.67450089140766 27.74262689097668,54.92984089732272 27.589933550101705,55.12134511497425 27.113530326547334,55.552227138996386 27.015806588431587,55.624040477752715 26.765389509382658,55.77564610369518 26.72263537393883,55.807563023750845 26.63712710305117,55.90331367143153 26.392817757674493,56.27035625921417 26.31341722040088,56.37408523721024 26.172939346783096,56.49377227369769 25.061331825214438,57.19593091550996 24.829237947124057,57.363490160667425 24.542174466274446,57.499132981029106 22.76482397847576,58.56032689888161 21.90974126959918,59.047032972630404 21.799802064168034,59.08692671995959 21.738724727823865,59.03905421965828 21.512738583318423,58.60022100322021 20.81034921531682,57.4672170537342 20.413346529036062,56.77304100112451 19.9247278382245,55.87937602531383 19.88197370278067,55.77564610369518 19.888081436423818,55.71181220745348 19.74149582919199,55.5043515271318 19.70484942739131,55.46445515172309 19.649879824661184,55.440517312435986 19.399462745641358,55.624040477752715 19.167368867521873,55.751708401392534 18.88030538664316,55.90331367143153 18.41000989676104,56.10279364600865 18.092407747783,56.246418774640915 17.854206135991262,56.38206438118141 17.664866393315606,56.50973052532936 17.237325038848212,56.74910373782404 16.657090343534946,57.05230829445645 14.385013431339758,58.289046213267284 14.134596352319932,58.36883479066819 13.749809133296367,58.544369248953444 13.334483246144373,58.6879879297594 13.157358970725909,58.72788194047462 13.077958433452295,58.74383953656434 13.047419765265658,58.719903140685346 12.998557896207785,58.65607270014516 12.564908808126347,57.427322118259326 12.39999999999418,57.03635020205911" stroke="#4dd2ff" stroke-linecap="round" stroke-linejoin="round" stroke-width="0.5"><title>2024-09-24 7.1km</title><desc>12488248833</desc></polyline><polyline fill="none" points="78.4121724429715,56.461123086017324 78.39999999999418,56.604240900964214 78.4121724429715,56.651946755297104 78.521724429389,56.954082857504545 78.68605240914621,57.52654664230067 78.85646661030478,57.95589051252318 79.00862214708468,58.46473810237876 79.04513947590021,58.53629441151497 79.06948436179664,58.56014649358622 79.1303465764795,58.59194925331758 79.16686390532413,58.583998565136426 79.23989856298431,58.647604037978454 79.3372781064827,58.6794067464034 79.59898562973831,58.615801310887036 79.89721048180945,58.52834371517383 80.31715976333362,58.369329543216736 80.53626373625593,58.250068608045694 81.02924767538207,57.963841292847064 81.5648351648124,57.7014649259545 82.80033812340116,57.03359207813992 83.17768385462114,56.87457352025376 83.51851225696737,56.659897726953204 83.89585798815824,56.45317208520282 85.64260355031001,55.55470148054519 85.69129332204466,55.54675034675893 85.75215553675662,55.59445713202513 85.81301775146858,55.673968347480695 85.89822485207696,55.83299042838553 86.05038038882776,56.15898423539693 86.23296703296364,56.477025084102934 86.4459847844264,56.77121120740048 86.89027895181789,57.55039916876194 87.26762468300876,58.10695513942119 87.40152155535179,58.353428100337624 87.65105663565919,58.85432130912886 87.69366018596338,58.92587710393127 87.79103972949088,58.94177837882671 87.84581572274328,58.92587710393127 87.87624683009926,58.95767964904371 87.9675401521672,59.021284683323756 88.08926458159112,59.0133340581051 88.31445477597299,58.92587710393127 88.67962806421565,58.68735742058925 90.03685545225744,57.88433343705037 90.60287404901464,57.55835000858133 91.04716821637703,57.327775180121535 91.55841081994004,57.00973932418492 91.85663567201118,56.83481880785257 92.01487743022153,56.75530929561501 92.22180896022473,56.612191879605234 92.61132713439292,56.310053871264245 93.4573119188426,55.48314123439559 93.61555367708206,55.355922785722214 93.88943364328588,55.18099693109616 94.02941673708847,55.05377777308968 94.30938292478095,54.767533575559355 94.49805579037638,54.47333657470881 94.62586644125986,54.306359188078204 94.79628064241842,54.13938128686277 95.10667793743778,53.86903502261339 96.05004226541496,52.92281247612118 96.22045646660263,52.80353955391911 96.42130177514628,52.70812102715354 96.7073541842692,52.60475076686271 97.11513102281606,52.47752556042542 97.48639053254738,52.39005805771376 97.98546069313306,52.33439684611949 98.35672020286438,52.26283234719813 98.8375316990714,52.1276547024645 99.19053254436585,52.00838002998353 99.9999999999709,51.76982989741373 101.04683009299333,51.539230437636434 101.93541842774721,51.316581752180355 103.18309382925509,51.03826960879451 103.76737109044916,50.879233456464135 104.38207945902832,50.76790787210484 104.89332206253312,50.63272649787541 104.89940828402177,50.608870926236705 105.86103127637762,50.38621841782515 106.28706677939044,50.306699443081015 106.62180896024802,50.17946884075354 107.18174133557477,50.08404569296181 107.8147083685617,49.93295869858048 108.58157227389165,49.7818712829212 109.94488588333479,49.43198301853772 110.43786982249003,49.3445105994324 110.95519864751259,49.209325673909916 111.53947590870666,49.082092494765675 111.91682163986843,49.002571606040874 112.10549450549297,48.978715316676244 112.36111580725992,48.98666741429406 112.92104818258667,49.07414041113225 113.52967032964807,49.304750362243794 114.2721893491107,49.61487943857719 114.60084530853783,49.70235142123056 114.70431107352488,49.74211136665326 114.92950126796495,49.845487088230584 115.25207100590342,50.02838211247945 115.50769230767037,50.123805358307436 115.78157227387419,50.20332460143982 116.18934911242104,50.258988002206024 116.41453930683201,50.27489182049976 116.6519019441912,50.258988002206024 117.91783601013594,50.11585342756007 118.45950972102582,50.00452627474806 119.85325443785405,49.845487088230584 121.38698224848486,49.69439942864119 121.47218934909324,49.69439942864119 121.59999999997672,49.71825540289501" stroke="#4dd2ff" stroke-linecap="round" stroke-linejoin="round" stroke-width="0.5"><title>2024-09-23 7.1km</title><desc>12484262436</desc></polyline><polyline fill="none" points="187.59999999997672,49.686384948268824 187.47242300657672,49.71813487825057 187.37522148780408,49.7816346823347 187.33877091828617,49.773697210883256 187.22941920964513,49.71019739750409 187.1808184502588,49.70225991557891 186.26347911683843,49.773697210883256 185.57699339048122,49.837196949742065 185.23071297985734,49.884821704938076 184.7143299113668,49.92450896891023 184.1432709885703,50.011820847132185 183.56006187593448,50.05944544856902 182.5637463085004,50.23406862835327 182.16886513849022,50.28963043095064 181.97446210094495,50.29756782667755 181.701082829386,50.26581823683591 181.65248206999968,50.273755636051646 181.10572352691088,50.08325773355318 180.85056954014,49.97213364723575 180.69261707214173,49.87688424864973 180.46783855994,49.76575973830404 178.80326255096588,49.083132736875996 178.5724089438736,49.01169452942486 178.35370552664972,48.964069005345664 178.14715229926514,48.94819382132846 177.81302207845147,48.95613141393915 177.62469413582585,48.987881772613036 176.60407818868407,49.21013376163319 175.99656869636965,49.32125941362392 175.25540711573558,49.5276350187014 174.55677119953907,49.686384948268824 173.62728167625028,49.86894679120451 173.03799746872392,50.03563315308202 171.95055547740776,50.242006032232894 171.6407256363018,50.3293173978891 171.34304598506424,50.37694171975454 170.17055266487296,50.69443612712712 169.67846997606102,50.789684085877525 168.56672760512447,51.08336423616856 167.9409928279929,51.2024233022712 167.2909576712118,51.377042791798885 166.9203768808802,51.456415100663435 166.7320489382546,51.5199128639033 166.37969343268196,51.5913477584254 165.17074954294367,51.89296071738136 164.150133595831,52.09138937836542 162.99586556042777,52.416810806505964 162.14535227115266,52.567615194657265 161.9630994234176,52.63904870546321 161.82944733512704,52.7342932397587 161.68364505693899,52.861285691273224 161.63504429755267,52.90890778371977 161.61074391787406,52.95652983424952 161.54391787369968,53.043836817942065 161.31913936152705,53.289883013840154 161.01538461536984,53.55973884496416 160.84528195753228,53.702603151665244 160.73593024889124,53.86134082767967 160.50507664179895,54.09150963041975 160.32889888904174,54.21056207510628 160.28029812962632,54.28993022598661 160.23777246518875,54.34548786230516 159.8003656307119,54.750263204525254 159.6606384474726,54.89312436683758 159.49053578960593,55.10741540280287 159.20500632820767,55.38519881552929 158.94377724651713,55.61536113398688 158.8587259175838,55.670917408955575 158.70077344958554,55.72647362685893 158.5549711714266,55.82171272480264 158.46991984249325,55.9725076202667 158.39701870339923,56.147111710924946 158.36664322880097,56.194730910556245 158.2876669947873,56.30584221335084 158.0689635775634,56.50425468634785 157.43715370551217,56.9328231443651 156.75066797918407,57.34551548741729 156.29503585994826,57.575669465026294 154.72158627476892,58.52008415447199 153.76172127688187,59.05180617867518 153.7070454225759,59.05180617867518 153.62199409367167,58.95657276750353 153.44581634088536,58.615318334046606 153.25141330331098,58.28199797200068 152.6378287160769,57.27408819182165 152.04854450852145,56.258223111526604 151.89666713544284,55.98044418207428 151.76909014204284,55.694727223624795 151.59898748420528,55.440755326886574 151.51393615527195,55.48043851437251 151.37420897203265,55.58361466552378 151.22233159892494,55.68679061989678 150.09843903811998,56.202667439756624 149.67318239348242,56.4486992672646 149.56990577979013,56.536000614516524 148.5432147377287,57.099487738836615 147.86280410629115,57.440751734844525 146.44730698916828,58.194699442541605 146.07065110394615,58.3692963605572 145.5421178455872,58.59944598242146 145.1229362958693,58.742296979384264 145.07433553651208,58.750233134811424 144.98928420757875,58.710552345972246 144.9710589227907,58.67087152804743 144.8799324989668,58.37723257074322 144.6004781324882,57.65503267851818 144.51542680355487,57.353451847768156 144.39999999999418,57.04393293106841 144.39999999999418,57.012187301002996" stroke="#4dd2ff" stroke-linecap="round" stroke-linejoin="round" stroke-width="0.5"><title>2024-09-23 7.1km</title><desc>12480412433</desc></polyline><polyline fill="none" points="12.39999999999418,104.60460640955353 12.497393264784478,104.9226895515676 12.546089897165075,105.24872283485092 12.57043821332627,105.34414683946306 12.686092715273844,105.5190904115625 12.771311821910786,105.70198536046155 12.838269691448659,105.89283160570267 12.984359588561347,106.3778961212156 13.100014090479817,106.6403062628633 13.136536564765265,106.67211346642216 13.240016908588586,106.71982423678128 13.294800620002206,106.71187244463363 13.903508524759673,106.52898090336384 14.201775398076279,106.41765531524288 14.347865295218071,106.346088744991 16.49660419896827,105.20896278336295 16.8983514161082,105.01016208839064 17.3427081865957,104.8352168736019 17.793152036087122,104.5409895571429 18.511427363700932,104.1274781963657 18.86447794843116,103.94457793433321 19.327095956046833,103.72986814351316 19.631449908396462,103.56287105149386 19.716669015120715,103.5469665396995 19.801888121757656,103.64239354045276 19.99667465125094,104.05590860213852 20.30102860365878,104.56484588555031 20.441031421767548,104.7636482138987 20.556685923656914,104.97040186187587 20.751472453179304,105.27257885177096 20.994955615053186,105.63041784526649 21.171480907447403,105.95644687144159 21.28713540933677,106.11548470916023 21.53670565027278,106.55283635678279 21.694969705538824,106.87885983468368 21.774101733142743,106.918618661246 21.877582076966064,106.918618661246 21.950627025507856,106.99018447556227 22.096716922678752,106.99813622688453 22.273242215043865,106.92657042304563 22.60803156264592,106.74367960621385 24.543722699745558,105.60656198584911 24.7019867549825,105.51113844324573 24.921121600695187,105.41571473265503 26.077666619734373,104.7397919730065 26.38810765114613,104.50918110293424 26.686374524462735,104.25471279726116 26.94203184446087,103.9922911056783 27.088121741602663,103.8650558887748 27.611610539694084,103.35611203416192 27.721177962521324,103.26863682786279 27.952486966358265,103.1175429571449 28.03770607302431,103.03801969809865 28.415104973944835,102.60859208298643 28.46988868538756,102.52906807717955 28.52467239680118,102.41773427300723 28.6281527406245,102.30640024013701 28.78641679586144,102.16325614750167 29.121206143463496,101.89287182989938 29.486430886317976,101.52705560600225 29.766436522477306,101.22485773251537 30.022093842475442,100.97832664032467 30.265577004407533,100.81132106970836 30.460363533900818,100.70793641098862 30.73428209105623,100.59659886561349 31.227335493895225,100.4534502569004 31.629082711035153,100.35801764102871 32.207355220540194,100.27849033275561 32.33518388052471,100.23077389176615 32.657799070031615,100.15919915152699 33.096068761486094,100.0240021620375 33.418683950993,99.95242714869892 33.698689587181434,99.86494644847699 34.7030576300167,99.62636200285851 35.16567563760327,99.49116368408431 36.413526842341525,99.23667181611381 36.99788643090869,99.06966087826731 37.47267859659041,98.98217875302726 37.97790615755366,98.85493177329408 38.28834718896542,98.79130817140322 38.58661406231113,98.71177856398936 38.884880935627734,98.64815479400568 39.250105678482214,98.53681301681718 40.65013385939528,98.22664543123392 41.070142313692486,98.11530278798091 42.78669860507944,97.7415079553939 43.279752007947536,97.59835180476148 43.711934620310785,97.51882044658123 44.046723967883736,97.44724212437723 44.399774552643066,97.39157003067521 45.051092010719,97.21660022089054 45.58675496693468,97.08934909530217 46.0615471326164,97.00981699004842 46.30503029451938,97.00186377311547 46.57286177261267,97.0177702058354 46.79199661829625,97.04958305727996 46.93199943640502,97.08934909530217 47.236353388783755,97.20864703430198 47.985064111620886,97.51882044658123 48.43550796111231,97.7256017351283 49.0746512611222,97.95624147224225 49.53118218967575,98.15506804399047 49.926842327811755,98.24255150445242 50.37119909824105,98.29026969607366 50.58424686489161,98.28231666706415 51.48513456390356,98.1709741382183 51.783401437220164,98.15506804399047 52.288628998212516,98.05167831772997 52.617331266752444,98.01986605457205 53.09212343246327,97.95624147224225 53.93214034099947,97.88466372785479 54.333887558139395,97.82899208351228 55.38086515432224,97.70969551016242 55.47217134005041,97.70969551016242 55.60000000000582,97.7335548458359" stroke="#4dd2ff" stroke-linecap="round" stroke-linejoin="round" stroke-width="0.5"><title>2024-09-20 7.1km</title><desc>12458958082</desc></polyline><polyline fill="none" points="121.60000000000582,97.81218015481863 121.56340016945614,97.82015012230477 121.575600112963,97.75639034975393 121.55730019768816,97.71654045389732 121.47800056482083,97.68466051615906 121.29500141204335,97.66872054026317 121.08150240045507,97.66872054026317 120.95950296524097,97.69263050233712 120.63010449023568,97.79624021635391 120.04450720135355,97.85999994212398 119.64190906524891,97.86796990257062 119.31251059024362,97.8360900537482 119.09291160691646,97.84406001769821 118.90991245410987,97.88390981997873 118.62931375319022,97.91578964075234 118.41581474160193,97.96360933682081 117.84851736799465,98.02736886605999 117.62891838463838,98.11503809654096 117.5069189494534,98.14691778163979 117.15922055917326,98.17879744800666 116.95182151935296,98.21067709567433 116.46992375038099,98.22661691246685 116.03072578369756,98.21067709567433 115.89042643323774,98.21864700465812 115.86602654616581,98.22661691246685 115.85992657442694,98.25052662892267 115.5427280429285,98.17082753315844 115.35362891841214,98.10706817235405 114.8595312058751,97.84406001769821 113.84693589381641,97.42962034049924 113.75543631744222,97.38977020483071 113.68223665631376,97.33397996580243 113.57853713640361,97.27021962244908 113.03563964981004,97.03908775018863 112.70624117480475,96.97532706056154 112.46834227620275,96.94344668771373 112.1572437165014,96.92750649424852 111.8583451002778,96.94344668771373 111.51674668173655,96.99923732796015 111.1446484044136,97.09487829218051 110.72375035300502,97.15863884142163 110.27845241458272,97.27021962244908 109.86365433494211,97.39774023431528 109.34515673539136,97.49338049669313 108.80225924882689,97.6288705800871 108.23496187516139,97.7404503949183 107.09426715617883,98.02736886605999 106.8075684834912,98.05924860260711 106.66726913303137,98.08315839273928 106.53306975431042,98.13097794142232 105.8254730302433,98.31428582131048 105.69127365152235,98.37007505324073 105.53267438575858,98.41789434925886 105.1422761931608,98.48165334515215 105.03247670151177,98.5135328150136 105.01417678623693,98.50556294930357 104.9653770121513,98.50556294930357 104.78847783114179,98.56135198472111 104.16628071165178,98.70480924122967 103.69048291444778,98.83232648442208 103.26348489127122,98.90405480213667 103.00728607739438,98.9996924117404 102.75718723525642,99.03157157748501 102.47658853433677,99.11126941003386 102.31188929683412,99.12720896249812 102.22038972043083,99.15111828244699 102.12279017228866,99.14314851031304 102.07399039820302,99.15908805343133 101.88489127365756,99.24675545695209 101.75069189493661,99.27066472424849 101.61039254447678,99.27863447766867 101.19559446483618,99.36630168821284 100.90279582040966,99.45396875723236 100.73809658290702,99.51772653672742 100.25009884213796,99.66915096299999 99.89020050832187,99.74087817545296 99.47540242871037,99.87636265163746 98.8715052245243,99.95605924442862 98.6336063259223,100.02778607794971 98.29200790738105,100.083573549633 97.87720982774044,100.21108755547539 97.40751200227533,100.3146924647408 96.95611409208504,100.45017550940611 96.44371646430227,100.64941466698656 96.18141767865745,100.83271404639163 95.40062129340367,101.31885288261037 95.19322225358337,101.47027228707157 94.77842417397187,101.90858923602718 94.56492516241269,102.11579238050035 94.39412595314207,102.25127093217452 94.25382660265313,102.41065703090135 93.99152781697921,102.6497353019804 93.80852866423083,102.84896639061117 93.70482914432068,102.95256626787886 93.54012990678893,103.1517962456528 93.03383225077414,103.62994521062865 92.76543349339045,103.8530799537184 92.68003388875513,103.94870884873671 92.46653487716685,104.26747061603237 92.3628353572567,104.37903679261944 92.25303586557857,104.46669577060675 90.83784241741523,105.33530890600014 90.71584298223024,105.4229663406586 90.02044620166998,105.8054698546548 88.74555210393737,106.55453143369232 88.15995481505524,106.87327790870404 87.89155605761334,107.04061905933122 87.79395650947117,107.07249350575148 87.68415701779304,106.98483873307487 87.65975713077933,106.93702697926346 87.50115786504466,106.65015557260267 87.27545890992042,106.29156418370258 86.87286077381577,105.57437430369828 86.1835639650235,104.41888180017122 85.64066647842992,103.42274784263282 85.33566789043834,103.6458834369696 85.15266873766086,103.74948179414059 83.92657441401388,104.38700579647775 83.69477548715076,104.498571727534 82.50528099408257,105.15999361222566 81.70618469361216,105.56640547407733 80.74238915561,106.11625197640387 79.84569330699742,106.55453143369232 79.56509460604866,106.64218690077905 79.17469641345087,106.7378108853627 79.07099689354072,106.75374819978606 79.04049703472992,106.7378108853627 78.98559728890541,106.65812424324758 78.86359785372042,106.29156418370258 78.69889861621778,105.87718896368096 78.64399887039326,105.67796898261076 78.39999999999418,105.02452231586358 78.40609997179126,105.03249122498528" stroke="#4dd2ff" stroke-linecap="round" stroke-linejoin="round" stroke-width="0.5"><title>2024-09-20 7.0km</title><desc>12455295877</desc></polyline><polyline fill="none" points="144.39999999999418,104.62291325993647 144.41822272218997,104.80542591726771 144.5336332958541,105.13077303976752 144.57007874018745,105.36883066999872 144.84949381326442,105.97984045838166 144.9345331833465,106.24963479152211 144.97097862767987,106.45594719707879 145.0681664792064,106.68606395179086 145.12890888639959,106.78128439150532 145.1957255343441,106.85269961131416 145.2868391450902,106.84476459153302 146.06434195730253,106.61464851201163 146.3255343082419,106.51149271026952 147.13340832397807,106.04332159899786 147.76512935882783,105.7338503346582 148.75523059617262,105.21012569958839 149.26546681666514,104.97206737084343 149.56310461190878,104.78955527583457 150.4499437570339,104.30549847588918 151.6161979752651,103.71827621445846 151.68908886393183,103.66272783261957 151.78627671542927,103.51195336574165 152.07176602928666,103.40085612118855 152.73385826771846,103.01201396805118 153.05579302590922,102.92472248823105 153.3595050618751,102.67078283667433 153.6267716535658,102.49619863460975 154.3313835770532,102.06767138554278 154.7262092238525,101.84547073442809 155.04814398201415,101.70262697662838 155.15140607426292,101.63120495624753 155.32755905512022,101.48042482569872 155.58267716536648,101.28996511252626 156.0929133858299,100.9487231156163 156.50596175476676,100.69477418562747 156.90078740156605,100.47256789367384 157.45961754780728,100.18687274813055 157.77547806524672,100.04402460934944 157.8605174353288,100.03608859059023 157.8848143981886,100.05196062696996 157.9455568054109,100.12338473305499 158.09741282340838,100.40908021396899 158.20067491562804,100.55986333154942 158.43757030373672,100.84555650665425 158.9417322834779,101.49629643818844 159.58560179977212,102.55174821457695 159.69493813274312,102.74220348418021 159.7556805399654,102.86123768714606 159.90146231724066,103.08343416496791 159.96220472443383,103.21833872398201 160.07154105737573,103.09930530700512 160.51496062992373,102.5358769118393 160.660742407199,102.40097065047667 160.9705286839162,102.17877136873722 161.0798650168581,102.05973566371176 161.3471316085779,101.75024160448811 161.91203599551227,101.16299159778282 162.0274465691764,101.0836329996855 162.16715410575853,100.99633840724346 162.5802024746954,100.7900051741417 163.3334083239606,100.55192738847836 163.91653543306165,100.45669598073437 164.25669291339,100.34559245976197 164.5907761529961,100.28210463101641 165.02204724412877,100.17100075134658 165.35613048367668,100.10751271762274 165.87244094486232,99.95672833883145 166.42519685043953,99.83768774279451 167.0386951631226,99.67103046813645 167.44566929133725,99.59166968064892 167.88908886391437,99.44088386353542 168.1806524184649,99.32184213199434 168.49651293590432,99.21867241937798 168.68481439820607,99.194863996192 169.11608548930963,99.17105556254319 169.63239595049527,99.0678855622391 169.98470191226806,99.01233240362853 170.4098987626494,98.87741735225427 170.86546681664186,98.78218299568107 171.1631046119437,98.69488468819327 171.49718785154982,98.63933114640531 171.72800899887807,98.56790508024278 172.2200224972039,98.45679767869296 172.62699662541854,98.31394496983557 173.082564679411,98.24251847389678 173.3923509561282,98.1552192951749 173.73250843645656,98.0917288948549 174.10303712036693,97.99649315462375 174.88053993252106,97.84570288955365 175.69448818897945,97.62348489042779 175.9921259842522,97.6076121412625 176.33228346455144,97.50443915810683 177.2494938132586,97.31396544126619 177.54713160856045,97.23460119458832 177.92980877391528,97.17904615260704 178.21529808774358,97.14730038868947 178.37930258718552,97.15523683140054 178.76197975254036,97.22666476351515 179.15073115861742,97.36158393338337 179.40584926886368,97.44094799372033 180.17727784026647,97.80602117097442 181.05196850394714,98.13141040380651 181.45894263216178,98.32188124132517 181.87806524184998,98.40918015099669 182.3883014623425,98.45679767869296 182.5644544431707,98.44886142699761 182.7223847019195,98.42505266489025 183.0929133858299,98.32981751166153 183.24476940382738,98.30600869716 183.6881889763754,98.29807242333482 183.870416197984,98.28219987218108 184.5750281215005,98.1552192951749 185.15208098987932,98.09966519896625 185.5469066366786,98.03617473343184 186.15433070866857,97.9885568353493 186.90753655796289,97.90919357872917 187.25984251970658,97.861575568837 187.36310461192625,97.84570288955365 187.45421822273056,97.78221212584685 187.49066366706393,97.74253036065056 187.54533183350577,97.63142126325329 187.5757030371169,97.59967576493 187.60000000000582,97.6076121412625 187.5939257592836,97.61554851641631" stroke="#4dd2ff" stroke-linecap="round" stroke-linejoin="round" stroke-width="0.5"><title>2024-09-19 7.0km</title><desc>12450830462</desc></polyline><polyline fill="none" points="55.60000000000582,145.83945905048313 55.35805096614058,145.84736206334856 55.18868664241745,145.8631680856197 55.14029683562694,145.79204094889064 55.07980957717518,145.74462280553416 55.03141977038467,145.73671977758931 54.86810417252127,145.7288167484694 54.40235228228266,145.75252583233305 53.07768132176716,145.8789741032415 51.82559507142287,146.021228053105 51.480817698145984,146.05283999092717 50.80336040328257,146.18719051966036 50.053318398218835,146.28202598516145 49.793223186803516,146.2899289330744 49.4182021842571,146.2583171344304 49.06132735928986,146.15557866067684 48.777037244464736,146.02913103931132 48.42621114535723,145.84736206334856 48.09957994960132,145.69720462043915 46.77490898905671,145.15189249052855 46.436180341639556,145.0412487757785 46.24262111456483,144.99382997128123 46.07325679081259,144.97802369383498 45.73452814336633,144.97012055338564 45.58935872305301,144.99382997128123 44.48244189302204,145.2230204728221 44.00459255112219,145.30995454581353 43.64771772615495,145.41269463294884 42.98235788295278,145.55494981459924 42.51660599274328,145.6893015855203 41.415737888542935,145.92639212829454 41.07700924112578,146.0133250657309 40.30882105851197,146.1792875566498 40.01243349202559,146.2583171344304 38.990198823885294,146.46379349389827 38.47000840102555,146.5902400946252 37.67157658920041,146.79571518757803 37.21792215065216,146.89845244004755 36.516269952378934,147.0644122030426 36.11100532065029,147.14344048184284 35.37910949316574,147.34101067148003 34.743993279204005,147.4674552124161 33.860879305546405,147.69663518618108 33.30439652761561,147.82307889212098 32.43942873147898,148.0364519726645 32.08860263231327,148.09177078146604 31.471632595930714,148.2656295249435 30.515933912072796,148.479000852014 30.14091290955548,148.58173489318142 29.97759731169208,148.6370531418761 29.826379165489925,148.7318842931163 29.596527583315037,148.92154609463978 28.943265191832324,149.53003986529802 28.39887986559188,150.11481960777382 28.271856622799532,150.19384341027398 28.132735928316833,150.36769536764768 27.322206664830446,151.19743561480936 26.856454774562735,151.61625202768118 26.644749369937927,151.75058867778716 26.53587230469566,151.82961008013808 26.45723886869382,151.91653348879845 26.42699523945339,151.95604408274448 26.299971996661043,152.21681327575425 26.251582189899636,152.28793192742523 26.20924110893975,152.343246369368 26.082217866147403,152.45387508283966 25.501540184835903,152.82526981606134 24.098235788289458,153.65497220254474 23.487314477737527,154.03426046509776 22.47717726128758,154.60318785093114 21.884402128256625,154.96666609018212 21.80576869228389,155.0061744466475 21.721086530393222,155.02987944661436 21.618258190981578,154.96666609018212 21.52752730328939,154.82443576695368 21.40655278635677,154.60318785093114 20.614169700391358,153.27568126897313 20.25729487539502,152.69883785397542 20.02744329322013,152.2563236493952 19.694763371604495,151.6478606813871 19.543545225460548,151.41869752174534 19.452814337739255,151.45820848091535 19.33788854663726,151.56883901234323 19.180621674633585,151.6794693165175 18.394287314469693,152.03506518364884 17.95877905350062,152.31163812379964 17.614001680223737,152.48548324495277 17.505124614952365,152.5566015418517 17.281321758637205,152.6672298170779 17.04542145060259,152.8015638457873 16.51918230188312,153.07023089801078 15.055390646884916,153.86042034297498 14.553346401575254,154.1448857052128 14.498907868925016,154.19229645286032 14.46866423971369,154.27131427286804 14.42632315881201,154.30292136839125 14.341640996921342,154.3503319769261 14.281153738469584,154.3819390261051 13.754914589750115,154.50836703729874 13.113749649986858,154.7138119225565 13.065359843196347,154.7138119225565 12.980677681305679,154.66640163396733 12.853654438542435,154.27921604848234 12.605656678817468,153.63916846696884 12.520974516955903,153.3547004337306 12.39999999999418,153.02281916264837" stroke="#4dd2ff" stroke-linecap="round" stroke-linejoin="round" stroke-width="0.5"><title>2024-09-19 7.1km</title><desc>12446825930</desc></polyline><polyline fill="none" points="78.39999999999418,152.75578438884622 78.43647108483128,152.90666152123958 78.6188265090459,153.48634343342565 78.75255382017349,153.78015244277412 78.83765301812673,154.00249333564352 78.97745884335018,154.45511304538377 79.06863655548659,154.68539179590516 79.1233431827568,154.78067926815493 79.159814267623,154.8045011100039 79.25707049388438,154.85214476226975 79.31177712112549,154.84420415647764 79.99257070492604,154.62980735961537 80.19924018572783,154.5424602729654 80.68552131700562,154.30424022934312 82.65495989867486,153.2560595814757 83.40261713802465,152.89077973763415 83.92536935413955,152.58108402592188 84.6061629379401,152.21579962663964 85.11675812577596,151.96962831483324 85.63343182776589,151.69963268540596 86.06500633180258,151.4058123817631 86.69109328830382,151.0961081728019 87.57855635287706,150.53228313967702 88.07699451243388,150.24639778005803 88.53288307299954,149.9605109102522 88.98269311944023,149.69844661961542 89.68172224567388,149.30931851367495 89.85192064160947,149.19019710555222 90.24094554662588,148.8804802173654 90.54487125368905,148.6898843282288 90.98860278594657,148.45163852285623 91.69978894045926,148.10220944443063 91.84567327986588,148.0545598498211 91.88214436467388,148.0704430526821 91.95508653440629,148.14191740789101 92.11920641618781,148.46752160920005 92.24077669900726,148.65811828144797 92.64803714648588,149.11872413482706 92.91549176865374,149.4522638573144 93.06137610806036,149.6746225303068 93.4260869565187,150.31786926153654 93.59628535245429,150.58787178422062 93.73609117770684,150.8419905750925 93.9670747150376,151.20728424660047 94.07648796957801,151.0961081728019 94.4715913887776,150.60375424359154 94.61139721400104,150.44492943998557 95.09159983115387,150.0558067013335 95.22532714225235,149.92080428112604 95.47454622201622,149.6190329476849 95.9061207260529,149.18225566903493 96.11886872095056,149.01548523268502 96.26475306035718,148.92812908475025 96.75711270578904,148.73753336344816 97.4926129168307,148.5231123746089 98.18556352891028,148.39604768404752 98.7022372308711,148.2848658350522 99.729506120726,147.98308537927733 101.00599409031565,147.69718655300676 101.97855635287124,147.45893637735207 102.4709159983031,147.36363601340054 102.7687631912122,147.27627719898373 103.35837906287634,147.14920958087532 103.83858168002916,147.02214166436534 104.32486281133606,146.9347822987147 105.69252849303302,146.5774016069954 106.65901224146364,146.35503020764736 107.26078514140681,146.17236730317381 108.37923174336902,145.96587806000025 109.75297593922005,145.64820076272008 109.97788096239674,145.58466507948833 110.45808357954957,145.5052453705066 111.70417897848529,145.2113914338588 112.02634022792336,145.15579726633587 112.20869565216708,145.1478552377339 112.57948501475039,145.1796233451205 112.81046855213935,145.22727547121394 113.59459687632625,145.51318734666347 114.24499788938556,145.8070396444782 115.430308146897,146.2835534923688 115.56403545799549,146.32326279028712 115.91051076402073,146.39473945311693 116.30561418319121,146.44239050922988 116.512283663993,146.44239050922988 117.30249050233397,146.35503020764736 117.70975094975438,146.29943721504605 118.73701983960927,146.13265789451907 119.39349936682265,146.0691227800853 121.53313634442748,145.82292350701755 121.55745040101465,145.66408467187648 121.57568594344775,145.6084909694182 121.60000000000582,145.60054900727482" stroke="#4dd2ff" stroke-linecap="round" stroke-linejoin="round" stroke-width="0.5"><title>2024-09-18 7.0km</title><desc>12442293676</desc></polyline><polyline fill="none" points="187.60000000000582,145.75738265818654 187.52674862227286,145.6935777916333 187.42908011868712,145.6696509473586 186.0311996608507,145.78928506334705 185.42687579483027,145.8530898175195 184.79203052137746,145.90094333398156 184.31589656634605,145.98867467138916 183.87638830012293,146.02057694079122 183.51623569306685,146.10033253235088 182.4785078422865,146.25186783384197 182.17329376854468,146.25186783384197 181.89249682068476,146.21199016390528 181.5140313692391,146.10033253235088 181.25154726579785,145.98867467138916 181.0256888512231,145.8530898175195 180.74489190336317,145.72548023425406 180.2077151335252,145.52608966052867 179.28596863077837,145.11933062161552 179.00517168291844,145.01564645806502 178.83425180162885,144.96779216200594 178.65722763881786,144.93588927456221 178.2848664688354,144.91196209668487 178.120050869009,144.9199378238336 177.4852055956144,145.0395735902748 177.10063586264732,145.13528201382724 176.54514624839067,145.21503890467284 176.31318355238182,145.2708686586193 175.95303094532574,145.38252799446127 174.93972022045637,145.62179722723158 174.44527342094807,145.701553404062 174.04849512505461,145.82118744979743 173.31598134804517,145.99665024050773 172.89478592624073,146.06843030978416 171.87537091990816,146.2997209991736 171.44196693514823,146.37947618105318 171.22831708352896,146.43530473873034 171.22221280203667,146.43530473873034 171.22221280203667,146.45923124590263 171.0085629504174,146.52303521349313 170.55074183977558,146.60279006765268 169.98914794402663,146.7622994248195 169.45807545571006,146.8659802559123 168.87816871557152,147.01751342249554 168.63399745654897,147.08929214338787 167.79771089443238,147.2807016023071 167.58406104281312,147.3524799755869 167.29715981349,147.4003321717646 166.77829588809982,147.53591316548045 166.36930902925087,147.60769120170153 164.8615515048732,147.9905057937467 164.32437473506434,148.07025849432466 164.0740991945786,148.15798632982842 163.750572276389,148.24571402370566 162.37100466300035,148.58067300679977 162.18177193726297,148.66840001839228 161.86434930056566,148.91562992547915 161.59576091563213,149.1947591140597 161.156252649409,149.58553756969195 160.6679101314221,150.09593785157267 160.57024162780726,150.16771250680176 160.42984315392096,150.32721140127978 160.22840186519898,150.51063455125768 160.05748198390938,150.69405708221166 159.89877066554618,150.83760471815185 159.62407799914945,151.14862329535754 159.32496820687084,151.41976624387462 159.11742263671476,151.62710993888686 158.8854599406477,151.80255398608278 158.76947859264328,151.906225202325 158.66570580756525,152.0258455907242 158.48868164475425,152.29698416311658 158.28724035611958,152.4883752822243 158.05527766002342,152.64786736666792 156.8222128020425,153.38949941153987 156.33997456548968,153.65265673703107 154.95430267060874,154.48199270093392 154.50869012295152,154.70527329849938 154.08139041965478,154.9604500011883 153.95930479018716,155.06411519448375 153.91657481982838,155.08803790331513 153.8738448495278,155.08006366821428 153.84332344215363,155.06411519448375 153.78838490886847,155.0003212527663 153.5747350572492,154.63350463502138 153.3855023314827,154.26668554181742 152.34167019923916,152.52027373656165 151.91437049597153,151.7706551105257 151.85332768122316,151.64305942112696 151.86553624417866,151.64305942112696 151.74345061468193,151.42774101600662 151.68240779990447,151.45964009279487 151.52369648154126,151.59521096036042 151.42602797795553,151.65900889865952 151.09639677830273,151.81850341682002 150.74234845273895,152.00989622082125 149.82060194996302,152.48040066571411 149.33225943197613,152.75951154731956 149.0270453582052,152.91102828282965 148.37388724036282,153.27785652491366 147.89164900381002,153.5170910011875 146.9515896566445,154.02745436474652 146.56091564221424,154.20289066422265 146.2862229758466,154.35440337626278 146.08478168715374,154.4500953978677 145.5170835099707,154.65742753339146 145.21186943619978,154.76109330456893 145.15082662145142,154.75311902150497 145.11420093258494,154.72919616525542 145.09588808819535,154.69729900722086 144.98601102162502,154.36237771783635 144.6746926663909,153.525065465612 144.61364985164255,153.33367799689222 144.5159813480277,153.0705191270681 144.50377278510132,153.0226719229322 144.5098770665354,153.0226719229322 144.47935565919033,153.01469738479864 144.42441712590517,153.03862099563412 144.43052140739746,153.00672284553002 144.39999999999418,152.97482467667578 144.49766850360902,153.1103917649998" stroke="#4dd2ff" stroke-linecap="round" stroke-linejoin="round" stroke-width="0.5"><title>2024-09-18 7.1km</title><desc>12438003381</desc></polyline><polyline fill="none" points="12.497696113103302,200.8400384628767 12.44884805654874,200.87194570973224 12.39999999999418,200.86396889977914 12.39999999999418,200.87194570973224 12.44884805654874,200.99957450989314 12.467166077753063,201.07934235786524 12.528226148424437,201.24685445764408 12.601498233241728,201.48615656203765 12.674770318029914,201.6058072192791 12.723618374584476,201.80522439619017 12.833526501781307,202.05250067977977 12.906798586598597,202.31572903622873 13.004494699678617,202.5709795587827 13.035024734999752,202.61883889833916 13.035024734999752,202.6906278286915 13.041130742058158,202.68265128556595 13.071660777408397,202.67467474126533 13.06555477034999,202.69860437067473 13.077766784466803,202.74646359789404 13.126614841021365,202.84218192599656 13.169356890488416,202.87408799790865 13.218204947013874,202.87408799790865 13.54182332160417,202.76241666429632 13.767745583085343,202.7065809114829 14.195166077755857,202.5310967435944 14.457724381645676,202.3954949532308 14.598162544192746,202.2997758387828 14.75691872794414,202.2279863923468 14.976734982366906,202.07643058303074 15.025583038892364,202.07643058303074 15.068325088359416,202.03654740512138 15.202657243818976,201.9647576111056 15.391943462920608,201.8929677223241 15.48353356894222,201.84510774380033 15.544593639613595,201.82915440828947 15.953696113079786,201.6058072192791 15.996438162575942,201.5739004030911 16.338374558312353,201.4143660413065 16.613144876348088,201.24685445764408 16.76579505301197,201.18304038526185 16.82074911662494,201.13517978179516 16.881809187296312,201.12720301044828 17.45577385163051,200.83206164823423 17.498515901097562,200.77622391299883 17.608424028294394,200.74431660996925 17.78549823325011,200.64061774578659 17.919830388738774,200.58477981392934 18.225130742095644,200.4252425497507 18.426628975284984,200.28963550712433 18.512113074219087,200.2577279185207 18.67086925797048,200.16200504038716 18.86015547704301,200.07425892069296 19.104395759728504,199.93067405575493 19.189879858662607,199.90674320804465 19.598982332187006,199.69934208678023 19.60508833921631,199.6913651047871 19.598982332187006,199.67541113726838 19.65393639577087,199.63552619800248 19.75163250885089,199.58766423224006 19.843222614872502,199.50789419569628 20.02640282685752,199.40419297318294 20.160734982346185,199.35633080376647 20.24621908130939,199.3004915528727 20.84460777384811,199.00534027394679 20.97283392227837,198.9255693829764 21.021681978803826,198.9016380928624 21.540692579525057,198.5426674769551 21.72997879862669,198.43098724638548 21.815462897531688,198.3671698687467 21.96200706716627,198.29537522937972 22.206247349851765,198.13583124687284 22.255095406377222,198.1198768228678 22.603137809201144,197.88055990097928 22.7313639576314,197.8326963902 22.865696113090962,197.73696924219257 23.012240282725543,197.65719649007224 23.06719434633851,197.64921920844063 23.08551236751373,197.62528735648084 23.20152650179807,197.5534917373443 23.305328621936496,197.4737187160208 23.427448763279244,197.41787753143944 23.628946996468585,197.29821765704037 23.76327915195725,197.17058016739247 24.227335689065512,196.86743992839183 24.642544169619214,196.62014006038953 24.758558303903555,196.5323882239245 24.88678445230471,196.47654607241202 25.008904593647458,196.38879400412043 25.228720848070225,196.30901927369632 25.47906713784323,196.17340196328223 25.66835335691576,196.10160442669803 25.796579505346017,196.02980679525353 25.888169611309422,195.9978967064235 25.90648763254285,196.00587423038087 25.937017667893087,196.0377843145361 25.955335689068306,196.08564940567157 26.175151943491073,196.49250097867844 26.266742049483582,196.63609492454634 26.37054416965111,196.73182401106533 26.60257243819069,197.0269876333041 26.645314487657743,197.05889711810596 26.675844522978878,197.13867074813243 26.797964664321626,197.25833097371287 26.981144876335748,197.49765063470113 27.09105300353258,197.67315104986483 27.1093710247369,197.6891056049717 27.40245936397696,198.2076260969443 27.420777385152178,198.2475120837844 27.51236749117379,198.39907856692298 27.58563957599108,198.4948045490819 27.750501766771777,198.78995859967472 27.817667844559764,198.86175258592266 27.854303886939306,198.9175922874456 27.976424028282054,199.1648817047826 27.98253003534046,199.19678993476919 27.98863604242797,199.20476698934 28.08022614842048,199.12499639098678 28.110756183770718,199.06915690248934 28.165710247354582,199.02129443812373 28.19013427561731,198.98938610513142 28.214558303909143,198.98938610513142 28.24508833923028,198.94152357053463 28.33057243816438,198.8697296896462 28.434374558302807,198.74209588952363 28.538176678441232,198.5665989250956 28.5931307420542,198.51075886305625 28.684720848075813,198.38312422017407 28.849583038856508,198.2315576925721 28.96559717314085,198.1597628741074 29.167095406359294,197.96033232533227 29.185413427563617,197.9284233696344 29.264791519439314,197.85662815087562 29.313639575993875,197.7928100990066 29.551773851620965,197.56944632756495 29.576197879883694,197.5136052413145 29.716636042430764,197.37001361327566 29.869286219094647,197.2423762921826 29.991406360437395,197.1147386714183 30.18679858656833,196.99507812977754 30.26007067138562,196.93125906652494 30.418826855137013,196.85148513215972 30.638643109588884,196.7637336690932 30.67527915193932,196.73182401106533 30.937837455858244,196.660027211954 31.03553356890916,196.6440723548585 31.133229681989178,196.61216262657035 31.267561837477842,196.58823031806605 31.34693992935354,196.54834311380182 31.536226148426067,196.5084558802846 31.57896819789312,196.49250097867844 31.713300353381783,196.47654607241202 31.975858657242497,196.40474893616556 32.030812720855465,196.41272640041643 32.13461484099389,196.37283906742232 32.2200989399571,196.36486159728884 32.44602120143827,196.29306431355508 32.476551236759406,196.30104179419504 32.64751943462761,196.2451994050498 32.78795759717468,196.21328944265406 32.89175971731311,196.21328944265406 33.17874204949476,196.13351445465014 33.37413427562569,196.10160442669803 33.538996466464596,196.06171686538073 33.67943462898256,196.00587423038087 34.00305300357286,195.9260989380091 34.03358303886489,195.91812140233742 34.05800706715672,195.93407647253116 34.16180918729515,195.91014386550523 35.07771024736576,195.6867723585092 35.17540636044578,195.67879478773466 35.49902473500697,195.58306384686512 35.84096113071428,195.51924312595656 35.981399293319555,195.4633999337093 36.176791519421386,195.43148951237163 36.384395759698236,195.37564622997888 36.40271378093166,195.3596909958942 36.55536395762465,195.29587001274194 36.70190812720102,195.24800422622502 36.860664310952416,195.2240713171377 36.982784452295164,195.1762054673818 37.15375265019247,195.1682278216722 37.263660777389305,195.14429487748566 37.41631095408229,195.08845130006375 37.52011307422072,195.0724959816689 37.59949116609641,195.04058533088755 37.77656537105213,195.00069699106098 37.83151943463599,195.00069699106098 37.91089752654079,194.97676397309624 38.06965371026308,194.95283094461047 38.21009187283926,194.91294254037712 38.27725795053993,194.91294254037712 38.729102473531384,194.80125485283133 38.9916607774212,194.76136633738497 39.333597173157614,194.6576560602516 39.73048763250699,194.5858565216986 39.88313780919998,194.53001237059289 40.029681978805456,194.5060791454016 40.06021201412659,194.4901236561018 40.054106007068185,194.4901236561018 40.63417667846079,194.36247957305386 41.012749116605846,194.258768534899 41.177611307415646,194.2348351902874 41.23256537102861,194.22685740639645 41.25698939929134,194.20292404776046 41.36079151945887,194.19494625921288 41.49512367491843,194.14707950327283 41.58060777388164,194.13112390858805 41.59892579508596,194.11516830921755 41.653879858669825,194.10719050779517 41.678303886932554,194.09123490141064 41.73325795054552,194.09123490141064 41.77600000001257,194.06730148303177 41.85537809188827,194.07527929032585 41.95307420496829,194.04336805416096 42.368282685551094,193.9635898817105 42.64915901061613,193.89976725945235 42.67358303887886,193.87583375679242 42.734643109550234,193.85987808250138 42.88729328624322,193.83594456228457 42.997201413469156,193.78807749021144 43.02162544170278,193.7960553384728 43.13763957595802,193.76414393838422 43.253653710271465,193.74818823130045 43.42462190813967,193.69234321962358 43.88257243816042,193.61256453202077 43.98026855124044,193.58065302419345 44.21229681978002,193.53278572734052 44.59697526501259,193.4769404943654 44.822897526522866,193.4051393962909 44.981653710245155,193.37322776668952 45.45181625444093,193.26153691557192 45.47013427561615,193.24558106095355 45.500664310966386,193.24558106095355 45.84870671379031,193.16580171764872 46.18453710246831,193.12591200209135 46.39824734983267,193.12591200209135 46.91115194346639,193.18973553293836 47.375208480574656,193.35727194486026 47.44237455830444,193.3891835838076 47.46069257950876,193.4051393962909 47.491222614829894,193.4051393962909 47.778204947011545,193.51682995234296 47.97359717314248,193.6045866568311 48.11403533568955,193.65245389046322 48.2361554770323,193.70032108196028 48.51092579506803,193.83594456228457 48.62083392223576,193.8838115922008 48.687999999994645,193.8917894264123 48.712424028257374,193.90774509134644 48.82233215548331,193.95561205800914 48.90781625441741,193.97156770421861 48.999406360439025,194.02741242901538 49.13984452295699,194.06730148303177 49.57337102474412,194.26674631408605 49.76876325090416,194.31461296465568 50.055745583056705,194.3704573370378 50.55643816254451,194.41832389628325 50.81899646643433,194.4023683812011 51.2097809187253,194.33854627412438 51.46623321555671,194.31461296465568 51.64941342754173,194.28270186896043 51.72268551235902,194.29067964462592 51.85701766781858,194.28270186896043 52.089045936387265,194.2428129729924 52.17453003532137,194.21887962135952 52.229484098934336,194.21887962135952 52.38824028268573,194.17101288650156 52.724070671363734,194.13112390858805 52.87672084805672,194.12314610949397 53.243081272084964,194.05932367457353 53.6827137809305,194.04336805416096 53.7681978798646,194.03539024217025 53.81093992933165,194.01145679920592 54.07960424030898,193.99550116474347 54.19561837456422,193.97156770421861 54.49481272086268,193.94763423317636 54.610826855147025,193.91572292204364 54.65967491167248,193.91572292204364 54.708522968227044,193.89976725945235 54.76347703181091,193.91572292204364 55.41071378090419,193.84392240351372 55.47787985863397,193.81998887626833 55.55725795053877,193.82796671985489 55.581681978772394,193.78807749021144 55.60000000000582,193.70829894308918 55.60000000000582,193.63649815059398 55.581681978772394,193.6045866568311 55.563363957597176,193.6045866568311" stroke="#4dd2ff" stroke-linecap="round" stroke-linejoin="round" stroke-width="0.5"><title>2024-09-12 7.0km</title><desc>12392142310</desc></polyline><polyline fill="none" points="121.60000000000582,193.90402482209174 121.50877094190218,193.85634643486992 121.42970575817162,193.86429283564212 121.40537800933816,193.85634643486992 121.35064057444106,193.76893594919966 121.28982120231376,193.72125744301957 121.16818245814648,193.70536459829236 120.96747853021952,193.70536459829236 120.4687596790609,193.75304311847867 120.25589187670266,193.79277518656818 120.17074475577101,193.7848287752604 119.86056595807895,193.81661441341203 119.75717302551493,193.81661441341203 119.4287484161905,193.87223923525744 118.55294945798232,193.94375677938297 118.50429396031541,193.95964955415548 118.02990285799024,194.02322060651204 117.97516542312223,194.04705973189994 117.60416725330288,194.06295247632443 117.39129945094464,194.1265234074126 116.53982824159903,194.2616113881304 116.40602562300046,194.2616113881304 116.18099394624005,194.29339674636867 115.71876671831706,194.27750406958148 115.62753766018432,194.26955772944711 115.49981697878684,194.22982601123294 115.15922849503113,194.11857704512659 114.97677037876565,194.03116698278973 114.80039419967216,193.91197121589357 114.51454315081355,193.7848287752604 114.38682246941607,193.70536459829236 114.027988174028,193.55438234069516 113.95500492752763,193.51465009768071 113.69956356470357,193.435185524173 113.40763057864388,193.29214899794897 113.32856539494242,193.27625602726403 113.01838659725036,193.11732606383885 112.83592848095577,193.05375394786097 112.8176826693234,193.05375394786097 112.62914261582773,192.99018175721721 112.4770941855968,192.95839563389745 112.22773475997383,192.94250256524901 111.83240884137922,192.97428869788928 111.58913135298644,193.0140213374434 111.4431648599566,193.06170046643092 111.41883711112314,193.07759350009292 111.35193580182386,193.07759350009292 111.23029705762747,193.1014330418402 111.05392087853397,193.10937955342888 110.91403632270521,193.14911209382626 110.76198789247428,193.17295160409776 110.47005490641459,193.2444700718952 110.37882584825275,193.25241656247817 110.2936787273502,193.2842025132013 110.15379417152144,193.29214899794897 110.08081092499197,193.3159884452216 110.0017457412614,193.35572083401712 109.314486836578,193.48286428228676 109.10770097144996,193.56232878581795 108.71845699005644,193.65768603610923 108.29880332257017,193.71331102123077 108.05552583417739,193.7848287752604 107.76967478531878,193.8404536297894 107.52031535975402,193.91197121589357 107.42300436436199,193.95170316734584 107.26487399690086,193.97554232422408 107.00335069690482,194.04705973189994 106.68100802481058,194.09473795120357 106.41340278758435,194.1821479108803 106.36474728988833,194.1821479108803 106.17012529919157,194.23777235720627 106.00591299452935,194.25366504566045 105.6349148247391,194.3410747487651 105.36122765031178,194.38080638534302 105.01455722935498,194.4761621941907 104.92332817122224,194.52384003564657 104.83818105026148,194.55562523996196 104.4246093200345,194.6350881690887 104.29688863863703,194.67481958992357 104.09010277350899,194.70660470563234 103.7373504153511,194.7940136775287 103.61571167115471,194.801959940698 103.34810643392848,194.801959940698 102.87371533160331,194.93704623628582 102.7642404618091,194.9847236718997 102.68517527807853,195.00856237397602 102.45406166411703,195.08802463839675 102.30809517105808,195.11980951153964 101.81545825710054,195.27873359724617 101.66340982686961,195.310518358423 101.54177108267322,195.31846454580955 101.29849359428044,195.382034002836 101.06737998031895,195.40587252997648 100.62948050122941,195.56479577609207 100.18549908493878,195.67604177083558 99.52256792905973,195.77934141844162 99.38876531046117,195.8190719996819 99.30361818952952,195.8667486586819 99.24279881743132,195.8667486586819 99.01168520346982,195.94620966367802 98.83530902440543,195.9700479424573 98.75624384064577,196.00183229783215 98.67109671971411,196.0097783837664 98.51296635225299,196.04950879588068 98.2757708010904,196.0733470291816 98.09331268479582,196.11307739467884 97.84395325923106,196.20048409615265 97.65541320573539,196.23226831626744 97.47903702664189,196.28789065654928 97.44862734060735,196.28789065654928 97.42429959174478,196.30378274328177 96.93774461495923,196.42297324509127 96.71271293822792,196.45475733457351 96.48159932423732,196.51832545762954 96.19574827540782,196.58983950683978 96.00720822191215,196.66135346161172 95.89773335211794,196.73286732193083 95.79434041955392,196.82821898876136 95.73960298465681,196.8679488004018 95.67270167535753,196.93946238786884 95.62404617769062,196.96330022937036 95.61796424048953,196.98713806036903 95.56322680559242,197.01892181873336 95.51457130792551,197.0983811330043 95.48416162189096,197.13016482606326 95.36252287769457,197.24140760484443 95.32603125442984,197.28908301151023 95.18006476139999,197.42416310242697 95.15573701256653,197.44800073057195 95.12532732653199,197.4400548556805 95.08275376603706,197.4638924768078 94.82123046601191,197.74994311185947 94.76041109394282,197.8373471711675 94.62660847528605,197.99626328118393 94.45631423342275,198.15517892484786 94.40765873575583,198.18696199764963 94.39549486135365,198.2266908123638 94.40765873575583,198.2107992899546 94.34075742645655,198.25052808720648 94.18870899622561,198.41738871731286 93.95759538226412,198.63192305765915 93.75689145433716,198.8702935501242 93.65958045897423,198.94975014775264 93.51361396591528,199.14044550643303 93.14261579615413,199.46621519067048 92.9905673659232,199.62512652061923 92.9358299310552,199.66485428026135 92.84460087292246,199.70458201073052 92.77769956359407,199.76814631887828 92.53442207520129,200.04623928972796 92.46143882867182,200.22103985474314 92.43711107986746,200.2289853215625 92.38237364497036,200.3084399256477 92.16950584261212,200.47529421481886 92.05394903564593,200.5547484575509 92.0113754751801,200.59447553519203 91.95055610308191,200.61036635809796 91.90798254258698,200.6500933949319 91.77417992401752,200.71365659324147 91.59780374492402,200.83283738903265 91.40926369142835,200.93612719988596 91.39101787979598,200.9599632821155 91.31803463329561,200.99969006247193 91.28762494723196,200.99969006247193 91.19031395186903,201.0711981937493 91.01393777280464,201.16654222186116 90.79498803324532,201.3333938671749 90.41790792625397,201.5399713824445 90.10164719138993,201.73860286555646 90.07123750529718,201.74654810971697 89.93743488669861,201.8498361778693 89.71848514713929,201.96901447327036 89.66982964944327,202.00874051343635 89.63333802620764,202.01668571797563 89.51169928201125,202.09613769925636 88.81227650292567,202.48545072263732 88.54467126567033,202.62051785234144 88.38045896103722,202.72380425366282 88.25273827961064,202.78736501808817 88.18583697031136,202.80325519756298 88.09460791217862,202.8509257079386 87.97296916798223,202.88270602489138 87.83308461215347,203.00982710617973 87.7601013656531,203.05749743475099 87.71144586795708,203.05749743475099 87.68103618192254,203.04160732988748 87.53506968889269,202.7476395490812 87.26138251443626,202.2788768138562 87.17015345630352,202.1517540167988 86.86605659581255,201.62736932477492 86.75658172604744,201.46846387017285 86.6653526679147,201.30161264102935 86.62277910744888,201.24599545039382 86.40991130511975,200.86461889028578 86.22745318882517,200.57858470760402 85.77130789807416,199.76020078443253 85.63750527947559,199.46621519067048 85.61925946784322,199.45826961194325 85.52803040971048,199.49799749399608 85.33949035621481,199.6410176279678 85.03539349575294,199.7999284449579 84.71913276083069,199.92705676280457 84.37854427710408,200.08596674040746 84.0805293538433,200.26871263817884 84.019709981716,200.316385379665 83.71561312125414,200.4514579192837 83.67303956075921,200.4911850726894 83.40543432356208,200.65803879881787 83.36286076306715,200.6659842015033 83.28987751653767,200.71365659324147 82.92496128397761,200.8964003728579 82.584372800251,201.09503421650152 82.55396311421646,201.09503421650152 82.37758693512296,201.19037820267476 82.09781782346545,201.36517507464305 81.96401520486688,201.42079214286787 81.59909897230682,201.62736932477492 80.83885682109394,202.01668571797563 80.6320709559659,202.15969920034695 80.56516964663751,202.17558956396897 80.47394058850477,202.22326062685534 80.35230184433749,202.32654778582219 80.12727016757708,202.40599931251927 80.04212304664543,202.4139444587745 80.00563142338069,202.43777989053706 79.98130367451813,202.44572503214658 79.96305786288576,202.43777989053706 79.85966493032174,202.47750558685948 79.8292552442872,202.48545072263732 79.75627199775772,202.53312151277714 79.51299450936494,202.62846296713178 79.07509503030451,202.76352974019028 79.02643953260849,202.73969445176772 78.99602984657395,202.7079140508904 78.97778403494158,202.6602434146298 78.94129241167684,202.56490201621637 78.92912853727466,202.50928612295684 78.89263691400993,202.44572503214658 78.86830916514737,202.3503832560782 78.7892439814459,202.1517540167988 78.76491623258335,202.0564117231952 78.74667042098008,202.0325761235763 78.65544136284734,201.74654810971697 78.58245811631787,201.57969773734294 78.52772068142076,201.38106567139766 78.43649162325892,201.16654222186116 78.39999999999418,201.0711981937493 78.39999999999418,201.05530750604885 78.40608193722437,201.04736216047604" stroke="#4dd2ff" stroke-linecap="round" stroke-linejoin="round" stroke-width="0.5"><title>2024-09-12 7.1km</title><desc>12388432138</desc></polyline><polyline fill="none" points="187.59999999997672,193.88251738356485 187.4309433962335,193.85885142909683 187.1230188679183,193.86674008175032 187.09283018865972,193.84307412033377 187.06264150943025,193.77996483900642 187.0203773584508,193.7484101705486 186.93584905657917,193.73263282937842 186.76679245280684,193.72474415706165 186.47094339621253,193.75629883939473 186.4045283018786,193.78785350322505 186.31999999997788,193.77207617364184 186.06037735845894,193.79574216627225 185.98188679243322,193.81151948891784 185.83698113204446,193.81151948891784 185.74641509429784,193.83518546422783 185.46867924524122,193.84307412033377 185.2754716980853,193.87462873322875 185.14867924526334,193.87462873322875 184.979622641491,193.89829468071912 184.5690566037374,193.92984926119243 184.01358490565326,194.00873563132336 183.89283018867718,194.00873563132336 183.74792452828842,194.04029014696061 183.72377358490485,194.03240151978025 183.63320754715824,194.05606739780342 183.48830188679858,194.0481787729659 183.2528301886632,194.0797332654438 183.08981132076588,194.13495358269938 182.9690566037607,194.1507308057844 182.88452830188908,194.18228523804646 182.40150943395565,194.22961685172777 182.17811320754117,194.28483701501318 181.72528301886632,194.30850278191792 181.67094339619507,194.29272560514073 181.61056603773613,194.30061419409685 181.3449056603713,194.26905983128745 181.04905660374789,194.1901738432316 180.69886792451143,194.04029014696061 180.60226415091893,193.97718109715788 180.57811320753535,193.97718109715788 180.4211320754548,193.89829468071912 180.35471698112087,193.85096277530465 179.94415094339638,193.67741209880114 179.8173584905453,193.614302622962 179.64830188680207,193.54330437405224 179.47320754715474,193.48808344897043 178.85132075470756,193.19620047393983 178.48301886790432,193.0936466199273 178.46490566033754,193.06998031812327 178.24150943395216,193.02264768330133 178.18716981131,193.03053645865293 178.0905660377175,192.99898135026524 178.0120754716918,193.0068701290911 177.81886792450678,192.97531500677724 177.72830188676016,192.98320378910284 177.76452830186463,192.9910925702461 177.57132075467962,192.9910925702461 177.40226415090729,193.03842523288404 177.1909433961846,193.06209154855605 177.03999999997905,193.1094241486644 176.85886792451493,193.11731291128672 176.53886792450794,193.219866720141 176.39396226414829,193.20408922382194 176.29735849055578,193.2356442118289 176.0679245282954,193.27508792078515 175.99547169808648,193.29086539626223 175.9713207546738,193.3066428671118 175.82037735846825,193.3303090646914 175.4701886792318,193.42497375083985 175.1562264150998,193.51963827025247 174.99924528301926,193.54330437405224 174.69735849052086,193.63796868508507 174.5524528301903,193.65374605402758 174.4679245282896,193.68530077805917 174.1599999999744,193.72474415706165 173.76754716978758,193.83518546422783 173.59245283016935,193.85885142909683 173.50188679245184,193.8904060327186 173.47773584903916,193.88251738356485 173.3509433962172,193.92196061781215 173.27849056603736,193.92984926119243 173.25433962262468,193.9456265444751 173.01283018864342,194.01662426195617 172.77132075472036,194.0245128914321 172.60226415091893,194.0718446440551 172.39094339619623,194.1428421948367 172.2339622641448,194.16650802422373 172.07698113206425,194.23750544996437 171.8173584905453,194.27694842373603 171.73886792449048,194.30850278191792 171.64830188677297,194.32427995403486 171.4128301886376,194.38738859630757 171.28603773581563,194.41894288966068 171.13509433961008,194.4347200293887 170.8030188679113,194.52149421511422 170.6098113207554,194.5530484297269 170.45886792452075,194.60826826075208 170.15094339620555,194.66348803503206 170.12075471697608,194.6792651029864 169.87320754714892,194.7502618514518 169.61962264150498,194.81336999357154 169.5894339622464,194.80548147986337 169.45056603770354,194.83703552776205 169.36603773583192,194.8449240368318 169.22113207544317,194.90014356802567 169.0762264150835,194.9238090640065 169.00377358487458,194.96325153420185 168.90716981131118,194.97902851416438 168.82867924525635,194.99480548948486 168.74415094335563,194.99480548948486 168.75622641507653,194.9553630424707 168.466415094299,194.98691700239578 168.10415094337077,195.1289095928587 168.1766037735506,195.10524418715067 168.14037735844613,195.13679805912034 168.02566037734505,195.1841288322903 167.7599999999511,195.24723646506027 167.6573584905418,195.29456714098706 167.40377358486876,195.3340093391198 167.264905660355,195.38133993864903 166.70943396224175,195.4838894280183 166.6430188678787,195.523331487213 166.5464150943153,195.53910830279347 166.4437735848769,195.57855032146836 166.33509433959262,195.60221551880022 166.2566037735669,195.60221551880022 165.8460377358133,195.70476458678604 165.09132075469824,195.85464364192012 164.49962264148053,196.02029895351734 164.3184905660164,196.04396395633012 164.0105660377012,196.09918225576257 163.84150943392888,196.17017712886081 163.76905660374905,196.1780654423128 163.4249056603294,196.2648368137634 163.38264150940813,196.28850170896476 163.24377358489437,196.31216659372149 163.22566037732759,196.3358314680736 162.38037735846592,196.50937356160284 162.18113207543502,196.58825614617308 162.0905660377175,196.59614439827055 162.04226415095036,196.62769739505165 161.8852830188698,196.6671386150083 161.72226415094337,196.78546210120112 161.6920754716848,196.84067963896086 161.60754716978408,196.88012070262994 161.52301886791247,196.95900274314408 161.42037735847407,197.05366103900087 161.35999999998603,197.14831916814728 161.21509433962638,197.27452974774133 161.14264150941744,197.36129934932978 160.92528301881975,197.52695001797838 160.71999999994296,197.72415252935025 160.6837735848967,197.77148102444698 160.64754716979223,197.78725718022542 160.62339622637955,197.8266975493898 160.52075471694116,197.9213543173464 160.39396226411918,198.08700326018516 160.32150943396846,198.1422194610277 160.24301886788453,198.16588352976032 160.21886792450096,198.18954758805194 160.20679245280917,198.244763683575 160.1826415094256,198.28420371709944 159.85056603769772,198.56817110415068 159.74188679241342,198.7180421759076 159.42792452828144,199.09666196979015 159.10792452827445,199.34907368426502 158.81811320752604,199.63303544645532 158.70339622639585,199.7119134475288 158.6671698113205,199.7592401926304 158.5524528301612,199.86178133075373 158.4498113207228,199.98009778552296 158.37735849057208,200.12996492111415 158.28075471695047,200.2561685007313 158.08150943394867,200.43758562737275 157.62264150939882,200.7373169301136 157.30264150942094,200.9187324331033 157.18792452829075,201.01338375688283 156.81358490564162,201.23423619758978 156.70490566035733,201.31311184942388 156.55999999996857,201.39987493274384 156.4392452829925,201.4393126516261 156.30641509432462,201.51030047268068 156.28830188675784,201.5339630588678 156.06490566034336,201.66016334263622 155.96830188677995,201.7311508720959 155.85358490562066,201.79425081957743 155.80528301885352,201.8415757315961 155.44905660377117,202.03876241656326 154.94792452827096,202.29904773330782 154.65811320752255,202.4725705777637 154.4166037735704,202.59088128694202 154.36226415092824,202.63031813217822 153.98188679243322,202.8117272475247 153.90943396222428,202.85116393073258 153.7041509433766,203.02468499322276 153.65584905658034,203.0167976843586 153.5954716980632,202.96947380681377 153.44452830185764,202.67764230823013 153.36603773583192,202.5593317899511 153.20905660375138,202.2674980650736 152.9796226414619,201.9125630214694 152.7743396226142,201.57340067938276 152.71999999994296,201.46297526907438 152.6898113207135,201.4393126516261 152.61735849053366,201.2894491660154 152.5871698113042,201.2815616025764 152.55094339619973,201.21846105334407 152.4905660377117,201.084372140318 152.22490566034685,200.62688980247913 152.1766037735506,200.57167615359867 152.1645283018588,200.52435012370552 152.14037735847523,200.50857477114914 152.0618867924495,200.37448408755517 152.02566037731594,200.32715788406858 151.83245283016004,199.94065899620182 151.74792452828842,199.8144546759213 151.71169811318396,199.7198012412664 151.6513207546668,199.62514763997387 151.62113207543734,199.54626951159298 151.54264150941162,199.4752790970815 151.52452830187394,199.4358399374105 151.37962264148518,199.44372777165336 151.3554716980434,199.4752790970815 151.34339622638072,199.54626951159298 151.32528301881393,199.5857085902462 151.2528301886341,199.64092325177626 150.83018867921783,199.82234245461223 150.58867924523656,199.94854675637544 150.50415094336495,199.98009778552296 150.37132075469708,200.05897527739944 150.1358490565908,200.185179023636 149.8460377358133,200.35082099100327 149.82792452827562,200.37448408755517 149.71924528302043,200.41392255862957 149.58641509432346,200.50068709312472 149.37509433960076,200.6032268170311 149.18792452826165,200.71365399327624 148.64452830184018,200.99760854783017 148.4150943396089,201.13958526267015 148.19169811319443,201.23423619758978 148.1132075471396,201.2894491660154 147.7207547169528,201.47875034155732 147.1049056603806,201.81002579487176 146.75471698111505,201.99932513742897 146.73660377354827,202.03876241656326 146.54339622636326,202.1570740804018 146.35018867920735,202.22806095370834 146.31999999994878,202.27538548386292 146.26566037733573,202.30693514749146 146.23547169807716,202.31482256051459 146.04830188676715,202.38580922553592 145.993962264125,202.40947142639925 145.96377358489553,202.44102101132376 145.92150943391607,202.45679579684656 145.7041509433766,202.51200750974022 145.5049056603748,202.58299391442415 145.3962264150614,202.6066560285035 145.22716981131816,202.66186758749973 145.12452830185066,202.71707908979442 145.03999999997905,202.70919173580114 144.9796226414619,202.66975494843064 144.96754716979922,202.58299391442415 144.8890566037444,202.38580922553592 144.8890566037444,202.3542596081934 144.786415094306,202.054537320113 144.70792452825117,201.8889006019199 144.6656603773299,201.77058834793206 144.64754716979223,201.68382586288135 144.60528301884187,201.59706323779392 144.52679245281615,201.33677452239135 144.39999999999418,201.03704656177797 144.39999999999418,201.00549615291675" stroke="#4dd2ff" stroke-linecap="round" stroke-linejoin="round" stroke-width="0.5"><title>2024-09-11 7.2km</title><desc>12379940467</desc></polyline><polyline fill="none" points="12.57043821332627,248.54495990097348 12.582612371421419,248.54495990097348 12.546089897106867,248.56086416772087 12.460870790469926,248.56881629938653 12.418261237151455,248.59267268730036 12.406087079027202,248.6403854316195 12.39999999999418,248.656289670369 12.430435395246604,248.7278586870816 12.448696632374777,248.90280477454144 12.55826405523112,249.1890789723402 12.61304776664474,249.41173563638586 12.661744399025338,249.54691959332922 12.704353952372912,249.6423433599375 12.710441031435039,249.67415124478066 12.759137663786532,249.78547869481554 12.844356770452578,249.94451751249653 12.856530928547727,250.04789249375244 12.880879244708922,250.12741157594792 12.947837114246795,250.31030502224894 12.990446667565266,250.46139044718439 12.990446667565266,250.48524600211022 13.087839932355564,250.73175278812414 13.124362406641012,250.75560822403713 13.191320276149781,250.7476564132412 13.209581513307057,250.7953672605763 13.233929829497356,250.82717446881725 13.306974778039148,250.8510298627407 13.793941101874225,250.71584915831772 14.207862477080198,250.56476444266082 14.250472030427773,250.5568126038488 14.52439058755408,250.39777558276182 14.70700295898132,250.33416064366975 14.780047907552216,250.2387380950131 14.865267014218261,250.1751229692709 15.047879385645501,250.0717482306718 15.24266591516789,249.98427714401987 15.5409327885136,249.83319038912305 15.705283922754461,249.7695747873804 15.875722136086551,249.66619927532884 15.948767084657447,249.6423433599375 16.46008172465372,249.37992759754343 16.709651965589728,249.2367911916299 16.886177257983945,249.16522284694656 16.965309285587864,249.11751056465073 17.312272791285068,248.98232553670096 17.42792729320354,248.88690060810404 17.537494716059882,248.8312359888332 17.53140763702686,248.82328389568647 17.634887980821077,248.76761921108846 17.738368324644398,248.75171500500437 17.762716640805593,248.71195446931597 17.866196984658018,248.6403854316195 17.933154854166787,248.61652906469317 18.194899253197946,248.45748635030031 18.456643652229104,248.33025184277722 18.58447231221362,248.25073012388384 18.602733549370896,248.22687358547046 18.694039735099068,248.20301703655787 18.81578131605056,248.11554293402514 19.15665774268564,247.9564987495287 19.534056643635267,247.75769286260766 19.619275750301313,247.7258838530288 19.64362406649161,247.70202708360011 19.783626884571277,247.64636124741446 19.88102014933247,247.54298168565947 19.954065097903367,247.51117255005374 20.221896576025756,247.36007890102337 20.641905030264752,247.16922316335695 20.927997745515313,247.02608091903312 21.11061011691345,246.89884305114538 21.134958433103748,246.8749859176496 21.165393828356173,246.86703353749908 21.36626743694069,246.68412847172658 21.5671410454961,246.54893737419843 21.585402282624273,246.52508008669975 21.798450049303938,246.41374593945875 21.810624207399087,246.38193614109332 21.956714104511775,246.3262689490366 22.108891080715694,246.2467442897614 22.334113005490508,246.10359960901405 22.394983795966255,246.04793213106677 22.480202902603196,246.01612211799875 22.541073693078943,245.9604545501934 22.78455685498193,245.8411667123546 22.814992250234354,245.80935657793088 22.91847259402857,245.78549896485856 23.076736649294617,245.66621074195427 23.68544455402298,245.30039188778028 23.801099055912346,245.21291310030574 23.886318162607495,245.14133944186324 24.03849513878231,245.0777183328064 24.15414964070078,244.9663812122053 24.288065379747422,244.894807228211 24.355023249227088,244.83118582969837 24.452416514017386,244.77551704478537 24.586332253034925,244.67213200675906 24.75068338730489,244.60055763410855 24.927208679699106,244.49717226233042 25.201127236854518,244.36992845706482 25.32286881780601,244.29040092705327 25.408087924472056,244.2585898823927 25.535916584456572,244.18701496357244 25.69418063966441,244.12339273418183 25.72461603494594,244.12339273418183 25.748964351107134,244.09953437890363 25.8889671691868,244.0359120467947 25.913315485377098,244.04386484239876 25.937663801567396,244.05977043007442 25.974186275852844,244.16315663630303 26.120276172994636,244.44150313429418 26.156798647309188,244.48126680300993 26.2846273072646,244.70394280866822 26.473326757753966,244.88685455747327 26.74115823584725,245.2447235848049 26.826377342513297,245.3242497144238 26.99681555587449,245.55487483033357 27.08812174157356,245.72187861198836 27.39247569392319,246.22288686922548 27.435085247270763,246.3262689490366 27.47160772155621,246.36603123491295 27.60552346057375,246.58074707454216 27.739439199649496,246.7954620635246 27.782048752967967,246.89089067450186 27.82465830631554,246.91474780094723 27.91596449201461,247.0896997409509 27.989009440585505,247.2089848307951 27.995096519647632,247.240794143745 28.220318444393342,247.01017620187486 28.323798788216664,246.8431763900153 28.390756657725433,246.7954620635246 28.433366211043904,246.72389049505728 28.482062843453605,246.68412847172658 28.512498238676926,246.59665191771273 28.579456108185695,246.52508008669975 28.749894321517786,246.35807878007472 29.14555445962469,246.0558846314343 29.261208961514058,245.93659700364515 29.31599267295678,245.8411667123546 29.334253910084954,245.82526164750016 29.358602226275252,245.82526164750016 29.40729885865585,245.76164134126157 29.443821332912194,245.7457362530622 29.705565731972456,245.42763350845053 30.02209384244634,245.1174815347258 30.186444976716302,245.00614449583009 30.2351416090969,244.95842855198498 30.3081865576969,244.9425232280446 30.734282090998022,244.75961166715206 30.892546146264067,244.72780089788284 31.574298999563325,244.52898316696155 31.75082429192844,244.49717226233042 31.848217556718737,244.49717226233042 31.87865295194206,244.5051249902317 32.26822601095773,244.43355039702874 32.389967591909226,244.38583394904344 32.755192334763706,244.3063064424059 32.93171762712882,244.25063711828625 33.175200789031805,244.13134551693656 33.272594053822104,244.09953437890363 33.41259687190177,244.07567601310075 33.61955755951931,244.05977043007442 34.10652388332528,243.92457278587244 34.1369592785486,243.93252559781467 34.258700859500095,243.89276152646198 34.35609412426129,243.88480870869898 34.49000986330793,243.8450446023453 35.23872058611596,243.6700821877057 35.62829364518984,243.5666950408231 36.02395378326764,243.49511920820441 36.24308862895123,243.415590394412 36.47439763278817,243.37582594376363 36.65092292515328,243.30424985905483 36.900493166118395,243.25653241671898 37.04658306323108,243.24062659329138 37.150063407054404,243.20881493239358 37.241369592782576,243.20881493239358 37.624855572736124,243.0974739721969 37.770945469877915,243.0736151652418 37.801380865159445,243.06566222724723 37.856164576573065,243.06566222724723 37.965731999400305,243.02589751982669 38.00225447368575,243.03385046365656 38.1118218965421,242.99408573290202 38.397914611763554,242.95432097293815 38.64139777366654,242.87479136552793 38.93966464701225,242.81116759554425 39.42663097081822,242.66801383998973 39.55445963083184,242.6521078438018 39.74924616032513,242.58053080322497 39.97446808509994,242.53281272363893 40.19969000981655,242.46918855217154 40.540566436509835,242.39761126995654 40.72317880790797,242.41351734083582 40.88752994220704,242.32603389321594 40.98492320696823,242.3101277966707 41.24666760599939,242.2226441821258 41.344060870760586,242.21469111926854 41.435367056459654,242.17492578740712 41.58754403266357,242.15901964650038 41.63624066504417,242.11925427378083 41.70319853458204,242.12720735065523 41.81276595743839,242.0794888718956 42.16581654216861,242.0397234408265 42.719740735483356,241.90452075693247 42.76843736789306,241.90452075693247 43.109313794528134,241.80113024165257 43.24322953357478,241.77727086396408 43.383232351683546,241.73750521111288 43.590193039301084,241.71364580540467 43.82758912211284,241.64206752525206 43.876285754551645,241.63411437716422 43.96150486118859,241.59434861928094 43.99194025644101,241.60230177318226 44.26585881356732,241.56253599196862 44.34499084117124,241.56253599196862 44.92326335067628,241.4273321174951 45.11196280113654,241.37165983584055 45.33718472594046,241.33189388534083 45.830238128779456,241.20464264770635 46.23198534589028,241.14897013726295 46.371988163969945,241.14897013726295 46.87112864590017,241.2364554851265 47.47374947156641,241.4591448241954 47.650274763960624,241.5386765092153 47.82680005635484,241.59434861928094 48.15550232489477,241.76136460630005 48.185937720147194,241.76136460630005 48.46594335633563,241.88066142476237 48.81290686203283,241.99995798059535 49.129434972506715,242.14311350091884 49.62857545440784,242.34989302929534 50.097280541056534,242.42147037454197 50.243370438198326,242.42942340705486 50.389460335311014,242.47714157768496 50.63903057627613,242.45328249761224 50.94947160771699,242.405564305991 51.448612089589005,242.35784607232927 51.582527828606544,242.32603389321594 51.72861772577744,242.32603389321594 51.765140200033784,242.3101277966707 51.929491334361956,242.28626864306352 52.06949415241252,242.2226441821258 52.14862618007464,242.2067380552362 52.55646047621849,242.19878499002516 53.201690855261404,242.09539503617634 53.78605044382857,242.04767652939336 54.120839791430626,241.99200488505085 54.2121459771588,241.99200488505085 54.32171340001514,241.96814559137783 54.43128082284238,241.96814559137783 54.619980273302644,241.93633318351203 54.71737353809294,241.93633318351203 54.80259264475899,241.9124738653336 54.89998590949108,241.92042697254874 54.99129209521925,241.89656764737447 55.088685359980445,241.90452075693247 55.51478089331067,241.84089584779576 55.59391292091459,241.83294272891362 55.59999999997672,241.82498960884186" stroke="#4dd2ff" stroke-linecap="round" stroke-linejoin="round" stroke-width="0.5"><title>2024-09-10 7.1km</title><desc>12375090044</desc></polyline></svg>