<?xml version="1.0" encoding="utf-8" ?>
<svg baseProfile="full" height="300mm" version="1.1" viewBox="0,0,200,300" width="200mm" xmlns="http://www.w3.org/2000/svg" xmlns:ev="http://www.w3.org/2001/xml-events" xmlns:xlink="http://www.w3.org/1999/xlink"><defs /><rect fill="#222222" height="300" width="200" x="0" y="0" /><text fill="#FFFFFF" style="font-size:12px; font-family:Arial; font-weight:bold;" x="10" y="20">Over 5km Workouts</text><text fill="#FFFFFF" style="font-size:4px; font-family:Arial" x="10" y="280">ATHLETE</text><text fill="#FFFFFF" style="font-size:9px; font-family:Arial" x="10" y="290">Liudon</text><text fill="#FFFFFF" style="font-size:4px; font-family:Arial" x="120" y="280">STATISTICS</text><text fill="#FFFFFF" style="font-size:3px; font-family:Arial" x="120" y="285">Number: 14</text><text fill="#FFFFFF" style="font-size:3px; font-family:Arial" x="120" y="290">Weekly: 4.7</text><text fill="#FFFFFF" style="font-size:3px; font-family:Arial" x="141" y="285">Total: 99.1 km</text><text fill="#FFFFFF" style="font-size:3px; font-family:Arial" x="141" y="290">Avg: 7.1 km</text><text fill="#FFFFFF" style="font-size:3px; font-family:Arial" x="167" y="285">Min: 7.0 km</text><text fill="#FFFFFF" style="font-size:3px; font-family:Arial" x="167" y="290">Max: 7.2 km</text><polyline fill="none" points="12.406078514119145,56.61681834612318 12.39999999999418,56.80740033656548 12.539805825217627,57.25208903782914 12.588433938333765,57.45060959986222 12.679611650470179,57.68089253960352 12.795103419164661,57.94293745167306 12.898438159551006,58.25262525758808 12.977458843350178,58.57025193580921 13.068636555486592,58.80847072132019 13.178049810027005,58.86405495373765 13.226677923143143,58.856114352613076 13.810215280682314,58.68936145961925 14.193161671573762,58.53848935187489 14.551794005878037,58.36379480699179 16.691430983511964,57.220325680307724 17.09869143096148,57.02974514388916 17.84634867028217,56.60887741531042 18.356943858147133,56.354767013526725 18.946559729840374,56.03712733357679 19.420683832810028,55.80683739990127 19.621274799486855,55.68772153247846 19.931279020674992,55.47331231047065 20.06500633174437,55.40184238107031 20.867370198393473,55.0206678301729 20.98894048121292,54.949197303012625 21.469143098336644,54.5997844782687 21.766990291245747,54.40125345920387 22.40523427602602,54.0200718610613 23.11642043053871,53.6388875781704 23.50544533552602,53.35299760404814 24.009962009295123,53.019457392139884 24.301730688021053,52.83680354784519 24.605656395084225,52.63032454677523 25.359392148588086,52.24913047505106 25.7848881384416,52.05853243228921 25.863908822240774,52.050590832612215 25.894301392982015,52.07441562817621 25.949008020252222,52.153831537583756 26.070578303042566,52.42384475789004 26.17999155758298,52.59855847668223 26.392739552538842,52.86856947811975 26.818235542392358,53.36888042001374 26.98235542420298,53.59123935402022 27.547657239309046,54.5362546314027 27.693541578715667,54.79831476905383 27.748248205985874,54.87772668147227 27.754326720081735,54.87772668147227 27.742169691831805,54.869785495480755 27.948839172604494,55.24301997778457 28.046095398865873,55.100079416319204 28.027859856461873,55.11596171956626 28.24060785138863,54.90155023246189 28.42904178975732,54.64743181446829 28.544533558451803,54.520372158025566 29.121992401836906,54.0121305492321 29.620430561393732,53.480060001227685 29.778471929050284,53.29740771150682 29.991219924006145,53.09093046775524 30.07631912198849,53.02739884964103 30.210046433086973,52.96386715697736 30.386323343176628,52.916218338516046 30.799662304780213,52.75738864066807 31.255550865316764,52.59855847668223 31.57163360065897,52.52708475080726 32.08222878849483,52.47943554777885 32.64145208947593,52.36031235665723 32.793414942978416,52.304721444405004 32.817728999536484,52.28883831615167 32.823807513690554,52.24913047505106 32.884592655085726,52.2253057564194 33.31008864499745,52.130006776998925 33.826762346958276,51.97117477169377 34.604812157020206,51.796459027442324 35.43149008019827,51.58203438854616 36.39797382859979,51.375550599954295 37.49818488812889,51.09759040963036 37.9236808779533,51.034056451389915 38.21544955676654,50.97052241857091 39.24271844656323,50.676676546398085 40.42195018992061,50.398712766356766 40.97509497674764,50.24781754496507 41.7288307302224,50.08898001527268 42.209033347375225,50.00956107560705 42.83512030390557,49.83483899802741 43.29100886447122,49.73159386883344 43.65571971295867,49.66805830679732 43.97180244824267,49.58863874934832 44.4155339805875,49.50921907535667 45.03554242293467,49.342437380575575 45.84398480367963,49.167713148992334 46.08712536931853,49.13594504626599 46.39712959053577,49.14388707368926 46.74968341071508,49.207423251144064 47.13262980157742,49.350379377705394 49.3938370620308,50.271643134212354 49.9712959054159,50.398712766356766 50.36032081043231,50.43048012775398 50.530519206397,50.42253828916 50.98640776696266,50.38282907865505 51.49092444067355,50.30341057021724 51.81916420429479,50.279584994976176 52.141325453761965,50.208108206265024 52.91329674964072,50.11280567444919 55.204896580806235,49.858664769089955 55.49666525959037,49.81101321647293 55.52097931614844,49.755419685370725 55.539214858581545,49.63629049781957 55.563528915139614,49.596580710360286 55.60000000000582,49.596580710360286" stroke="#4dd2ff" stroke-linecap="round" stroke-linejoin="round" stroke-width="0.5"><title>2024-09-24 7.1km</title><desc>12492762213</desc></polyline><polyline fill="none" points="121.59999999997672,49.59936953771103 121.29461331822677,49.65523047979514 120.51282341295155,49.711091364497406 119.47450869501336,49.84675327408331 118.97978227058775,49.88665377130019 117.82542061360436,50.03029531889479 117.31237098822021,50.12605613981577 116.54890428390354,50.237776884416235 116.1030397285358,50.2537369720485 115.8159762476862,50.20585669510183 115.41286582779139,50.08615581828781 115.16855648238561,49.97443476215267 114.94257033790927,49.86271347647926 114.66161459067371,49.750991961245745 114.32568924076622,49.575429116426676 113.11635798102361,49.0806580492972 112.8537254347466,48.984895387253346 112.64606249114149,48.93701399297788 112.38953767847852,48.91307328004041 111.90091898766696,48.93701399297788 111.15577548422152,49.07267783390853 110.74044959704042,49.16046013882078 110.22739997168537,49.28016305352867 109.9708751590515,49.359964850267716 109.58608794005704,49.45572685173829 109.33567086100811,49.50360778924005 109.13411565104616,49.51956809234616 109.0608228474157,49.55946882968783 108.98142231017118,49.58340925802622 107.90646119043231,49.81483285521608 107.02694754698314,50.038275393766526 106.67269899614621,50.08615581828781 105.90312455818639,50.29363717063461 105.26181252652896,50.421317609339894 104.24792874310515,50.67667758735115 102.94698147886083,50.955976190118236 102.58662519438076,51.05173538083545 102.04914463451132,51.17941403945224 101.74986568637541,51.28315272884356 101.0596917856601,51.410830844073644 101.02304538383032,51.42679058740396 101.01693765021628,51.44275032605219 100.82149017386837,51.4746697892806 100.68101230027969,51.53052880484756 99.45946557330899,51.81780283565968 99.09300155518577,51.92154030712845 98.73875300434884,51.993358440693555 98.52498232712969,52.009318013038865 98.32342711719684,52.049216923442145 97.93863989817328,52.17689323995364 97.40115933830384,52.312548997808335 97.00415665205219,52.44022469603806 96.21015127951978,52.63173768130582 95.96584193408489,52.75143295458474 95.75207125689485,52.93496519523251 95.4466845751158,53.25415022533343 95.19626749609597,53.453639917777764 95.03746642160695,53.60525159454846 94.79315707620117,53.87655564544184 94.34118478721939,54.331385870536906 94.19459917995846,54.4351185470332 93.99915170363965,54.67450089140766 93.74262689097668,54.92984089732272 93.5899335501017,55.12134511497425 93.11353032654733,55.552227138996386 93.01580658843159,55.624040477752715 92.76538950938266,55.77564610369518 92.72263537393883,55.807563023750845 92.63712710305117,55.90331367143153 92.3928177576745,56.27035625921417 92.31341722040088,56.37408523721024 92.1729393467831,56.49377227369769 91.06133182521444,57.19593091550996 90.82923794712406,57.363490160667425 90.54217446627445,57.499132981029106 88.76482397847576,58.56032689888161 87.90974126959918,59.047032972630404 87.79980206416803,59.08692671995959 87.73872472782386,59.03905421965828 87.51273858331842,58.60022100322021 86.81034921531682,57.4672170537342 86.41334652903606,56.77304100112451 85.9247278382245,55.87937602531383 85.88197370278067,55.77564610369518 85.88808143642382,55.71181220745348 85.74149582919199,55.5043515271318 85.70484942739131,55.46445515172309 85.64987982466118,55.440517312435986 85.39946274564136,55.624040477752715 85.16736886752187,55.751708401392534 84.88030538664316,55.90331367143153 84.41000989676104,56.10279364600865 84.092407747783,56.246418774640915 83.85420613599126,56.38206438118141 83.6648663933156,56.50973052532936 83.23732503884821,56.74910373782404 82.65709034353495,57.05230829445645 80.38501343133976,58.289046213267284 80.13459635231993,58.36883479066819 79.74980913329637,58.544369248953444 79.33448324614437,58.6879879297594 79.15735897072591,58.72788194047462 79.0779584334523,58.74383953656434 79.04741976526566,58.719903140685346 78.99855789620779,58.65607270014516 78.56490880812635,57.427322118259326 78.39999999999418,57.03635020205911" stroke="#4dd2ff" stroke-linecap="round" stroke-linejoin="round" stroke-width="0.5"><title>2024-09-24 7.1km</title><desc>12488248833</desc></polyline><polyline fill="none" points="144.4121724429715,56.461123086017324 144.39999999999418,56.604240900964214 144.4121724429715,56.651946755297104 144.521724429389,56.954082857504545 144.6860524091462,57.52654664230067 144.85646661030478,57.95589051252318 145.00862214708468,58.46473810237876 145.0451394759002,58.53629441151497 145.06948436179664,58.56014649358622 145.1303465764795,58.59194925331758 145.16686390532413,58.583998565136426 145.2398985629843,58.647604037978454 145.3372781064827,58.6794067464034 145.5989856297383,58.615801310887036 145.89721048180945,58.52834371517383 146.31715976333362,58.369329543216736 146.53626373625593,58.250068608045694 147.02924767538207,57.963841292847064 147.5648351648124,57.7014649259545 148.80033812340116,57.03359207813992 149.17768385462114,56.87457352025376 149.51851225696737,56.659897726953204 149.89585798815824,56.45317208520282 151.64260355031,55.55470148054519 151.69129332204466,55.54675034675893 151.75215553675662,55.59445713202513 151.81301775146858,55.673968347480695 151.89822485207696,55.83299042838553 152.05038038882776,56.15898423539693 152.23296703296364,56.477025084102934 152.4459847844264,56.77121120740048 152.8902789518179,57.55039916876194 153.26762468300876,58.10695513942119 153.4015215553518,58.353428100337624 153.6510566356592,58.85432130912886 153.69366018596338,58.92587710393127 153.79103972949088,58.94177837882671 153.84581572274328,58.92587710393127 153.87624683009926,58.95767964904371 153.9675401521672,59.021284683323756 154.08926458159112,59.0133340581051 154.314454775973,58.92587710393127 154.67962806421565,58.68735742058925 156.03685545225744,57.88433343705037 156.60287404901464,57.55835000858133 157.04716821637703,57.327775180121535 157.55841081994004,57.00973932418492 157.85663567201118,56.83481880785257 158.01487743022153,56.75530929561501 158.22180896022473,56.612191879605234 158.61132713439292,56.310053871264245 159.4573119188426,55.48314123439559 159.61555367708206,55.355922785722214 159.88943364328588,55.18099693109616 160.02941673708847,55.05377777308968 160.30938292478095,54.767533575559355 160.49805579037638,54.47333657470881 160.62586644125986,54.306359188078204 160.79628064241842,54.13938128686277 161.10667793743778,53.86903502261339 162.05004226541496,52.92281247612118 162.22045646660263,52.80353955391911 162.42130177514628,52.70812102715354 162.7073541842692,52.60475076686271 163.11513102281606,52.47752556042542 163.48639053254738,52.39005805771376 163.98546069313306,52.33439684611949 164.35672020286438,52.26283234719813 164.8375316990714,52.1276547024645 165.19053254436585,52.00838002998353 165.9999999999709,51.76982989741373 167.04683009299333,51.539230437636434 167.9354184277472,51.316581752180355 169.18309382925509,51.03826960879451 169.76737109044916,50.879233456464135 170.38207945902832,50.76790787210484 170.89332206253312,50.63272649787541 170.89940828402177,50.608870926236705 171.86103127637762,50.38621841782515 172.28706677939044,50.306699443081015 172.62180896024802,50.17946884075354 173.18174133557477,50.08404569296181 173.8147083685617,49.93295869858048 174.58157227389165,49.7818712829212 175.9448858833348,49.43198301853772 176.43786982249003,49.3445105994324 176.9551986475126,49.209325673909916 177.53947590870666,49.082092494765675 177.91682163986843,49.002571606040874 178.10549450549297,48.978715316676244 178.36111580725992,48.98666741429406 178.92104818258667,49.07414041113225 179.52967032964807,49.304750362243794 180.2721893491107,49.61487943857719 180.60084530853783,49.70235142123056 180.70431107352488,49.74211136665326 180.92950126796495,49.845487088230584 181.25207100590342,50.02838211247945 181.50769230767037,50.123805358307436 181.7815722738742,50.20332460143982 182.18934911242104,50.258988002206024 182.414539306832,50.27489182049976 182.6519019441912,50.258988002206024 183.91783601013594,50.11585342756007 184.45950972102582,50.00452627474806 185.85325443785405,49.845487088230584 187.38698224848486,49.69439942864119 187.47218934909324,49.69439942864119 187.59999999997672,49.71825540289501" stroke="#4dd2ff" stroke-linecap="round" stroke-linejoin="round" stroke-width="0.5"><title>2024-09-23 7.1km</title><desc>12484262436</desc></polyline><polyline fill="none" points="55.59999999997672,97.68638494826882 55.47242300657672,97.71813487825057 55.37522148780408,97.7816346823347 55.33877091828617,97.77369721088326 55.22941920964513,97.71019739750409 55.18081845025881,97.7022599155789 54.263479116838425,97.77369721088326 53.57699339048122,97.83719694974207 53.230712979857344,97.88482170493808 52.714329911366804,97.92450896891023 52.14327098857029,98.01182084713219 51.56006187593448,98.05944544856902 50.56374630850041,98.23406862835327 50.16886513849022,98.28963043095064 49.97446210094495,98.29756782667755 49.701082829385996,98.26581823683591 49.65248206999968,98.27375563605165 49.10572352691088,98.08325773355318 48.850569540139986,97.97213364723575 48.69261707214173,97.87688424864973 48.46783855993999,97.76575973830404 46.80326255096588,97.083132736876 46.5724089438736,97.01169452942486 46.35370552664972,96.96406900534566 46.147152299265144,96.94819382132846 45.81302207845147,96.95613141393915 45.62469413582585,96.98788177261304 44.60407818868407,97.21013376163319 43.99656869636965,97.32125941362392 43.25540711573558,97.5276350187014 42.55677119953907,97.68638494826882 41.62728167625028,97.86894679120451 41.037997468723916,98.03563315308202 39.95055547740776,98.2420060322329 39.640725636301795,98.3293173978891 39.343045985064236,98.37694171975454 38.17055266487296,98.69443612712712 37.678469976061024,98.78968408587752 36.56672760512447,99.08336423616856 35.940992827992886,99.2024233022712 35.2909576712118,99.37704279179889 34.92037688088021,99.45641510066343 34.73204893825459,99.5199128639033 34.37969343268196,99.5913477584254 33.17074954294367,99.89296071738136 32.150133595830994,100.09138937836542 30.995865560427774,100.41681080650596 30.14535227115266,100.56761519465726 29.96309942341759,100.63904870546321 29.829447335127043,100.7342932397587 29.683645056938985,100.86128569127322 29.635044297552668,100.90890778371977 29.61074391787406,100.95652983424952 29.543917873699684,101.04383681794206 29.31913936152705,101.28988301384015 29.01538461536984,101.55973884496416 28.84528195753228,101.70260315166524 28.735930248891236,101.86134082767967 28.50507664179895,102.09150963041975 28.32889888904174,102.21056207510628 28.280298129626317,102.28993022598661 28.237772465188755,102.34548786230516 27.800365630711894,102.75026320452525 27.660638447472593,102.89312436683758 27.49053578960593,103.10741540280287 27.205006328207674,103.3851988155293 26.94377724651713,103.61536113398688 26.858725917583797,103.67091740895557 26.70077344958554,103.72647362685893 26.554971171426587,103.82171272480264 26.469919842493255,103.9725076202667 26.397018703399226,104.14711171092495 26.366643228800967,104.19473091055625 26.287666994787287,104.30584221335084 26.06896357756341,104.50425468634785 25.437153705512173,104.9328231443651 24.750667979184072,105.34551548741729 24.295035859948257,105.5756694650263 22.721586274768924,106.52008415447199 21.76172127688187,107.05180617867518 21.707045422575902,107.05180617867518 21.621994093671674,106.95657276750353 21.445816340885358,106.6153183340466 21.251413303310983,106.28199797200068 20.63782871607691,105.27408819182165 20.048544508521445,104.2582231115266 19.89666713544284,103.98044418207428 19.76909014204284,103.6947272236248 19.59898748420528,103.44075532688657 19.51393615527195,103.48043851437251 19.374208972032648,103.58361466552378 19.22233159892494,103.68679061989678 18.098439038119977,104.20266743975662 17.67318239348242,104.4486992672646 17.569905779790133,104.53600061451652 16.543214737728704,105.09948773883661 15.86280410629115,105.44075173484453 14.447306989168283,106.1946994425416 14.070651103946147,106.3692963605572 13.5421178455872,106.59944598242146 13.122936295869295,106.74229697938426 13.07433553651208,106.75023313481142 12.989284207578748,106.71055234597225 12.97105892279069,106.67087152804743 12.87993249896681,106.37723257074322 12.600478132488206,105.65503267851818 12.515426803554874,105.35345184776816 12.39999999999418,105.04393293106841 12.39999999999418,105.012187301003" stroke="#4dd2ff" stroke-linecap="round" stroke-linejoin="round" stroke-width="0.5"><title>2024-09-23 7.1km</title><desc>12480412433</desc></polyline><polyline fill="none" points="78.39999999999418,104.60460640955353 78.49739326478448,104.9226895515676 78.54608989716507,105.24872283485092 78.57043821332627,105.34414683946306 78.68609271527384,105.5190904115625 78.77131182191079,105.70198536046155 78.83826969144866,105.89283160570267 78.98435958856135,106.3778961212156 79.10001409047982,106.6403062628633 79.13653656476527,106.67211346642216 79.24001690858859,106.71982423678128 79.2948006200022,106.71187244463363 79.90350852475967,106.52898090336384 80.20177539807628,106.41765531524288 80.34786529521807,106.346088744991 82.49660419896827,105.20896278336295 82.8983514161082,105.01016208839064 83.3427081865957,104.8352168736019 83.79315203608712,104.5409895571429 84.51142736370093,104.1274781963657 84.86447794843116,103.94457793433321 85.32709595604683,103.72986814351316 85.63144990839646,103.56287105149386 85.71666901512071,103.5469665396995 85.80188812175766,103.64239354045276 85.99667465125094,104.05590860213852 86.30102860365878,104.56484588555031 86.44103142176755,104.7636482138987 86.55668592365691,104.97040186187587 86.7514724531793,105.27257885177096 86.99495561505319,105.63041784526649 87.1714809074474,105.95644687144159 87.28713540933677,106.11548470916023 87.53670565027278,106.55283635678279 87.69496970553882,106.87885983468368 87.77410173314274,106.918618661246 87.87758207696606,106.918618661246 87.95062702550786,106.99018447556227 88.09671692267875,106.99813622688453 88.27324221504387,106.92657042304563 88.60803156264592,106.74367960621385 90.54372269974556,105.60656198584911 90.7019867549825,105.51113844324573 90.92112160069519,105.41571473265503 92.07766661973437,104.7397919730065 92.38810765114613,104.50918110293424 92.68637452446274,104.25471279726116 92.94203184446087,103.9922911056783 93.08812174160266,103.8650558887748 93.61161053969408,103.35611203416192 93.72117796252132,103.26863682786279 93.95248696635826,103.1175429571449 94.03770607302431,103.03801969809865 94.41510497394484,102.60859208298643 94.46988868538756,102.52906807717955 94.52467239680118,102.41773427300723 94.6281527406245,102.30640024013701 94.78641679586144,102.16325614750167 95.1212061434635,101.89287182989938 95.48643088631798,101.52705560600225 95.7664365224773,101.22485773251537 96.02209384247544,100.97832664032467 96.26557700440753,100.81132106970836 96.46036353390082,100.70793641098862 96.73428209105623,100.59659886561349 97.22733549389523,100.4534502569004 97.62908271103515,100.35801764102871 98.2073552205402,100.27849033275561 98.33518388052471,100.23077389176615 98.65779907003161,100.15919915152699 99.0960687614861,100.0240021620375 99.418683950993,99.95242714869892 99.69868958718143,99.86494644847699 100.7030576300167,99.62636200285851 101.16567563760327,99.49116368408431 102.41352684234153,99.23667181611381 102.9978864309087,99.06966087826731 103.47267859659041,98.98217875302726 103.97790615755366,98.85493177329408 104.28834718896542,98.79130817140322 104.58661406231113,98.71177856398936 104.88488093562773,98.64815479400568 105.25010567848221,98.53681301681718 106.65013385939528,98.22664543123392 107.07014231369249,98.11530278798091 108.78669860507944,97.7415079553939 109.27975200794754,97.59835180476148 109.71193462031079,97.51882044658123 110.04672396788374,97.44724212437723 110.39977455264307,97.39157003067521 111.051092010719,97.21660022089054 111.58675496693468,97.08934909530217 112.0615471326164,97.00981699004842 112.30503029451938,97.00186377311547 112.57286177261267,97.0177702058354 112.79199661829625,97.04958305727996 112.93199943640502,97.08934909530217 113.23635338878375,97.20864703430198 113.98506411162089,97.51882044658123 114.43550796111231,97.7256017351283 115.0746512611222,97.95624147224225 115.53118218967575,98.15506804399047 115.92684232781176,98.24255150445242 116.37119909824105,98.29026969607366 116.58424686489161,98.28231666706415 117.48513456390356,98.1709741382183 117.78340143722016,98.15506804399047 118.28862899821252,98.05167831772997 118.61733126675244,98.01986605457205 119.09212343246327,97.95624147224225 119.93214034099947,97.88466372785479 120.3338875581394,97.82899208351228 121.38086515432224,97.70969551016242 121.47217134005041,97.70969551016242 121.60000000000582,97.7335548458359" stroke="#4dd2ff" stroke-linecap="round" stroke-linejoin="round" stroke-width="0.5"><title>2024-09-20 7.1km</title><desc>12458958082</desc></polyline><polyline fill="none" points="187.60000000000582,97.81218015481863 187.56340016945614,97.82015012230477 187.575600112963,97.75639034975393 187.55730019768816,97.71654045389732 187.47800056482083,97.68466051615906 187.29500141204335,97.66872054026317 187.08150240045507,97.66872054026317 186.95950296524097,97.69263050233712 186.63010449023568,97.79624021635391 186.04450720135355,97.85999994212398 185.6419090652489,97.86796990257062 185.31251059024362,97.8360900537482 185.09291160691646,97.84406001769821 184.90991245410987,97.88390981997873 184.62931375319022,97.91578964075234 184.41581474160193,97.96360933682081 183.84851736799465,98.02736886605999 183.62891838463838,98.11503809654096 183.5069189494534,98.14691778163979 183.15922055917326,98.17879744800666 182.95182151935296,98.21067709567433 182.46992375038099,98.22661691246685 182.03072578369756,98.21067709567433 181.89042643323774,98.21864700465812 181.8660265461658,98.22661691246685 181.85992657442694,98.25052662892267 181.5427280429285,98.17082753315844 181.35362891841214,98.10706817235405 180.8595312058751,97.84406001769821 179.8469358938164,97.42962034049924 179.75543631744222,97.38977020483071 179.68223665631376,97.33397996580243 179.5785371364036,97.27021962244908 179.03563964981004,97.03908775018863 178.70624117480475,96.97532706056154 178.46834227620275,96.94344668771373 178.1572437165014,96.92750649424852 177.8583451002778,96.94344668771373 177.51674668173655,96.99923732796015 177.1446484044136,97.09487829218051 176.72375035300502,97.15863884142163 176.27845241458272,97.27021962244908 175.8636543349421,97.39774023431528 175.34515673539136,97.49338049669313 174.80225924882689,97.6288705800871 174.2349618751614,97.7404503949183 173.09426715617883,98.02736886605999 172.8075684834912,98.05924860260711 172.66726913303137,98.08315839273928 172.53306975431042,98.13097794142232 171.8254730302433,98.31428582131048 171.69127365152235,98.37007505324073 171.53267438575858,98.41789434925886 171.1422761931608,98.48165334515215 171.03247670151177,98.5135328150136 171.01417678623693,98.50556294930357 170.9653770121513,98.50556294930357 170.7884778311418,98.56135198472111 170.16628071165178,98.70480924122967 169.69048291444778,98.83232648442208 169.26348489127122,98.90405480213667 169.00728607739438,98.9996924117404 168.75718723525642,99.03157157748501 168.47658853433677,99.11126941003386 168.31188929683412,99.12720896249812 168.22038972043083,99.15111828244699 168.12279017228866,99.14314851031304 168.07399039820302,99.15908805343133 167.88489127365756,99.24675545695209 167.7506918949366,99.27066472424849 167.61039254447678,99.27863447766867 167.19559446483618,99.36630168821284 166.90279582040966,99.45396875723236 166.73809658290702,99.51772653672742 166.25009884213796,99.66915096299999 165.89020050832187,99.74087817545296 165.47540242871037,99.87636265163746 164.8715052245243,99.95605924442862 164.6336063259223,100.02778607794971 164.29200790738105,100.083573549633 163.87720982774044,100.21108755547539 163.40751200227533,100.3146924647408 162.95611409208504,100.45017550940611 162.44371646430227,100.64941466698656 162.18141767865745,100.83271404639163 161.40062129340367,101.31885288261037 161.19322225358337,101.47027228707157 160.77842417397187,101.90858923602718 160.5649251624127,102.11579238050035 160.39412595314207,102.25127093217452 160.25382660265313,102.41065703090135 159.99152781697921,102.6497353019804 159.80852866423083,102.84896639061117 159.70482914432068,102.95256626787886 159.54012990678893,103.1517962456528 159.03383225077414,103.62994521062865 158.76543349339045,103.8530799537184 158.68003388875513,103.94870884873671 158.46653487716685,104.26747061603237 158.3628353572567,104.37903679261944 158.25303586557857,104.46669577060675 156.83784241741523,105.33530890600014 156.71584298223024,105.4229663406586 156.02044620166998,105.8054698546548 154.74555210393737,106.55453143369232 154.15995481505524,106.87327790870404 153.89155605761334,107.04061905933122 153.79395650947117,107.07249350575148 153.68415701779304,106.98483873307487 153.65975713077933,106.93702697926346 153.50115786504466,106.65015557260267 153.27545890992042,106.29156418370258 152.87286077381577,105.57437430369828 152.1835639650235,104.41888180017122 151.64066647842992,103.42274784263282 151.33566789043834,103.6458834369696 151.15266873766086,103.74948179414059 149.92657441401388,104.38700579647775 149.69477548715076,104.498571727534 148.50528099408257,105.15999361222566 147.70618469361216,105.56640547407733 146.74238915561,106.11625197640387 145.84569330699742,106.55453143369232 145.56509460604866,106.64218690077905 145.17469641345087,106.7378108853627 145.07099689354072,106.75374819978606 145.04049703472992,106.7378108853627 144.9855972889054,106.65812424324758 144.86359785372042,106.29156418370258 144.69889861621778,105.87718896368096 144.64399887039326,105.67796898261076 144.39999999999418,105.02452231586358 144.40609997179126,105.03249122498528" stroke="#4dd2ff" stroke-linecap="round" stroke-linejoin="round" stroke-width="0.5"><title>2024-09-20 7.0km</title><desc>12455295877</desc></polyline><polyline fill="none" points="12.39999999999418,152.62291325993647 12.418222722189967,152.8054259172677 12.533633295854088,153.13077303976752 12.570078740187455,153.36883066999872 12.849493813264417,153.97984045838166 12.934533183346502,154.2496347915221 12.97097862767987,154.45594719707879 13.068166479206411,154.68606395179086 13.128908886399586,154.78128439150532 13.195725534344092,154.85269961131416 13.286839145090198,154.84476459153302 14.064341957302531,154.61464851201163 14.325534308241913,154.51149271026952 15.133408323978074,154.04332159899786 15.765129358827835,153.7338503346582 16.755230596172623,153.2101256995884 17.26546681666514,152.97206737084343 17.563104611908784,152.78955527583457 18.449943757033907,152.30549847588918 19.616197975265095,151.71827621445846 19.68908886393183,151.66272783261957 19.786276715429267,151.51195336574165 20.071766029286664,151.40085612118855 20.73385826771846,151.01201396805118 21.055793025909225,150.92472248823105 21.359505061875097,150.67078283667433 21.62677165356581,150.49619863460975 22.331383577053202,150.06767138554278 22.726209223852493,149.8454707344281 23.048143982014153,149.70262697662838 23.151406074262923,149.63120495624753 23.32755905512022,149.48042482569872 23.582677165366476,149.28996511252626 24.09291338582989,148.9487231156163 24.50596175476676,148.69477418562747 24.90078740156605,148.47256789367384 25.459617547807284,148.18687274813055 25.775478065246716,148.04402460934944 25.860517435328802,148.03608859059023 25.88481439818861,148.05196062696996 25.945556805410888,148.123384733055 26.097412823408376,148.409080213969 26.200674915628042,148.55986333154942 26.43757030373672,148.84555650665425 26.941732283477904,149.49629643818844 27.58560179977212,150.55174821457695 27.69493813274312,150.7422034841802 27.755680539965397,150.86123768714606 27.901462317240657,151.0834341649679 27.962204724433832,151.21833872398201 28.071541057375725,151.09930530700512 28.514960629923735,150.5358769118393 28.660742407198995,150.40097065047667 28.9705286839162,150.17877136873722 29.079865016858093,150.05973566371176 29.34713160857791,149.7502416044881 29.91203599551227,149.16299159778282 30.02744656917639,149.0836329996855 30.167154105758527,148.99633840724346 30.580202474695398,148.7900051741417 31.33340832396061,148.55192738847836 31.916535433061654,148.45669598073437 32.25669291339,148.34559245976197 32.59077615299611,148.2821046310164 33.02204724412877,148.17100075134658 33.35613048367668,148.10751271762274 33.87244094486232,147.95672833883145 34.425196850439534,147.83768774279451 35.03869516312261,147.67103046813645 35.44566929133725,147.59166968064892 35.88908886391437,147.44088386353542 36.18065241846489,147.32184213199434 36.49651293590432,147.21867241937798 36.68481439820607,147.194863996192 37.116085489309626,147.1710555625432 37.632395950495265,147.0678855622391 37.984701912268065,147.01233240362853 38.40989876264939,146.87741735225427 38.865466816641856,146.78218299568107 39.16310461194371,146.69488468819327 39.497187851549825,146.6393311464053 39.72800899887807,146.56790508024278 40.2200224972039,146.45679767869296 40.62699662541854,146.31394496983557 41.08256467941101,146.24251847389678 41.39235095612821,146.1552192951749 41.732508436456556,146.0917288948549 42.103037120366935,145.99649315462375 42.88053993252106,145.84570288955365 43.69448818897945,145.6234848904278 43.9921259842522,145.6076121412625 44.33228346455144,145.50443915810683 45.249493813258596,145.3139654412662 45.54713160856045,145.23460119458832 45.92980877391528,145.17904615260704 46.21529808774358,145.14730038868947 46.37930258718552,145.15523683140054 46.761979752540356,145.22666476351515 47.15073115861742,145.36158393338337 47.405849268863676,145.44094799372033 48.17727784026647,145.80602117097442 49.05196850394714,146.1314104038065 49.45894263216178,146.32188124132517 49.87806524184998,146.4091801509967 50.3883014623425,146.45679767869296 50.56445444317069,146.4488614269976 50.72238470191951,146.42505266489025 51.09291338582989,146.32981751166153 51.24476940382738,146.30600869716 51.688188976375386,146.29807242333482 51.870416197984014,146.28219987218108 52.57502812150051,146.1552192951749 53.15208098987932,146.09966519896625 53.546906636678614,146.03617473343184 54.15433070866857,145.9885568353493 54.907536557962885,145.90919357872917 55.25984251970658,145.861575568837 55.363104611926246,145.84570288955365 55.45421822273056,145.78221212584685 55.49066366706393,145.74253036065056 55.54533183350577,145.6314212632533 55.57570303711691,145.59967576493 55.60000000000582,145.6076121412625 55.59392575928359,145.6155485164163" stroke="#4dd2ff" stroke-linecap="round" stroke-linejoin="round" stroke-width="0.5"><title>2024-09-19 7.0km</title><desc>12450830462</desc></polyline><polyline fill="none" points="121.60000000000582,145.83945905048313 121.35805096614058,145.84736206334856 121.18868664241745,145.8631680856197 121.14029683562694,145.79204094889064 121.07980957717518,145.74462280553416 121.03141977038467,145.73671977758931 120.86810417252127,145.7288167484694 120.40235228228266,145.75252583233305 119.07768132176716,145.8789741032415 117.82559507142287,146.021228053105 117.48081769814598,146.05283999092717 116.80336040328257,146.18719051966036 116.05331839821883,146.28202598516145 115.79322318680352,146.2899289330744 115.4182021842571,146.2583171344304 115.06132735928986,146.15557866067684 114.77703724446474,146.02913103931132 114.42621114535723,145.84736206334856 114.09957994960132,145.69720462043915 112.77490898905671,145.15189249052855 112.43618034163956,145.0412487757785 112.24262111456483,144.99382997128123 112.0732567908126,144.97802369383498 111.73452814336633,144.97012055338564 111.58935872305301,144.99382997128123 110.48244189302204,145.2230204728221 110.00459255112219,145.30995454581353 109.64771772615495,145.41269463294884 108.98235788295278,145.55494981459924 108.51660599274328,145.6893015855203 107.41573788854294,145.92639212829454 107.07700924112578,146.0133250657309 106.30882105851197,146.1792875566498 106.0124334920256,146.2583171344304 104.9901988238853,146.46379349389827 104.47000840102555,146.5902400946252 103.67157658920041,146.79571518757803 103.21792215065216,146.89845244004755 102.51626995237893,147.0644122030426 102.11100532065029,147.14344048184284 101.37910949316574,147.34101067148003 100.743993279204,147.4674552124161 99.8608793055464,147.69663518618108 99.30439652761561,147.82307889212098 98.43942873147898,148.0364519726645 98.08860263231327,148.09177078146604 97.47163259593071,148.2656295249435 96.5159339120728,148.479000852014 96.14091290955548,148.58173489318142 95.97759731169208,148.6370531418761 95.82637916548993,148.7318842931163 95.59652758331504,148.92154609463978 94.94326519183232,149.53003986529802 94.39887986559188,150.11481960777382 94.27185662279953,150.19384341027398 94.13273592831683,150.36769536764768 93.32220666483045,151.19743561480936 92.85645477456274,151.61625202768118 92.64474936993793,151.75058867778716 92.53587230469566,151.82961008013808 92.45723886869382,151.91653348879845 92.42699523945339,151.95604408274448 92.29997199666104,152.21681327575425 92.25158218989964,152.28793192742523 92.20924110893975,152.343246369368 92.0822178661474,152.45387508283966 91.5015401848359,152.82526981606134 90.09823578828946,153.65497220254474 89.48731447773753,154.03426046509776 88.47717726128758,154.60318785093114 87.88440212825662,154.96666609018212 87.80576869228389,155.0061744466475 87.72108653039322,155.02987944661436 87.61825819098158,154.96666609018212 87.52752730328939,154.82443576695368 87.40655278635677,154.60318785093114 86.61416970039136,153.27568126897313 86.25729487539502,152.69883785397542 86.02744329322013,152.2563236493952 85.6947633716045,151.6478606813871 85.54354522546055,151.41869752174534 85.45281433773926,151.45820848091535 85.33788854663726,151.56883901234323 85.18062167463358,151.6794693165175 84.3942873144697,152.03506518364884 83.95877905350062,152.31163812379964 83.61400168022374,152.48548324495277 83.50512461495236,152.5566015418517 83.2813217586372,152.6672298170779 83.04542145060259,152.8015638457873 82.51918230188312,153.07023089801078 81.05539064688492,153.86042034297498 80.55334640157525,154.1448857052128 80.49890786892502,154.19229645286032 80.46866423971369,154.27131427286804 80.42632315881201,154.30292136839125 80.34164099692134,154.3503319769261 80.28115373846958,154.3819390261051 79.75491458975011,154.50836703729874 79.11374964998686,154.7138119225565 79.06535984319635,154.7138119225565 78.98067768130568,154.66640163396733 78.85365443854243,154.27921604848234 78.60565667881747,153.63916846696884 78.5209745169559,153.3547004337306 78.39999999999418,153.02281916264837" stroke="#4dd2ff" stroke-linecap="round" stroke-linejoin="round" stroke-width="0.5"><title>2024-09-19 7.1km</title><desc>12446825930</desc></polyline><polyline fill="none" points="144.39999999999418,152.75578438884622 144.43647108483128,152.90666152123958 144.6188265090459,153.48634343342565 144.7525538201735,153.78015244277412 144.83765301812673,154.00249333564352 144.97745884335018,154.45511304538377 145.0686365554866,154.68539179590516 145.1233431827568,154.78067926815493 145.159814267623,154.8045011100039 145.25707049388438,154.85214476226975 145.3117771211255,154.84420415647764 145.99257070492604,154.62980735961537 146.19924018572783,154.5424602729654 146.68552131700562,154.30424022934312 148.65495989867486,153.2560595814757 149.40261713802465,152.89077973763415 149.92536935413955,152.58108402592188 150.6061629379401,152.21579962663964 151.11675812577596,151.96962831483324 151.6334318277659,151.69963268540596 152.06500633180258,151.4058123817631 152.69109328830382,151.0961081728019 153.57855635287706,150.53228313967702 154.07699451243388,150.24639778005803 154.53288307299954,149.9605109102522 154.98269311944023,149.69844661961542 155.68172224567388,149.30931851367495 155.85192064160947,149.19019710555222 156.24094554662588,148.8804802173654 156.54487125368905,148.6898843282288 156.98860278594657,148.45163852285623 157.69978894045926,148.10220944443063 157.84567327986588,148.0545598498211 157.88214436467388,148.0704430526821 157.9550865344063,148.14191740789101 158.1192064161878,148.46752160920005 158.24077669900726,148.65811828144797 158.64803714648588,149.11872413482706 158.91549176865374,149.4522638573144 159.06137610806036,149.6746225303068 159.4260869565187,150.31786926153654 159.5962853524543,150.58787178422062 159.73609117770684,150.8419905750925 159.9670747150376,151.20728424660047 160.076487969578,151.0961081728019 160.4715913887776,150.60375424359154 160.61139721400104,150.44492943998557 161.09159983115387,150.0558067013335 161.22532714225235,149.92080428112604 161.47454622201622,149.6190329476849 161.9061207260529,149.18225566903493 162.11886872095056,149.01548523268502 162.26475306035718,148.92812908475025 162.75711270578904,148.73753336344816 163.4926129168307,148.5231123746089 164.18556352891028,148.39604768404752 164.7022372308711,148.2848658350522 165.729506120726,147.98308537927733 167.00599409031565,147.69718655300676 167.97855635287124,147.45893637735207 168.4709159983031,147.36363601340054 168.7687631912122,147.27627719898373 169.35837906287634,147.14920958087532 169.83858168002916,147.02214166436534 170.32486281133606,146.9347822987147 171.69252849303302,146.5774016069954 172.65901224146364,146.35503020764736 173.2607851414068,146.17236730317381 174.37923174336902,145.96587806000025 175.75297593922005,145.64820076272008 175.97788096239674,145.58466507948833 176.45808357954957,145.5052453705066 177.7041789784853,145.2113914338588 178.02634022792336,145.15579726633587 178.20869565216708,145.1478552377339 178.5794850147504,145.1796233451205 178.81046855213935,145.22727547121394 179.59459687632625,145.51318734666347 180.24499788938556,145.8070396444782 181.430308146897,146.2835534923688 181.5640354579955,146.32326279028712 181.91051076402073,146.39473945311693 182.3056141831912,146.44239050922988 182.512283663993,146.44239050922988 183.30249050233397,146.35503020764736 183.70975094975438,146.29943721504605 184.73701983960927,146.13265789451907 185.39349936682265,146.0691227800853 187.53313634442748,145.82292350701755 187.55745040101465,145.66408467187648 187.57568594344775,145.6084909694182 187.60000000000582,145.60054900727482" stroke="#4dd2ff" stroke-linecap="round" stroke-linejoin="round" stroke-width="0.5"><title>2024-09-18 7.0km</title><desc>12442293676</desc></polyline><polyline fill="none" points="55.60000000000582,193.75738265818654 55.52674862227286,193.6935777916333 55.429080118687125,193.6696509473586 54.03119966085069,193.78928506334705 53.426875794830266,193.8530898175195 52.792030521377455,193.90094333398156 52.315896566346055,193.98867467138916 51.876388300122926,194.02057694079122 51.51623569306685,194.10033253235088 50.47850784228649,194.25186783384197 50.17329376854468,194.25186783384197 49.892496820684755,194.21199016390528 49.51403136923909,194.10033253235088 49.25154726579785,193.98867467138916 49.025688851223094,193.8530898175195 48.74489190336317,193.72548023425406 48.2077151335252,193.52608966052867 47.28596863077837,193.11933062161552 47.005171682918444,193.01564645806502 46.83425180162885,192.96779216200594 46.65722763881786,192.93588927456221 46.28486646883539,192.91196209668487 46.12005086900899,192.9199378238336 45.48520559561439,193.0395735902748 45.10063586264732,193.13528201382724 44.545146248390665,193.21503890467284 44.313183552381815,193.2708686586193 43.953030945325736,193.38252799446127 42.939720220456365,193.62179722723158 42.44527342094807,193.701553404062 42.048495125054615,193.82118744979743 41.31598134804517,193.99665024050773 40.89478592624073,194.06843030978416 39.875370919908164,194.2997209991736 39.44196693514823,194.37947618105318 39.228317083528964,194.43530473873034 39.222212802036665,194.43530473873034 39.222212802036665,194.45923124590263 39.0085629504174,194.52303521349313 38.55074183977558,194.60279006765268 37.98914794402663,194.7622994248195 37.45807545571006,194.8659802559123 36.87816871557152,195.01751342249554 36.63399745654897,195.08929214338787 35.797710894432385,195.2807016023071 35.58406104281312,195.3524799755869 35.29715981349,195.4003321717646 34.77829588809982,195.53591316548045 34.36930902925087,195.60769120170153 32.861551504873205,195.9905057937467 32.32437473506434,196.07025849432466 32.074099194578594,196.15798632982842 31.750572276388993,196.24571402370566 30.37100466300035,196.58067300679977 30.181771937262965,196.66840001839228 29.864349300565664,196.91562992547915 29.595760915632127,197.1947591140597 29.156252649408998,197.58553756969195 28.667910131422104,198.09593785157267 28.570241627807263,198.16771250680176 28.429843153920956,198.32721140127978 28.228401865198975,198.51063455125768 28.057481983909383,198.69405708221166 27.89877066554618,198.83760471815185 27.62407799914945,199.14862329535754 27.324968206870835,199.41976624387462 27.117422636714764,199.62710993888686 26.885459940647706,199.80255398608278 26.76947859264328,199.906225202325 26.665705807565246,200.0258455907242 26.48868164475425,200.29698416311658 26.287240356119582,200.4883752822243 26.05527766002342,200.64786736666792 24.822212802042486,201.38949941153987 24.339974565489683,201.65265673703107 22.95430267060874,202.48199270093392 22.50869012295152,202.70527329849938 22.08139041965478,202.9604500011883 21.95930479018716,203.06411519448375 21.916574819828384,203.08803790331513 21.873844849527813,203.08006366821428 21.843323442153633,203.06411519448375 21.788384908868466,203.0003212527663 21.5747350572492,202.63350463502138 21.385502331482712,202.26668554181742 20.34167019923916,200.52027373656165 19.914370495971525,199.7706551105257 19.853327681223163,199.64305942112696 19.865536244178656,199.64305942112696 19.743450614681933,199.42774101600662 19.682407799904468,199.45964009279487 19.523696481541265,199.59521096036042 19.426027977955528,199.65900889865952 19.096396778302733,199.81850341682002 18.742348452738952,200.00989622082125 17.82060194996302,200.48040066571411 17.332259431976127,200.75951154731956 17.027045358205214,200.91102828282965 16.37388724036282,201.27785652491366 15.891649003810016,201.5170910011875 14.9515896566445,202.02745436474652 14.56091564221424,202.20289066422265 14.286222975846613,202.35440337626278 14.084781687153736,202.4500953978677 13.51708350997069,202.65742753339146 13.211869436199777,202.76109330456893 13.150826621451415,202.75311902150497 13.114200932584936,202.72919616525542 13.095888088195352,202.69729900722086 12.986011021625018,202.36237771783635 12.67469266639091,201.525065465612 12.613649851642549,201.33367799689222 12.515981348027708,201.0705191270681 12.503772785101319,201.0226719229322 12.50987706653541,201.0226719229322 12.479355659190333,201.01469738479864 12.424417125905165,201.03862099563412 12.430521407397464,201.00672284553002 12.39999999999418,200.97482467667578 12.49766850360902,201.1103917649998" stroke="#4dd2ff" stroke-linecap="round" stroke-linejoin="round" stroke-width="0.5"><title>2024-09-18 7.1km</title><desc>12438003381</desc></polyline><polyline fill="none" points="78.4976961131033,200.8400384628767 78.44884805654874,200.87194570973224 78.39999999999418,200.86396889977914 78.39999999999418,200.87194570973224 78.44884805654874,200.99957450989314 78.46716607775306,201.07934235786524 78.52822614842444,201.24685445764408 78.60149823324173,201.48615656203765 78.67477031802991,201.6058072192791 78.72361837458448,201.80522439619017 78.83352650178131,202.05250067977977 78.9067985865986,202.31572903622873 79.00449469967862,202.5709795587827 79.03502473499975,202.61883889833916 79.03502473499975,202.6906278286915 79.04113074205816,202.68265128556595 79.0716607774084,202.67467474126533 79.06555477034999,202.69860437067473 79.0777667844668,202.74646359789404 79.12661484102136,202.84218192599656 79.16935689048842,202.87408799790865 79.21820494701387,202.87408799790865 79.54182332160417,202.76241666429632 79.76774558308534,202.7065809114829 80.19516607775586,202.5310967435944 80.45772438164568,202.3954949532308 80.59816254419275,202.2997758387828 80.75691872794414,202.2279863923468 80.9767349823669,202.07643058303074 81.02558303889236,202.07643058303074 81.06832508835942,202.03654740512138 81.20265724381898,201.9647576111056 81.39194346292061,201.8929677223241 81.48353356894222,201.84510774380033 81.5445936396136,201.82915440828947 81.95369611307979,201.6058072192791 81.99643816257594,201.5739004030911 82.33837455831235,201.4143660413065 82.61314487634809,201.24685445764408 82.76579505301197,201.18304038526185 82.82074911662494,201.13517978179516 82.88180918729631,201.12720301044828 83.45577385163051,200.83206164823423 83.49851590109756,200.77622391299883 83.6084240282944,200.74431660996925 83.78549823325011,200.64061774578659 83.91983038873877,200.58477981392934 84.22513074209564,200.4252425497507 84.42662897528498,200.28963550712433 84.51211307421909,200.2577279185207 84.67086925797048,200.16200504038716 84.86015547704301,200.07425892069296 85.1043957597285,199.93067405575493 85.18987985866261,199.90674320804465 85.598982332187,199.69934208678023 85.60508833921631,199.6913651047871 85.598982332187,199.67541113726838 85.65393639577087,199.63552619800248 85.75163250885089,199.58766423224006 85.8432226148725,199.50789419569628 86.02640282685752,199.40419297318294 86.16073498234618,199.35633080376647 86.24621908130939,199.3004915528727 86.84460777384811,199.00534027394679 86.97283392227837,198.9255693829764 87.02168197880383,198.9016380928624 87.54069257952506,198.5426674769551 87.72997879862669,198.43098724638548 87.81546289753169,198.3671698687467 87.96200706716627,198.29537522937972 88.20624734985176,198.13583124687284 88.25509540637722,198.1198768228678 88.60313780920114,197.88055990097928 88.7313639576314,197.8326963902 88.86569611309096,197.73696924219257 89.01224028272554,197.65719649007224 89.06719434633851,197.64921920844063 89.08551236751373,197.62528735648084 89.20152650179807,197.5534917373443 89.3053286219365,197.4737187160208 89.42744876327924,197.41787753143944 89.62894699646858,197.29821765704037 89.76327915195725,197.17058016739247 90.22733568906551,196.86743992839183 90.64254416961921,196.62014006038953 90.75855830390356,196.5323882239245 90.88678445230471,196.47654607241202 91.00890459364746,196.38879400412043 91.22872084807022,196.30901927369632 91.47906713784323,196.17340196328223 91.66835335691576,196.10160442669803 91.79657950534602,196.02980679525353 91.88816961130942,195.9978967064235 91.90648763254285,196.00587423038087 91.93701766789309,196.0377843145361 91.9553356890683,196.08564940567157 92.17515194349107,196.49250097867844 92.26674204948358,196.63609492454634 92.37054416965111,196.73182401106533 92.60257243819069,197.0269876333041 92.64531448765774,197.05889711810596 92.67584452297888,197.13867074813243 92.79796466432163,197.25833097371287 92.98114487633575,197.49765063470113 93.09105300353258,197.67315104986483 93.1093710247369,197.6891056049717 93.40245936397696,198.2076260969443 93.42077738515218,198.2475120837844 93.51236749117379,198.39907856692298 93.58563957599108,198.4948045490819 93.75050176677178,198.78995859967472 93.81766784455976,198.86175258592266 93.8543038869393,198.9175922874456 93.97642402828205,199.1648817047826 93.98253003534046,199.19678993476919 93.98863604242797,199.20476698934 94.08022614842048,199.12499639098678 94.11075618377072,199.06915690248934 94.16571024735458,199.02129443812373 94.19013427561731,198.98938610513142 94.21455830390914,198.98938610513142 94.24508833923028,198.94152357053463 94.33057243816438,198.8697296896462 94.4343745583028,198.74209588952363 94.53817667844123,198.5665989250956 94.5931307420542,198.51075886305625 94.68472084807581,198.38312422017407 94.84958303885651,198.2315576925721 94.96559717314085,198.1597628741074 95.1670954063593,197.96033232533227 95.18541342756362,197.9284233696344 95.26479151943931,197.85662815087562 95.31363957599388,197.7928100990066 95.55177385162096,197.56944632756495 95.5761978798837,197.5136052413145 95.71663604243076,197.37001361327566 95.86928621909465,197.2423762921826 95.9914063604374,197.1147386714183 96.18679858656833,196.99507812977754 96.26007067138562,196.93125906652494 96.41882685513701,196.85148513215972 96.63864310958888,196.7637336690932 96.67527915193932,196.73182401106533 96.93783745585824,196.660027211954 97.03553356890916,196.6440723548585 97.13322968198918,196.61216262657035 97.26756183747784,196.58823031806605 97.34693992935354,196.54834311380182 97.53622614842607,196.5084558802846 97.57896819789312,196.49250097867844 97.71330035338178,196.47654607241202 97.9758586572425,196.40474893616556 98.03081272085547,196.41272640041643 98.13461484099389,196.37283906742232 98.2200989399571,196.36486159728884 98.44602120143827,196.29306431355508 98.4765512367594,196.30104179419504 98.64751943462761,196.2451994050498 98.78795759717468,196.21328944265406 98.8917597173131,196.21328944265406 99.17874204949476,196.13351445465014 99.37413427562569,196.10160442669803 99.5389964664646,196.06171686538073 99.67943462898256,196.00587423038087 100.00305300357286,195.9260989380091 100.03358303886489,195.91812140233742 100.05800706715672,195.93407647253116 100.16180918729515,195.91014386550523 101.07771024736576,195.6867723585092 101.17540636044578,195.67879478773466 101.49902473500697,195.58306384686512 101.84096113071428,195.51924312595656 101.98139929331955,195.4633999337093 102.17679151942139,195.43148951237163 102.38439575969824,195.37564622997888 102.40271378093166,195.3596909958942 102.55536395762465,195.29587001274194 102.70190812720102,195.24800422622502 102.86066431095242,195.2240713171377 102.98278445229516,195.1762054673818 103.15375265019247,195.1682278216722 103.2636607773893,195.14429487748566 103.41631095408229,195.08845130006375 103.52011307422072,195.0724959816689 103.59949116609641,195.04058533088755 103.77656537105213,195.00069699106098 103.831519434636,195.00069699106098 103.9108975265408,194.97676397309624 104.06965371026308,194.95283094461047 104.21009187283926,194.91294254037712 104.27725795053993,194.91294254037712 104.72910247353138,194.80125485283133 104.9916607774212,194.76136633738497 105.33359717315761,194.6576560602516 105.73048763250699,194.5858565216986 105.88313780919998,194.53001237059289 106.02968197880546,194.5060791454016 106.06021201412659,194.4901236561018 106.05410600706819,194.4901236561018 106.63417667846079,194.36247957305386 107.01274911660585,194.258768534899 107.17761130741565,194.2348351902874 107.23256537102861,194.22685740639645 107.25698939929134,194.20292404776046 107.36079151945887,194.19494625921288 107.49512367491843,194.14707950327283 107.58060777388164,194.13112390858805 107.59892579508596,194.11516830921755 107.65387985866982,194.10719050779517 107.67830388693255,194.09123490141064 107.73325795054552,194.09123490141064 107.77600000001257,194.06730148303177 107.85537809188827,194.07527929032585 107.95307420496829,194.04336805416096 108.3682826855511,193.9635898817105 108.64915901061613,193.89976725945235 108.67358303887886,193.87583375679242 108.73464310955023,193.85987808250138 108.88729328624322,193.83594456228457 108.99720141346916,193.78807749021144 109.02162544170278,193.7960553384728 109.13763957595802,193.76414393838422 109.25365371027146,193.74818823130045 109.42462190813967,193.69234321962358 109.88257243816042,193.61256453202077 109.98026855124044,193.58065302419345 110.21229681978002,193.53278572734052 110.59697526501259,193.4769404943654 110.82289752652287,193.4051393962909 110.98165371024515,193.37322776668952 111.45181625444093,193.26153691557192 111.47013427561615,193.24558106095355 111.50066431096639,193.24558106095355 111.8487067137903,193.16580171764872 112.18453710246831,193.12591200209135 112.39824734983267,193.12591200209135 112.9111519434664,193.18973553293836 113.37520848057466,193.35727194486026 113.44237455830444,193.3891835838076 113.46069257950876,193.4051393962909 113.4912226148299,193.4051393962909 113.77820494701155,193.51682995234296 113.97359717314248,193.6045866568311 114.11403533568955,193.65245389046322 114.2361554770323,193.70032108196028 114.51092579506803,193.83594456228457 114.62083392223576,193.8838115922008 114.68799999999464,193.8917894264123 114.71242402825737,193.90774509134644 114.82233215548331,193.95561205800914 114.90781625441741,193.97156770421861 114.99940636043902,194.02741242901538 115.13984452295699,194.06730148303177 115.57337102474412,194.26674631408605 115.76876325090416,194.31461296465568 116.0557455830567,194.3704573370378 116.55643816254451,194.41832389628325 116.81899646643433,194.4023683812011 117.2097809187253,194.33854627412438 117.46623321555671,194.31461296465568 117.64941342754173,194.28270186896043 117.72268551235902,194.29067964462592 117.85701766781858,194.28270186896043 118.08904593638727,194.2428129729924 118.17453003532137,194.21887962135952 118.22948409893434,194.21887962135952 118.38824028268573,194.17101288650156 118.72407067136373,194.13112390858805 118.87672084805672,194.12314610949397 119.24308127208496,194.05932367457353 119.6827137809305,194.04336805416096 119.7681978798646,194.03539024217025 119.81093992933165,194.01145679920592 120.07960424030898,193.99550116474347 120.19561837456422,193.97156770421861 120.49481272086268,193.94763423317636 120.61082685514702,193.91572292204364 120.65967491167248,193.91572292204364 120.70852296822704,193.89976725945235 120.76347703181091,193.91572292204364 121.41071378090419,193.84392240351372 121.47787985863397,193.81998887626833 121.55725795053877,193.82796671985489 121.5816819787724,193.78807749021144 121.60000000000582,193.70829894308918 121.60000000000582,193.63649815059398 121.5816819787724,193.6045866568311 121.56336395759718,193.6045866568311" stroke="#4dd2ff" stroke-linecap="round" stroke-linejoin="round" stroke-width="0.5"><title>2024-09-12 7.0km</title><desc>12392142310</desc></polyline><polyline fill="none" points="187.60000000000582,193.90402482209174 187.50877094190218,193.85634643486992 187.42970575817162,193.86429283564212 187.40537800933816,193.85634643486992 187.35064057444106,193.76893594919966 187.28982120231376,193.72125744301957 187.16818245814648,193.70536459829236 186.96747853021952,193.70536459829236 186.4687596790609,193.75304311847867 186.25589187670266,193.79277518656818 186.170744755771,193.7848287752604 185.86056595807895,193.81661441341203 185.75717302551493,193.81661441341203 185.4287484161905,193.87223923525744 184.55294945798232,193.94375677938297 184.5042939603154,193.95964955415548 184.02990285799024,194.02322060651204 183.97516542312223,194.04705973189994 183.60416725330288,194.06295247632443 183.39129945094464,194.1265234074126 182.53982824159903,194.2616113881304 182.40602562300046,194.2616113881304 182.18099394624005,194.29339674636867 181.71876671831706,194.27750406958148 181.62753766018432,194.26955772944711 181.49981697878684,194.22982601123294 181.15922849503113,194.11857704512659 180.97677037876565,194.03116698278973 180.80039419967216,193.91197121589357 180.51454315081355,193.7848287752604 180.38682246941607,193.70536459829236 180.027988174028,193.55438234069516 179.95500492752763,193.51465009768071 179.69956356470357,193.435185524173 179.40763057864388,193.29214899794897 179.32856539494242,193.27625602726403 179.01838659725036,193.11732606383885 178.83592848095577,193.05375394786097 178.8176826693234,193.05375394786097 178.62914261582773,192.99018175721721 178.4770941855968,192.95839563389745 178.22773475997383,192.94250256524901 177.83240884137922,192.97428869788928 177.58913135298644,193.0140213374434 177.4431648599566,193.06170046643092 177.41883711112314,193.07759350009292 177.35193580182386,193.07759350009292 177.23029705762747,193.1014330418402 177.05392087853397,193.10937955342888 176.91403632270521,193.14911209382626 176.76198789247428,193.17295160409776 176.4700549064146,193.2444700718952 176.37882584825275,193.25241656247817 176.2936787273502,193.2842025132013 176.15379417152144,193.29214899794897 176.08081092499197,193.3159884452216 176.0017457412614,193.35572083401712 175.314486836578,193.48286428228676 175.10770097144996,193.56232878581795 174.71845699005644,193.65768603610923 174.29880332257017,193.71331102123077 174.0555258341774,193.7848287752604 173.76967478531878,193.8404536297894 173.52031535975402,193.91197121589357 173.423004364362,193.95170316734584 173.26487399690086,193.97554232422408 173.00335069690482,194.04705973189994 172.68100802481058,194.09473795120357 172.41340278758435,194.1821479108803 172.36474728988833,194.1821479108803 172.17012529919157,194.23777235720627 172.00591299452935,194.25366504566045 171.6349148247391,194.3410747487651 171.36122765031178,194.38080638534302 171.01455722935498,194.4761621941907 170.92332817122224,194.52384003564657 170.83818105026148,194.55562523996196 170.4246093200345,194.6350881690887 170.29688863863703,194.67481958992357 170.090102773509,194.70660470563234 169.7373504153511,194.7940136775287 169.6157116711547,194.801959940698 169.34810643392848,194.801959940698 168.8737153316033,194.93704623628582 168.7642404618091,194.9847236718997 168.68517527807853,195.00856237397602 168.45406166411703,195.08802463839675 168.30809517105808,195.11980951153964 167.81545825710054,195.27873359724617 167.6634098268696,195.310518358423 167.54177108267322,195.31846454580955 167.29849359428044,195.382034002836 167.06737998031895,195.40587252997648 166.6294805012294,195.56479577609207 166.18549908493878,195.67604177083558 165.52256792905973,195.77934141844162 165.38876531046117,195.8190719996819 165.30361818952952,195.8667486586819 165.24279881743132,195.8667486586819 165.01168520346982,195.94620966367802 164.83530902440543,195.9700479424573 164.75624384064577,196.00183229783215 164.67109671971411,196.0097783837664 164.512966352253,196.04950879588068 164.2757708010904,196.0733470291816 164.09331268479582,196.11307739467884 163.84395325923106,196.20048409615265 163.65541320573539,196.23226831626744 163.4790370266419,196.28789065654928 163.44862734060735,196.28789065654928 163.42429959174478,196.30378274328177 162.93774461495923,196.42297324509127 162.71271293822792,196.45475733457351 162.48159932423732,196.51832545762954 162.19574827540782,196.58983950683978 162.00720822191215,196.66135346161172 161.89773335211794,196.73286732193083 161.79434041955392,196.82821898876136 161.7396029846568,196.8679488004018 161.67270167535753,196.93946238786884 161.62404617769062,196.96330022937036 161.61796424048953,196.98713806036903 161.56322680559242,197.01892181873336 161.5145713079255,197.0983811330043 161.48416162189096,197.13016482606326 161.36252287769457,197.24140760484443 161.32603125442984,197.28908301151023 161.1800647614,197.42416310242697 161.15573701256653,197.44800073057195 161.125327326532,197.4400548556805 161.08275376603706,197.4638924768078 160.8212304660119,197.74994311185947 160.76041109394282,197.8373471711675 160.62660847528605,197.99626328118393 160.45631423342275,198.15517892484786 160.40765873575583,198.18696199764963 160.39549486135365,198.2266908123638 160.40765873575583,198.2107992899546 160.34075742645655,198.25052808720648 160.1887089962256,198.41738871731286 159.95759538226412,198.63192305765915 159.75689145433716,198.8702935501242 159.65958045897423,198.94975014775264 159.51361396591528,199.14044550643303 159.14261579615413,199.46621519067048 158.9905673659232,199.62512652061923 158.9358299310552,199.66485428026135 158.84460087292246,199.70458201073052 158.77769956359407,199.76814631887828 158.5344220752013,200.04623928972796 158.46143882867182,200.22103985474314 158.43711107986746,200.2289853215625 158.38237364497036,200.3084399256477 158.16950584261212,200.47529421481886 158.05394903564593,200.5547484575509 158.0113754751801,200.59447553519203 157.9505561030819,200.61036635809796 157.90798254258698,200.6500933949319 157.77417992401752,200.71365659324147 157.59780374492402,200.83283738903265 157.40926369142835,200.93612719988596 157.39101787979598,200.9599632821155 157.3180346332956,200.99969006247193 157.28762494723196,200.99969006247193 157.19031395186903,201.0711981937493 157.01393777280464,201.16654222186116 156.79498803324532,201.3333938671749 156.41790792625397,201.5399713824445 156.10164719138993,201.73860286555646 156.07123750529718,201.74654810971697 155.9374348866986,201.8498361778693 155.7184851471393,201.96901447327036 155.66982964944327,202.00874051343635 155.63333802620764,202.01668571797563 155.51169928201125,202.09613769925636 154.81227650292567,202.48545072263732 154.54467126567033,202.62051785234144 154.38045896103722,202.72380425366282 154.25273827961064,202.78736501808817 154.18583697031136,202.80325519756298 154.09460791217862,202.8509257079386 153.97296916798223,202.88270602489138 153.83308461215347,203.00982710617973 153.7601013656531,203.05749743475099 153.71144586795708,203.05749743475099 153.68103618192254,203.04160732988748 153.5350696888927,202.7476395490812 153.26138251443626,202.2788768138562 153.17015345630352,202.1517540167988 152.86605659581255,201.62736932477492 152.75658172604744,201.46846387017285 152.6653526679147,201.30161264102935 152.62277910744888,201.24599545039382 152.40991130511975,200.86461889028578 152.22745318882517,200.57858470760402 151.77130789807416,199.76020078443253 151.6375052794756,199.46621519067048 151.61925946784322,199.45826961194325 151.52803040971048,199.49799749399608 151.3394903562148,199.6410176279678 151.03539349575294,199.7999284449579 150.7191327608307,199.92705676280457 150.37854427710408,200.08596674040746 150.0805293538433,200.26871263817884 150.019709981716,200.316385379665 149.71561312125414,200.4514579192837 149.6730395607592,200.4911850726894 149.40543432356208,200.65803879881787 149.36286076306715,200.6659842015033 149.28987751653767,200.71365659324147 148.9249612839776,200.8964003728579 148.584372800251,201.09503421650152 148.55396311421646,201.09503421650152 148.37758693512296,201.19037820267476 148.09781782346545,201.36517507464305 147.96401520486688,201.42079214286787 147.59909897230682,201.62736932477492 146.83885682109394,202.01668571797563 146.6320709559659,202.15969920034695 146.56516964663751,202.17558956396897 146.47394058850477,202.22326062685534 146.3523018443375,202.32654778582219 146.12727016757708,202.40599931251927 146.04212304664543,202.4139444587745 146.0056314233807,202.43777989053706 145.98130367451813,202.44572503214658 145.96305786288576,202.43777989053706 145.85966493032174,202.47750558685948 145.8292552442872,202.48545072263732 145.75627199775772,202.53312151277714 145.51299450936494,202.62846296713178 145.0750950303045,202.76352974019028 145.0264395326085,202.73969445176772 144.99602984657395,202.7079140508904 144.97778403494158,202.6602434146298 144.94129241167684,202.56490201621637 144.92912853727466,202.50928612295684 144.89263691400993,202.44572503214658 144.86830916514737,202.3503832560782 144.7892439814459,202.1517540167988 144.76491623258335,202.0564117231952 144.74667042098008,202.0325761235763 144.65544136284734,201.74654810971697 144.58245811631787,201.57969773734294 144.52772068142076,201.38106567139766 144.43649162325892,201.16654222186116 144.39999999999418,201.0711981937493 144.39999999999418,201.05530750604885 144.40608193722437,201.04736216047604" stroke="#4dd2ff" stroke-linecap="round" stroke-linejoin="round" stroke-width="0.5"><title>2024-09-12 7.1km</title><desc>12388432138</desc></polyline><polyline fill="none" points="55.59999999997672,241.88251738356485 55.43094339623349,241.85885142909683 55.12301886791829,241.86674008175032 55.09283018865972,241.84307412033377 55.06264150943025,241.77996483900642 55.02037735845079,241.7484101705486 54.93584905657917,241.73263282937842 54.76679245280684,241.72474415706165 54.47094339621253,241.75629883939473 54.4045283018786,241.78785350322505 54.31999999997788,241.77207617364184 54.060377358458936,241.79574216627225 53.981886792433215,241.81151948891784 53.83698113204446,241.81151948891784 53.746415094297845,241.83518546422783 53.46867924524122,241.84307412033377 53.27547169808531,241.87462873322875 53.14867924526334,241.87462873322875 52.979622641491005,241.89829468071912 52.56905660373741,241.92984926119243 52.01358490565326,242.00873563132336 51.89283018867718,242.00873563132336 51.74792452828842,242.04029014696061 51.72377358490485,242.03240151978025 51.633207547158236,242.05606739780342 51.48830188679858,242.0481787729659 51.25283018866321,242.0797332654438 51.089811320765875,242.13495358269938 50.96905660376069,242.1507308057844 50.88452830188908,242.18228523804646 50.40150943395565,242.22961685172777 50.17811320754117,242.28483701501318 49.72528301886632,242.30850278191792 49.67094339619507,242.29272560514073 49.610566037736135,242.30061419409685 49.344905660371296,242.26905983128745 49.049056603747886,242.1901738432316 48.69886792451143,242.04029014696061 48.60226415091893,241.97718109715788 48.57811320753535,241.97718109715788 48.42113207545481,241.89829468071912 48.35471698112087,241.85096277530465 47.94415094339638,241.67741209880114 47.8173584905453,241.614302622962 47.648301886802074,241.54330437405224 47.47320754715474,241.48808344897043 46.85132075470756,241.19620047393983 46.48301886790432,241.0936466199273 46.464905660337536,241.06998031812327 46.24150943395216,241.02264768330133 46.187169811310014,241.03053645865293 46.09056603771751,240.99898135026524 46.01207547169179,241.0068701290911 45.818867924506776,240.97531500677724 45.728301886760164,240.98320378910284 45.76452830186463,240.9910925702461 45.57132075467962,240.9910925702461 45.402264150907286,241.03842523288404 45.19094339618459,241.06209154855605 45.039999999979045,241.1094241486644 44.858867924514925,241.11731291128672 44.53886792450794,241.219866720141 44.393962264148286,241.20408922382194 44.29735849055578,241.2356442118289 44.06792452829541,241.27508792078515 43.995471698086476,241.29086539626223 43.9713207546738,241.3066428671118 43.82037735846825,241.3303090646914 43.470188679231796,241.42497375083985 43.15622641509981,241.51963827025247 42.99924528301926,241.54330437405224 42.697358490520855,241.63796868508507 42.552452830190305,241.65374605402758 42.467924528289586,241.68530077805917 42.15999999997439,241.72474415706165 41.767547169787576,241.83518546422783 41.59245283016935,241.85885142909683 41.50188679245184,241.8904060327186 41.47773584903916,241.88251738356485 41.35094339621719,241.92196061781215 41.27849056603736,241.92984926119243 41.254339622624684,241.9456265444751 41.01283018864342,242.01662426195617 40.771320754720364,242.0245128914321 40.60226415091893,242.0718446440551 40.390943396196235,242.1428421948367 40.23396226414479,242.16650802422373 40.07698113206425,242.23750544996437 39.8173584905453,242.27694842373603 39.73886792449048,242.30850278191792 39.64830188677297,242.32427995403486 39.4128301886376,242.38738859630757 39.286037735815626,242.41894288966068 39.13509433961008,242.4347200293887 38.803018867911305,242.52149421511422 38.6098113207554,242.5530484297269 38.458867924520746,242.60826826075208 38.15094339620555,242.66348803503206 38.12075471697608,242.6792651029864 37.87320754714892,242.7502618514518 37.619622641504975,242.81336999357154 37.5894339622464,242.80548147986337 37.45056603770354,242.83703552776205 37.366037735831924,242.8449240368318 37.221132075443165,242.90014356802567 37.07622641508351,242.9238090640065 37.00377358487458,242.96325153420185 36.90716981131118,242.97902851416438 36.82867924525635,242.99480548948486 36.744150943355635,242.99480548948486 36.756226415076526,242.9553630424707 36.46641509429901,242.98691700239578 36.10415094337077,243.1289095928587 36.176603773550596,243.10524418715067 36.14037735844613,243.13679805912034 36.02566037734505,243.1841288322903 35.759999999951106,243.24723646506027 35.65735849054181,243.29456714098706 35.40377358486876,243.3340093391198 35.264905660355,243.38133993864903 34.70943396224175,243.4838894280183 34.64301886787871,243.523331487213 34.54641509431531,243.53910830279347 34.44377358487691,243.57855032146836 34.335094339592615,243.60221551880022 34.256603773566894,243.60221551880022 33.8460377358133,243.70476458678604 33.091320754698245,243.85464364192012 32.49962264148053,244.02029895351734 32.31849056601641,244.04396395633012 32.01056603770121,244.09918225576257 31.841509433928877,244.17017712886081 31.76905660374905,244.1780654423128 31.424905660329387,244.2648368137634 31.38264150940813,244.28850170896476 31.24377358489437,244.31216659372149 31.225660377327586,244.3358314680736 30.38037735846592,244.50937356160284 30.181132075435016,244.58825614617308 30.090566037717508,244.59614439827055 30.04226415095036,244.62769739505165 29.885283018869814,244.6671386150083 29.722264150943374,244.78546210120112 29.692075471684802,244.84067963896086 29.607547169784084,244.88012070262994 29.52301886791247,244.95900274314408 29.42037735847407,245.05366103900087 29.35999999998603,245.14831916814728 29.215094339626376,245.27452974774133 29.142641509417444,245.36129934932978 28.925283018819755,245.52695001797838 28.719999999942956,245.72415252935025 28.6837735848967,245.77148102444698 28.647547169792233,245.78725718022542 28.623396226379555,245.8266975493898 28.520754716941155,245.9213543173464 28.393962264119182,246.08700326018516 28.32150943396846,246.1422194610277 28.24301886788453,246.16588352976032 28.218867924500955,246.18954758805194 28.206792452809168,246.244763683575 28.182641509425594,246.28420371709944 27.850566037697718,246.56817110415068 27.741886792413425,246.7180421759076 27.427924528281437,247.09666196979015 27.107924528274452,247.34907368426502 26.81811320752604,247.63303544645532 26.703396226395853,247.7119134475288 26.66716981132049,247.7592401926304 26.5524528301612,247.86178133075373 26.4498113207228,247.98009778552296 26.377358490572078,248.12996492111415 26.28075471695047,248.2561685007313 26.081509433948668,248.43758562737275 25.622641509398818,248.7373169301136 25.302641509420937,248.9187324331033 25.18792452829075,249.01338375688283 24.81358490564162,249.23423619758978 24.704905660357326,249.31311184942388 24.559999999968568,249.39987493274384 24.439245282992488,249.4393126516261 24.30641509432462,249.51030047268068 24.288301886757836,249.5339630588678 24.064905660343356,249.66016334263622 23.968301886779955,249.7311508720959 23.853584905620664,249.79425081957743 23.805283018853515,249.8415757315961 23.44905660377117,250.03876241656326 22.94792452827096,250.29904773330782 22.658113207522547,250.4725705777637 22.416603773570387,250.59088128694202 22.36226415092824,250.63031813217822 21.981886792433215,250.8117272475247 21.909433962224284,250.85116393073258 21.70415094337659,251.02468499322276 21.655849056580337,251.0167976843586 21.595471698063193,250.96947380681377 21.444528301857645,250.67764230823013 21.366037735831924,250.5593317899511 21.209056603751378,250.2674980650736 20.9796226414619,249.9125630214694 20.774339622614207,249.57340067938276 20.719999999942956,249.46297526907438 20.68981132071349,249.4393126516261 20.61735849053366,249.2894491660154 20.587169811304193,249.2815616025764 20.550943396199727,249.21846105334407 20.490566037711687,249.084372140318 20.22490566034685,248.62688980247913 20.176603773550596,248.57167615359867 20.16452830185881,248.52435012370552 20.140377358475234,248.50857477114914 20.061886792449513,248.37448408755517 20.025660377315944,248.32715788406858 19.832452830160037,247.94065899620182 19.747924528288422,247.8144546759213 19.711698113183957,247.7198012412664 19.651320754666813,247.62514763997387 19.621132075437345,247.54626951159298 19.542641509411624,247.4752790970815 19.524528301873943,247.4358399374105 19.379622641485184,247.44372777165336 19.355471698043402,247.4752790970815 19.34339622638072,247.54626951159298 19.325283018813934,247.5857085902462 19.252830188634107,247.64092325177626 18.830188679217827,247.82234245461223 18.588679245236563,247.94854675637544 18.504150943364948,247.98009778552296 18.37132075469708,248.05897527739944 18.135849056590814,248.185179023636 17.846037735813297,248.35082099100327 17.827924528275616,248.37448408755517 17.719245283020427,248.41392255862957 17.586415094323456,248.50068709312472 17.375094339600764,248.6032268170311 17.187924528261647,248.71365399327624 16.644528301840182,248.99760854783017 16.415094339608913,249.13958526267015 16.191698113194434,249.23423619758978 16.11320754713961,249.2894491660154 15.720754716952797,249.47875034155732 15.10490566038061,249.81002579487176 14.754716981115052,249.99932513742897 14.736603773548268,250.03876241656326 14.543396226363257,250.1570740804018 14.35018867920735,250.22806095370834 14.319999999948777,250.27538548386292 14.265660377335735,250.30693514749146 14.235471698077163,250.31482256051459 14.048301886767149,250.38580922553592 13.993962264125003,250.40947142639925 13.963773584895534,250.44102101132376 13.921509433916071,250.45679579684656 13.70415094337659,250.51200750974022 13.504905660374789,250.58299391442415 13.396226415061392,250.6066560285035 13.227169811318163,250.66186758749973 13.12452830185066,250.71707908979442 13.039999999979045,250.70919173580114 12.979622641461901,250.66975494843064 12.967547169799218,250.58299391442415 12.889056603744393,250.38580922553592 12.889056603744393,250.3542596081934 12.786415094305994,250.054537320113 12.70792452825117,249.8889006019199 12.665660377329914,249.77058834793206 12.647547169792233,249.68382586288135 12.605283018841874,249.59706323779392 12.526792452816153,249.33677452239135 12.39999999999418,249.03704656177797 12.39999999999418,249.00549615291675" stroke="#4dd2ff" stroke-linecap="round" stroke-linejoin="round" stroke-width="0.5"><title>2024-09-11 7.2km</title><desc>12379940467</desc></polyline><polyline fill="none" points="78.57043821332627,248.54495990097348 78.58261237142142,248.54495990097348 78.54608989710687,248.56086416772087 78.46087079046993,248.56881629938653 78.41826123715146,248.59267268730036 78.4060870790272,248.6403854316195 78.39999999999418,248.656289670369 78.4304353952466,248.7278586870816 78.44869663237478,248.90280477454144 78.55826405523112,249.1890789723402 78.61304776664474,249.41173563638586 78.66174439902534,249.54691959332922 78.70435395237291,249.6423433599375 78.71044103143504,249.67415124478066 78.75913766378653,249.78547869481554 78.84435677045258,249.94451751249653 78.85653092854773,250.04789249375244 78.88087924470892,250.12741157594792 78.9478371142468,250.31030502224894 78.99044666756527,250.46139044718439 78.99044666756527,250.48524600211022 79.08783993235556,250.73175278812414 79.12436240664101,250.75560822403713 79.19132027614978,250.7476564132412 79.20958151330706,250.7953672605763 79.23392982949736,250.82717446881725 79.30697477803915,250.8510298627407 79.79394110187422,250.71584915831772 80.2078624770802,250.56476444266082 80.25047203042777,250.5568126038488 80.52439058755408,250.39777558276182 80.70700295898132,250.33416064366975 80.78004790755222,250.2387380950131 80.86526701421826,250.1751229692709 81.0478793856455,250.0717482306718 81.24266591516789,249.98427714401987 81.5409327885136,249.83319038912305 81.70528392275446,249.7695747873804 81.87572213608655,249.66619927532884 81.94876708465745,249.6423433599375 82.46008172465372,249.37992759754343 82.70965196558973,249.2367911916299 82.88617725798395,249.16522284694656 82.96530928558786,249.11751056465073 83.31227279128507,248.98232553670096 83.42792729320354,248.88690060810404 83.53749471605988,248.8312359888332 83.53140763702686,248.82328389568647 83.63488798082108,248.76761921108846 83.7383683246444,248.75171500500437 83.76271664080559,248.71195446931597 83.86619698465802,248.6403854316195 83.93315485416679,248.61652906469317 84.19489925319795,248.45748635030031 84.4566436522291,248.33025184277722 84.58447231221362,248.25073012388384 84.6027335493709,248.22687358547046 84.69403973509907,248.20301703655787 84.81578131605056,248.11554293402514 85.15665774268564,247.9564987495287 85.53405664363527,247.75769286260766 85.61927575030131,247.7258838530288 85.64362406649161,247.70202708360011 85.78362688457128,247.64636124741446 85.88102014933247,247.54298168565947 85.95406509790337,247.51117255005374 86.22189657602576,247.36007890102337 86.64190503026475,247.16922316335695 86.92799774551531,247.02608091903312 87.11061011691345,246.89884305114538 87.13495843310375,246.8749859176496 87.16539382835617,246.86703353749908 87.36626743694069,246.68412847172658 87.5671410454961,246.54893737419843 87.58540228262427,246.52508008669975 87.79845004930394,246.41374593945875 87.81062420739909,246.38193614109332 87.95671410451178,246.3262689490366 88.1088910807157,246.2467442897614 88.33411300549051,246.10359960901405 88.39498379596625,246.04793213106677 88.4802029026032,246.01612211799875 88.54107369307894,245.9604545501934 88.78455685498193,245.8411667123546 88.81499225023435,245.80935657793088 88.91847259402857,245.78549896485856 89.07673664929462,245.66621074195427 89.68544455402298,245.30039188778028 89.80109905591235,245.21291310030574 89.8863181626075,245.14133944186324 90.03849513878231,245.0777183328064 90.15414964070078,244.9663812122053 90.28806537974742,244.894807228211 90.35502324922709,244.83118582969837 90.45241651401739,244.77551704478537 90.58633225303493,244.67213200675906 90.75068338730489,244.60055763410855 90.9272086796991,244.49717226233042 91.20112723685452,244.36992845706482 91.32286881780601,244.29040092705327 91.40808792447206,244.2585898823927 91.53591658445657,244.18701496357244 91.69418063966441,244.12339273418183 91.72461603494594,244.12339273418183 91.74896435110713,244.09953437890363 91.8889671691868,244.0359120467947 91.9133154853771,244.04386484239876 91.9376638015674,244.05977043007442 91.97418627585284,244.16315663630303 92.12027617299464,244.44150313429418 92.15679864730919,244.48126680300993 92.2846273072646,244.70394280866822 92.47332675775397,244.88685455747327 92.74115823584725,245.2447235848049 92.8263773425133,245.3242497144238 92.99681555587449,245.55487483033357 93.08812174157356,245.72187861198836 93.39247569392319,246.22288686922548 93.43508524727076,246.3262689490366 93.47160772155621,246.36603123491295 93.60552346057375,246.58074707454216 93.7394391996495,246.7954620635246 93.78204875296797,246.89089067450186 93.82465830631554,246.91474780094723 93.91596449201461,247.0896997409509 93.9890094405855,247.2089848307951 93.99509651964763,247.240794143745 94.22031844439334,247.01017620187486 94.32379878821666,246.8431763900153 94.39075665772543,246.7954620635246 94.4333662110439,246.72389049505728 94.4820628434536,246.68412847172658 94.51249823867693,246.59665191771273 94.5794561081857,246.52508008669975 94.74989432151779,246.35807878007472 95.14555445962469,246.0558846314343 95.26120896151406,245.93659700364515 95.31599267295678,245.8411667123546 95.33425391008495,245.82526164750016 95.35860222627525,245.82526164750016 95.40729885865585,245.76164134126157 95.4438213329122,245.7457362530622 95.70556573197246,245.42763350845053 96.02209384244634,245.1174815347258 96.1864449767163,245.00614449583009 96.2351416090969,244.95842855198498 96.3081865576969,244.9425232280446 96.73428209099802,244.75961166715206 96.89254614626407,244.72780089788284 97.57429899956333,244.52898316696155 97.75082429192844,244.49717226233042 97.84821755671874,244.49717226233042 97.87865295194206,244.5051249902317 98.26822601095773,244.43355039702874 98.38996759190923,244.38583394904344 98.7551923347637,244.3063064424059 98.93171762712882,244.25063711828625 99.1752007890318,244.13134551693656 99.2725940538221,244.09953437890363 99.41259687190177,244.07567601310075 99.61955755951931,244.05977043007442 100.10652388332528,243.92457278587244 100.1369592785486,243.93252559781467 100.2587008595001,243.89276152646198 100.35609412426129,243.88480870869898 100.49000986330793,243.8450446023453 101.23872058611596,243.6700821877057 101.62829364518984,243.5666950408231 102.02395378326764,243.49511920820441 102.24308862895123,243.415590394412 102.47439763278817,243.37582594376363 102.65092292515328,243.30424985905483 102.9004931661184,243.25653241671898 103.04658306323108,243.24062659329138 103.1500634070544,243.20881493239358 103.24136959278258,243.20881493239358 103.62485557273612,243.0974739721969 103.77094546987792,243.0736151652418 103.80138086515944,243.06566222724723 103.85616457657306,243.06566222724723 103.9657319994003,243.02589751982669 104.00225447368575,243.03385046365656 104.1118218965421,242.99408573290202 104.39791461176355,242.95432097293815 104.64139777366654,242.87479136552793 104.93966464701225,242.81116759554425 105.42663097081822,242.66801383998973 105.55445963083184,242.6521078438018 105.74924616032513,242.58053080322497 105.97446808509994,242.53281272363893 106.19969000981655,242.46918855217154 106.54056643650983,242.39761126995654 106.72317880790797,242.41351734083582 106.88752994220704,242.32603389321594 106.98492320696823,242.3101277966707 107.24666760599939,242.2226441821258 107.34406087076059,242.21469111926854 107.43536705645965,242.17492578740712 107.58754403266357,242.15901964650038 107.63624066504417,242.11925427378083 107.70319853458204,242.12720735065523 107.81276595743839,242.0794888718956 108.16581654216861,242.0397234408265 108.71974073548336,241.90452075693247 108.76843736789306,241.90452075693247 109.10931379452813,241.80113024165257 109.24322953357478,241.77727086396408 109.38323235168355,241.73750521111288 109.59019303930108,241.71364580540467 109.82758912211284,241.64206752525206 109.87628575455165,241.63411437716422 109.96150486118859,241.59434861928094 109.99194025644101,241.60230177318226 110.26585881356732,241.56253599196862 110.34499084117124,241.56253599196862 110.92326335067628,241.4273321174951 111.11196280113654,241.37165983584055 111.33718472594046,241.33189388534083 111.83023812877946,241.20464264770635 112.23198534589028,241.14897013726295 112.37198816396995,241.14897013726295 112.87112864590017,241.2364554851265 113.4737494715664,241.4591448241954 113.65027476396062,241.5386765092153 113.82680005635484,241.59434861928094 114.15550232489477,241.76136460630005 114.1859377201472,241.76136460630005 114.46594335633563,241.88066142476237 114.81290686203283,241.99995798059535 115.12943497250671,242.14311350091884 115.62857545440784,242.34989302929534 116.09728054105653,242.42147037454197 116.24337043819833,242.42942340705486 116.38946033531101,242.47714157768496 116.63903057627613,242.45328249761224 116.94947160771699,242.405564305991 117.448612089589,242.35784607232927 117.58252782860654,242.32603389321594 117.72861772577744,242.32603389321594 117.76514020003378,242.3101277966707 117.92949133436196,242.28626864306352 118.06949415241252,242.2226441821258 118.14862618007464,242.2067380552362 118.55646047621849,242.19878499002516 119.2016908552614,242.09539503617634 119.78605044382857,242.04767652939336 120.12083979143063,241.99200488505085 120.2121459771588,241.99200488505085 120.32171340001514,241.96814559137783 120.43128082284238,241.96814559137783 120.61998027330264,241.93633318351203 120.71737353809294,241.93633318351203 120.80259264475899,241.9124738653336 120.89998590949108,241.92042697254874 120.99129209521925,241.89656764737447 121.08868535998045,241.90452075693247 121.51478089331067,241.84089584779576 121.59391292091459,241.83294272891362 121.59999999997672,241.82498960884186" stroke="#4dd2ff" stroke-linecap="round" stroke-linejoin="round" stroke-width="0.5"><title>2024-09-10 7.1km</title><desc>12375090044</desc></polyline></svg>