<?xml version="1.0" encoding="utf-8" ?>
<svg baseProfile="full" height="300mm" version="1.1" viewBox="0,0,200,300" width="200mm" xmlns="http://www.w3.org/2000/svg" xmlns:ev="http://www.w3.org/2001/xml-events" xmlns:xlink="http://www.w3.org/1999/xlink"><defs /><rect fill="#222222" height="300" width="200" x="0" y="0" /><text fill="#FFFFFF" style="font-size:12px; font-family:Arial; font-weight:bold;" x="10" y="20">Over 5km Workouts</text><text fill="#FFFFFF" style="font-size:4px; font-family:Arial" x="10" y="280">ATHLETE</text><text fill="#FFFFFF" style="font-size:9px; font-family:Arial" x="10" y="290">Liudon</text><text fill="#FFFFFF" style="font-size:4px; font-family:Arial" x="120" y="280">STATISTICS</text><text fill="#FFFFFF" style="font-size:3px; font-family:Arial" x="120" y="285">Number: 17</text><text fill="#FFFFFF" style="font-size:3px; font-family:Arial" x="120" y="290">Weekly: 5.7</text><text fill="#FFFFFF" style="font-size:3px; font-family:Arial" x="141" y="285">Total: 120.3 km</text><text fill="#FFFFFF" style="font-size:3px; font-family:Arial" x="141" y="290">Avg: 7.1 km</text><text fill="#FFFFFF" style="font-size:3px; font-family:Arial" x="167" y="285">Min: 7.0 km</text><text fill="#FFFFFF" style="font-size:3px; font-family:Arial" x="167" y="290">Max: 7.2 km</text><polyline fill="none" points="12.392324992950307,54.820698579453165 12.289850998000475,54.89507172186859 12.272771998832468,54.92482094832303 12.25,54.99919393796881 12.267078999138903,55.12562776998675 12.369552994059632,55.38593172524634 12.49479898790014,55.82472679552302 12.557421984820394,55.958595721847814 12.70543997749337,56.360200379644084 12.819299971830333,56.73949074617849 12.88761596850236,56.90310532229341 12.904694967641262,56.91797934848364 12.961624964838848,56.94772738776737 13.001475962868426,56.940290379592625 13.058405960066011,57.007223413958855 13.09256395837292,57.01466041233289 13.189344953600084,57.022097409600974 13.724486927181715,56.85848321753292 13.918048917606939,56.784112955672754 14.145768906339072,56.679994405763864 14.806156873732107,56.315577796998696 15.500702839461155,55.97347002515744 15.688571830192814,55.86191264386798 16.09846780996304,55.65367154190244 16.166783806547755,55.601611132769904 16.286336800665595,55.534676242416026 16.59375878548599,55.38593172524634 17.00934776494978,55.16281413114848 17.10612876014784,55.133065044392424 17.772209727292648,54.74632532790929 19.00189766654512,54.12158570673273 19.11006466121762,54.05464886206755 19.252389654167928,53.94308725788869 19.41179364628624,53.85383779772383 19.884312622976722,53.65302593785964 20.14619061004487,53.526588432763674 20.299901602469618,53.42990071606255 20.56747258923133,53.2067745120803 20.846429575467482,53.02827284175146 21.933792521769647,52.381199017196195 22.076117514749058,52.29938449710971 22.372153500124114,52.17294361540189 22.48032049476751,52.10600419741604 23.795403429860016,51.20603232693247 24.8429153781035,50.68538014679143 24.91123137474642,50.69281807272637 24.928310373885324,50.715131844022835 25.104793365171645,51.049837234448205 25.264197357319063,51.295286449370906 25.884734326653415,52.06881559364774 26.22631430978072,52.626641785089305 26.636210289550945,53.35552542385631 26.647596288996283,53.35552542385631 26.641903289273614,53.370400491025066 26.75007028391701,53.53402594180443 26.82977227997617,53.67533840602482 26.926553275203332,53.571213470560906 26.93793927464867,53.556338462323765 26.926553275203332,53.54890095657538 26.966404273262015,53.50427589912215 27.228282260301057,53.229087176685425 27.416151251032716,52.976209736141755 27.530011245427886,52.857208151137456 27.974065223505022,52.4778887342909 28.28718020801898,52.17294361540189 28.65722518975963,51.76386801366971 28.83940118076862,51.60023684852058 28.95326117510558,51.52585887155874 29.07281416922342,51.466356411423476 29.24929716050974,51.39197823799623 29.989387123961933,51.176280917854456 30.22280011244584,51.13165377148471 30.6440820916323,51.079588717748265 31.145066066877916,50.97545844981505 31.389865054836264,50.901079556017066 31.680208040459547,50.796948921342846 31.98763002527994,50.730007686091994 32.295052010100335,50.633314634644194 32.8245009839593,50.52174549988922 34.04280292382464,50.21678861184773 34.50393590101157,50.12753259019519 35.12447287037503,49.95645810932547 35.55144784931326,49.882077720169036 35.9044138318568,49.77050693175988 36.47940680346801,49.673812049790286 37.914042732620146,49.29446880829346 38.454877705924446,49.17545857881123 39.1665026707924,48.982066359876626 39.46823165589012,48.92999909792343 39.775653640710516,48.85561720235637 40.17985662072897,48.78123519761357 41.23306156869512,48.498582584044925 41.54617655323818,48.45395307990475 41.836519538919674,48.37957048566386 42.19517852118588,48.32006433166316 42.64492549901479,48.20105181411782 43.641200449783355,48.00021755699345 43.783525442762766,47.977902590399026 44.039710430108244,47.98534091367401 44.46668540904648,48.052285774145275 45.51419735731906,48.43163831307902 45.98102333425777,48.63990908786218 46.493393308948725,48.84074081014114 46.76665729546221,48.95975182559414 47.062693280837266,49.071324398777506 47.432738262577914,49.153144129679276 47.814169243734796,49.19033487278284 48.22406522350502,49.16802043017742 48.4973292099894,49.13082967070295 48.82752319367137,49.071324398777506 49.18618217599578,49.04900990379247 49.86934214227949,48.90768454071804 50.61512510542525,48.848179006807186 51.7764970480639,48.72916772934332 52.24901602475438,48.691976647831325 52.4084200168727,48.66222376296719 52.55643800954567,48.60271794086657 52.59628900757525,48.56552676654246 52.70445600221865,48.41676179641945 52.75,48.40932353645985" stroke="#4dd2ff" stroke-linecap="round" stroke-linejoin="round" stroke-width="0.5"><title>2024-09-26 7.1km</title><desc>12509005075</desc></polyline><polyline fill="none" points="97.75,48.58454100279414 97.59674141553114,48.59195734842069 97.4207778556156,48.61420637880656 97.32995795371244,48.55487560937763 97.2334618079476,48.51037748658564 97.18805185699603,48.5029611289865 96.73395234756754,48.525210198553395 96.24011913102004,48.59937369297768 95.79737210928579,48.62162272007845 95.3432725998282,48.68836974260921 94.76429572526831,48.72545138372516 94.13423265589518,48.81444721132357 93.89015416955226,48.8292798340226 93.68580939029926,48.858945066334854 93.33388227046817,48.940524365447345 92.53920812893193,49.0369360946097 92.24971969166654,49.0369360946097 92.03969866852276,49.014687250371935 91.67074281704845,48.90344288217602 91.38693062367383,48.7847819528688 91.19393833214417,48.67353707856091 90.81930623683729,48.49554477028141 90.55252277501859,48.39171563427226 89.71811492639245,48.02831197817068 89.50809390327777,47.946731206367986 89.25266292921151,47.86515030284863 89.05399439382018,47.82065157271427 88.82694463906228,47.79098573083684 88.50907498245942,47.783569267659914 88.11173791167676,47.894816101204924 87.62358093902003,47.983813391700096 87.45896986685693,48.020895549801935 87.26597757529817,48.09505978440575 87.05595655218349,48.19147312662972 87.02189908898436,48.19888952995461 86.67564821301494,48.1618075024453 86.35777855641209,48.20630593218084 85.51769446389517,48.473295687668724 85.12603363697417,48.56229195934429 84.93304134547361,48.62162272007845 84.86492641904624,48.67353707856091 84.80816398034221,48.75511667699175 84.76843027328141,48.79219826909684 84.74572529780562,48.79961458426624 84.67193412751658,48.80703089833332 84.26324456901057,48.79961458426624 84.06457603361923,48.81444721132357 83.6388577434991,48.87377767599537 83.1052908198908,48.977605821528414 82.4468465311511,49.12593137366639 82.14032936227159,49.21492649597349 81.83381219336297,49.26684024493079 79.46114225644851,49.86755260400969 79.16597757529235,49.92688183224891 78.73458304133965,50.05295621102778 78.15560616675066,50.16419804873658 77.23037841625046,50.394097070708085 76.71384022422717,50.49050602672287 76.24838822704623,50.623995046775235 75.70914505954715,50.727819596388144 75.1017869656207,50.883556020871765 74.29008409249946,51.15794760104836 73.682725998573,51.298850806499104 73.50108619479579,51.38042616693929 73.3762088296935,51.4842491625277 73.32512263488024,51.55099240417621 73.12077785562724,51.75863748122356 72.73479327256791,52.107182656851364 72.53612473717658,52.33707284004049 72.10473020319478,52.74493994640579 72.01958654518239,52.841344417858636 71.79821303431527,53.0563998838079 71.37817098805681,53.516170569044334 71.01489138050238,53.864703623934474 70.65728801678051,54.161325607234176 70.538086895569,54.39120644691866 70.50402943234076,54.443114878900815 70.39618079885258,54.56917799178336 70.12939733706298,54.78422610571579 69.9818149964849,54.895457529732084 69.51068675541319,55.1624119486587 68.73304134546197,55.65924002983229 68.45490539589082,55.80013068641347 67.53535388925229,56.35627418011427 66.65553608967457,56.85309052615776 66.0935879466997,57.18677040524926 66.01412053254899,57.216430732340086 65.9289768745366,57.19418548865724 65.84950946038589,57.075544023646216 65.52596355989226,56.50457807827843 64.64614576034364,55.02893491543 64.41909600558574,54.68782534021011 64.27718990886933,54.39120644691866 64.22610371405608,54.25031186276465 64.17501751927193,54.05009256752601 64.10122634895379,53.92402815987589 64.03311142255552,53.87211919474794 63.99337771546561,53.87211919474794 63.908234057424124,53.90178146706967 63.664155571110314,54.06492365361191 63.00003503850894,54.35412896282651 62.64243167481618,54.52468516430963 62.4324106517015,54.65816352920956 62.18833216538769,54.77681066873265 61.5696215837379,55.15499656715474 59.54320252276375,56.23763074827002 59.083426769444486,56.46008695452838 58.41362999298144,56.75669370652031 58.14684653116274,56.860505658485636 57.880063069373136,56.94207204263148 57.81762438680744,56.9049964297883 57.806271899084095,56.87533591993633 57.72112824107171,56.60097537875845 57.5167834617896,56.07449557475047 57.357848633488175,55.58508689494556 57.25,55.32555006606708" stroke="#4dd2ff" stroke-linecap="round" stroke-linejoin="round" stroke-width="0.5"><title>2024-09-26 7.0km</title><desc>12505321211</desc></polyline><polyline fill="none" points="142.75,48.54994588868067 142.61321418519947,48.57973233955636 142.41943428089144,48.46803305860885 142.28834787505912,48.45313980256469 142.2142555586761,48.45313980256469 141.90648747538216,48.50526617958894 141.47333239516593,48.557392503047595 141.14276667605736,48.57973233955636 140.48733464677935,48.66164498930448 140.09977483816328,48.69143137459105 139.5298339431465,48.76589726135717 139.02258654660545,48.79568358546021 138.5210385589744,48.90738214511293 137.7573177596496,49.02652700433828 137.62623135381727,49.02652700433828 137.42675204054103,48.99674081577541 137.22157331832568,48.98929426589166 136.9935969603248,48.92972182752055 136.7542217844166,48.847809610557306 135.86511398819857,48.430799910318456 135.20398254995234,48.15527376375394 134.46305938641308,47.85740597629774 134.32057416267344,47.82017237989203 134.09259780467255,47.77549202818045 133.92161553617916,47.76059856884967 133.68793976921006,47.76804529904621 132.9413171967317,47.90953296533553 132.56515620602295,47.9988933933746 132.03511117363814,48.08825366403835 131.57345904869726,48.22229377496478 130.79264002252603,48.40846000822785 129.93202927103266,48.58717894953588 129.11131438222947,48.788237006065174 127.90873909374932,49.01908045884193 127.32739938082523,49.1605646366188 127.23050942865666,49.190350729018974 127.22481001971755,49.197797249402356 127.23050942865666,49.212690286865836 126.95123839011649,49.28715540860867 126.50098508302472,49.36906691630793 125.6688713763142,49.5850148028112 125.28131156769814,49.65947937814417 124.84245707851369,49.77862247140729 124.48909372361959,49.84564033841161 124.15282859557192,49.94244376780989 123.54869124683319,50.076478980572574 123.34351252464694,50.13605007260048 122.56269349847571,50.32965563867765 121.98135378555162,50.45624349400532 121.28602589361253,50.627508913283236 120.8015761328279,50.70941825726186 120.49380804953398,50.79877375448268 119.49641148326918,51.03705431107301 119.08605403886759,51.16364040165354 118.84097945399117,51.22321021736934 118.6813960034051,51.30511859978651 118.64150014071492,51.334903433340514 118.41352378271404,51.550842953725805 118.1570503799594,51.826350662890036 117.85498170557548,52.109302969285636 117.41612721644924,52.563512583052216 117.22234731214121,52.71243288287951 116.8632845482789,53.062393867221544 116.60681114552426,53.36023110176029 116.44152828596998,53.531486720079556 115.9285814804316,54.008021051260584 115.66640866870875,54.17182869410317 115.55242048975197,54.27606964606457 115.48972699127626,54.350527337803214 115.30734590484644,54.6483570122582 115.19335772586055,54.774934094632044 115.03947368421359,54.886619493350736 113.87679425839451,55.61629138302669 113.31255277228775,55.92900469556116 111.89339994371403,56.77034285132686 111.34055727554369,57.06815832508073 111.07838446384994,57.23195609073446 111.0498874190962,57.23940143115033 110.98719392062048,57.23940143115033 110.91880101326387,57.15005727398602 110.70792288208031,56.73311579420988 110.00689558120212,55.571617895351665 109.74472276950837,55.102543900575256 109.50534759360016,54.73025986630819 109.31156768929213,54.34308157353371 109.18618069236982,54.052695915394 109.12348719392321,53.96334614780426 109.02089783281554,53.85165871711433 108.91260906276875,53.89633371890159 108.75872502112179,54.02291267701003 108.56494511678466,54.13459973078716 107.74992963694967,54.48455090759671 107.39086687305826,54.70792273738698 107.20278637768934,54.812162588168576 106.6556431184872,55.132326505354285 106.22248803827097,55.355695483907766 105.6525471432542,55.67585597206562 104.78623698282172,56.130033664674556 104.3017872220662,56.40551651420901 104.11370672672638,56.53208921398982 103.99971854768228,56.576761856194935 103.81733746131067,56.6214344590735 103.63495637490996,56.70333412885884 103.5380664227414,56.76289744208043 103.16760484097176,56.867133072002616 103.0137207993248,56.934141578152776 102.90543202927802,56.95647772722805 102.87693498452427,56.94158696227896 102.81994089501677,56.89691464120915 102.75154798760195,56.673552446063695 102.6033633548941,56.28638897899873 102.41528285955428,55.69074710838322 102.35828877004678,55.571617895351665 102.3126934984466,55.49716199517934 102.27279763581464,55.400369161648996 102.25569940896821,55.340804249277426 102.25,55.340804249277426" stroke="#4dd2ff" stroke-linecap="round" stroke-linejoin="round" stroke-width="0.5"><title>2024-09-25 7.1km</title><desc>12497157963</desc></polyline><polyline fill="none" points="147.25569860695396,54.953267199492984 147.25,55.13193781553127 147.38106796113425,55.54883347296709 147.42665681717335,55.73494649987333 147.5121359222976,55.95083675588103 147.6204094554414,56.196503860945086 147.71728577456088,56.4868361789886 147.7913676656317,56.78461118982159 147.87684677075595,57.00794130123904 147.9794216969167,57.06005151912905 148.0250105529558,57.05260720557635 148.57207682562876,56.896276368395775 148.93108906707494,56.75483376738703 149.26730688050156,56.59105763155458 151.273216547037,55.51905532529054 151.65502321653184,55.34038607239563 152.3559518783877,54.94582257685397 152.83463486700202,54.707594075185625 153.38739974671626,54.40980687523188 153.83189109325758,54.19391006240767 154.01994512451347,54.08223893669856 154.3105740818719,53.881230291070096 154.43594343602308,53.81422723225478 155.18815956095932,53.456876090785954 155.3021317011153,53.389872471572744 155.75232165466878,53.06229794837782 156.03155339803197,52.87617511800636 156.6299071337853,52.5188173697461 157.2966441536264,52.16145710453566 157.66135500205564,51.89343525379445 158.1343393836869,51.58074130512978 158.40787252000882,51.40950332610737 158.69280287038418,51.21592926260564 159.39943013928132,50.85855982036446 159.79833262978354,50.679874155273865 159.87241452085436,50.672428905574634 159.90090755591518,50.694764651416335 159.95219501899555,50.769217066485 160.06616715912241,51.022354460525094 160.16874208522495,51.18614857189095 160.36819333050516,51.439283885738405 160.76709582097828,51.908325393764244 160.9209582101903,52.11678689439577 161.45092866182677,53.00273871693935 161.5876952300314,53.248420095991605 161.63898269311176,53.32286876388025 161.64468130009482,53.32286876388025 161.6332840860705,53.31542390201503 161.82703672430944,53.665331229174626 161.91821443644585,53.53132445280062 161.90111861540936,53.546214112095186 162.10056986066047,53.34520334293484 162.27722667789203,53.10696732606448 162.38550021103583,52.98784889814851 162.92686787672574,52.511372389904864 163.39415365128662,52.012556251153 163.54231743348646,51.841319729537645 163.74176867873757,51.64774731352372 163.82154917684966,51.58818642154074 163.94691853100085,51.52862545966855 164.11217813420808,51.483954692357656 164.49968341071508,51.33505185062677 164.9270789362199,51.18614857189095 165.2234065005905,51.1191419538809 165.7020894892048,51.07447082604267 166.22636133388733,50.962792834365246 166.3688265090459,50.91067635413128 166.39162093706545,50.895785921395145 166.39731954407762,50.85855982036446 166.45430561414105,50.83622414664569 166.85320810467238,50.746881353439676 167.33758970026975,50.59797634846473 168.06701139718643,50.434180338226724 168.84202195017133,50.23315723926498 169.74810046429047,50.03957868745783 170.7795483325899,49.778991009032325 171.17845082309213,49.719427923180774 171.45198395947227,49.65986476741091 172.41504854365485,49.384384262248204 173.5205783030542,49.12379321845947 174.03915154069546,48.982328948408394 174.7457788095926,48.833418764319504 175.1959687631752,48.758963508382294 175.7829252849042,48.59516156065365 176.21032081043813,48.49836925203272 176.55223723090603,48.438804662622715 176.8485647952184,48.36434882751564 177.26456310678623,48.28989288314915 177.84582102150307,48.13353504429324 178.60373575345147,47.96973107718077 178.8316800337343,47.93994848087459 179.12230899112183,47.94739413158459 179.4528281975363,48.006959297948924 179.81184043898247,48.140980666601536 181.93172224564478,49.0046654383259 182.47308991133468,49.12379321845947 182.83780075979303,49.15357511976981 182.9973617559881,49.1461296460875 183.42475728152203,49.1089022612432 183.89774166312418,49.034447409580025 184.2054664415191,49.012110932791984 184.50749261290184,48.94510144337619 185.23121570277726,48.85575531979703 187.3795905445004,48.617498221025016 187.65312368085142,48.57282489044519 187.67591810890008,48.520705955037556 187.69301392990747,48.409022341707896 187.71580835792702,48.37179441596527 187.75,48.37179441596527" stroke="#4dd2ff" stroke-linecap="round" stroke-linejoin="round" stroke-width="0.5"><title>2024-09-24 7.1km</title><desc>12492762213</desc></polyline><polyline fill="none" points="52.75,97.12440894159954 52.46369998584851,97.17677857480885 51.730771949660266,97.22914815421609 50.757351901585935,97.35633119444901 50.29354587869602,97.39373791059188 49.211331825266825,97.52840186146204 48.73034780146554,97.6181776310732 48.01459776615957,97.72291582913749 47.596599745505955,97.73787841129524 47.327477732207626,97.69299065165615 46.94956171355443,97.58077107964345 46.72052170225652,97.47603258951858 46.50865969181177,97.37129388419635 46.24526367877843,97.26655496366948 45.9303336632147,97.10196479664955 44.79658560722601,96.63811692121453 44.55036759507493,96.54833942554978 44.355683585454244,96.50345061841654 44.115191573568154,96.48100620003606 43.65711155094323,96.50345061841654 42.958539516461315,96.63063546928606 42.56917149721994,96.71293138014153 42.088187473476864,96.82515286268244 41.84769546161988,96.89996704712757 41.48695744381985,96.98974392350283 41.25219143219874,97.03463230241323 41.063233422872145,97.04959508657339 40.99452141945949,97.08700202783075 40.92008341581095,97.10944617939822 39.912307366059395,97.32640580176303 39.08776332531124,97.53588318165203 38.75565530889435,97.58077107964345 38.034179273294285,97.77528484747018 37.432949243608164,97.89498525875388 36.482433196681086,98.13438523813966 35.262795136426575,98.39622767823676 34.924961119744694,98.48600191952937 34.421073094854364,98.60570066198488 34.14049908099696,98.70295568328947 33.493461049045436,98.82265391631881 33.45910504736821,98.83761617568962 33.45337904707412,98.85257843067302 33.27014703801251,98.88250292744851 33.13844903151039,98.93487075454323 31.99324897499173,99.20419015843072 31.64968895801576,99.30144403793383 31.317580941598862,99.36877353814998 31.117170931684086,99.38373563722052 30.928212922386592,99.42114086572474 30.567474904557457,99.54083741245631 30.063586879667128,99.66801468544509 29.69139686130802,99.78771065253386 28.947016824560706,99.96725407622216 28.71797681323369,100.07946839492433 28.517566803348018,100.25152987052934 28.23126678916742,100.55076583624759 27.996500777604524,100.73778742291688 27.84762477024924,100.87992336988827 27.61858475895133,101.13427091760241 27.19486073803273,101.56067425362926 27.057436731207417,101.65792363784203 26.87420472217491,101.88234458569423 26.63371271028882,102.12172584123982 26.490562703227624,102.30126104528608 26.043934681161772,102.70521294280843 25.95231867666007,102.77253794789067 25.717552665038966,102.91466822221264 25.677470663096756,102.94459033476596 25.597306659125024,103.03435656696456 25.368266647827113,103.37845899301101 25.29382864414947,103.47570490988437 25.162130637618247,103.58791150658726 24.119998586160364,104.246185233289 23.90241057545063,104.40327202562548 23.633288562123198,104.5304371697166 21.96702247983194,105.5253064676981 21.165382440260146,105.98159341183782 21.062314435170265,106.0189937999603 21.005054432345787,105.97411333092896 20.793192421871936,105.56270719051827 20.134702389361337,104.50051598787468 19.762512370973127,103.84972593855127 19.3044323483482,103.01191502373331 19.264350346376887,102.91466822221264 19.270076346670976,102.85482394448627 19.132652339874767,102.66032955668197 19.098296338197542,102.62292670473835 19.04676233563805,102.60048498040851 18.81199632404605,102.77253794789067 18.594408313307213,102.89222662630345 18.325286300008884,103.03435656696456 17.88438427823712,103.22136904313084 17.586632263555657,103.35601760122518 17.363318252493627,103.48318535735598 17.185812243726104,103.60287236749355 16.784992223925656,103.82728475420663 16.241022197093116,104.11153902605292 14.110950091882842,105.27098082493467 13.876184080319945,105.34578261624847 13.51544606249081,105.51034617088953 13.12607804327854,105.64498868414739 12.960024035070091,105.68238931919404 12.88558603139245,105.69734956552566 12.856956029951107,105.67490919438933 12.811148027685704,105.61506815638495 12.40460200762027,104.46311448586493 12.25,104.09657831442746" stroke="#4dd2ff" stroke-linecap="round" stroke-linejoin="round" stroke-width="0.5"><title>2024-09-24 7.1km</title><desc>12488248833</desc></polyline><polyline fill="none" points="57.26141166529851,103.55730289313942 57.25,103.691475844651 57.26141166529851,103.73620008309081 57.36411665257765,104.01945267890915 57.51817413358367,104.55613747715688 57.67793744718074,104.95864735548821 57.82058326288825,105.43569197097895 57.854818258667365,105.50277601079506 57.87764158920618,105.52513733773594 57.9346999154659,105.55495242498364 57.968934911245015,105.54749865481426 58.037404902803246,105.60712878560298 58.12869822484208,105.63694382475296 58.37404902788694,105.57731372895432 58.65363482671091,105.49532223297501 59.04733727814164,105.34624644676296 59.25274725275813,105.23443932004011 59.71491969568888,104.9661012120414 60.217032967018895,104.72012336807893 61.375316990714055,104.0939925732564 61.72907861371641,103.94491267523699 62.04860524091055,103.74365411901817 62.4023668639129,103.54984882987628 64.03994082842837,102.70753263800725 64.08558748944779,102.70007845008513 64.14264581573661,102.74480356127242 64.19970414202544,102.8193453257627 64.27958579882397,102.96842852661212 64.42223161453148,103.27404772068257 64.59340659342706,103.57221101634786 64.7931107353943,103.84801050693932 65.20963651733473,104.57849922071182 65.56339814033709,105.10027044320668 65.68892645815504,105.33133884406561 65.92286559595959,105.80092622730808 65.96280642435886,105.86800978493193 66.0540997464268,105.88291723014845 66.10545224009547,105.86800978493193 66.13398140322533,105.89782467097757 66.21956889267312,105.95745439061648 66.33368554525077,105.9500006794733 66.54480135248741,105.86800978493193 66.88715131022036,105.64439758180379 68.15955198649317,104.89156259723313 68.69019442098215,104.5859531330425 69.10672020286438,104.36978923136485 69.58601014371379,104.07163061642132 69.86559594250866,103.9076426323627 70.01394759086543,103.83310246463952 70.20794590024161,103.69892988713036 70.57311918851337,103.41567550431137 71.36622992390767,102.640444907247 71.51458157226443,102.52117761161207 71.7713440405787,102.35718462290242 71.9025781910168,102.23791666227044 72.16504649198032,101.96956272708485 72.34192730346695,101.69375303879133 72.46174978869385,101.5372117388215 72.62151310229092,101.38066995643385 72.9125105663552,101.12722033369937 73.79691462384653,100.24013669636042 73.9566779374436,100.12831833180098 74.14497041419963,100.03886346295258 74.4131445477542,99.94195384393242 74.79543533391552,99.82268021289565 75.14349112426862,99.74067942910551 75.61136939981952,99.68849704323657 75.95942519020173,99.62140532549893 76.41018596789218,99.4946762835607 76.74112426035572,99.3828562781091 77.5,99.15921552882355 78.48140321217943,98.94302853528279 79.3144547760021,98.73429539266726 80.48415046493756,98.47337775824417 81.03191039728699,98.32428136543604 81.6081994928245,98.2199136300951 82.0874894336448,98.09318109175729 82.09319526629406,98.07081649334577 82.99471682161675,97.86207976670994 83.39412510566763,97.78753072788822 83.70794590027072,97.66825203820554 84.23288250211044,97.57879283715374 84.8262890955375,97.43714877991806 85.54522400678252,97.29550432773613 86.82333051564638,96.96748407987616 87.28550295860623,96.88547868696696 87.77049873204669,96.75874281928918 88.31825866442523,96.63946171384305 88.67202028739848,96.56491088066468 88.84890109891421,96.54254560938352 89.08854606930981,96.55000070089955 89.61348267117864,96.6320066354383 90.1840659340669,96.84820346460037 90.8801775148022,97.13894947366498 91.18829247678514,97.22095445739978 91.28529163144412,97.25822940623766 91.49640743873897,97.35514414521458 91.79881656804355,97.52660823044789 92.03846153843915,97.61606752340958 92.29522400675341,97.69061681384846 92.67751479291474,97.7428012520686 92.88863060018048,97.7577110817183 93.11115807268652,97.7428012520686 94.29797125951154,97.60861258833756 94.80579036349081,97.50424338257653 96.11242603548453,97.35514414521458 97.55029585797456,97.2134994643493 97.6301775148022,97.2134994643493 97.75,97.23586444021566" stroke="#4dd2ff" stroke-linecap="round" stroke-linejoin="round" stroke-width="0.5"><title>2024-09-23 7.1km</title><desc>12484262436</desc></polyline><polyline fill="none" points="142.75,97.20598588899884 142.63039656868204,97.23575144835559 142.53927014482906,97.29528251468582 142.50509773587692,97.28784113519941 142.40258050904959,97.22831006015622 142.3570172971231,97.2208686708509 141.49701167203602,97.28784113519941 140.85343130357796,97.34737214037887 140.52879341863445,97.39202034837581 140.04468429190456,97.42922715835084 139.5093165517901,97.51108204418051 138.9625580087013,97.55573010802982 138.02851216422278,97.71943933907824 137.65831106735277,97.77152852901054 137.4760582196468,97.77896983750543 137.21976515254937,97.74920459703208 137.17420194062288,97.75664590879751 136.66161580648622,97.57805412520247 136.42240894387942,97.47387529427942 136.2743285051256,97.38457898310662 136.06359864995466,97.28039975465799 134.5030586415378,96.6404369408192 134.28663338487968,96.57346362133103 134.08159893122502,96.5288146925086 133.8879552805447,96.51393170749361 133.57470819854643,96.521373200565 133.39815075235674,96.55113916182017 132.4413233019004,96.75950040152748 131.87178315286292,96.86368070026947 131.1769441710203,97.05715783002961 130.52197299955878,97.20598588899884 129.65057657149737,97.37713761675332 129.0981226269214,97.5334060810128 128.07864576007705,97.72688065521652 127.78818028402748,97.80873506051648 127.50910561098135,97.85338286226761 126.40989312331658,98.15103386918054 125.94856560256449,98.24032883050677 124.90630712980055,98.51565397140439 124.31968077624333,98.62727184587493 123.71027281676652,98.79097761730736 123.3628533258161,98.86538915687197 123.18629587962641,98.92491830990548 122.85596259316662,98.99188852352381 121.7225776965206,99.27465067254161 120.76575024609338,99.4606775422144 119.68362396289012,99.76576013109297 118.88626775419107,99.90713924498777 118.71540570945945,99.97410816136835 118.59010687668342,100.06339991227287 118.45341724087484,100.18245533556546 118.40785402894835,100.22710104723228 118.38507242299966,100.27174671960529 118.32242300658254,100.35359701681955 118.1116931514407,100.5842653254731 117.82692307693651,100.83725516714912 117.66745183520834,100.97119045468207 117.5649346083519,101.12000702594742 117.34850935169379,101.33579027851738 117.18334270847845,101.44740194541009 117.13777949652285,101.52180958685858 117.09791168611264,101.57389487090768 116.68784277877421,101.95337175423992 116.55684854451101,102.08730409390773 116.39737730278284,102.28820194012224 116.12969343271106,102.54862388955735 115.88479116861708,102.76440106310838 115.80505554773845,102.81648507089267 115.65697510898462,102.86856902517684 115.52028547320515,102.9578556794986 115.44054985235562,103.09922589399503 115.37220503445133,103.26291722898895 115.34372802701546,103.3075602286408 115.269687807624,103.41172707501391 115.06465335396933,103.59773876844702 114.47233159892494,103.99952169783865 113.82875123046688,104.38642076944961 113.40159611872514,104.60219012345624 111.92648713258677,105.48757889481567 111.02661369708949,105.98606829250639 110.97535508367582,105.98606829250639 110.89561946282629,105.89678696952978 110.73045281958184,105.57686093816665 110.54819997187587,105.26437309874746 109.9729644213221,104.31945767983052 109.42051047674613,103.36708416705005 109.27812543947948,103.10666642069191 109.15852200816153,102.8388067721462 108.99905076643336,102.60070811895275 108.91931514558382,102.63791110722013 108.78832091129152,102.73463874892332 108.64593587399577,102.83136620614823 107.59228659822838,103.31500072476774 107.19360849389341,103.54565556305897 107.09678666855325,103.62750057610538 106.13426381660975,104.15576975515432 105.49637884966796,104.47570475141401 104.16935030234163,105.18253072737934 103.81623540993314,105.34621533802056 103.3207354802289,105.56198060851966 102.9277527773811,105.69590341817093 102.88218956548371,105.70334356388048 102.80245394460508,105.66614282434603 102.78536774011445,105.62894205754128 102.69993671777775,105.35365553506927 102.43794824922225,104.67659313610784 102.35821262834361,104.39386110728083 102.25,104.10368712287163 102.25,104.07392559468644" stroke="#4dd2ff" stroke-linecap="round" stroke-linejoin="round" stroke-width="0.5"><title>2024-09-23 7.1km</title><desc>12480412433</desc></polyline><polyline fill="none" points="147.25,103.6918185089562 147.34130618569907,103.99002145459235 147.3869592785777,104.29567765767206 147.40978582497337,104.38513766199685 147.51821192054194,104.54914726083734 147.59810483304318,104.72061127543202 147.660877835704,104.89952963034739 147.79783711425262,105.3542776136419 147.9062632098212,105.60028712143321 147.9405030294438,105.63010637477055 148.03751585178543,105.67483522198381 148.08887558121933,105.6673804168422 148.65953924195492,105.49591959690588 148.9391644356947,105.39155185803975 149.0761237142433,105.32445819842906 151.0905664365273,104.25840260940095 151.4672044525796,104.07202695786691 151.8837889248971,103.90801581900087 152.30608003382804,103.6321777098201 152.97946315343142,103.24451080909057 153.3104480766342,103.07304181343716 153.7441524587921,102.87175138454404 154.02948428911623,102.71519161077595 154.10937720164657,102.7002811309685 154.1892701141187,102.7897439441731 154.37188248554594,103.17741431450486 154.6572143159283,103.65454301770296 154.78846695789252,103.84092020052776 154.8968930534029,104.0347517455084 155.07950542483013,104.31804267353436 155.3077708890778,104.65351672993711 155.47326335072285,104.9591689419758 155.5816894462332,105.10826691483817 155.81566154712345,105.51828408448637 155.9640340989281,105.82393109501572 156.03822037481586,105.86120499491881 156.1352331971284,105.86120499491881 156.2037128364027,105.92829794584031 156.3406721149804,105.9357527127031 156.50616457656724,105.86865977160414 156.82002958995872,105.69719963082389 158.63474003100418,104.63115186173309 158.78311258277972,104.54169229054241 158.98855150063173,104.45223256186364 160.07281245596823,103.81855497469587 160.36385092293494,103.60235728400221 160.64347611667472,103.3637932474303 160.88315485414932,103.11777291157341 161.02011413275613,102.99848989572638 161.51088488093228,102.5213550320259 161.61360433985828,102.43934702612387 161.83045653093723,102.29769652232062 161.91034944343846,102.22314346696658 162.264160913066,101.8205550777966 162.315520642529,101.74600132235355 162.366880371992,101.64162588094405 162.46389319430455,101.53725022512663 162.6122657461092,101.40305263828122 162.92613075947156,101.14956734052976 163.26852895590127,100.80661463062643 163.53103423980065,100.5233041242318 163.77071297730436,100.29218122530438 163.99897844161023,100.1356135028509 164.18159081300837,100.03869038529956 164.43838946032338,99.93431143651469 164.9006270254904,99.80010961584048 165.2772650415718,99.71064153846237 165.81939551924006,99.63608468695747 165.93923488797736,99.5913505235294 166.2416866281419,99.52424920455451 166.65256446387502,99.39750202690993 166.95501620403957,99.330400451905 167.21752148796804,99.24838729544717 168.15911652811337,99.02471437767963 168.59282091024215,98.89796595382722 169.76268141466426,98.65937982760806 170.31051852894598,98.50280707337515 170.7556361843017,98.42079258096055 171.22928702269564,98.30149853746116 171.52032548963325,98.24185141068665 171.79995068340213,98.16729240374116 172.0795758771419,98.10764511938032 172.42197407357162,98.00326220326315 173.7345004931558,97.71248009178089 174.1282584190485,97.60809636373233 175.73752994224196,97.25766370818019 176.19976750743808,97.1234548169632 176.60493870652863,97.04889416866718 176.9188037198619,96.98178949160501 177.24978864309378,96.92959690375937 177.86039876003633,96.76556270708534 178.36258278149762,96.64626477684578 178.80770043679513,96.57170342816971 179.0359659010719,96.5642472872969 179.28705791180255,96.57915956797297 179.49249682965456,96.60898411619928 179.6237494716188,96.64626477684578 179.90908130197204,96.75810659465787 180.61099760461366,97.04889416866718 181.0332887135446,97.24275162668346 181.63248555728933,97.45897638022507 182.06048330280464,97.64537629123879 182.4314146823017,97.72739203542369 182.84799915459007,97.7721278400677 183.0477314358286,97.76467187537128 183.8923136536323,97.66028825457761 184.17193884740118,97.64537629123879 184.64558968579513,97.54844842287275 184.95374806257314,97.51862442616039 185.39886571792886,97.45897638022507 186.18638156968518,97.39187224486523 186.5630195857375,97.3396800782939 187.544561082148,97.2278395407775 187.6301606312627,97.2278395407775 187.75,97.25020766797024" stroke="#4dd2ff" stroke-linecap="round" stroke-linejoin="round" stroke-width="0.5"><title>2024-09-20 7.1km</title><desc>12458958082</desc></polyline><polyline fill="none" points="52.75,146.0739188951411 52.71568765884149,146.08139073965867 52.72712510591373,146.02161595289363 52.70996893531992,145.98425667552874 52.635625529510435,145.9543692338957 52.46406382377609,145.93942550649444 52.2639085004339,145.93942550649444 52.14953402991523,145.96184109594105 51.840722959605046,146.0589752028318 51.291725501272595,146.118749945741 50.91428974864539,146.12622178365928 50.6054786783352,146.09633442538689 50.39960463147145,146.10380626659025 50.228042925707996,146.14116545622528 49.96498164359946,146.17105278820236 49.76482632022817,146.2158837532661 49.23298503248952,146.27565831192987 49.027110985596664,146.35784821550624 48.9127365151071,146.38773542028503 48.58676927420311,146.4176226075033 48.39233267438249,146.44750977719377 47.9405535159749,146.4624533554379 47.52880542218918,146.44750977719377 47.39727478113491,146.45498156686517 47.374399887019536,146.4624533554379 47.36868116352707,146.48486871461137 47.07130754023092,146.4101508123349 46.89402711100411,146.35037641158124 46.430810505495174,146.10380626659025 45.481502400449244,145.71526906921645 45.39572154759662,145.6779095670281 45.3270968652796,145.62560621793818 45.22987856538384,145.56583089604464 44.720912171702366,145.34914476579797 44.41210110136308,145.28936911927667 44.18907088393462,145.25948126972798 43.89741598418914,145.24453733835617 43.61719853148679,145.25948126972798 43.29695001410437,145.31178499495945 42.94810787914321,145.40144839891582 42.553515955922194,145.46122391383324 42.13604913864401,145.56583089604464 41.74717593900277,145.68538146966966 41.26108443943667,145.77504421564663 40.752118045755196,145.90206616883006 40.220276757958345,146.00667224523568 39.15087545890128,146.27565831192987 38.88209545327118,146.30554556494099 38.750564812187804,146.32796099318875 38.6247528946551,146.37279182008206 37.96138096583309,146.54464295747675 37.835569048300385,146.59694536240931 37.68688223665231,146.64177595242654 37.32088393109734,146.70155001107923 37.21794690765091,146.7314370140739 37.20079073708621,146.7239652649696 37.15504094888456,146.7239652649696 36.98919796667178,146.7762674856749 36.40588816718082,146.9107586636528 35.9598277322948,147.0303060791448 35.559517085552216,147.09755137700267 35.31933069755905,147.18721163600276 35.08486303302925,147.21709835389265 34.82180175092071,147.29181507190515 34.66739621575107,147.30675840233744 34.58161536286934,147.32917338979314 34.49011578649515,147.3217017284187 34.444365998293506,147.33664505009074 34.26708556903759,147.4188332408885 34.14127365150489,147.4412481789841 34.009743010421516,147.44871982281256 33.62086981078028,147.53090783269727 33.346371081628604,147.61309570990124 33.19196554645896,147.67286862817855 32.7344676645007,147.81482902781136 32.39706297655357,147.88207328948556 32.00818977688323,148.00908998590967 31.442036147986073,148.08380554164978 31.21900593052851,148.15104944807536 30.898757413146086,148.2033502027807 30.509884213504847,148.32289458325613 30.06954250211129,148.42002418569245 29.64635696131154,148.54703954006618 29.165984185267007,148.7338262502999 28.920079073723173,148.90566941849102 28.18808246255503,149.36142457744427 27.99364586273441,149.50338026912868 27.604772663093172,149.91430240877526 27.40461733972188,150.10855535671726 27.244493081059773,150.2355664989118 27.1129624399764,150.38499096646774 26.86705732840346,150.6091268456039 26.695495622698218,150.79590599119547 26.59827732280246,150.8930308761337 26.44387178760371,151.07980898029928 25.96921773510985,151.52807363496322 25.717593900015345,151.73726245660873 25.63753177068429,151.82691454568703 25.437376447313,152.12575370253035 25.34015814741724,152.23034699307755 25.23722112394171,152.31252728493928 23.91047726632678,153.12685209937263 23.796102795837214,153.20903094436653 23.14416831402923,153.5676279887375 21.948955097410362,154.26987321908382 21.39995763907791,154.56869803940572 21.148333803983405,154.72558036812188 21.05683422763832,154.7554626616402 20.953897204162786,154.6732863122561 20.931022310105618,154.62846279305813 20.78233549845754,154.3595208493134 20.570742728043115,154.02334142221662 20.19330697544501,153.35097590971418 19.5470912171877,152.2677016876587 19.038124823506223,151.33382610246554 18.75218864728231,151.54301572215627 18.580626941547962,151.64013918200362 17.43116351313074,152.23781793419403 17.213852019194746,152.34241099455903 16.098700931936037,152.96249401145906 15.349548150232295,153.34350513194295 14.445989833388012,153.858986227875 13.605337475280976,154.26987321908382 13.342276193172438,154.3520502194806 12.976277887588367,154.44169770502413 12.879059587692609,154.4566389372958 12.850465970055666,154.44169770502413 12.798997458332451,154.3669914780403 12.684622987842886,154.02334142221662 12.530217452702345,153.63486465344613 12.47874894097913,153.44809592119782 12.25,152.83548967112074 12.255718723521568,152.8429605234196" stroke="#4dd2ff" stroke-linecap="round" stroke-linejoin="round" stroke-width="0.5"><title>2024-09-20 7.0km</title><desc>12455295877</desc></polyline><polyline fill="none" points="57.25,152.4589811811893 57.26708380205673,152.6300867974387 57.37528121485957,152.93509972478205 57.409448818914825,153.15827875312607 57.67140044993721,153.7311004297335 57.75112485938007,153.98403261705243 57.785292463435326,154.17745049726 57.87640607423964,154.3931849548062 57.9333520809887,154.4824541170383 57.995992688433034,154.54940588560567 58.081411698512966,154.54196680456153 58.810320584947476,154.32623298001272 59.05518841397134,154.22952441587768 59.81257030373672,153.79061399906277 60.404808773892,153.5004846887423 61.33302868390456,153.00949284336457 61.81137514061993,152.78631316016617 62.09041057366994,152.61520807109628 62.92182227221201,152.1614048211486 64.01518560180557,151.61088395105617 64.08352080991608,151.55880734308448 64.17463442069129,151.41745628038552 64.44228065243806,151.31330261361654 65.06299212598242,150.9487630950498 65.36480596178444,150.86692733271775 65.64953599550063,150.62885890938196 65.90009842521977,150.4651862199462 66.56067210348556,150.0634419239468 66.93082114733988,149.8551288135277 67.2326349831128,149.72121279059138 67.3294431946124,149.65425464648433 67.49458661416429,149.51289827409346 67.73375984252198,149.33434229299382 68.21210629920824,149.01442792089438 68.5993391450902,148.77635079902757 68.96948818897363,148.56803240031877 69.4933914510475,148.30019320137217 69.78951068615424,148.16627307126691 69.8692350955971,148.1588330536797 69.89201349829091,148.17371308778456 69.94895950503997,148.24067318723974 70.09132452192716,148.50851270059502 70.18813273339765,148.64987187332736 70.41022215972771,148.91770922498836 70.8828740157769,149.5277779108037 71.48650168729364,150.51726395116566 71.5890044994303,150.6958157664194 71.64595050620846,150.8074103316976 71.78262092240038,151.0157195296597 71.83956692914944,151.1421925537361 71.9420697412861,151.03059872531594 72.35777559052804,150.5023846048498 72.49444600674906,150.37590998482483 72.78487064116052,150.16759815819387 72.88737345329719,150.05600218473046 73.13793588301633,149.76585150420942 73.66753374578548,149.21530462292503 73.77573115861742,149.14090593720903 73.90670697414316,149.05906725679233 74.29393982002512,148.86562985075943 75.00007030370762,148.64243192669892 75.54675196847529,148.553152481938 75.86564960627584,148.4489929310257 76.17885264341021,148.3894730915781 76.5831692913489,148.28531320438924 76.89637232845416,148.22579317277268 77.3804133858066,148.08443281765358 77.89862204727251,147.97283225887077 78.47377671540016,147.8165910638818 78.85531496061594,147.74219032561086 79.27102080991608,147.600828622064 79.54436164229992,147.48922699874674 79.84048087740666,147.39250539316708 80.01701349832001,147.3701849964309 80.4213301462296,147.34786458988674 80.90537120358204,147.25114271459825 81.23565804274403,147.19906162840198 81.63428008998744,147.0725787677402 82.06137514061993,146.9832965584501 82.34041057369905,146.90145439518164 82.65361361083342,146.8493729497568 82.8700084364391,146.78241101272943 83.33127109112684,146.67824782377647 83.71280933631351,146.54432340922358 84.139904386946,146.47736106927914 84.43032902135747,146.39551808922624 84.74922665915801,146.33599583892646 85.09659730034764,146.24671233246045 85.82550618672394,146.10534645895677 86.5885826771555,145.89701708477878 86.86761811023462,145.88213638243542 87.18651574800606,145.7854117107272 88.04640044993721,145.60684260118796 88.32543588301633,145.53243861992814 88.6841957255383,145.48035576806797 88.95184195725597,145.45059411439797 89.10559617547551,145.458034529438 89.46435601799749,145.5249982157984 89.82881046118564,145.65148493754532 90.06798368954333,145.72588874411304 90.79119797525345,146.0681448477917 91.61122047246317,146.37319725357156 91.99275871764985,146.55176366374508 92.38568616422708,146.63360639156235 92.86403262094245,146.67824782377647 93.02917604046525,146.67080758780867 93.17723565801862,146.64848687333506 93.52460629920824,146.55920391718246 93.66697131609544,146.53688315358886 94.08267716536648,146.5294428968773 94.25351518561365,146.51456238016908 94.91408886390855,146.39551808922624 95.45507592801005,146.34343612403245 95.82522497186437,146.2839138125928 96.39468503935495,146.23927203314088 97.10081552309566,146.16486898005678 97.43110236222856,146.1202270957874 97.52791057366994,146.10534645895677 97.61332958380808,146.0458238679821 97.64749718786334,146.00862221311036 97.69874859391712,145.90445743429882 97.7272215973062,145.874696029623 97.75,145.88213638243542 97.74430539933383,145.88957673414188" stroke="#4dd2ff" stroke-linecap="round" stroke-linejoin="round" stroke-width="0.5"><title>2024-09-19 7.0km</title><desc>12450830462</desc></polyline><polyline fill="none" points="142.75,146.09949285982657 142.52317278075498,146.1069019343886 142.36439372727182,146.12172008026755 142.31902828341117,146.05503838958248 142.26232147859992,146.01058388018646 142.21695603473927,146.00317479148725 142.06384766174597,145.99576570168938 141.62720526463818,146.01799296780882 140.385326239164,146.13653822178821 139.21149537945166,146.26990129978367 138.8882665919955,146.29953749149354 138.25315037806286,146.42549111217886 137.54998599831015,146.51439936108727 137.30614673762466,146.5218083747568 136.9545645477483,146.49217231352668 136.61999439934152,146.3958549943818 136.3534724166966,146.27731034935277 136.02457294877968,146.1069019343886 135.71835620276397,145.96612933166034 134.47647717726068,145.45489920986802 134.15891907029436,145.3511707272919 133.97745729490998,145.30671559807524 133.81867824139772,145.29189721296643 133.5011201344314,145.28448801879858 133.36502380287857,145.30671559807524 132.32728927471908,145.52158169326867 131.87930551666068,145.6030823867004 131.544735368283,145.6994012183859 130.92096051527187,145.83276545118497 130.4843181181932,145.95872023642005 129.45225427052355,146.18099262027317 129.13469616355724,146.26249224911953 128.41451974236406,146.41808208435395 128.13665639876854,146.49217231352668 127.17831139737973,146.68480640052803 126.69063287595054,146.80335008871043 125.9421030523954,146.9959829883519 125.51680201623822,147.09229916254117 124.85900308037526,147.24788644034925 124.47906748810783,147.32197545172312 123.7929151498538,147.50719750451026 123.19749369926285,147.62573926163896 122.36957434893702,147.84059548704317 121.8478717446269,147.95913646135887 121.03696443577064,148.15917372437252 120.70806496779551,148.2110351076226 120.12965555867413,148.3740276796343 119.23368804258644,148.57406329875812 118.88210585271008,148.67037646235622 118.72899747974589,148.7222373205077 118.58723046764499,148.81114152479495 118.37174460935057,148.98894946372457 117.75931111734826,149.5594123737137 117.24894987398875,150.10764338228546 117.12986558387638,150.18172819713072 116.9994399328134,150.3447144071688 116.23956874827854,151.122595888879 115.80292635117075,151.51523627594725 115.6044525343168,151.6411768854232 115.50238028567401,151.71525945012763 115.42866143939318,151.79675014574605 115.4003080370021,151.83379132757182 115.28122374686063,152.07826244601893 115.23585830302909,152.14493618195775 115.1961635396292,152.1967934712775 115.07707924951683,152.30050789015877 114.53269392327638,152.64869045255546 113.21709605155047,153.42653643988524 112.64435732288985,153.78211918602756 111.69735368248075,154.31548861024567 111.1416269952606,154.65624945954187 111.06790814900887,154.6932885437309 110.98851862226729,154.71551198120142 110.89211705405614,154.65624945954187 110.80705684682471,154.522908531515 110.6936432372313,154.31548861024567 109.9507840941369,153.07095118966026 109.61621394570102,152.53016048809877 109.4007280874066,152.11530342130573 109.08884066090104,151.54486938879563 108.94707364885835,151.33002892663353 108.86201344162691,151.36707045085495 108.75427051249426,151.47078657406746 108.60683281996171,151.57450248423265 107.86964435732807,151.9078736096708 107.46135536264046,152.16716074105716 107.13812657521339,152.33014054214073 107.03605432654149,152.39681394548097 106.82623914870783,152.50052795351075 106.60508260995266,152.62646610542288 106.11173340800451,152.87834146688328 104.73942873146734,153.61914407153745 104.26876225147862,153.88583034863404 104.21772612712812,153.93027792455177 104.18937272473704,154.00435713081242 104.14967796139535,154.0339887828668 104.07028843459557,154.07843622836663 104.01358162981342,154.10806783696898 103.52023242789437,154.22659409746484 102.91914029687177,154.41919867739125 102.87377485301113,154.41919867739125 102.79438532624044,154.37475153184278 102.67530103615718,154.0117650454522 102.4428031363932,153.41172043777988 102.36341360965162,153.1450316566188 102.25,152.8338929649799" stroke="#4dd2ff" stroke-linecap="round" stroke-linejoin="round" stroke-width="0.5"><title>2024-09-19 7.1km</title><desc>12446825930</desc></polyline><polyline fill="none" points="147.25,152.5835478645422 147.28419164204388,152.7249951761587 147.45514985223417,153.26844696883563 147.58051920641446,153.5438929150987 147.66029970452655,153.75233750216285 147.7913676656608,154.17666848004228 147.87684677078505,154.39255480865904 147.92813423383632,154.48188681389001 147.9623258759093,154.50421979062594 148.0535035880166,154.54888571462652 148.10479105106788,154.5414413966937 148.74303503587726,154.3404443996369 148.9367876741162,154.25855650590165 149.39267623471096,154.0352252150078 151.23902490502223,153.05255585763007 151.9399535669072,152.7101060040295 152.43003376951674,152.41976627429904 153.06827775432612,152.07731214996966 153.54696074291132,151.84652654515594 154.0313423385378,151.5934056425649 154.4359434360813,151.31794910789904 155.0228999578103,151.02760141199906 155.85489658082952,150.49901544344175 156.3221823554195,150.23099791880304 156.74957788095344,149.9629789783612 157.17127479950432,149.71729370588946 157.82661460532108,149.35248610656708 157.98617560151615,149.2408097864536 158.3508864499745,148.95045020377802 158.63581680034986,148.77176655771473 159.05181511185947,148.54841111517453 159.71855213170056,148.22082135414894 159.85531869987608,148.1761498592059 159.88951034191996,148.19104036188583 159.95789362603682,148.25804756989237 160.11175601519062,148.5633015086205 160.2257281553466,148.74198588885338 160.60753482484142,149.17380387639787 160.8582735331438,149.48649736622974 160.99504010131932,149.6949586221599 161.3369565217581,150.29800243268983 161.49651751795318,150.55112979770274 161.62758547911653,150.7893661641465 161.84413254537503,151.13182898118612 161.94670747150667,151.02760141199906 162.31711692697718,150.5660196033641 162.44818488814053,150.4171213499867 162.89837484172313,150.05231878249833 163.02374419587431,149.92575401355498 163.2573870831693,149.6428433884539 163.6619881806837,149.23336468971684 163.8614394259057,149.07701740564153 163.99820599411032,148.99512101694927 164.45979316168814,148.8164375282322 165.14932460954878,148.61541785119334 165.7989658083534,148.49629470379296 166.28334740397986,148.39206172035847 167.24641198819154,148.10914254307136 168.4431194596982,147.84111239344202 169.35489658082952,147.61775285376643 169.81648374840734,147.52840876255868 170.09571549177053,147.44650987404384 170.64848037145566,147.32738398206857 171.09867032506736,147.20825781034 171.554558885633,147.126358405043 172.83674546223483,146.79131400655388 173.74282397638308,146.5828408196685 174.30698607006343,146.41159434672227 175.35552975942846,146.21801068124842 176.64341494304244,145.92018821504462 176.85426340225968,145.8606235120169 177.30445335584227,145.78616753484675 178.47266779234633,145.51067946924013 178.77469396369997,145.45855993718578 178.94565217391937,145.45111428536984 179.29326720134122,145.48089688604523 179.50981426762883,145.52557075426012 180.24493457158678,145.79361313749177 180.85468552133534,146.06909966669627 181.96591388774686,146.51583139909053 182.09128324189805,146.55305886589122 182.41610384130036,146.62006823729462 182.78651329674176,146.6647411023987 182.9802659350098,146.6647411023987 183.72108484595083,146.5828408196685 184.10289151541656,146.53072238910318 185.06595609962824,146.37436677610822 185.68140565641806,146.31480260632452 187.6873153229244,146.08399078782531 187.71010975097306,145.93507937988034 187.72720557198045,145.88296028382683 187.75,145.87551469431492" stroke="#4dd2ff" stroke-linecap="round" stroke-linejoin="round" stroke-width="0.5"><title>2024-09-18 7.0km</title><desc>12442293676</desc></polyline><polyline fill="none" points="52.75,194.7725462420458 52.68132683340809,194.7127291796569 52.58976261128555,194.6902977631471 51.27924968206207,194.80245474688854 50.71269605765701,194.86227170392158 50.11752861380228,194.9071343756077 49.671153030969435,194.9893825044237 49.25911403138889,195.01929088199176 48.92147096226108,195.0940617490778 47.94860110216541,195.23612609422707 47.662462908017915,195.23612609422707 47.39921576940105,195.1987407786619 47.04440440866165,195.0940617490778 46.79832556168549,194.9893825044237 46.58658329801983,194.86227170392158 46.32333615940297,194.7426377196134 45.81973293767078,194.55570905674176 44.955595591367455,194.17437245776455 44.69234845275059,194.07716855443505 44.532111064036144,194.03230515187897 44.36615091143176,194.00239619490094 44.017062314553186,193.9799644656414 43.86254768972867,193.98744170984355 43.26738024590304,194.09960024088286 42.9068461212446,194.18932688796122 42.386074607871706,194.26409897312988 42.16860958037432,194.31643936745604 41.830966511246515,194.42111999480403 40.88098770668148,194.64543490052893 40.41744383214973,194.72020631630585 40.045464179769624,194.83236323418532 39.35873251379235,194.99685960047645 38.9638618058525,195.06415341542015 38.00816023742664,195.28098843672342 37.60184400170692,195.35575891973713 37.40154726582114,195.4080981925581 37.3958245019021,195.4080981925581 37.3958245019021,195.43052929303303 37.195527766045416,195.4903455126514 36.766320474795066,195.56511568842325 36.23982619756134,195.71465571076624 35.741945739719085,195.8118564899196 35.19828317084466,195.95391883358752 34.969372615538305,196.02121138442453 34.18535396354855,196.20065775216062 33.98505722763366,196.26794997711477 33.71608732515597,196.31281141102954 33.229652395122685,196.4399185926377 32.846227214933606,196.50721050159336 31.43270453583682,196.86609918163595 30.92910131413373,196.94086733842778 30.69446799493744,197.02311218421528 30.39116150912014,197.10535689722383 29.097816871566465,197.41938094387297 28.920411191211315,197.50162501724117 28.622827469283948,197.73340305513557 28.371025858446956,197.99508666943075 27.958986858837306,198.36144147158484 27.501165748224594,198.8399417358487 27.40960152610205,198.90723047512438 27.277977956808172,199.05676068870162 27.08912674864405,199.22871989180203 26.9288893599296,199.40067851457206 26.780097498965915,199.53525442326645 26.522573124209885,199.82683433939746 26.242157693952322,200.0810308536311 26.047583721927367,200.27541556770302 25.830118694371777,200.4398943619526 25.721386180608533,200.53708612717674 25.624099194596056,200.64923024130258 25.45813904199167,200.90342265292202 25.26928783385665,201.08285182708642 25.05182280630106,201.23237565625095 23.8958245019312,201.9276556983168 23.44372615517932,202.1743656909639 22.144658753706608,202.9518681571244 21.72689699026523,203.1611937173402 21.326303518435452,203.4004218761147 21.211848240811378,203.4976079948283 21.171788893610938,203.5200355343586 21.1317295464396,203.5125596889484 21.10311572701903,203.4976079948283 21.051610852067824,203.43780117446659 20.85131411618204,203.09391059532936 20.67390843576868,202.7500176954527 19.69531581181218,201.11275662802655 19.294722340011504,200.40998916611716 19.237494701170363,200.2903682073047 19.248940228950232,200.2903682073047 19.134484951297054,200.08850720250484 19.07725731242681,200.11841258699133 18.928465451463126,200.24551027533744 18.836901229369687,200.30532084249353 18.527871979691554,200.4548469532674 18.19595167445368,200.63427770702037 17.331814328121254,201.07537562410653 16.87399321750854,201.33704207561095 16.58785502333194,201.47908901515257 15.975519287865609,201.82299049210633 15.523420941084623,202.04727281361193 14.642115303111495,202.5257384669494 14.275858414592221,202.6902099977051 14.018334039865294,202.83225316524477 13.829482831730274,202.92196443549983 13.297265790606616,203.11633831255313 13.011127596459119,203.21352497303087 12.953899957617978,203.2060490826625 12.919563374336576,203.18362140492536 12.902395082695875,203.1537178192666 12.799385332793463,202.83972911047022 12.50752437475603,202.0547488740085 12.45029673591489,201.8753231220835 12.358732513792347,201.62861168162635 12.347286986041581,201.58375492774576 12.353009749902412,201.58375492774576 12.324395930481842,201.57627879824577 12.27289105555974,201.59870718340608 12.278613819449674,201.56880266768349 12.25,201.53889813438218 12.341564222151646,201.66599227968618" stroke="#4dd2ff" stroke-linecap="round" stroke-linejoin="round" stroke-width="0.5"><title>2024-09-18 7.1km</title><desc>12438003381</desc></polyline><polyline fill="none" points="57.34159010605072,201.412536058946 57.29579505303991,201.4424491028767 57.25,201.43497084354385 57.25,201.4424491028767 57.29579505303991,201.5621011030271 57.31296819791896,201.6368834604982 57.37021201415337,201.79392605404064 57.43890459366958,202.0182717769094 57.50759717315668,202.13044426807755 57.55339222619659,202.31739787142942 57.6564310954418,202.54921938729603 57.72512367492891,202.79599597146807 57.81671378095052,203.03529333636106 57.845335689082276,203.08016146719456 57.845335689082276,203.147463589401 57.85106007070863,203.13998558021922 57.87968197884038,203.13250756993875 57.873957597184926,203.1549415975096 57.88540636046673,203.19980962302725 57.931201413448434,203.2895455556245 57.971272084861994,203.31945749804072 58.017067137843696,203.31945749804072 58.32045936398208,203.21476562277894 58.53226148412796,203.1624196045159 58.9329681978852,202.99790319712338 59.17911660778918,202.87077651865548 59.31077738519525,202.7810398488582 59.45961130745127,202.71373724282603 59.665689045970794,202.57165367159178 59.711484098952496,202.57165367159178 59.75155477033695,202.53426319230493 59.877491166087566,202.46696026041536 60.05494699650444,202.3996572396827 60.1408127208997,202.35478850981235 60.19805653713411,202.3398322577741 60.5815901060123,202.13044426807755 60.62166077742586,202.100531627897 60.9422261484433,201.95096816372825 61.19982332159998,201.79392605404064 61.34293286220054,201.73410036118366 61.3944522968377,201.689231045435 61.45169611310121,201.68175282230004 61.98978798589087,201.4050577952221 62.02985865727533,201.35270991843936 62.13289752652054,201.3227968218489 62.29890459365561,201.22557913667697 62.424840989435324,201.1732310755615 62.71106007072376,201.0236648903956 62.89996466433513,200.89653328793065 62.98010600707494,200.86661992361405 63.12893992936006,200.7768797253666 63.306395759718725,200.69461773815055 63.535371024743654,200.5600069272732 63.615512367512565,200.53757175754436 63.99904593641986,200.3431332063592 64.00477031801711,200.3356547857402 63.99904593641986,200.3206979411916 64.05056537105702,200.28330581062983 64.14215547704953,200.2384352177287 64.22802120144479,200.16365080846663 64.3997526501771,200.06643091236037 64.52568904595682,200.02156012853447 64.60583038872574,199.96921083081907 65.1668197879917,199.69250650682807 65.28703180211596,199.61772129654128 65.33282685515587,199.595285712061 65.81939929330838,199.25875075964723 65.99685512369615,199.15405054348957 66.07699646643596,199.09422175195505 66.21438162546838,199.0269142775469 66.4433568904933,198.87734179394465 66.48915194347501,198.8623845214388 66.8154416961188,198.6380249071699 66.93565371027216,198.59315286581113 67.06159010602278,198.50340866455736 67.1989752650552,198.428621709445 67.25049469969235,198.42114300791582 67.2676678445423,198.39870689670352 67.37643109544297,198.33139850376392 67.47374558306183,198.25661129627042 67.58823321558884,198.2042601857247 67.77713780920021,198.09207905347648 67.90307420497993,197.97241890693476 68.33812720849528,197.68822493286643 68.72738515902893,197.4563813066161 68.83614840992959,197.37411395992967 68.95636042405386,197.3217619428906 69.07084805655177,197.23949437886404 69.27692579507129,197.1647055690919 69.51162544172257,197.03756434057868 69.68908127211034,196.9702541500301 69.80929328626371,196.9029438705511 69.89515901060076,196.87302816227384 69.91233215550892,196.88050709098388 69.94095406364067,196.91042279487738 69.95812720849062,196.95529631781756 70.16420494701015,197.3367196675099 70.25007067140541,197.47133899176697 70.34738515905337,197.56108501037306 70.5649116607965,197.8378009062253 70.60498233218095,197.8677160482257 70.6336042402836,197.9425038263762 70.74809187281062,198.05468528785786 70.91982332157204,198.27904747003413 71.02286219081725,198.443579109251 71.0400353356963,198.45853650466597 71.31480565373204,198.94464946588778 71.33197879858199,198.98204257855105 71.41784452297725,199.12413615649348 71.48653710249346,199.21387926476746 71.64109540634672,199.49058618719573 71.70406360426568,199.55789304930295 71.73840989402379,199.61024276948228 71.8528975265217,199.8420765982337 71.85862190814805,199.87199056384634 71.8643462897744,199.8794690525101 71.95021201414056,199.80468411655238 71.97883392230142,199.75233459608353 72.03035335690947,199.70746353574577 72.05325088341488,199.67754947356298 72.07614840992028,199.67754947356298 72.10477031805203,199.6326783473778 72.18491166079184,199.56537158404535 72.2822261484107,199.4457148964284 72.37954063605866,199.2811864922769 72.43106007069582,199.22883643411478 72.51692579509108,199.10917895641614 72.67148409894435,198.96708533678975 72.78024734984501,198.89977769447796 72.96915194348549,198.71281155500037 72.98632508836454,198.68289690903475 73.0607420495071,198.61558889144726 73.1065371025179,198.5557594678212 73.32978798588738,198.34635593209168 73.35268551239278,198.294004913736 73.48434628976975,198.1593877624473 73.62745583039941,198.03972777392482 73.74194346289732,197.9200675044558 73.92512367491145,197.80788574666803 73.99381625442766,197.74805537486827 74.14265017668367,197.67326731140201 74.3487279152323,197.59100031477647 74.3830742049613,197.56108501037306 74.62922261486528,197.4937755112078 74.7208127208578,197.47881783268167 74.8124028268794,197.44890246240902 74.93833922263002,197.42646592318852 75.01275618377258,197.38907166918943 75.19021201416035,197.3516773877709 75.23028268554481,197.3367196675099 75.35621908129542,197.3217619428906 75.6023674911703,197.25445212765771 75.65388692580746,197.26193100039382 75.75120141345542,197.22453662571206 75.83134275622433,197.21705774746079 76.0431448763702,197.14974779395925 76.07176678447286,197.15722668205854 76.23204946998158,197.1048744422369 76.36371024735854,197.07495885248863 76.4610247350065,197.07495885248863 76.73007067138678,197.00016980123473 76.91325088343001,196.9702541500301 77.06780918731238,196.93285956129694 77.19946996466024,196.88050709098388 77.50286219085683,196.8057177543851 77.53148409893038,196.798238814692 77.55438162546488,196.81319669300137 77.65169611308374,196.7907598739148 78.51035335691995,196.58134908610737 78.60194346291246,196.57387011350147 78.90533568907995,196.4841223564399 79.22590106006828,196.42429043058655 79.35756183750345,196.3719374378561 79.54074204945937,196.34202141784772 79.73537102472619,196.28966834060702 79.75254416963435,196.2747103086549 79.89565371029312,196.21487813694694 80.03303886926733,196.17000396208823 80.18187279152335,196.14756685982138 80.29636042405036,196.10269262567454 80.45664310955908,196.09521358281927 80.5596819788334,196.0727764476469 80.70279151943396,196.02042309381068 80.80010600708192,196.0054649828162 80.87452296819538,195.97554874770867 81.04053003535955,195.9381534291242 81.0920494699676,195.9381534291242 81.16646643113927,195.91571622477932 81.31530035336618,195.8932790105755 81.44696113077225,195.85588363160423 81.509929328633,195.85588363160423 81.93353356892476,195.75117642453188 82.17968197882874,195.71378094129977 82.50024734984618,195.61655255648657 82.87233215547167,195.5492404890938 83.01544169613044,195.4968865974297 83.15282685513375,195.4744491988131 83.18144876326551,195.45949092759838 83.17572438163916,195.45949092759838 83.71954063605517,195.33982459973777 84.07445229683071,195.24259550146962 84.22901060071308,195.22015799089422 84.28053003535024,195.2126788184978 84.30342756185564,195.1902412947784 84.4007420494745,195.18276211801276 84.52667844525422,195.13788703432147 84.60681978799403,195.1229286643029 84.62399293287308,195.10797028989327 84.67551236751024,195.10049110106047 84.69840989398654,195.0855327200734 84.7499293286237,195.0855327200734 84.79000000000815,195.06309514034365 84.86441696115071,195.0705743346807 84.95600706714322,195.0406575507768 85.34526501770597,194.96586551410292 85.6085865724599,194.90603180573817 85.6314840989362,194.88359414699516 85.6887279151997,194.8686357023471 85.83183745585848,194.84619802714587 85.93487632513279,194.80132264707572 85.95777385160909,194.80880187981893 86.06653710248065,194.7788849422359 86.17530035338132,194.76392646684326 86.33558303889004,194.71157176839915 86.76491166077903,194.63677924877265 86.85650176680065,194.60686221018113 87.07402826854377,194.5619866193847 87.43466431097477,194.50963171346666 87.64646643112064,194.44231818402477 87.79530035337666,194.41240103127348 88.23607773851836,194.30769085834982 88.25325088339741,194.29273224464487 88.28187279152917,194.29273224464487 88.60816254417296,194.21793911029454 88.92300353356404,194.18054250196292 89.12335689045722,194.18054250196292 89.60420494701248,194.2403770621313 90.03925795055693,194.3974424483058 90.10222614841769,194.427359609821 90.11939929329674,194.44231818402477 90.14802120139939,194.44231818402477 90.41706713783788,194.5470280803238 90.6002473498229,194.62929999077824 90.73190812722896,194.67417552230836 90.84639575972687,194.71905101434095 91.10399293288356,194.84619802714587 91.20703180209966,194.8910733676894 91.27000000001863,194.8985525872631 91.29289752649493,194.91351102313638 91.39593639576924,194.9583863043881 91.47607773853815,194.97334472270813 91.56194346293341,195.02569915220374 91.69360424028127,195.06309514034365 92.10003533572308,195.2500746694568 92.2832155477081,195.2949496543697 92.55226148411748,195.347303753475 93.02166077739093,195.39217865276805 93.26780918729492,195.37722035737897 93.63416961132316,195.3173871319923 93.87459363960079,195.2949496543697 94.0463250883331,195.26503300215336 94.11501766784932,195.27251216683726 94.24095406359993,195.26503300215336 94.45848056537216,195.22763716218105 94.53862190811196,195.2051996450282 94.59014134274912,195.2051996450282 94.73897526503424,195.1603245810984 95.05381625442533,195.1229286643029 95.196925795055,195.11544947765287 95.54038869260694,195.0556159449152 95.95254416961689,195.0406575507768 96.0326855123858,195.0331783520378 96.07275618374115,195.01074074925782 96.32462897527148,194.99578234194632 96.43339222614304,194.97334472270813 96.71388692580513,194.95090709360375 96.82265017670579,194.92099023941773 96.8684452296875,194.92099023941773 96.9142402826983,194.90603180573817 96.96575971733546,194.92099023941773 97.57254416961223,194.85367725329706 97.63551236747298,194.83123957150383 97.70992932864465,194.8387187998669 97.73282685512095,194.80132264707572 97.75,194.7265302591477 97.75,194.65921701618572 97.73282685512095,194.62929999077824 97.7156537102419,194.62929999077824" stroke="#4dd2ff" stroke-linecap="round" stroke-linejoin="round" stroke-width="0.5"><title>2024-09-12 7.0km</title><desc>12392142310</desc></polyline><polyline fill="none" points="142.75,194.91002327070964 142.6644727580133,194.86532478268782 142.59034914826043,194.87277453341449 142.56754188373452,194.86532478268782 142.51622553853667,194.7833774523715 142.4592073771637,194.73867885282743 142.34517105450504,194.72377931089795 142.15701112206443,194.72377931089795 141.68946219910868,194.76847792357148 141.4898986344051,194.80572673740608 141.41007320850622,194.79827697680594 141.11928058569902,194.82807601257082 141.02234971142025,194.82807601257082 140.71445164017496,194.88022428304976 139.89339011686388,194.94727198066903 139.84777558778296,194.96217145701667 139.40303392935311,195.0217693186023 139.35171758415527,195.0441184986521 139.00390679994598,195.05901794655074 138.8043432352424,195.1186156944459 138.00608897648635,195.24526067636907 137.88064902153565,195.24526067636907 137.66968182459823,195.27505944971927 137.23634379843134,195.2601600652306 137.15081655638642,195.25271037135462 137.03107841758174,195.2154618855311 136.7117767140735,195.11116597980072 136.54072223007097,195.0292190463624 136.37536956218537,194.91747301489886 136.10738420387497,194.79827697680594 135.9876460650412,194.72377931089795 135.65123891312396,194.5822334443983 135.58281711954623,194.5449844665709 135.34334084190778,194.4704864289124 135.06965366748045,194.33638968557352 134.9955300577567,194.3214900255589 134.70473743489129,194.17249318484755 134.53368295088876,194.11289432611738 134.51657750247978,194.11289432611738 134.33982120233122,194.05329539738887 134.19727579897153,194.0234959067784 133.9635013374791,194.00859615491936 133.592883288773,194.03839565427188 133.3648106433975,194.0756450038498 133.22796705618384,194.12034418727853 133.20515979165793,194.13524390633756 133.14243981419713,194.13524390633756 133.02840349150938,194.15759347672065 132.86305082362378,194.16504333133707 132.73190905252704,194.20229258796098 132.58936364919646,194.22464212884006 132.31567647474003,194.29169069240015 132.23014923272422,194.29914052732056 132.15032380688353,194.32893985612463 132.0191820357868,194.33638968557352 131.95076024217997,194.35873916739 131.8766366324271,194.395988281889 131.2323314092646,194.51518526464133 131.03846966070705,194.58968323670342 130.6735534281761,194.67908065885058 130.280128114915,194.73122908240111 130.05205546953948,194.79827697680594 129.78407011122908,194.85042527792757 129.55029564976576,194.91747301489886 129.4590665915748,194.9547217193831 129.3108193720982,194.9770709289587 129.0656412783428,195.0441184986521 128.76344502324355,195.0888168292513 128.51256511334213,195.17076366644687 128.4669505842612,195.17076366644687 128.28449246799573,195.2229115848786 128.1305434323731,195.23781098030304 127.7827326481638,195.31975757696637 127.52615092214546,195.35700598625772 127.20114740252029,195.44640205705218 127.11562016050448,195.49110003341775 127.03579473460559,195.52089866246024 126.64807123751962,195.59539515851793 126.52833309868583,195.6326433655522 126.3344713501574,195.66244191152873 126.0037660143862,195.74438782268044 125.88972969169845,195.75183744440437 125.63884978179703,195.75183744440437 125.19410812336719,195.87848084651705 125.09147543291328,195.9231784424046 125.01735182318953,195.9455272255982 124.80068281010608,196.02002309849559 124.66383922286332,196.0498214170657 124.20199211602448,196.1988127474142 124.0594467126648,196.22861096102133 123.94541038997704,196.2360605116919 123.71733774463064,196.29565687765717 123.5006687315472,196.31800549685067 123.0901379698771,196.4669960400861 122.6739053921192,196.57128916015427 122.05240743348259,196.6681325797872 121.92696747856098,196.7053799997011 121.8471420526621,196.7500768675127 121.79012389131822,196.7500768675127 121.57345487823477,196.82457155969678 121.40810221034917,196.84691994605237 121.33397860059631,196.87671777921423 121.25415317472653,196.88416723477712 121.1059059552208,196.92141449613337 120.88353512602043,196.94376283985548 120.7124806419888,196.98101005750868 120.47870618049637,197.06295384014084 120.30194988034782,197.0927515464973 120.13659721246222,197.14489749051427 120.10808813179028,197.14489749051427 120.08528086723527,197.15979632182643 119.62913557651336,197.27153741726943 119.41816837957595,197.30133500116062 119.2014993664634,197.36093011652702 118.9335140081821,197.42797453766252 118.75675770803355,197.49501887026054 118.65412501760875,197.5620631143065 118.55719414332998,197.65145530196241 118.50587779810303,197.68870200037418 118.44315782064223,197.75574598862295 118.39754329159041,197.7780939650329 118.39184147544438,197.80044193159483 118.34052513021743,197.83023920506093 118.29491060116561,197.90473231218857 118.26640152049367,197.93452952443113 118.15236519780592,198.03881962953892 118.11815430101706,198.08351532328743 117.9813107138034,198.210152908523 117.95850344927749,198.2325006849096 117.92999436860555,198.2250514271982 117.89008165564155,198.2473991970037 117.64490356188617,198.5155716673653 117.5878854005714,198.5975129729668 117.46244544559158,198.74649682610834 117.30279459382291,198.89548024204123 117.25718006477109,198.92527687279653 117.24577643250814,198.9625226365897 117.25718006477109,198.9476243343306 117.19446008731029,198.9848700817529 117.0519146839506,199.1413019224783 116.83524567086715,199.3424278665516 116.64708573842654,199.56590020324074 116.5558566802647,199.64039076351764 116.41901309305103,199.81916766228096 116.07120230889996,200.12457674125108 115.92865690554027,200.2735561130794 115.87734056034242,200.31080088774252 115.7918133183266,200.34804563505895 115.7290933408367,200.40763717394657 115.5010206954903,200.6683493341152 115.43259890188347,200.83222486382147 115.40979163735756,200.83967373896303 115.35847529215971,200.9141624302938 115.15891172745614,201.07058832639086 115.05057722091442,201.14507667895305 115.01066450797953,201.1823208142414 114.95364634663565,201.1972184607148 114.91373363367165,201.23446255774616 114.78829367875005,201.29405305616092 114.62294101083535,201.40578505221856 114.4461847106868,201.50261924989172 114.42907926230691,201.52496557698396 114.36065746870008,201.56220943356675 114.33214838802814,201.56220943356675 114.2409193298663,201.62924830663542 114.0755666619807,201.71863333299189 113.87030128116021,201.87505675047214 113.516788680834,202.0687231710399 113.22029424190987,202.25494018645622 113.19178516120883,202.26238885285784 113.06634520625812,202.3592214167511 112.86107982543763,202.470951068688 112.8154652963567,202.50819423134453 112.78125439956784,202.51564286059875 112.66721807688009,202.59012909305238 112.01150922148372,202.95511005246954 111.7606293115532,203.08173548656487 111.60668027595966,203.17856648780435 111.48694213712588,203.23815470445697 111.42422215966508,203.25305174770983 111.33869491764926,203.2977428511913 111.22465859496151,203.32753689833407 111.09351682386477,203.44671291204213 111.02509503028705,203.491403845077 110.97948050120613,203.491403845077 110.95097142053419,203.47650687176792 110.81412783332053,203.20091207726 110.55754610727308,202.76144701298836 110.47201886528637,202.64226939074797 110.18692805856699,202.1506587419717 110.0842953681713,202.00168487828705 109.99876812615548,201.84526185096183 109.95885541322059,201.79312073474284 109.75929184851702,201.43558020964338 109.5882373645145,201.16742316337695 109.16060115443543,200.4001882354023 109.03516119951382,200.12457674125108 109.01805575110484,200.11712776119384 108.93252850908902,200.154372650617 108.75577220894047,200.28845402622028 108.4706814022502,200.43743291714418 108.17418696326786,200.5566157151261 107.85488525978872,200.70559381912972 107.57549626921536,200.87691809828902 107.51847810784238,200.92161129343367 107.2333873011521,201.0482417993262 107.19347458818811,201.08548600564245 106.9425946783158,201.24191137388698 106.9026819653809,201.2493601889073 106.83426017174497,201.29405305616092 106.49215120371082,201.46537534955132 106.17284950023168,201.65159457796835 106.14434041955974,201.65159457796835 105.97898775167414,201.74097956500555 105.71670420948067,201.90485163247286 105.59126425455906,201.95699263393544 105.24915528652491,202.1506587419717 104.53642826975556,202.51564286059875 104.34256652122713,202.64971800032436 104.27984654373722,202.6646152162175 104.1943193017214,202.70930683767438 104.08028297903365,202.8061385492074 103.86931578209624,202.88062435548636 103.78949035619735,202.88807293009813 103.75527945940848,202.9104186473778 103.73247219485347,202.91786721763856 103.71536674644449,202.9104186473778 103.61843587216572,202.9476614876803 103.58992679149378,202.95511005246954 103.52150499788695,202.99980141822743 103.29343235254055,203.08918403168354 102.88290159089956,203.2158091314268 102.83728706178954,203.19346354852678 102.8087779811467,203.16366942270542 102.79167253273772,203.1189782012152 102.75746163591975,203.02959564020057 102.7460580036859,202.97745574027067 102.71184710686794,202.91786721763856 102.68903984231292,202.82848430257218 102.61491623258917,202.64226939074797 102.59210896803415,202.55288599049527 102.57500351965427,202.53054011585118 102.48947627766756,202.26238885285784 102.42105448403163,202.10596662875832 102.36973813883378,201.91974906693213 102.28421089678886,201.71863333299189 102.25,201.62924830663542 102.25,201.6143507869201 102.25570181614603,201.60690202544356" stroke="#4dd2ff" stroke-linecap="round" stroke-linejoin="round" stroke-width="0.5"><title>2024-09-12 7.1km</title><desc>12388432138</desc></polyline><polyline fill="none" points="187.75,194.88986004709295 187.59150943398708,194.86767321477964 187.30283018868067,194.87506882664093 187.27452830187394,194.852881987812 187.24622641509632,194.79371703656943 187.20660377357854,194.7641345348893 187.12735849057208,194.7493432775409 186.96886792453006,194.74194764724598 186.6915094339638,194.77153016193188 186.62924528302392,194.80111265927553 186.54999999998836,194.78632141279013 186.30660377358436,194.80850828088296 186.23301886793342,194.82329952086002 186.0971698113135,194.82329952086002 186.01226415092242,194.84548637271655 185.75188679242274,194.852881987812 185.57075471698772,194.8824644373999 185.45188679246348,194.8824644373999 185.29339622642146,194.90465126317577 184.90849056604202,194.93423368236836 184.38773584904266,195.00818965436702 184.27452830187394,195.00818965436702 184.13867924528313,195.03777201277626 184.11603773586103,195.03037642479467 184.03113207546994,195.0525631854398 183.89528301887913,195.04516759965918 183.67452830186812,195.07474993635333 183.52169811321073,195.12651898377953 183.40849056604202,195.14131013042424 183.32924528303556,195.17089241066788 182.8764150943607,195.21526579849888 182.66698113208986,195.26703470157372 182.24245283019263,195.28922135804532 182.1915094339638,195.2744302548199 182.13490566037945,195.2818258069674 181.8858490565908,195.25224359183267 181.60849056602456,195.1782879780294 181.28018867922947,195.03777201277626 181.18962264151196,194.97860727858642 181.16698113206076,194.97860727858642 181.0198113207589,194.90465126317577 180.957547169819,194.8602776018488 180.57264150946867,194.6975738426263 180.45377358491533,194.6384087090264 180.2952830188733,194.5718478506751 180.13113207547576,194.52007823341046 179.54811320753652,194.24643794431904 179.20283018867485,194.15029370618504 179.18584905657917,194.12810654823988 178.97641509433743,194.0837322030966 178.9254716981086,194.09112792998712 178.83490566036198,194.06154501587298 178.76132075474015,194.06894074602315 178.58018867924693,194.03935781885593 178.49528301885584,194.04675355228392 178.5292452830181,194.05414928460596 178.34811320752488,194.05414928460596 178.18962264151196,194.09852365582628 177.99150943395216,194.12071082677357 177.84999999997672,194.16508513937515 177.68018867925275,194.17248085432948 177.3801886792644,194.26862505013196 177.24433962264447,194.25383364733352 177.15377358489786,194.2834164485903 176.9386792453006,194.32039492573676 176.87075471697608,194.33518630899562 176.84811320752488,194.349977687918 176.70660377357854,194.37216474815068 176.37830188678345,194.4609128914126 176.0839622641506,194.54966087836146 175.93679245284875,194.5718478506751 175.65377358489786,194.66059564226816 175.51792452830705,194.67538692565358 175.4386792452715,194.7049694794332 175.14999999999418,194.74194764724598 174.7820754716813,194.84548637271655 174.61792452828377,194.86767321477964 174.53301886792178,194.89725565567278 174.51037735847058,194.88986004709295 174.39150943397544,194.92683807920184 174.32358490568004,194.93423368236836 174.30094339622883,194.9490248854454 174.0745283018623,195.0155852455864 173.84811320755398,195.02298083571804 173.68962264151196,195.0673543537996 173.49150943395216,195.13391455766032 173.3443396226503,195.15610127271066 173.19716981131933,195.22266135934478 172.95377358488622,195.25963914725435 172.8801886792353,195.28922135804532 172.7952830188733,195.30401245690882 172.5745283018623,195.36317680903812 172.45566037733806,195.3927589590603 172.31415094339172,195.40755002755395 172.0028301886632,195.48890082666912 171.8216981131991,195.51848290286944 171.68018867925275,195.5702514944569 171.39150943394634,195.6220200328462 171.3632075471687,195.6368110340518 171.13113207544666,195.70337048573856 170.89339622642729,195.76253436897605 170.86509433962055,195.7551388873726 170.73490566035616,195.78472080727806 170.6556603773497,195.7921162845305 170.5198113207589,195.84388459502225 170.38396226413897,195.86607099750836 170.31603773584357,195.90304831331377 170.22547169812606,195.91783923203184 170.15188679244602,195.9326301463916 170.07264150941046,195.9326301463916 170.0839622641506,195.89565285231583 169.81226415091078,195.92523468974832 169.47264150943374,196.05835274330457 169.54056603772915,196.03616642545603 169.5066037735669,196.06574818042645 169.3990566037828,196.11012078027488 169.14999999996508,196.1692841859949 169.05377358489204,196.2136566946756 168.81603773584357,196.25063375542595 168.68584905657917,196.2950061924821 168.1650943396089,196.3911463387667 168.10283018866903,196.42812326926287 168.01226415095152,196.44291403386887 167.9160377358494,196.47989092637727 167.81415094339172,196.50207704887725 167.7405660377408,196.50207704887725 167.35566037733224,196.59821680011373 166.64811320754234,196.73872841430057 166.09339622640982,196.8940302689225 165.92358490565675,196.9162162090579 165.63490566035034,196.96798336477877 165.47641509433743,197.0345410583068 165.40849056604202,197.0419363521687 165.08584905657335,197.12328451290523 165.04622641508467,197.14547035215583 164.9160377358494,197.16765618161298 164.8990566037828,197.18984200132036 164.10660377357271,197.35253771400312 163.91981132075307,197.42649013703704 163.8349056603911,197.43388537337887 163.78962264151778,197.46346630786138 163.6424528301868,197.50044245156823 163.48962264150032,197.61137071987469 163.4613207547227,197.6631371615258 163.38207547168713,197.7001131587167 163.30283018868067,197.77406507169871 163.20660377357854,197.86280722406445 163.14999999999418,197.951549220139 163.01415094340337,198.06987163850863 162.94622641507885,198.15121813999576 162.74245283016353,198.3065156418561 162.54999999995925,198.49139299626768 162.5160377358552,198.53576346041882 162.48207547169295,198.55055360646293 162.45943396224175,198.58752895255384 162.3632075471687,198.67626967251272 162.24433962264447,198.83156555642563 162.17641509434907,198.88333074471666 162.10283018866903,198.90551580915053 162.08018867924693,198.92770086380187 162.06886792453588,198.97946595335088 162.04622641511378,199.01644098477846 161.73490566035616,199.28266041014285 161.6330188678985,199.42316453991225 161.33867924526567,199.7781205966785 161.0386792452773,200.01475657899937 160.76698113206658,200.28097073105164 160.6594339622534,200.35491885705778 160.62547169812024,200.39928768058962 160.51792452830705,200.49541999758003 160.4216981132049,200.6063416739271 160.3537735849095,200.7468421135418 160.2632075471629,200.86515796943786 160.07641509434325,201.03523652566219 159.6462264150614,201.31623462197967 159.34622641507303,201.48631165603365 159.23867924528895,201.5750472720756 158.88773584904266,201.78209643524315 158.7858490566141,201.8560423588351 158.64999999999418,201.93738274944553 158.53679245279636,201.97435561089878 158.4122641509457,202.04090669313882 158.39528301885002,202.06309036768653 158.18584905660828,202.18140313371987 158.09528301889077,202.24795394259127 157.98773584904848,202.30711014335247 157.94245283017517,202.35147724837225 157.60849056602456,202.53633976552737 157.13867924528313,202.78035724997972 156.8669811320433,202.94303491665414 156.64056603773497,203.05395120651156 156.58962264150614,203.09092324891753 156.23301886790432,203.2609942945528 156.1650943396089,203.29796618506225 155.97264150940464,203.4606421811477 155.92735849056044,203.45324782908574 155.87075471694698,203.40888169388927 155.72924528300064,203.13528966396552 155.6556603773497,203.02437355307848 155.50849056601874,202.75077943600627 155.29339622639236,202.4180278326312 155.1009433962172,202.1000631369243 155.04999999998836,201.99653931475768 155.02169811318163,201.97435561089878 154.95377358488622,201.83385859313785 154.9254716981086,201.8264640024172 154.89150943394634,201.76730723751098 154.83490566036198,201.64159888154973 154.58584905660246,201.21270918982555 154.54056603772915,201.16094639400035 154.529245282989,201.1165782409771 154.5066037735669,201.1017888479546 154.43301886794507,200.97607883208184 154.3990566037537,200.93171051631725 154.2179245282896,200.56936780894102 154.13867924528313,200.4510512586785 154.10471698112087,200.3623136636852 154.0481132075074,200.27357591247346 154.0198113207298,200.19962766711978 153.94622641510796,200.133074153513 153.92924528301228,200.09609994132188 153.79339622639236,200.10349478592616 153.77075471694116,200.133074153513 153.7594339622301,200.19962766711978 153.74245283016353,200.2366018033572 153.67452830186812,200.28836554853842 153.27830188677763,200.45844605119782 153.0518867924402,200.57676258410356 152.97264150940464,200.6063416739271 152.84811320755398,200.68028932256493 152.62735849054297,200.79860533466126 152.35566037733224,200.95389467906716 152.33867924526567,200.97607883208184 152.2367924528371,201.01305239871363 152.11226415092824,201.09439414980443 151.91415094339754,201.1905251409662 151.73867924525985,201.29405061869693 151.22924528300064,201.56025801359283 151.01415094337426,201.69336118375577 150.80471698113251,201.78209643524315 150.73113207545248,201.83385859313785 150.3632075471687,202.0113284452127 149.7858490566141,202.3218991826907 149.4575471697899,202.4993673163408 149.44056603772333,202.53633976552737 149.2594339622301,202.64725695037487 149.0783018867951,202.71380714410407 149.04999999998836,202.75817389112126 148.99905660375953,202.7877517007728 148.9707547169528,202.79514615048174 148.7952830188442,202.86169614894243 148.74433962261537,202.88387946224975 148.71603773583774,202.9134571981158 148.67641509431996,202.9282460595423 148.47264150943374,202.9800070403835 148.2858490566141,203.04655679477582 148.18396226415643,203.0687400267234 148.02547169811442,203.12050086328236 147.92924528301228,203.17226164668318 147.84999999997672,203.16486725231516 147.79339622639236,203.12789526415145 147.7820754716813,203.04655679477582 147.70849056603038,202.86169614894243 147.70849056603038,202.8321183826847 147.61226415092824,202.55112873760663 147.5386792452482,202.39584431430194 147.49905660375953,202.284926576187 147.48207547169295,202.20358674645104 147.44245283017517,202.12224678543134 147.36886792452424,201.87822611474257 147.25,201.59723115166707 147.25,201.5676526433599" stroke="#4dd2ff" stroke-linecap="round" stroke-linejoin="round" stroke-width="0.5"><title>2024-09-11 7.2km</title><desc>12379940467</desc></polyline><polyline fill="none" points="12.409785825031577,249.88589990716355 12.421199098229408,249.88589990716355 12.386959278577706,249.9008101572399 12.30706636607647,249.90826528067555 12.267119909869507,249.93063064434318 12.255706636613468,249.9753613421417 12.25,249.99027156597003 12.278533183067339,250.05736751914083 12.295653092878638,250.22137947613373 12.398372551804641,250.48976153656986 12.44973228123854,250.69850215910992 12.495385374117177,250.82523711874455 12.535331830353243,250.91469689993755 12.541038466995815,250.94451679198028 12.586691559845349,251.04888627638866 12.666584472317481,251.19798516796436 12.677997745544417,251.29489921289132 12.70082429194008,251.36944835244867 12.763597294659121,251.54091095835975 12.803543750866083,251.6825535442331 12.803543750866083,251.70491812697583 12.894849936623359,251.93601823886638 12.929089756245958,251.95838271003595 12.991862758935895,251.95092788741385 13.008982668747194,251.99565680679007 13.031809215171961,252.0254760645148 13.100288854446262,252.0478404963178 13.556819783028914,251.9211085859206 13.94487107230816,251.77946666499338 13.984817528544227,251.77201181610508 14.241616175859235,251.6229146088408 14.41281527405954,251.56327560343925 14.481294913362944,251.47381696407683 14.561187825864181,251.41417778369214 14.732386924064485,251.31726396625163 14.914999295491725,251.23525982251886 15.194624489260605,251.09361598980468 15.348703677620506,251.03397636317095 15.508489502622979,250.93706182061942 15.57696914189728,250.91469689993755 16.0563266169047,250.66868212269765 16.290298717765836,250.53449174214984 16.455791179381777,250.4673964190115 16.529977455269545,250.42266615436165 16.855255741858855,250.29593019065578 16.963681837398326,250.2064693200955 17.06640129632433,250.15428373952818 17.060694659739966,250.14682865220675 17.1577074820525,250.09464301039407 17.254720304365037,250.07973281719023 17.277546850789804,250.04245731498304 17.374559673131444,249.9753613421417 17.43733267582138,249.95299599814825 17.682718049909454,249.80389345340518 17.928103423997527,249.6846111026025 18.04794279273483,249.61005949114042 18.06506270254613,249.58769398637742 18.150662251689937,249.56532847177368 18.264794983813772,249.48332150064743 18.584366633789614,249.33421757768156 18.938178103446262,249.1478370586956 19.0180710159475,249.1180161122138 19.040897562372265,249.09565039087465 19.172150204336504,249.0434636694481 19.263456390006468,248.94654533030553 19.331936029309873,248.91672426567675 19.583028040040517,248.77507396971123 19.976785965904128,248.5961467156485 20.244997886446072,248.46195086159423 20.416196984617272,248.34266536044743 20.439023531071143,248.3202992977931 20.467556714109378,248.31284394140675 20.655875722150085,248.14137044224117 20.84419473016169,248.0146287883108 20.861314640002092,247.99226258127965 21.06104692124063,247.88788681824371 21.072460194438463,247.85806513227726 21.20941947301617,247.8058771397191 21.352085388207342,247.73132277165132 21.563230942672817,247.5971246334484 21.620297308749286,247.54493637287305 21.70019022122142,247.51511448562087 21.75725658729789,247.46292614080448 21.985522051574662,247.35109379283313 22.014055234612897,247.32127179181043 22.111068056925433,247.29890527955286 22.259440608730074,247.18707257058122 22.830104269407457,246.844117394794 22.938530364946928,246.76210603153595 23.018423277477268,246.69500572674588 23.161089192639338,246.63536093700532 23.26951528817881,246.53098238644088 23.39506129352958,246.46388177644621 23.457834296190413,246.40423671534154 23.549140481918585,246.35204722948401 23.67468648724025,246.2551237563348 23.828765675629256,246.18802278197472 23.994258137245197,246.09109899593386 24.25105678458931,245.97180792849758 24.365189516713144,245.8972508691113 24.44508242921438,245.86742801474247 24.564921797951683,245.8003265283478 24.71329434972722,245.74068068829365 24.74182753279456,245.74068068829365 24.764654079190223,245.71831348021806 24.89590672115446,245.6586675438666 24.918733267579228,245.66612328974952 24.941559814003995,245.68103477819386 24.975799633655697,245.77795934653113 25.1127589122043,246.03890918839897 25.146998731885105,246.0761876278193 25.266838100593304,246.28494638312623 25.44374383543618,246.45642614762983 25.69483584613772,246.79192836075526 25.774728758638958,246.8664841072714 25.93451458364143,247.08269515343636 26.020114132756134,247.23926119873795 26.305445963080274,247.70895643989934 26.345392419345444,247.8058771397191 26.379632238997146,247.84315428272748 26.505178244318813,248.0444503823819 26.630724249698687,248.245745684555 26.670670705934754,248.33521000734254 26.710617162199924,248.35757606338666 26.796216711285524,248.5215935071392 26.86469635058893,248.63342327886858 26.870402987202397,248.66324450976026 27.08154854166787,248.44704018925768 27.178561363980407,248.2904778656375 27.24133436664124,248.245745684555 27.28128082290641,248.17864733911483 27.326933915755944,248.14137044224117 27.35546709879418,248.05936117285455 27.418240101455012,247.99226258127965 27.578025926457485,247.83569885631732 27.948957305925433,247.55239184196762 28.057383401464904,247.44055969091642 28.108743130927905,247.35109379283313 28.125863040739205,247.33618279453003 28.14868958716397,247.33618279453003 28.194342680013506,247.27653875743272 28.228582499636104,247.26162773724354 28.47396787375328,246.9634064141719 28.77071297733346,246.6726389388059 28.92479216569336,246.56826046484275 28.970445258572,246.52352676748342 29.038924897875404,246.50861552629067 29.438389460352482,246.33713593795255 29.58676201212802,246.3073133417638 30.225905312108807,246.12092171902623 30.391397773695644,246.09109899593386 30.48270395945292,246.09109899593386 30.51123714246205,246.09855467834132 30.87646188531653,246.03145349721308 30.99059461746947,245.98671932722937 31.332992813870078,245.91216228975463 31.498485275456915,245.85997229839268 31.726750739762792,245.74813642212757 31.818056925490964,245.71831348021806 31.9493095674261,245.6959462622799 32.143335212080274,245.68103477819386 32.599866140662925,245.55428698675314 32.628399323672056,245.5617427479483 32.742532055824995,245.52446393105856 32.83383824152406,245.51700816440643 32.95938424687483,245.4797293146985 33.661300549516454,245.3157020509716 34.02652529240004,245.21877660077007 34.39745667183888,245.1516742576896 34.602895589661784,245.0771159947617 34.81974778076983,245.03983682227408 34.98524024235667,244.97273424286323 35.21921234327601,244.9279991406729 35.356171621824615,244.91308743121044 35.45318444413715,244.88326399911966 35.538783993251855,244.88326399911966 35.89830209946376,244.77888184893527 36.03526137804147,244.7565142174135 36.06379456110881,244.74905833804223 36.11515429057181,244.74905833804223 36.21787374946871,244.71177892483684 36.25211356912041,244.71923480967598 36.354833028046414,244.68195537459542 36.623044948559254,244.64467591212815 36.85131041283603,244.57011690518266 37.13093560660491,244.51046962082182 37.587466535158455,244.37626297499082 37.70730590392486,244.3613511035619 37.889918275323,244.29424762802228 38.10106382978847,244.24951192841036 38.31220938422484,244.1898642676606 38.63178103425889,244.12276056558403 38.8029801324592,244.13767250703313 38.9570593208482,244.05565677488994 39.04836550654727,244.04074480937925 39.29375088066445,243.95872892074476 39.385057066363515,243.95127292431425 39.47065661547822,243.91399292569622 39.61332253066939,243.89908091859252 39.65897562351893,243.86180088166657 39.721748626208864,243.8692568912411 39.82446808513487,243.8245208174012 40.15545300830854,243.7872407257746 40.674756939552026,243.6604882096217 40.720410032430664,243.6604882096217 41.039981682406506,243.56355960154542 41.165527687757276,243.54119143496428 41.296780329721514,243.5039111354199 41.49080597437569,243.48154294256528 41.71336480200989,243.41443830492062 41.75901789491763,243.4069822285892 41.838910807389766,243.369701830572 41.867443990428,243.37715791235678 42.12424263774301,243.33987749246808 42.19842891363078,243.33987749246808 42.74055939129903,243.21312386015416 42.9174651261128,243.16093109609938 43.12861068057828,243.12365051750749 43.59084824574529,243.0043524822213 43.9674862617976,242.9521595036822 44.09873890376184,242.9521595036822 44.566683105542324,243.03417701730723 45.13164012963534,243.24294827268022 45.297132591251284,243.31750922738865 45.462625052867224,243.369701830572 45.77078342961613,243.5262793184047 45.799316612654366,243.5262793184047 46.06182189658284,243.63812008571404 46.38710018317215,243.7499606068086 46.68384528675233,243.88416890711233 47.15178948853281,244.07802471496325 47.59120050727506,244.1451284761315 47.728159785823664,244.15258444411302 47.86511906440137,244.1973202290792 48.09909116529161,244.1749523415092 48.39012963225832,244.1302165368652 48.8580738340097,244.08548069280732 48.98361983936047,244.05565677488994 49.12057911793818,244.05565677488994 49.154818937560776,244.04074480937925 49.308898125978885,244.0183768528732 49.44015076791402,243.95872892074476 49.51433704383089,243.94381692678508 49.89668169649667,243.93636092814995 50.501585176825756,243.83943284641646 51.049422291107476,243.79469674630673 51.363287304498954,243.7425045797354 51.44888685361366,243.7425045797354 51.55160631253966,243.7201364919165 51.65432577143656,243.7201364919165 51.83123150625033,243.69031235954026 51.92253769200761,243.69031235954026 52.002430604508845,243.66794424874752 52.09373679017881,243.67540028676376 52.17933633929351,243.65303216941174 52.27064252499258,243.6604882096217 52.67010708752787,243.6008398573067 52.74429336338653,243.5933838083547 52.75,243.58592775828583" stroke="#4dd2ff" stroke-linecap="round" stroke-linejoin="round" stroke-width="0.5"><title>2024-09-10 7.1km</title><desc>12375090044</desc></polyline></svg>